<?xml version="1.0" encoding="UTF-8" standalone="no"?>
<svg
   xmlns:dc="http://purl.org/dc/elements/1.1/"
   xmlns:cc="http://creativecommons.org/ns#"
   xmlns:rdf="http://www.w3.org/1999/02/22-rdf-syntax-ns#"
   xmlns:svg="http://www.w3.org/2000/svg"
   xmlns="http://www.w3.org/2000/svg"
   version="1.1"
   id="svg5279"
   height="994.00494"
   width="1790.9407">
  <defs
     id="defs5281" />
  <metadata
     id="metadata5284">
    <rdf:RDF>
      <cc:Work
         rdf:about="">
        <dc:format>image/svg+xml</dc:format>
        <dc:type
           rdf:resource="http://purl.org/dc/dcmitype/StillImage" />
        <dc:title></dc:title>
      </cc:Work>
    </rdf:RDF>
  </metadata>
  <g
     transform="translate(-486.11075,-114.24454)"
     id="layer1">
    <path
       style="fill:#a30000;fill-opacity:1;stroke:#a30000;stroke-width:2;stroke-miterlimit:4;stroke-dasharray:none;stroke-opacity:1"
       id="path11205"
       d="m 1046.0776,533.71987 c 5.56,4.73 9.13,12.07 16.61,14.1 5.14,1.4 10.59,0.71 15.83,0.67 4.69,-0.03 9.15,1.99 13.82,2.39 7.14,0.61 15.83,1.34 22.26,-2.47 7.26,-4.3 12.94,-13.5 22.19,-13.63 7.95,-0.11 13.79,7.52 19.25,12.2 6.74,5.77 13.56,6.16 22.05,6.62 2.95,5.87 7.46,11.18 8.41,17.88 0.69,4.84 1.08,9.51 3.42,13.9 7.31,13.74 4.15,23.08 1.72,37.71 13.1,3.33 19.24,20.1 30.12,26.85 0.03,-0.15 0.06,-0.31 0.09,-0.46 -0.03,0.15 -0.06,0.31 -0.09,0.46 2.38,1.48 4.99,2.48 7.95,2.75 7.45,0.67 16.7,-2.68 19.02,7.27 1.63,6.98 -0.8,14.92 2.59,21.51 6.94,13.49 29.74,-3.72 39.55,4.91 11.8,10.38 17.4,30.07 35.78,31.98 4.4,-4.72 12.93,-6.79 18.48,-8.59 15.41,-4.99 29.8,-12.53 45.03,-18.03 7.52,-2.72 33.42,-5.23 20.12,-16.52 -5.82,-4.94 -9.83,-8.72 -13.37,-15.62 -3.32,-6.48 -8.37,-7.18 -12.7,-12.03 -7.49,-8.38 -2.72,-24.84 -15.71,-28.14 -14.3,-3.63 -19.07,-14.37 -18.16,-28.19 0.76,-11.64 -11.07,-21.18 -6.26,-32.96 1.33,-3.25 8.05,-4.54 7.98,-6.74 -0.16,-5.51 -2.74,-9.46 -6.72,-13.04 3.71,-2.86 11.19,-3.27 12.87,-8.29 1.07,-3.22 0.64,-6.94 -2.98,-6.42 -4.82,0.7 -9.24,-0.13 -13.01,-3.08 -4.42,-3.47 -10.69,-1.2 -12.93,-7.9 -3.6,-10.76 -0.33,-25.1 -16.32,-27.39 -4.91,-0.7 -7.46,3.79 -10.71,6.52 -4.13,3.46 -9.44,2.86 -14.26,1.23 -9.01,-3.04 -22.63,-8.79 -21.13,-19.91 1.57,-11.66 -0.29,-16.97 -11.63,-20.5 -13.49,-4.19 -17.4,-17.06 -28.87,-23.17 -11.76,-6.26 -13.71,-9.94 -13.87,-22.18 -0.48,-0.03 -0.95,-0.1 -1.42,-0.21 -0.01,0 -0.02,0 -0.03,-0.01 -9.93,-2.38 -14.99,-14.65 -24.32,-9.78 -5.88,3.07 -4.96,12.36 -13.17,12.84 -4.62,0.27 -7.62,-5.44 -11.93,-6.14 -12.72,-2.05 -18.61,11.66 -31.53,12.11 -10.68,0.37 -23.09,-3.32 -32.59,-4.95 -11.16,-1.92 -19.66,2.79 -30.42,4.87 -9.41,1.82 -25.1,1.38 -32.77,6.23 0.33,4.36 -0.25,8.82 -1.69,12.8 -3.41,-1.54 -8.65,-1.8 -11.95,0.75 11.03,10.49 3.22,28.99 -6.09,37.3 -1.34,1.2 -6.42,1.58 -8.66,3.28 -1.75,1.33 -1.61,7.61 -3.64,9.56 -4.65001,4.47 -13.58001,1.25 -17.29001,8.98 7.31,3.68 7.97,9.98 18.53001,8.35 0.98,6.49 1.3,15.53 -0.95,22.12 14.44,-0.21 31.72,-1.83 43.5,8.21 z" />
    <path
       style="fill:#a30000;fill-opacity:1;stroke:#a30000;stroke-width:2.20000005;stroke-miterlimit:4;stroke-dasharray:none;stroke-opacity:1"
       id="path11207"
       d="m 765.96759,721.49987 c 0.12,0 0.23,0 0.35,0 0.19,-1.59 -0.34,-3.2 -0.97,-4.64 -0.64,-1.45 -0.66,-2.7 -0.66,-4.4 -3.66,0.48 -7.1,-0.23 -7.78,-3.56 -3.16,-0.29 -9.54,-0.69 -10.44,3.59 -1.02,4.83 -0.53,6.62 -6.89,7.12 -10.63,0.84 -16.1,5.19 -20.46,-6.76 -2.23,-6.12 -6.74,-18.53 -14.85,-18.16 -12.16,0.56 -23.27,8.43 -32.74,15.29 -4.45,3.22 -9.28,5.84 -13.9,8.8 -4.63,2.97 -7.76,7.03 -11.98,10.41 -7.31,5.85 -16,-5.74 -23.14,-0.42 -3.02,2.25 -2.38,6.97 -5.17,9.65 -4.2,4.04 -9.11,5.52 -14.85,4.93 -5.01,-0.52 -11.45,-0.62 -15.43,-4.1 -5.5,-4.81 -2.66,-9.84 -4.78,-15.65 -1.27,0.29 -3.18,-0.47 -4.32,-0.35 -0.9,-12.53 -8.61,-11.47 -17.78,-6.85 -12.14,6.11 -19.91,-3.82 -28.29,-10.7 -8.77,-7.19 -19.58,-9.28 -30.13,-4.52 -8.08,3.65 3.28,8.44 2.2,14.21 5.72,0.36 12.17,-0.88 15.99,4.46 5.48,7.67 -0.42,15.15 -2.16,22.94 -0.76,3.4 0.98,7.1 -1.58,10.02 -2.78,3.16 -7.54,2.9 -10.68,5.52 -6.68,5.56 -8.83,13.27 -8.22,21.72 10.02,3.73 -1.7,18.38 3.75,24.8 2.04,2.39 5.03,2.23 7.29,4.15 2.92,2.48 4.74,6.02 6.73,9.22 1.52,2.46 6.41,10.66 10.35,7.92 3,-2.08 4.1,-5.54 8.41,-5.33 6.16,0.3 5.97,9.09 10.72,11.21 4.55,2.03 8.35,-4.15 13.31,-4.49 7.5,-0.51 13.98,0.49 21.46,-1.2 7.27,-1.64 12.65,0.62 19.65,1.97 2.93,0.56 5.67,0.17 8.61,0.23 3.59,0.08 5.25,2.48 8.33,3.71 5.52,2.22 8.48,-2.72 13.47,-2.93 0.07,0 0.14,0.01 0.22,0.01 0.28,-6.65 1.45,-13.54 6.35,-18.29 7.67,-7.46 12.48,-3.3 20.95,-2.06 6.81,0.99 10.11,-10.75 13.1,-14.87 7.69,-10.6 16.66,-0.82 26.37,-3.99 0.2,-3.5 0.25,-7.17 -0.22,-10.48 -10.62,2 -3.96,-18.17 7.35,-17.86 8.08,0.22 13.29,-1.05 20.28,-5.28 8.57,-5.18 16.17,-3.88 25.58,-5.38 2.04,-7.51 -7.05,-11.34 -5.59,-18.49 1.96,-9.54 14.22,-11.15 22.23,-11.05 -0.01,-0.03 -0.03,-0.05 -0.04,-0.07 z" />
    <path
       style="fill:#a30000;fill-opacity:1;stroke:#a30000;stroke-width:2;stroke-miterlimit:4;stroke-dasharray:none;stroke-opacity:1"
       id="path11209"
       d="m 766.31759,721.49987 c 0,0.02 0,0.05 -0.01,0.07 -0.1,0 -0.2,0 -0.3,0 1.43,2.1 3.58,3.65 5.92,5.24 0.34,0.23 0.68,0.46 1.02,0.69 0.25,0.17 0.5,0.34 0.75,0.51 2.5,1.72 5.05,3.65 7.03,6.45 5.09,7.2 1.77,15.59 4.79,23.26 2.11,5.38 3.68,10.59 4.15,16.38 8.4,2.59 13.07,-0.05 19.89,7.39 4.35,4.74 1.84,8.91 1.06,14.54 8.7,3.12 9.85,13.11 14.62,19.8 3.1,4.34 9.41,6.46 11.32,11.62 1.35,3.64 -0.13,7.86 0.08,11.61 7.85,7.59 17.65,-5.75 25.88,-5.63 12.46,0.18 14.34,14.17 12.48,23.74 -0.95,4.89 -7.74,5.51 -6.19,10.56 1.36,4.4 7.11,7.36 10.4,10.21 10.41,9.02 -4.29,11.66 -3.59,19.12 8.43,1.87 4.36,35.55 -11.33,21.04 -2.46,-2.28 -6.93,-6.57 -10.76,-4.73 -3.33,1.6 -4.38,5.63 -8.14,7.05 -6.1,2.31 -9.75,4.01 -14.91,8.07 -4.75,3.74 -10.6,3.55 -15.82,6.13 -0.98,15.54 -3.68,37.18 16.01,38.76 2.17,-2.23 4.35,-2.89 5.52,1 2.45,8.21 31.23,1.1 38.76,3.2 10.6,2.96 38.77,10.25 37.67,25.16003 5.49,-0.44 9.79,4.03 14.07,6.7 7.14,4.46 14.41,3.84 22.45,4.04 6.9,0.18 13.86,1.01 20.73,-0.06 8.26,-1.28 15.93,-5.69 24.09,-7.68 16.43001,-4.02 44.84001,-14.47003 63.07001,-7.40003 -0.65,-4.61 0.62,-10.47 -4.07,-13.06 -3.32,-1.84 -6.8,-0.58 -9.15,-4.31 -4,-6.34 -3.76,-15.12 -4.43,-22.33 -0.25,-2.66 -20.57,-13.45 -22.36,-14.06 -4.86,-1.67 -27.33001,-5.13 -13.6,-13.82 6.53,-4.13 24.27,-1.63 24.41,-11.5 0.25,-17.52 -18.51,-9 -26.9,-7.12 -3.12001,-10.85 8.24,-21.24 16.58,-26.05 3.84,-2.22 8.09,-3.28 9.15,-8.1 1,-4.53 0.74,-9.69 3.07,-13.84 5.75,-10.26 21.53,-5.58 17.7,-22 -1.56,-6.7 -6.52,-8.33 -10.77,-12.79 -4.6,-4.83 -0.85,-11.52 -4.29,-16.73 -15.98,-0.51 0.06,-16.17 0.77,-21.17 1.23,-8.65 -14.09,-7.02 -15.9,-14.83 -6.08,0.48 -9.39,-2.21 -11.61,-7.67 -2.67,-6.58 -8.66001,-9.7 -12.27001,-15.53 8.76001,-5.46 2.88,-18.51 2.96,-26.51 0.08,-8.51 11.01001,-14.64 7.56001,-23.34 -1.47,-3.71 -6.13001,-8.59 -10.29001,-9.17 -5.52,-0.78 -5.64,3.62 -10.06,5.09 -3.56,1.19 -6.32,-1.09 -9.8,1.28 -1.74,1.28 -3.7,1.95 -5.9,2.01 -5.2,0.63 -10.8,-1.27 -16.01,-1.6 -10.75,-0.68 -22.16,-0.38 -32.47,-4.07 -9.78,-3.5 -7.4,-15.89 -11.06,-23.65 -4.51,-9.56 -16.47,-15.36 -26.6,-16.43 -8.02,-0.84 -19.35,1.95 -25.82,-4.29 -2.03,8.1 -10.99,13.67 -16.45,19.22 -5.95,6.04 -8.12,10.51 -17.16,13 -7.96,2.2 -11.28,8.62 -16.67,14.46 -5.09,5.52 -4.66,13.62 -12.89,5.31 -8.88,-8.96 -11.71,-2.06 -18.97,4.22 -1.59,1.37 -5.41,2.99 -9.03,3.46 0,1.69 0.02,2.95 0.66,4.4 0.62,1.48 1.15,3.09 0.96,4.68" />
    <path
       style="fill:#a30000;fill-opacity:1;stroke:#a30000;stroke-width:2;stroke-miterlimit:4;stroke-dasharray:none;stroke-opacity:1"
       id="path11213"
       d="m 2055.8976,735.07987 c -2.2,-3.22 -2.24,-7.82 -3.88,-11.39 -2.85,-6.21 -7.24,-11.51 -11.46,-16.82 -6.47,-8.14 -11.73,-17.56 -19.52,-24.56 -8.88,-7.98 -21.47,-7.5 -30.89,-14.5 -16.38,-12.17 0.69,-31.2 0.58,-46.71 -0.06,-8.19 7.27,-17.39 3.28,-24.81 -3.79,-7.05 -10.97,-14.86 -18.36,-18.22 -1.9,-6.54 5.35,-12.28 9.33,-16.27 7.21,-7.23 8.71,-15.55 10.1,-25.36 1.42,-9.96 2.05,-20.12 4.01,-29.99 1.48,-7.48 2.41,-16.28 -5,-20.25 -0.52,0.12 -1.05,1.23 -1.6,1.29 -9.81,1.05 -14.58,-2.56 -18.21,8.52 -2.41,7.33 0.27,19.19 -10.72,14.22 -5.96,-2.69 -8.01,-9.14 -11.98,-13.68 -1.66,1.7 -3.02,2.02 -4.28,1.69 -4.6,3.67 -7.2,11.06 -12.22,14.17 -5.79,3.58 -12.08,6.67 -16.4,12.17 -4.51,5.75 4.21,6.83 5.51,10.84 1.76,5.45 -4.62,10.56 -7.95,13.81 -6.69,6.54 -18.11,34.39 -28.5,24.24 -5.29,-5.17 -6.65,-9.97 -15.1,-10.33 -5.8,-0.25 -8.14,3.45 -6.98,8.94 13.44,3.83 3.32,17.45 -1.14,24.55 -3.83,6.09 -5.01,13.37 -8.98,19.37 -3.07,4.64 -5.48,8.31 -5.15,14.11 -4.98,1.98 -8.92,8.05 -11.86,12.77 0.15,0.01 0.3,0.02 0.45,0.03 -2.21,13.19 -13.43,24.33 -19.85,35.61 -3.31,5.81 -8.94,9.21 -13.73,13.64 -5.92,5.47 -8.94,13.11 -13.44,19.63 -3.39,4.91 -23.64,15.54 -10.26,21.96 2.73,1.31 6.36,1.85 7.08,5.23 0.59,2.75 1.25,6.6 0.22,9.32 -0.99,2.6 -4.4,3.06 -3.69,6.4 4.29,1.61 -0.7,9.3 3.6,10.46 3.5,0.94 8,0.19 10.02,4.07 1.87,3.6 1.93,8.01 5.69,10.52 3.19,2.13 8.05,1.27 10.55,4.62 0.18,0.24 0.36,0.5 0.54,0.78 8.26,-2.78 17.44,-1.05 25.94,-2.68 6.73,-1.29 12.43,-4.57 17.65,-8.9 5.92,-4.9 11.87,-12.54 19.99,-13.59 7.85,-1.01 16.47,3.44 23.33,6.7 11.62,5.52 29.31,20.65 41.76,10.02 11.28,-9.64 14.18,-23.25 30.52,-26.67 7.93,-1.66 16.13,-1.42 24.17,-2.12 7.89,-0.68 15.62,-2.83 23.55,-3.1 9.83,-0.33 11.69,4.16 18.83,9.12 4.11,2.85 8.01,0.84 11.63,-1.78 3.19,-6.79 8.07,-9.42 2.82,-17.07 z" />
    <path
       style="fill:#a30000;fill-opacity:1;stroke:#a30000;stroke-width:2;stroke-miterlimit:4;stroke-dasharray:none;stroke-opacity:1"
       id="path11215"
       d="m 2265.5276,622.48987 c 0.39,-3.63 0.91,-9.53 0,-13 -2.78,-10.58 -11.68,-5.61 -18.97,-10.03 -11.96,-7.24 10.56,-10.09 7.82,-18.82 -4.67,0.57 -7.12,-1.65 -6.85,-6.15 0.37,-6.21 3.98,-2.59 6.6,-6.98 4.33,-7.27 -1.98,-14.56 11.03,-15.17 0.54,-3.05 0.36,-6.48 0.22,-9.7 -10.97,-0.76 -12.06,-2.34 -20.73,-8.22 -6.94,-4.71 -16.01,-3.63 -22.87,-8.18 -2.61,-1.73 -3.47,-5.64 -6.2,-6.8 -2.82,-1.19 -8.92,0.08 -12.05,0.05 -12.76,-0.13 -9.92,-6.95 -17.25,-14.8 -2.07,-2.22 -5.78,-4.78 -8.7,-5.25 -6.54,-1.06 -6.46,2.41 -10.27,5.02 -5.15,3.53 -13.99,14.01 -20.55,13.81 -4.69,-0.15 -15.07,-6.98 -19.22,-9.78 -5.42,-3.66 -10.55,-9.8 -13.18,-15.82 -8.39,-1.37 -9.88,7.97 -16.83,9.87 -5.52,1.51 -11.68,-1.28 -16,-4.05 -5.24,-3.35 -7.55,-6.34 -10.05,-12 -4.18,-9.46 -1.98,-6.7 -11.95,-5.95 -15.31,1.14 -8.96,-18.9 -24,-16.05 -9.87,1.87 -18.68,7.53 -27.04,12.83 -4.73,3 -8.96,7.6 -14.39,8.89 7.41,3.97 6.49,12.77 5,20.25 -1.96,9.86 -2.59,20.03 -4.01,29.99 -1.4,9.82 -2.89,18.13 -10.1,25.36 -3.98,3.99 -11.23,9.73 -9.33,16.27 7.39,3.36 14.57,11.17 18.36,18.22 3.99,7.42 -3.33,16.62 -3.28,24.81 0.11,15.51 -16.96,34.54 -0.58,46.71 9.42,7 22.01,6.51 30.89,14.5 7.79,7.01 13.05,16.42 19.52,24.56 4.22,5.31 8.61,10.61 11.46,16.82 1.64,3.57 1.68,8.18 3.88,11.39 5.24,7.65 0.37,10.28 -2.8,17.08 2.07,-1.5 4.04,-3.2 5.9,-4.31 8.4,-5.01 11.64,-0.29 18.86,2.98 5.72,2.59 7.69,-2.66 11.61,-5.41 9.91,-6.96 34,-1.35 44.79,2 5.37,-6.74 10.59,-13.27 16.26,-19.87 2.48,-2.89 4.56,-10.18 6.42,-11.85 3.23,-2.9 7.75,-1.66 11.57,-2.15 9.31,-1.19 14.67,-2.63 19,-10.03 5.37,-9.17 9.12,-15.16 18.5,-22.3 3.25,-2.47 8.66,-4.76 11,-7.97 2.45,-3.35 2.76,-6.36 4.73,-9.7 2.86,-4.87 14.41,-15.1 20.03,-15.85 11.2,-1.49 7.83,15.82 20.34,10.62 1.38,-8.03 -2.57,-17.34 -0.7,-24.88 1,-4.03 3.52,-5.51 4.11,-10.96 z" />
    <path
       style="fill:#a30000;fill-opacity:1;stroke:#a30000;stroke-width:2;stroke-miterlimit:4;stroke-dasharray:none;stroke-opacity:1"
       id="path11217"
       d="m 1294.2276,808.63987 c -9.15,-7.9 -19.9,3.4 -26.48,8.6 -8.64,6.83 -21.22,7.41 -30.7,1.8 -9.94,-5.89 -21.26,-3.17 -31.79,-0.17 -3.29,0.94 -6.47,2.31 -8.98,4.7 -4.16,3.95 -3.26,8.97 -6.22,12.98 -2.5,3.39 -7.57,2.55 -9.79,7.15 -1.64,3.4 1.28,9.15 2.13,12.46 2.98,11.67 -5.48,15.85 -16.1,15.72 -13.89,-0.18 -28.9,2.45 -42.58,0.25 -0.71,-3.8 -3.92,-4.32 -6.59,-6.29 -4.31,-3.17 -0.7,-7.44 -2.48,-11.37 -2.64,-5.83 -12.48,-10.09 -18.03,-12.42 -0.01,-6.27 5.93,-7.94 10.67,-9.93 6.74,-2.83 12.73,-8.93 15.43,-15.73 -11.3,-4.96 -18.78,-17.54 -25.86,-27.04 -7.06,-9.47 -6.56,-22.4 -21.11,-18.08 -5.2,1.55 -9.43,-2.21 -13.38,-4.97 -5.78,-4.05 -14.17,-3.16 -20.88,-3.01 -13.54,0.31 -16.43,7.59 -22.93,16.51 3.85,4.8 15.6,4.29 14.55,11.69 -0.71,5 -16.75,20.66 -0.77,21.17 3.43,5.21 -0.32,11.9 4.29,16.73 4.24,4.46 9.2,6.09 10.77,12.79 3.84,16.41 -11.95,11.73 -17.7,22 -2.32,4.15 -2.07,9.31 -3.07,13.84 -1.06,4.82 -5.31,5.89 -9.15,8.1 -8.34,4.81 -19.70001,15.21 -16.58,26.05 8.39,-1.88 27.15,-10.4 26.9,7.12 -0.14,9.87 -17.88,7.36 -24.41,11.5 -13.72001,8.69 8.74,12.15 13.6,13.82 1.79,0.61 22.11,11.41 22.36,14.06 0.67,7.21 0.43,15.99 4.43,22.33 2.36,3.73 5.83,2.47 9.15,4.31 4.69,2.59 3.42,8.45 4.07,13.06 4.34,1.68003 8.11,4.35003 11,8.35003 10.41,14.4 14.46,-0.09 26.52,-1.56 7.06,-0.86 14.14,-1.28 21.22,-2.16 7.15,-0.9 15.42,0.55 21.43,-4.18003 3.24,-2.55 6.33,-5.44 9.37,-8.44 7.97,-7.85 15.67,-16.43 25.18,-21.69 6.03,-3.34 24.59,-4.36 13.73,-15 -9.66,-9.47 -7.99,-10.64 -0.29,-20.83 9.13,-12.1 19.67,-22 30.14,-32.83 10.1,-10.45 15.62,-22.68 28.7,-29.92 11.92,-6.6 16.37,-18 28.26,-24.72 9.9,-5.6 20.14,-13.84 29.1,-21.63 -4.97,-3.95 -2.51,-11.13 -7.13,-15.12 z" />
    <path
       style="fill:#a30000;fill-opacity:1;stroke:#a30000;stroke-width:2;stroke-miterlimit:4;stroke-dasharray:none;stroke-opacity:1"
       id="path11219"
       d="m 1346.3176,319.23987 c 4.08,5.04 8.28,10.78 13.77,14.4 4.41,2.91 9.47,4.43 13.41,8.1 7.66,7.12 9.59,13.92 21.22,14.97 12.51,1.13 22.64,11.21 32.02,18.77 8.22,6.62 17.73,12.32 24.58,20.46 8.34,9.92 6.02,21.75 4.66,33.63 -1.18,10.34 2.15,14.92 5.83,24.09 0.03,0.07 0.05,0.14 0.08,0.21 4.42,-1.93 6.81,-7.63 11.65,-9.16 7.32,-2.31 13.13,-0.42 19.12,4.1 4.89,3.68 10.08,7.05 16.23,3.47 4.19,-2.45 7.66,-8.05 13.23,-6.66 5.02,10.3 11.56,19.63 23.65,16.53 10.06,-2.58 19.55,1.55 18.66,12.99 -0.44,5.6 -11.61,19.42 -9.52,22.97 4.69,8 14.51,12.34 15.65,22.41 1.35,11.94 -10.55,23.25 -5,34.83 5.35,11.18 18.3,12.17 25.49,21.4 10.01,12.87 13.14,2.57 24.45,-1.22 11.78,-3.95 11.54,-3.53 12.18,-15.85 11.56,-2.32 11.4,-15.07 12,-25 3.85,-0.78 6.99,-2.09 10.96,-2.13 3.07,-1.84 5.11,-4.93 7.56,-8.25 -0.03,0.03 -0.07,0.06 -0.11,0.09 -7.44,-3.91 -9.15,-17.43 -13.46,-24.29 -4.24,-6.74 -5.84,-16.91 -3.35,-24.65 2.57,-8.01 13.39,-12.1 17.82,-19.38 8.49,-13.95 0.65,-14.84 -5.7,-25.92 -4.38,-7.64 -8.07,-20.03 -9.16,-28.82 -1.34,-10.84 10.57,-17.89 8.03,-29.68 -2.35,-10.9 -9.7,-18.56 -15.43,-27.45 -4.46,-6.93 -3.86,-21.34 -4.66,-29.51 -6.16,-1.86 -19.43,-5.44 -20.74,-13.04 -1.79,-10.42 3.35,-22.39 5.54,-32.97 -0.14,-0.05 -0.29,-0.1 -0.42,-0.17 -8.98,-4.48 0.78,-13.65 -12,-15.8 -8.73,-1.47 -40,1.85 -38.17,-11.05 -9.15,-3.62 -16.59,-6.67 -26.68,-6.02 -0.53,6.49 -8.14,11.99 -9.32,3 -4.97,-0.35 -10.5,-2.53 -14.83,-2.17 -3.83,0.32 -11.49,6.64 -9.15,-3.83 -3.93,-0.25 -14.45,-2.03 -17.9,-0.25 -5.6,2.89 -5.59,15.95 -13.19,5.1 -4.75,-6.79 -1.22,-14.93 -4.26,-22.1 -2.08,-4.9 -7.22,-10.67 -10.28,-15.21 -7.58,-11.25 -21.05,-26.74 -36.39,-23.8 0.25,4.72 -0.41,9.77 -1.99,14.17 -8.29,-0.66 -12.2,10.46 -16.61,16.35 -5.84,7.8 -10.09,11.6 -19.13,12.75 -16.85,2.15 -37.77,-7.05 -36.22,17.44 -7.51,0.32 -15.25,-2.78 -22.35,1.99 -3.59,2.41 -5.54,7.92 -8.88,10.99 -3.32,3.05 -7.78,3.96 -10.21,6.22 -9.96,9.3 -12.65,20.23 -14.56,31.91 19.93,-2.48 40.77,17.31 51.88,31.04 z" />
    <path
       style="fill:#a30000;fill-opacity:1;stroke:#a30000;stroke-width:2;stroke-miterlimit:4;stroke-dasharray:none;stroke-opacity:1"
       id="path11221"
       d="m 1758.9776,992.91987 c -8.85,1.48 -22.65,-5.99 -17.63,-15.59 2.46,-4.7 3.42,-9.71 3.36,-15.02 -0.08,-6.39 -6.24,-11.89 -5.41,-18.06 9.21,0.6 14.66,-10.84 12.63,-18.79 -2.7,-10.58 -18.43,-7.71 -12.44,-22.73 -3.03,-0.29 -5.88,-1.36 -8.3,-3.58 -4.88,-4.48 -10.17,-14.38 -18.11,-10.99 -4.41,1.88 -9.26,5.18 -12.76,9.27 -2.48,2.89 -4.28,6.18 -4.74,9.67 -1.24,9.28 -4.1,21.66 -11.46,28.34 -6.12,5.55 -16.09,1.81 -23.63,3.21 -0.4,0.07 -0.79,0.16 -1.18,0.26 -0.52,5.76 -6.76,8.33 -11.28,10.42 -6.47,2.99 -9.36,10.03 -14.87,14.39 -4.12,3.26 -11.75,7.86 -16.92,4.19 -3.21,-2.28 -6.59,-1.12 -9.64,1.05 2.2,4.98 -0.11,10.76 2.74,15.6 3.59,0.61 8.66,-0.5 8.94,4.74 0.17,3.09 -0.47,6.18 -0.4,9.28 0.14,6.40003 8.37,7.50003 7.36,13.57003 -1.26,7.61 -9.98,10 -12.71,16.68 -1.34,3.27 1.29,5.05 2.08,7.96 0.87,3.18 -0.16,6.55 0.01,9.77 3.73,1.48 8.67,3.24 10.68,7.03 2.43,4.56 -2.65,8.55 -4.64,12.1 -2.4,4.27 2.56,8.44 3.88,12.29 1.35,3.95 2.5,7.8 4.24,11.51 1.15,-0.14 2.36,0.51 3.52,2.48 3.73,6.31 11.62,5.65 18.12,4.6 -0.12,-4.87 5.68,-1.68 8.29,-4.56 5.23,-5.79 9.91,-2.25 16.54,-5.11 3.15,-1.36 10.77,-4.95 12.79,-7.76 4.55,-6.34 2.3,-9.68 11.23,-11.42 4.62,-0.9 4.99,-8.76 6.4,-12.32 2.37,-5.98 4.95,-14.58 10,-18.88 7.63,-6.5 19.32,4.2 28.08,2.7 1.87,-7.8 9.89,-13.1 1.82,-20.08 2.68,-2.08 5.51,-1.96 6.96,-5.57 0.99,-2.47 3.54,-7.06 6.7,-6.14 -0.08,-4.8 0.39,-9.89003 -0.25,-14.51003 z" />
    <path
       style="fill:#a30000;fill-opacity:1;stroke:#a30000;stroke-width:2;stroke-miterlimit:4;stroke-dasharray:none;stroke-opacity:1"
       id="path11223"
       d="m 2179.7176,884.22987 c -5.05,-5.72 -9.35,-9.58 -14.98,-13.95 -10.48,-8.12 -10.39,-14.24 -13.5,-25.82 -1.92,-7.18 -7.23,-20.85 -13.67,-25.03 -6.41,-4.16 -10.29,1.47 -12.05,-7.95 -1.74,-9.32 5.91,-8.87 8.04,-14.97 1.46,-4.19 -3.09,-12.13 -4.26,-16.03 -1.6,-5.33 -0.21,-13.07 -8.63,-11.15 -1.42,-6.37 9.06,-16.25 12.1,-20.05 0.5,-0.63 1,-1.25 1.5,-1.88 -10.79,-3.35 -34.88,-8.96 -44.79,-2 -3.92,2.75 -5.89,8 -11.61,5.41 -7.22,-3.26 -10.46,-7.98 -18.86,-2.98 -5.13,3.05 -11.15,10.39 -17.54,6.09 -7.21,-4.85 -9,-9.45 -18.83,-9.12 -7.93,0.27 -15.66,2.42 -23.55,3.1 -8.04,0.69 -16.24,0.45 -24.17,2.12 -16.33,3.42 -19.24,17.03 -30.52,26.67 -12.45,10.63 -30.14,-4.5 -41.76,-10.02 -6.86,-3.26 -15.48,-7.71 -23.33,-6.7 -8.12,1.05 -14.07,8.7 -19.99,13.59 -5.22,4.32 -10.93,7.61 -17.65,8.9 -8.51,1.62 -17.68,-0.1 -25.94,2.68 3.94,5.99 8.86,21.06 3.35,26.21 -8.74,8.18 -3.04,19.1 0.69,29.3 1.4,3.81 14.74,-6.9 18.26,-8.54 12.13,-5.64 17.77,-2.24 21.23,10.69 3.08,11.49 -11.13,13.36 -14.5,22.42 -3.36,9.04 -18.88,7.1 -18.47,19.48 -7.61,1.07 -11.85,-8.43 -19.56,-6.39 -3,0.79 -4.99,3.36 -7.85,4.43 -5.08,1.9 -7.35,-2.77 -11.86,-2.62 -8.34,0.28 -19.32,13.71 -27.14,17.33 -5.8,2.68 -13.56,5.93 -20.4,5.27 -5.99,15.03 9.73,12.15 12.44,22.73 2.03,7.95 -3.42,19.38 -12.63,18.79 -0.83,6.17 5.33,11.67 5.41,18.06 0.06,5.3 -0.9,10.31 -3.36,15.02 -5.02,9.59 8.79,17.06 17.63,15.59 0.64,4.62 0.17,9.70003 0.25,14.52003 0.42,0.12 0.85,0.33 1.29,0.67 4.57,3.51 11.9,9.33 17.29,3.49 3.97,-4.3 4.3,-11.37 5.33,-16.83003 1.64,-8.74 8.08,-13.42 8.16,-23.15 3.87,-3.06 9.04,0.13 13.19,-2.28 3.47,-2.01 5.45,-1.88 9.38,-1.85 6.99,0.04 12.43,-6.28 19.88,-6.93 1.73,-6.76 6.28,-12.24 9.5,-18.3 3.47,-6.54 6.39,-12.98 13.19,-16.56 6.83,-3.59 3.37,-7.92 6.41,-13.33 5.92,-10.55 20.78,-16.38 30.93,-21.62 6.38,-3.3 13.22,-7.45 20,-10.03 16.65,-6.33 34.8,-3.47 52.75,-4.45 9.24,-0.5 18.4,-1.79 28,-1.78 11.89,0.01 16.75,-4.01 25.5,-12.02 7.19,-6.59 11.08,-13.11 21.51,-14.98 9.11,-1.63 19.26,-2.28 28.77,-2 8.41,0.25 19.5,2.77 25.27,8.95 5.55,5.93 6.11,16.53 12.67,21.62 5.77,4.47 18,2.61 16.33,13.69 -1.3,8.67 -20.72,9.34 -14.6,18.14 3.4,4.88 9.96,3.11 14.85,3.92 6.79,1.12 12.98,4.35 19.68,5.8 4.53,0.98 8.87,0.21 13,1.85 9.25,3.68 25.72,22.29 35.5,15.04 24.15,-17.93 -0.41,-35.69 -13.28,-50.26 z" />
    <path
       style="fill:#a30000;fill-opacity:1;stroke:#a30000;stroke-width:2;stroke-miterlimit:4;stroke-dasharray:none;stroke-opacity:1"
       id="path11225"
       d="m 1912.9376,486.60987 c -5.88,0.17 -12.63,3.85 -17.46,4.93 -11.86,2.64 -25.36,-0.35 -37.42,-0.4 -11.17,-0.04 -23.65,7.32 -30.58,15.89 -8.07,9.98 -20.98,9.34 -31.85,4.21 -11.68,-5.51 -15.77,-14.56 -23.49,-24 -8.41,-10.29 -23.76,-3.95 -35.14,-7.59 -14.15,-4.52 -27.78,-8.3 -41,-15.22 -6.56,-3.44 -13.72,-6.52 -19.78,-10.81 -4.72,-3.34 -9.39,-7.73 -14.22,-11.12 1.45,3.23 1.12,6.92 -2.93,13.57 -4.43,7.28 -15.25,11.37 -17.82,19.38 -2.48,7.74 -0.88,17.9 3.35,24.65 4.31,6.86 6.02,20.38 13.46,24.29 0.03,-0.04 0.07,-0.06 0.11,-0.09 0.44,-0.6 0.89,-1.2 1.36,-1.8 -0.47,0.61 -0.92,1.21 -1.36,1.8 1.55,-1.54 3.75,-1.7 5.22,-3.31 7.88,4.02 9.3,13.85 16.97,17.94 6.8,3.63 13.96,-1.96 20.41,-3.79 12.56,15.45 13.69,33.72 14.8,52.45 -0.13,9.96 -1.29,19.91 -4.72,29.31 -2.86,7.86 -7.92,14.43 -11.15,22.05 -4.83,11.38 -6.34,28.89 3.39,38.28 0.39,-0.02 0.77,-0.06 1.14,-0.12 -0.02,-0.31 -0.04,-0.63 -0.04,-0.94 l 0.09,0.93 0.09,0.96 0.07,0.37 c 0.01,0.01 0.02,0.02 0.03,0.03 0.04,-0.82 0.01,-1.38 -0.11,-1.35 5.64,-1.16 9.24,-6.53 12.89,-10.52 4.45,-4.86 9.49,-8.48 14.38,-12.8 4.51,-3.99 5.54,-12.17 12.26,-12.93 14.91,-1.69 31.29,0.65 46.34,0.65 16.13,0 32.2,0.13 48.29,1.41 2.94,-4.72 6.88,-10.79 11.86,-12.77 -0.33,-5.81 2.08,-9.47 5.15,-14.11 3.97,-6 5.16,-13.27 8.98,-19.37 4.46,-7.09 14.57,-20.72 1.14,-24.55 -1.16,-5.48 1.18,-9.18 6.98,-8.94 8.45,0.36 9.81,5.15 15.1,10.33 10.39,10.15 21.81,-17.7 28.5,-24.24 3.33,-3.26 9.71,-8.37 7.95,-13.81 -1.3,-4.01 -10.02,-5.1 -5.51,-10.84 4.32,-5.5 10.61,-8.58 16.4,-12.17 5.02,-3.11 7.63,-10.5 12.22,-14.17 -1.95,-0.5 -3.7,-2.53 -6.04,-3.49 -3.95,-1.63 -5.85,-1.98 -10.73,-2.27 -2.1,-0.13 -11.04,0.07 -11.79,-2.2 -0.19,-0.58 0.83,-1.09 0.98,-1.55 -0.24,-0.2 -0.49,-0.38 -0.73,-0.55 -0.11,0.18 -0.2,0.36 -0.27,0.55 -1.74,-1.5 -3.7,-2.1 -5.77,-2.16 z" />
    <path
       style="fill:#a30000;fill-opacity:1;stroke:#a30000;stroke-width:2;stroke-miterlimit:4;stroke-dasharray:none;stroke-opacity:1"
       id="path11227"
       d="m 2026.5476,360.48987 c -1.2,-6.24 -6.49,-13.82 -10.25,-18.78 -4.45,-5.86 -12.66,-8.31 -14.8,-15.2 -2.38,-7.63 -1.31,-15.29 -4.25,-22.8 -3.57,-9.13 -6.28,-7.85 -14.55,-11.4 -0.36,-5.01 -1.52,-12.93 -0.22,-17.83 1.62,-6.08 12.03,-10.72 10.89,-16.84 -9.92,2.17 -13.4,10.02 -23.85,10.84 -8.11,0.64 -16.77,-1.21 -24,1.51 -8.73,3.28 -15.36,8.33 -21.73,14.99 -6.61,6.91 -14.92,11.42 -20.55,19.48 -5.41,7.75 -10.47,19.31 -17.03,6.25 -6.51,-12.97 5.43,-8.04 7.29,-18.22 1.26,-6.87 -6.39,-13.62 -7.99,-20 -2.72,-10.87 -1.06,-10.36 -12.85,-11.15 -2.8,-8.99 11.83,-8.61 16.85,-9.8 11.52,-2.72 8.44,-8.7 12.48,-16.27 8.07,-15.1 33.18,-5.98 41.96,-18.78 5.02,-7.31 8.69,-12.18 9.55,-21 0.17,-1.73 0.99,-9.65 -0.2,-10.8 -4.7,-4.52 -4.58,2.86 -7.77,3.92 -2.94,0.98 -8.38,-1.72 -11.07,-0.23 -3.52,1.96 -2.27,7.18 -6.95,9.2 -4.55,1.97 -15.86,0.06 -20.85,-0.25 0.38,-1.97 -0.69,-4.73 -0.3,-6.7 -12.96,0.29 -13.25,-17.23 -15.83,-26.23 -1.94,-6.76 -8.79,-12.11 -14.02,-16.92 -5.98,-5.5 -10.56,-14.37 -16.23,-18.99 -3.25,-2.65 -5.78,-3.83 -10.77,-3 -7.29,1.21 -5.16,3.81 -9.25,8.5 -4.03,4.62 -5.38,3.13 -10.02,5.95 -4.43,2.69 -4.16,5.29 -9.73,6.55 -7.61,1.73 -17.68,-2.51 -24.78,0.44 -3.94,1.64 -5.75,6.74 -9,10.1 -0.69,0.71 -7.91,8.86 -8.42,9.06 -3.57,1.38 -6.71,-2.11 -10.8,-1.6 -6.53,0.81 -5.11,4.64 -10.05,8.02 -3.37,2.31 -7.6,1.71 -10.75,4.37 -2.74,2.32 -5.86,8.26 -8.42,11.06 -2.66,2.91 -7.13,11.51 -10.78,12.64 -2.25,0.7 -7.29,-1.93 -10,-2.09 -6.23,-0.37 -7.72,0 -9.04,6 -1.42,6.44 5.15,5.06 -2.99,6.03 -4.27,0.51 -8.38,-3.22 -11.05,3.5 -2.01,5.05 3.29,7.47 5.09,11.55 2.38,5.4 2.18,13.29 0.25,18.84 -3.36,-4.17 -12.12,-14.07 -18.07,-9.53 -5.33,4.08 -1.32,17.84 -2.2,23.6 -1.4,9.13 -6.35,17.31 -15,19 -7.7,1.51 -17.14,-1.35 -24.02,-4.25 -4.41,-1.86 -7.12,-3.93 -11.98,-4.75 -3.14,-0.53 -8.54,1.29 -11.57,0.19 -2.18,10.58 -7.32,22.55 -5.54,32.97 1.31,7.6 14.58,11.18 20.74,13.04 0.8,8.17 0.19,22.58 4.66,29.51 5.73,8.9 13.08,16.55 15.43,27.45 2.54,11.79 -9.37,18.84 -8.03,29.68 1.09,8.79 4.77,21.18 9.16,28.82 3.33,5.79 7.05,8.8 8.64,12.35 4.83,3.38 9.5,7.78 14.22,11.12 6.06,4.29 13.22,7.37 19.78,10.81 13.22,6.93 26.84,10.7 41,15.22 11.37,3.63 26.72,-2.7 35.14,7.59 7.72,9.44 11.8,18.49 23.49,24 10.88,5.13 23.78,5.78 31.85,-4.21 6.93,-8.57 19.41,-15.94 30.58,-15.89 12.07,0.04 25.56,3.03 37.42,0.4 5.06,-1.13 11.69,-5.11 17.46,-4.93 2.18,-0.06 4.25,0.36 6.04,1.58 1.47,-2.36 6.92,-3.31 9.07,-4.45 6.42,-3.41 22.17,-13.04 24.52,-19.22 3.22,-8.45 -4.4,-15.04 -11.89,-15.17 0.27,-9.43 14.38,-12.19 22.09,-15.57 7.18,-3.15 21.93,-9.75 25.35,-17.27 3.6,-7.93 -4.88,-16.64 0.36,-22.97 10.57,-12.78 43.13,-6.88 38.08,-33.04 z" />
    <path
       style="fill:#a30000;fill-opacity:1;stroke:#a30000;stroke-width:2;stroke-miterlimit:4;stroke-dasharray:none;stroke-opacity:1"
       id="path11229"
       d="m 1491.5276,722.48987 c -0.59,-5.99 1.43,-10.91 4.99,-15.61 3.38,-4.46 8.06,-8.23 10.72,-13.19 4.21,-7.87 -4.36,-9.89 -3.59,-17.07 0.58,-5.45 -0.26,-8.01 -5.36,-9.85 -3.44,-1.24 -6.23,-2.87 -4.82,-7.05 1.28,-3.8 6.98,-4.03 9.12,-7.32 2.92,-4.49 -0.65,-11.77 -2.96,-15.79 6.58,-2.95 9.99,-6.54 10.68,-13.88 0.43,-4.53 -0.39,-9.47 1.44,-13.76 1.63,-3.81 6.16,-5.58 5.42,-10.35 -1.94,0.39 -4.79,-0.71 -6.5,-0.5 -0.53,-8.41 -0.75,-16.11 -5.23,-23.44 -3.33,-5.44 -8.38,-13.73 1.72,-14.39 7.58,-0.49 13.94,-3.69 11,-12.79 -3.35,-10.39 -8.91,-19.12 -11.64,-30.01 -1.29,-5.14 -1.18,-14.82 -6.42,-17.85 -6.01,-3.48 -17.07,-2.64 -23.96,-3.29 -23.27,-2.2 -8.41,-27.27 -14.27,-42.48 -0.72,0.32 -1.5,0.54 -2.35,0.62 0.85,-0.08 1.63,-0.3 2.35,-0.62 -0.03,-0.07 -0.05,-0.14 -0.08,-0.21 -3.67,-9.18 -7.01,-13.76 -5.83,-24.09 1.36,-11.88 3.68,-23.7 -4.66,-33.63 -6.84,-8.14 -16.36,-13.83 -24.58,-20.46 -9.38,-7.56 -19.51,-17.64 -32.02,-18.77 -11.62,-1.05 -13.56,-7.85 -21.22,-14.97 -3.94,-3.67 -9,-5.19 -13.41,-8.1 -5.48,-3.62 -9.69,-9.35 -13.77,-14.4 -11.11,-13.73 -31.95,-33.52 -51.93,-31.05 -0.75,4.56 -1.38,9.22 -2.27,13.96 -2.17,11.48 -6.76,11.66 -15,16.41 -9.58,5.53 -9.66,11.32 -16.79,19.02 -1.21,1.31 -7.78,4.06 -10.2,5.89 -3.07,2.31 -5.78,4.72 -8.63,7.41 -4.82,4.56 -13.32,17.19 1.73,12.6 -1.53,11.2 -16.78,44.76 -30.69,43.9 0.16,12.24 2.11,15.91 13.87,22.18 11.47,6.11 15.38,18.97 28.87,23.17 11.34,3.53 13.21,8.84 11.63,20.5 -1.5,11.12 12.12,16.87 21.13,19.91 4.82,1.63 10.13,2.24 14.26,-1.23 3.25,-2.73 5.8,-7.22 10.71,-6.52 15.99,2.29 12.72,16.63 16.32,27.39 2.24,6.7 8.51,4.43 12.93,7.9 3.77,2.95 8.19,3.77 13.01,3.08 3.61,-0.52 4.05,3.2 2.98,6.42 -1.68,5.03 -9.16,5.43 -12.87,8.29 3.98,3.58 6.55,7.53 6.72,13.04 0.07,2.2 -6.66,3.49 -7.98,6.74 -4.81,11.79 7.02,21.32 6.26,32.96 -0.9,13.82 3.86,24.56 18.16,28.19 12.99,3.3 8.22,19.76 15.71,28.14 4.33,4.84 9.38,5.55 12.7,12.03 3.53,6.9 7.54,10.68 13.37,15.62 13.29,11.29 -12.6,13.81 -20.12,16.52 -15.23,5.5 -29.63,13.04 -45.03,18.03 -5.56,1.8 -14.08,3.88 -18.48,8.59 0.6,0.06 1.22,0.11 1.85,0.13 -0.63,-0.02 -1.25,-0.07 -1.85,-0.13 -0.54,0.58 -1.03,1.19 -1.43,1.86 -3.46,5.72 6.81,7.32 10.11,7.45 5.99,12.82 -13.83,13 -20.87,19.03 -5.91,5.06 -10.6,11.4 -16.45,16.55 -4.86,4.27 -10.45,7.61 -8.33,15.07 4.91,2.59 8.54,4.13 13.95,4.2 1.04,-3.93 7.46,-10.84 9.71,-12.7 3.67,-3.03 7.46,3.87 7.81,6.69 0.16,1.24 -3.13,9 -3.48,8.62 2.44,2.66 7.98,1.46 11.14,1.74 6.75,0.59 11.5,2.2 17.52,5.01 9.8,4.58 21.19,-17.3 30.66,-10.12 3.02,2.29 2.38,6.09 5.95,7.64 0.53,0.23 1.16,0.41 1.9,0.53 4.53,0.71 11.05,-0.32 15.35,-1.85 4.95,-1.76 8.14,-6.15 11.5,-9.91 5.2,-5.82 11.1,-8.52 18.55,-10.48 6.35,-1.67 11.32,-3.97 16.88,-7.42 5.32,-3.3 10.68,-2.88 16.54,-4.12 4.28,-0.91 4.9,-4.58 9.51,-1.62 4.42,2.84 8.12,-4.77 11.23,-6.96 3.69,-2.61 7.47,-5.21 11.36,-7.65 0.57,-6.04 -3.67,-11.45 -4.25,-17.4 z" />
    <path
       style="fill:#a30000;fill-opacity:1;stroke:#a30000;stroke-width:2;stroke-miterlimit:4;stroke-dasharray:none;stroke-opacity:1"
       id="path11231"
       d="m 1129.8576,766.33987 c 5.3,-5.37 11.97,-11.22 12.64,-19.23 0.95,-11.39 -1.38,-17.67 9.34,-24.29 3.44,-2.12 7.1,-3.88 10.31,-6.36 3.55,-2.74 4.02,-7.28 7.36,-10.25 6.9,-6.14 16.51,-7.65 23.66,-14.14 5.43,-4.93 12.79,-8.31 17.55,-13.85 5.54,-6.44 9.46,-19.85 11.06,-28.27 -10.87,-6.75 -17.02,-23.53 -30.12,-26.85 2.43,-14.63 5.59,-23.97 -1.72,-37.71 -2.34,-4.39 -2.73,-9.06 -3.42,-13.9 -0.95,-6.7 -5.46,-12.01 -8.41,-17.88 -8.49,-0.46 -15.31,-0.85 -22.05,-6.62 -5.47,-4.68 -11.31,-12.31 -19.25,-12.2 -9.25,0.13 -14.93,9.33 -22.19,13.63 -6.43,3.8 -15.12,3.08 -22.26,2.47 -4.67,-0.4 -9.13,-2.43 -13.82,-2.39 -5.24,0.04 -10.69,0.73 -15.83,-0.67 -7.49,-2.03 -11.06,-9.37 -16.61,-14.1 -11.78,-10.03 -29.05,-8.42 -43.45,-8.24 -1.19,3.47 -3.09001,6.27 -5.99001,7.65 -10.45,4.97 -20.97,-5.69 -29.73,-4.3 0.03,11.71 -18.91,7.07 -27.1,7.49 7.14,12.5 -2.92,41.92 -10.98,20.85 -4.79,2.29 -9.97,3.64 -14.71,5.98 -7.24,3.57 -5.34,2.15 -10.88,9.72 -6.98,9.54 -11.27,10.27 -23.32,9.5 -1.06,-4.65 -1.7,-8.59 -4.69,-11.96 -4.15,2.83 -7.76,6.43 -11.12,10.26 -6.93,7.88 -12.85,16.67 -20.45,21.45 -5.72,3.6 -13.3,0.85 -13.52,11.97 -0.13,6.62 5.46,14.98 12.94,13.72 3.79,7.79 12.96,11.88 13.21,21.23 0.04,1.32 -0.11,2.57 -0.41,3.76 6.47,6.24 17.79,3.45 25.82,4.29 10.13,1.06 22.08,6.87 26.6,16.43 3.67,7.76 1.28,20.15 11.06,23.65 10.31,3.69 21.72,3.38 32.47,4.07 5.21,0.33 10.81,2.23 16.01,1.6 2.2,-0.06 4.16,-0.74 5.9,-2.01 3.47,-2.37 6.23,-0.09 9.8,-1.28 4.42,-1.48 4.53,-5.87 10.06,-5.09 4.16,0.58 8.82001,5.46 10.29001,9.17 3.45,8.7 -7.47001,14.83 -7.56001,23.34 -0.08,8 5.80001,21.05 -2.96,26.51 3.61,5.83 9.59001,8.95 12.27001,15.53 2.47,6.08 4.82,8.06 11.76,7.65 0.06,1.28 0.5,2.31 1.19,3.17 6.5,-8.93 9.39,-16.2 22.93,-16.51 6.71,-0.15 15.1,-1.05 20.88,3.01 3.94,2.76 8.18,6.52 13.38,4.97 14.55,-4.33 14.05,8.6 21.11,18.08 4.89,6.56 9.98,14.59 16.38,20.56 0.52,-8.18 2.83,-14.45 6.26,-21.8 3.34,-7.31 4.46,-15.89 10.31,-21.81 z" />
    <path
       style="fill:#a30000;fill-opacity:1;stroke:#a30000;stroke-width:2;stroke-miterlimit:4;stroke-dasharray:none;stroke-opacity:1"
       id="path11233"
       d="m 1298.0276,763.23987 c 5.85,-5.14 10.54,-11.49 16.45,-16.55 7.05,-6.03 26.86,-6.21 20.87,-19.03 -3.3,-0.13 -13.57,-1.73 -10.11,-7.45 0.4,-0.66 0.89,-1.28 1.43,-1.86 -18.38,-1.9 -23.98,-21.59 -35.78,-31.98 -9.81,-8.63 -32.61,8.57 -39.55,-4.91 -3.39,-6.59 -0.96,-14.53 -2.59,-21.51 -2.32,-9.95 -11.57,-6.6 -19.02,-7.27 -2.96,-0.27 -5.57,-1.27 -7.95,-2.75 -1.6,8.42 -5.52,21.83 -11.06,28.27 -4.76,5.54 -12.12,8.91 -17.55,13.85 -7.15,6.49 -16.76,8 -23.66,14.14 -3.34,2.97 -3.81,7.52 -7.36,10.25 -3.21,2.48 -6.87,4.24 -10.31,6.36 -10.72,6.61 -8.39,12.89 -9.34,24.29 -0.67,8.01 -7.34,13.87 -12.64,19.23 -5.85,5.93 -6.97,14.5 -10.36,21.77 -3.43,7.35 -5.74,13.62 -6.26,21.8 2.87,2.67 5.99,4.94 9.49,6.48 -2.7,6.8 -8.68,12.9 -15.43,15.73 -4.75,1.99 -10.68,3.65 -10.67,9.93 5.55,2.33 15.39,6.59 18.03,12.42 1.78,3.93 -1.82,8.2 2.48,11.37 2.67,1.96 5.88,2.48 6.59,6.29 13.69,2.2 28.69,-0.43 42.58,-0.25 10.62,0.14 19.09,-4.05 16.1,-15.72 -0.85,-3.31 -3.76,-9.06 -2.13,-12.46 2.21,-4.6 7.29,-3.76 9.79,-7.15 2.95,-4.01 2.06,-9.02 6.22,-12.98 2.51,-2.38 5.69,-3.76 8.98,-4.7 10.52,-2.99 21.85,-5.72 31.79,0.17 9.48,5.62 22.06,5.03 30.7,-1.8 6.58,-5.2 17.32,-16.5 26.48,-8.6 4.62,3.99 2.16,11.17 7.17,15.09 1.48,-1.29 2.93,-2.57 4.34,-3.82 3.53,-3.15 12.78,-3.68 13.12,-9.21 0.32,-5.24 -4.33,-11.73 -6.43,-16.28 -1.43,-3.1 -8.97,-7.97 -8.94,-10.94 0,-0.29 0.07,-0.62 0.16,-0.96 -5.41,-0.07 -9.04,-1.61 -13.95,-4.2 -2.14,-7.45 3.46,-10.79 8.32,-15.06 z" />
    <path
       style="fill:#a30000;fill-opacity:1;stroke:#a30000;stroke-width:2;stroke-miterlimit:4;stroke-dasharray:none;stroke-opacity:1"
       id="path11235"
       d="m 1699.6876,638.92987 c 3.23,-7.61 8.29,-14.19 11.15,-22.05 3.42,-9.41 4.59,-19.35 4.72,-29.31 -1.11,-18.73 -2.24,-37 -14.8,-52.45 -6.45,1.83 -13.6,7.42 -20.41,3.79 -7.66,-4.09 -9.09,-13.92 -16.97,-17.94 -1.47,1.61 -3.67,1.77 -5.22,3.31 -2.45,3.32 -4.48,6.41 -7.56,8.25 -3.97,0.03 -7.11,1.35 -10.96,2.13 -0.6,9.93 -0.44,22.68 -12,25 -0.63,12.32 -0.4,11.9 -12.18,15.85 -11.31,3.79 -14.44,14.09 -24.45,1.22 -7.18,-9.23 -20.13,-10.22 -25.49,-21.4 -5.55,-11.59 6.35,-22.9 5,-34.83 -1.13,-10.07 -10.96,-14.4 -15.65,-22.41 -2.08,-3.55 9.09,-17.37 9.52,-22.97 0.89,-11.43 -8.61,-15.57 -18.66,-12.99 -12.08,3.1 -18.63,-6.23 -23.65,-16.53 -5.57,-1.38 -9.04,4.22 -13.23,6.66 -6.14,3.59 -11.33,0.21 -16.23,-3.47 -6,-4.51 -11.8,-6.41 -19.12,-4.1 -4.85,1.53 -7.23,7.23 -11.65,9.16 5.86,15.21 -9,40.28 14.27,42.48 6.89,0.65 17.94,-0.19 23.96,3.29 5.24,3.03 5.13,12.71 6.42,17.85 2.73,10.9 8.29,19.63 11.64,30.01 2.94,9.1 -3.41,12.3 -11,12.79 -10.1,0.66 -5.05,8.95 -1.72,14.39 4.48,7.32 4.7,15.03 5.23,23.44 1.7,-0.21 4.56,0.88 6.5,0.5 0.74,4.77 -3.8,6.54 -5.42,10.35 -1.83,4.3 -1.01,9.24 -1.44,13.76 -0.7,7.34 -4.1,10.93 -10.68,13.88 2.3,4.02 5.88,11.31 2.96,15.79 -2.14,3.29 -7.84,3.52 -9.12,7.32 -1.41,4.18 1.38,5.8 4.82,7.05 5.1,1.84 5.94,4.41 5.36,9.85 -0.77,7.18 7.8,9.21 3.59,17.07 -2.65,4.96 -7.34,8.73 -10.72,13.19 -3.56,4.7 -5.59,9.61 -4.99,15.61 0.59,5.95 4.82,11.36 4.25,17.43 7.09,-4.45 14.56,-8.37 22.51,-10.8 6.16,-1.88 12.31,-2.93 17.88,-6.33 6.8,-4.15 12.44,-8.27 20.38,-10.03 12.19,-2.7 22.55,-10.45 34.88,-13.8 13.93,-3.78 27.35,-12.37 40.33,-18.71 5.26,-2.57 10.66,-6.13 16.58,-3.42 4.89,2.24 8.9,5.39 14.23,6.7 5.05,1.25 10.84,1.99 15.96,0.7 6.33,-1.6 10.94,-10.71 18.23,-8.1 2.46,0.88 4.52,1.2 6.33,1.09 -9.72,-9.37 -8.2,-26.89 -3.38,-38.27 z" />
    <path
       style="fill:#a30000;fill-opacity:1;stroke:#a30000;stroke-width:2;stroke-miterlimit:4;stroke-dasharray:none;stroke-opacity:1"
       id="path11211"
       d="m 814.67759,934.62987 c 5.22,-2.58 11.07,-2.39 15.82,-6.13 5.16,-4.07 8.81,-5.77 14.91,-8.07 3.76,-1.42 4.81,-5.45 8.14,-7.05 3.82,-1.83 8.29,2.46 10.76,4.73 15.7,14.5 19.77,-19.18 11.33,-21.04 -0.7,-7.45 14,-10.1 3.59,-19.12 -3.29,-2.85 -9.04,-5.81 -10.4,-10.21 -1.55,-5.04 5.24,-5.66 6.19,-10.56 1.85,-9.57 -0.02,-23.56 -12.48,-23.74 -8.23,-0.12 -18.03,13.21 -25.88,5.63 -0.2,-3.75 1.27,-7.97 -0.08,-11.61 -1.91,-5.16 -8.23,-7.28 -11.32,-11.62 -4.77,-6.69 -5.92,-16.68 -14.62,-19.8 0.78,-5.63 3.29,-9.8 -1.06,-14.54 -6.82,-7.44 -11.49,-4.8 -19.89,-7.39 -0.47,-5.79 -2.04,-11 -4.15,-16.38 -3.02,-7.68 0.3,-16.06 -4.79,-23.26 -1.98,-2.8 -4.53,-4.73 -7.03,-6.45 -0.25,-0.17 -0.5,-0.34 -0.75,-0.51 -2.75,-1.87 -5.36,-3.57 -6.99,-6 -8.3,0.15 -20.25,1.72 -22.18,11.12 -1.47,7.15 7.63,10.98 5.59,18.49 -9.42,1.5 -17.01,0.21 -25.58,5.38 -6.99,4.23 -12.2,5.5 -20.28,5.28 -11.31,-0.31 -17.97,19.86 -7.35,17.86 0.47,3.3 0.42,6.97 0.22,10.48 -9.71,3.18 -18.68,-6.61 -26.37,3.99 -2.99,4.12 -6.29,15.86 -13.1,14.87 -8.47,-1.23 -13.28,-5.39 -20.95,2.06 -4.9,4.76 -6.07,11.64 -6.35,18.29 5.02,0.04 7.69,8.6 9.31,12.15 2.15,4.71 4.21,10.46 5.47,15.47 1.5,6 -1.87,12.22 1.89,17.76 2.95,4.33 7.34,8.46 11.93,11.01 3.54,1.97 9.5,4.55 8.06,9.67 -5.9,0.38 -11.76,-1.49 -17.66,-0.4 -9.4,1.74 -3.94,8.38 -2.65,14.12 3.85,17.04 -14.36,29.72 -8.76,46.36 2.25,6.69 3.03,8.81 9.57,12.23 6.84,3.57 7.12,10.5 9.73,17.09 2.71,6.84 8.21,10.9 8.68,18.69003 0.51,8.48 -3.25,15.85 -2.33,24.47 0.5,-0.25 1.01,-0.46 1.54,-0.61 6.2,-1.79 13.51,0.17 19.83,0.19 9.66,0.04 15.7,-8.28 24.91,-8.48 7.37,-0.16 9.09,1.48 14.77,-3.63 4.5,-4.06 9.32,-3.2 14.47,-2.85 1.3,0.09 2.62,0.15 3.97,0.08 6.2,-0.29 9.45,-5.52 15.72,-5.57 7.88,-0.06 13.89,-5.7 21.82,-5.87 7.44,-0.16 9.55,-6.09003 15.92,-7.80003 7.77,-2.09 15.6,2.1 23.4,1.44 4.87,-0.41 4.29,-7.72 5.28,-11.23 0.43,-1.52 3.31,-7.27 6.2,-10.24 -19.7,-1.56 -17,-23.21 -16.02,-38.75 z" />
    <path
       style="fill:#a30000;fill-opacity:1;stroke:#a30000;stroke-width:4;stroke-miterlimit:4;stroke-dasharray:none;stroke-opacity:1"
       id="path11225-0"
       d="m 1947.3744,499.46116 c -1.95,-0.5 -3.7,-2.53 -6.04,-3.49 -3.95,-1.63 -5.85,-1.98 -10.73,-2.27 -2.1,-0.13 -11.04,0.07 -11.79,-2.2 -0.19,-0.58 0.83,-1.09 0.98,-1.55 -0.24,-0.2 -0.49,-0.38 -0.73,-0.55 -0.11,0.18 -0.2,0.36 -0.27,0.55" />
    <g
       style="fill:#a30000;fill-opacity:1;stroke:#a30000;stroke-opacity:1"
       id="mask"
       transform="translate(5.52e-5,-903.22783)" />
    <g
       style="fill:#a30000;fill-opacity:1;stroke:#a30000;stroke-opacity:1"
       id="markers"
       transform="translate(5.52e-5,-903.22783)" />
  </g>
</svg>
