<?xml version="1.0" encoding="UTF-8" standalone="no"?>
<svg
   xmlns:dc="http://purl.org/dc/elements/1.1/"
   xmlns:cc="http://creativecommons.org/ns#"
   xmlns:rdf="http://www.w3.org/1999/02/22-rdf-syntax-ns#"
   xmlns:svg="http://www.w3.org/2000/svg"
   xmlns="http://www.w3.org/2000/svg"
   xml:space="preserve"
   enable-background="new 0 0 828.857 672.375"
   viewBox="0 0 501.17157 602.96179"
   height="602.96179"
   width="501.17157"
   y="0px"
   x="0px"
   id="Ebene_1"
   version="1.1"><metadata
   id="metadata16259"><rdf:RDF><cc:Work
       rdf:about=""><dc:format>image/svg+xml</dc:format><dc:type
         rdf:resource="http://purl.org/dc/dcmitype/StillImage" /><dc:title></dc:title></cc:Work></rdf:RDF></metadata><defs
   id="defs16257">
	
	
	

		
		
		
		
		
		
		
		
		
		
		
		
		
		
		
		
		
		
		
		
		
		
		
		
		
		
		
		
		
		
		
		
		
		
		
		
		
		
		
		
		
		
		
		
		
		
		
		
		
		
		
		
		
		
		
		
		
		
		
		
		
		
		
		
		
		
		
		
		
		
		
		
		
		
		
		
		
		
		
		
		
		
		
		
		
		
			
		
		
		
		
	
		
		
		
		
		
		
		
		
		
			
		
		
		
		
		
		
		
		
		
		
		
		
		
		
		
		
		
		
		
		
		
		
		
		
		
		
		
		
		
		
		
		
		
		
		
		
		
		
		
		
		
		
		
		
		
		
		
		
		
		
		
		
		
		
		
		
		
		
		
		
		
		
		
		
		
		
		
		
		
		
	</defs>

<path
   id="Außengrenze"
   d="m 501.02164,544.65679 c -0.53,-0.91 -1.109,-1.795 -1.524,-2.764 -0.434,-1.008 -0.784,-2.039 -1.275,-3.021 -0.406,-0.812 -1.007,-1.701 -1.612,-2.307 -0.763,-0.762 -1.133,-1.908 -1.556,-2.891 -0.39,-0.904 -0.85,-1.725 -1.419,-2.521 -0.654,-0.918 -1.271,-1.975 -2.177,-2.68 -0.32,-0.25 -0.854,-0.334 -0.978,-0.744 -0.152,-0.508 -0.494,-1.166 -0.494,-1.697 0,-0.592 0.039,-1.104 0.136,-1.688 0.079,-0.475 0.387,-0.939 0.417,-1.406 0.076,-1.137 0.011,-2.309 0.435,-3.371 0.17,-0.424 0.577,-0.547 0.996,-0.715 0.616,-0.248 1.087,-0.52 1.642,-0.889 0.734,-0.488 0.436,-2.131 0.252,-2.863 -0.261,-1.039 -0.703,-2.016 -1.145,-2.986 -0.249,-0.547 -0.341,-0.793 -0.341,-1.391 0,-0.691 0.51,-0.799 1.072,-1.174 0.755,-0.504 1.993,-0.941 2.882,-0.941 0.798,0 0.356,-0.42 0.827,-0.918 0.325,-0.344 1.192,-0.531 1.632,-0.727 0.427,-0.189 0.782,-0.59 1.067,-0.945 0.062,-0.076 0.464,-0.482 0.407,-0.566 -0.213,-0.318 -0.425,-0.639 -0.639,-0.959 -0.214,-0.32 -0.973,-0.371 -1.335,-0.475 -0.537,-0.152 -1.062,-0.354 -1.593,-0.529 -0.203,-0.066 -1.012,-0.453 -1.012,-0.633 0,-0.703 0.072,-1.047 0.331,-1.695 0.177,-0.439 0.313,-0.881 0.586,-1.27 0.339,-0.484 0.889,-1.033 1.105,-1.582 0.166,-0.418 0.04,-0.943 0.216,-1.363 0.272,-0.656 0.547,-1.312 0.819,-1.967 0.101,-0.238 0.851,-0.797 0.792,-0.93 -0.23,-0.541 -0.272,-1.324 -0.908,-1.166 -0.519,0.129 -1.028,0.281 -1.543,0.428 -0.313,0.09 -0.87,-0.412 -1.146,-0.596 -0.945,-0.633 -1.799,-0.93 -2.392,-1.967 -0.245,-0.432 -0.474,-0.881 -0.763,-1.285 -0.414,-0.58 -0.851,-0.865 -0.623,-1.549 0.287,-0.861 0.73,-2.131 -0.302,-2.646 -0.508,-0.254 -1.014,-0.445 -1.415,-0.846 -0.29,-0.289 -0.303,-0.24 -0.059,-0.564 0.171,-0.227 0.327,-0.432 0.454,-0.684 0.37,-0.744 0.519,-0.758 0.003,-1.402 -0.403,-0.506 -0.885,-0.641 -1.479,-0.904 -0.456,-0.203 -0.901,-0.334 -1.383,-0.471 -0.389,-0.111 -1.214,-0.076 -1.492,-0.295 -0.32,-0.254 -0.536,-1.074 -0.722,-1.447 -0.104,-0.207 0.593,-1.238 0.709,-1.473 0.147,-0.297 1.019,-0.381 1.301,-0.576 0.543,-0.375 0.733,-0.734 1.365,-0.988 0.493,-0.197 1.018,-0.297 1.532,-0.426 0.355,-0.088 1.159,-0.193 1.363,-0.467 0.519,-0.691 0.521,-0.695 0.249,-1.512 -0.178,-0.533 -0.096,-1.123 -0.096,-1.68 0,-1.301 -0.552,-2.459 -0.552,-3.756 -0.147,0.17 -0.342,0.291 -0.555,0.367 0.784,-0.281 0.408,-0.512 -0.043,-0.963 -0.42,-0.42 -0.83,-0.451 -1.414,-0.596 -0.418,-0.105 -0.848,-0.648 -1.213,-0.648 -0.547,0 -0.753,-0.559 -1.229,-0.75 -0.529,-0.211 -0.961,-0.406 -1.434,-0.721 -0.616,-0.41 -0.593,-0.553 -0.757,-1.291 -0.152,-0.688 -0.133,-0.793 0.186,-1.428 0.228,-0.453 0.505,-0.887 0.757,-1.326 -1.385,-0.277 -2.448,-1.32 -3.679,-2.023 0.394,-0.59 0.727,-1.08 0.949,-1.748 0.223,-0.662 -0.215,-1.012 -0.685,-1.48 -0.677,-0.678 -0.849,-0.824 -1.782,-0.98 -0.507,-0.084 -1.396,0.043 -1.815,-0.221 -0.417,-0.26 -1.375,-0.605 -1.497,-1.098 -0.2,-0.801 -0.716,-0.758 -1.271,-1.312 -0.295,-0.293 -1.294,-0.932 -1.449,-1.273 -0.304,-0.668 -0.606,-1.336 -0.909,-2.004 -0.281,0.234 -0.787,0.867 -1.143,0.926 -0.309,0.053 -0.618,0.104 -0.927,0.154 -0.269,0.045 -0.279,-0.396 -0.354,-0.619 -0.168,-0.504 -0.243,-1.002 -0.332,-1.525 -0.074,-0.453 -0.758,-0.936 -1.093,-1.203 -0.797,-0.637 -0.797,-2.068 -2.131,-1.625 -1.059,0.354 -1.883,1.045 -2.604,1.887 -0.355,0.416 -0.657,0.789 -0.938,1.254 -0.347,0.58 -0.849,0.453 -1.512,0.527 -0.954,0.105 -1.932,0.119 -2.874,0.238 -2.246,0.281 -4.366,0.926 -6.511,1.641 -0.905,0.303 -1.849,0.457 -2.761,0.736 -0.541,0.164 -1.069,0.389 -1.603,0.582 -0.194,0.07 -1.063,0.662 -0.764,0.912 0.297,0.246 1.04,0.639 1.098,1.031 0.109,0.768 0.148,1.131 0.606,1.744 0.634,0.846 1.767,1.406 1.767,2.541 0,0.531 -0.135,1.035 -0.238,1.555 -0.146,0.727 -0.337,0.812 -0.934,1.289 -0.859,0.688 -1.745,1.061 -2.779,1.371 -0.932,0.277 -1.832,0.672 -2.686,1.139 -0.541,0.295 -1.082,0.59 -1.623,0.885 -0.447,0.244 -1.264,0.217 -1.765,0.301 -0.911,0.152 -1.754,-0.482 -2.293,-1.156 -0.588,-0.734 -1.393,-1.287 -1.956,-2.039 -0.318,-0.426 -0.537,-0.656 -0.968,-0.957 -0.372,-0.262 -1.08,-0.57 -1.334,-0.949 -0.28,-0.422 -0.526,-0.91 -0.898,-1.258 -0.385,-0.357 -0.934,-0.521 -1.288,-0.92 -0.062,0.062 -0.122,0.123 -0.184,0.186 0.399,-0.256 -1.071,-1.672 -1.439,-1.959 -0.943,-0.734 -1.695,-1.252 -2.789,-1.721 0.287,-0.385 0.525,-0.715 0.896,-1.014 0.315,-0.252 1.368,-0.814 1.493,-1.193 0.112,-0.34 -0.321,-1.285 -0.408,-1.635 -0.136,-0.541 -0.335,-0.891 -0.627,-1.375 -0.272,-0.457 -0.635,-0.871 -0.953,-1.297 -0.34,-0.453 -0.856,-0.504 -1.392,-0.682 -0.567,-0.189 -0.637,-0.393 -0.979,-0.906 -0.417,-0.625 -0.407,-0.93 -1.144,-0.857 -1.075,0.107 -2.171,0.055 -3.229,0.248 -0.464,0.084 -1.05,0.307 -1.521,0.229 -0.769,-0.127 -0.989,-0.15 -1.696,0.152 -0.713,0.305 -0.688,0.105 -1.244,-0.449 -0.42,-0.42 -0.795,-0.605 -1.334,-0.875 -0.939,-0.471 -1.729,-1.299 -2.683,-1.682 -0.176,-0.068 -0.542,-0.135 -0.659,-0.291 -0.154,-0.207 -0.316,-0.543 -0.521,-0.695 -0.367,-0.273 -1.035,-0.41 -1.474,-0.574 -0.695,-0.26 -0.793,-0.451 -1.343,0.02 -0.261,0.223 -0.521,0.445 -0.781,0.668 -0.161,0.139 0.104,0.396 0.195,0.555 0.286,0.502 0.419,0.777 0.888,1.09 0.498,0.332 1.035,0.625 1.459,1.051 0.604,0.604 0.456,0.58 0.021,1.307 -0.16,0.268 -1.244,-0.275 -1.528,-0.371 -0.926,-0.309 -2.202,0.074 -3.125,0.215 -1.04,0.16 -1.955,0.375 -2.945,0.734 -0.873,0.318 -1.908,0.459 -2.718,0.896 -0.595,0.318 -1.188,0.641 -1.784,0.961 -0.539,0.289 -0.53,0.227 -1.091,-0.053 -0.633,-0.316 -1.266,-0.635 -1.898,-0.951 -0.27,-0.133 -1.058,0.6 -1.349,0.707 -0.245,0.09 -0.561,0.092 -0.816,0.135 -0.394,0.066 -0.225,0.145 -0.471,0.416 -0.479,0.527 -1.002,0.469 -0.368,1.104 -0.187,-0.186 -0.369,-0.285 -0.367,-0.553 -0.158,0.068 -1.217,0.623 -1.298,0.543 -0.44,-0.441 -0.883,-0.881 -1.322,-1.322 -0.329,-0.328 -0.8,-0.668 -1.059,-1.057 -0.271,-0.41 -0.184,-0.838 -0.184,-1.361 0,-1.246 -0.06,-2.188 -0.361,-3.393 -0.094,-0.373 -0.774,-0.881 -1.028,-1.164 -0.345,-0.383 -0.668,-0.734 -1.059,-1.068 -0.374,-0.32 -0.762,-0.609 -1.062,-0.998 -0.347,-0.443 -0.681,-1.057 -1.112,-1.418 -0.319,-0.266 -1.079,-0.654 -1.079,-1.09 0,-0.439 -0.021,-1.09 0.197,-1.484 0.287,-0.518 0.575,-1.035 0.862,-1.555 0.198,-0.357 0.761,-0.611 1.065,-0.918 0.442,-0.441 0.658,-0.795 1.271,-0.881 0.78,-0.111 0.859,-0.146 1.378,-0.729 0.637,-0.719 0.92,-1 1.104,-1.924 0.12,-0.604 0.74,-1.322 1.064,-1.863 0.296,-0.492 0.162,-1.672 0.7,-1.672 0.818,0 1.566,0.184 2.388,0.184 0.762,0 1.475,-0.307 2.201,-0.523 0.785,-0.236 1.278,-0.262 1.997,-0.693 0.168,-0.102 1.389,-1.584 0.997,-1.74 -0.812,-0.326 -1.309,-0.709 -1.984,-1.271 0.829,-0.645 1.656,-1.287 2.463,-1.959 0.983,-0.818 1.786,-1.359 2.93,-1.932 0.538,-0.27 0.658,-0.234 0.765,-0.809 0.103,-0.564 0.211,-1.127 0.306,-1.693 0.129,-0.775 0.216,-0.895 -0.269,-1.5 -0.327,-0.41 -0.976,-0.705 -1.228,-1.121 -0.241,-0.396 -0.237,-1.188 -0.329,-1.646 -0.103,-0.51 -0.038,-1.066 -0.038,-1.584 0,-0.668 -0.06,-0.918 0.334,-1.443 0.224,-0.297 0.771,-0.895 0.771,-1.246 0,-0.514 0.139,-1.08 -0.191,-1.49 -0.329,-0.412 -0.641,-0.818 -0.94,-1.252 -0.393,-0.564 -0.783,-1.131 -1.175,-1.697 -0.232,-0.334 0.037,-1.094 0.087,-1.484 0.136,-1.082 -0.104,-2.307 -0.16,-3.395 -0.022,-0.436 0.209,-0.865 0.345,-1.273 0.084,-0.252 -0.705,-1.188 -0.855,-1.428 -0.312,-0.498 0.904,-1.984 1.228,-2.348 0.488,-0.551 1.573,-2.068 2.327,-2.162 0.498,-0.062 0.998,-0.117 1.495,-0.189 0.813,-0.117 1.077,-0.07 1.581,-0.701 0.525,-0.658 0.936,-1.819 1.792,-2.104 0.638,-0.213 1.274,-0.425 1.913,-0.638 0.376,-0.125 0.868,-0.4 1.271,-0.4 1.167,0 2.318,0.074 3.464,-0.154 0.738,-0.147 1.411,-1.185 2.04,-0.988 0.341,0.107 0.827,-0.868 0.992,-1.098 1.153,-1.613 2.755,-3.379 4.69,-4.024 0.929,-0.31 2.144,-0.748 2.911,0.021 0.315,0.313 0.668,0.887 1.13,0.934 0.51,0.051 1.232,-0.016 1.699,0.197 0.594,0.27 1.187,0.539 1.778,0.809 0.382,0.173 0.66,0.505 1.034,0.691 0.608,0.305 1.218,0.609 1.827,0.914 0.699,0.351 0.615,0.363 0.615,1.178 0,0.771 2.822,-0.809 2.973,-0.883 0.445,-0.224 0.544,-0.528 0.798,-0.973 0.321,-0.562 1.073,-0.852 1.012,-0.852 0.465,-0.35 0.727,-0.551 1.282,-0.674 0.594,-0.133 1.039,-0.2 1.538,-0.532 0.426,-0.284 0.877,-0.7 1.366,-0.863 0.73,-0.243 0.926,-0.171 1.106,-0.894 0.548,-2.188 0.593,-4.402 0.593,-6.657 0,-1.946 -1.493,-3.796 -2.476,-5.392 -0.207,-0.336 -0.791,-0.961 -0.836,-1.357 -0.052,-0.448 0.47,-1.316 0.62,-1.738 0.305,-0.854 0.667,-1.855 0.667,-2.763 0,-2.079 -0.351,-3.892 -0.896,-5.896 -0.218,-0.8 -0.69,-1.604 -1.062,-2.349 -0.25,-0.5 -0.386,-0.828 -0.815,-1.172 -0.445,-0.356 -0.621,-0.577 -0.903,-1.072 -0.468,-0.817 -1.229,-1.479 -1.655,-2.299 -0.403,-0.771 -0.506,-1.927 -0.687,-2.767 -0.384,-1.795 -1.917,-6.437 -2.207,-6.899 -0.211,-0.337 -0.937,0.424 -1.166,-0.112 -0.391,-0.91 -0.723,-1.729 -0.723,-2.742 0,-2.373 0.158,-4.789 -0.136,-7.146 -0.127,-1.013 0.12,-2.205 0.83,-2.915 0.218,-0.218 0.041,-1.29 0.041,-1.596 0,-0.525 -0.092,-1.014 -0.18,-1.534 -0.326,-1.961 -0.735,-3.952 -0.998,-5.918 -0.162,-1.222 -0.337,-2.382 -0.635,-3.575 -0.259,-1.038 -0.583,-1.973 -0.716,-3.037 -0.117,-0.939 -0.416,-1.916 -0.416,-2.859 0,-0.617 0,-1.232 0,-1.85 0,-0.432 0.312,-0.848 0.382,-1.275 0.183,-1.088 0.381,-2.155 0.62,-3.23 0.109,-0.49 0.227,-0.98 0.324,-1.473 0.097,-0.482 0.095,-1.259 0.348,-1.68 0.267,-0.44 0.527,-0.873 0.756,-1.333 0.238,-0.479 -0.186,-0.808 -0.27,-1.312 -0.185,-1.096 -0.812,-1.956 -1.227,-2.984 -0.146,-0.366 -0.016,-1.021 -0.016,-1.408 0,-0.585 0.015,-1.173 0,-1.758 -0.028,-1.146 -0.12,-2.294 -0.18,-3.439 -0.04,-0.758 -0.638,-2.101 -0.297,-2.778 0.544,-1.089 1.069,-2.12 1.745,-3.131 0.199,-0.3 0.021,-1.25 0.021,-1.607 0,-0.502 -0.02,-0.67 -0.239,-1.109 -0.329,-0.658 -0.658,-1.315 -0.986,-1.973 -0.119,-0.239 -0.663,-0.978 -0.608,-1.25 0.115,-0.575 0.23,-1.151 0.346,-1.726 0.055,-0.268 -0.891,-0.846 -1.087,-1.009 -0.229,-0.191 -0.845,-0.919 -1.153,-0.919 -0.146,0 -0.775,0.094 -0.869,0 -0.068,-0.068 -0.036,-0.813 0,-0.92 0.159,-0.471 0.741,-0.99 1.042,-1.39 0.19,-0.254 -0.431,-1.308 -0.546,-1.598 -0.188,-0.469 -0.523,-0.816 -0.84,-1.21 -0.276,-0.346 -0.46,-1.073 -0.575,-1.503 -0.127,-0.466 -0.12,-0.942 -0.302,-1.395 -0.223,-0.556 -0.479,-1.081 -0.745,-1.617 -0.482,-0.964 -0.045,-2.005 0.194,-2.962 0.273,-1.094 0.557,-2.152 0.912,-3.221 0.147,-0.442 0.332,-0.782 0.249,-1.237 -0.082,-0.451 -0.062,-1.359 -0.328,-1.732 -0.251,-0.352 -0.823,-0.881 -0.908,-1.302 -0.167,-0.828 -0.102,-0.858 -0.907,-1.088 -1.224,-0.35 -1.575,-1.341 -1.986,-2.441 -0.312,-0.828 -0.041,-2.179 -0.041,-3.058 0,-0.334 0.631,-2.908 1.101,-3.981 0.426,-0.97 0.5,-2.097 0.694,-3.134 0.169,-0.904 0.774,-1.683 0.974,-2.613 0.26,-1.204 0.576,-2.237 1.019,-3.386 0.343,-0.891 0.76,-1.758 1.224,-2.593 0.287,-0.518 0.575,-1.036 0.863,-1.554 0.245,-0.441 0.232,-1.231 0.322,-1.729 0.093,-0.508 0.513,-0.771 0.874,-1.134 0.435,-0.435 0.24,-0.871 0.193,-1.481 -0.037,-0.495 -0.057,-0.992 -0.139,-1.481 -0.132,-0.793 -0.065,-0.958 0.297,-1.683 0.188,-0.375 0.543,-0.59 0.767,-0.939 0.382,-0.601 0.765,-1.203 1.146,-1.804 0.544,-0.855 0.965,-1.63 0.965,-2.672 0,-0.595 0,-1.19 0,-1.786 0,-0.378 0.552,-0.675 0.552,-1.081 0,-1.049 0.242,-2.392 -0.014,-3.415 -0.137,-0.548 -0.238,-1.088 -0.332,-1.645 -0.08,-0.476 0.313,-1.149 0.464,-1.599 0.152,-0.456 0.161,-0.962 0.222,-1.437 0.059,-0.471 0.278,-0.899 0.402,-1.356 0.326,-1.196 0.545,-2.131 0.545,-3.363 0,-0.479 -0.224,-1.007 -0.34,-1.472 -0.114,-0.456 0.095,-1.086 0.152,-1.55 0.117,-0.932 0.578,-1.922 0.938,-2.789 0.447,-1.073 0.748,-2.093 1.045,-3.221 0.297,-1.125 0.604,-1.906 1.17,-2.925 0.238,-0.431 0.313,-0.902 0.435,-1.38 0.138,-0.547 0.533,-0.644 1.016,-0.934 -0.42,-0.559 -0.578,-0.627 -0.414,-1.289 0.201,-0.81 0.2,-0.902 0.909,-1.327 0.375,-0.225 0.751,-0.45 1.127,-0.675 0.371,-0.223 1.015,0.021 1.365,-0.236 0.911,-0.668 1.803,-1.382 2.743,-2.009 0.402,-0.269 1.072,-0.481 1.072,-0.994 0,-0.564 0.005,-1.03 0.131,-1.574 0.139,-0.602 0.277,-1.205 0.418,-1.807 0.105,-0.462 0.62,-1.005 0.873,-1.409 0.538,-0.861 1.229,-1.667 1.477,-2.658 0.276,-1.107 0.412,-2.155 0.412,-3.295 0,-0.529 0.258,-0.896 0.495,-1.37 0.208,-0.415 0.294,-0.877 0.593,-1.236 0.36,-0.432 0.552,-0.882 1.117,-0.938 0.546,-0.055 1.146,-0.038 1.67,-0.212 1.118,-0.373 2.135,-0.658 3.062,-1.399 0.342,-0.273 0.747,-0.252 1.122,-0.456 0.602,-0.328 1.202,-0.656 1.805,-0.983 0.375,-0.205 0.674,-0.885 0.921,-1.23 0.245,-0.343 0.762,-0.42 1.06,-0.718 0.391,-0.39 0.771,-0.894 1.216,-1.217 0.438,-0.317 1.031,-0.422 1.473,-0.736 0.917,-0.654 1.398,-1.479 2.485,-1.914 2.078,-0.831 4.159,-1.524 6.349,-2.01 0.296,-0.066 1.281,-0.33 1.281,-0.712 0,-0.533 0.028,-0.98 -0.139,-1.481 -0.366,-1.096 -0.848,-2.028 -0.288,-3.146 0.314,-0.629 0.629,-1.258 0.943,-1.886 0.121,-0.242 0.488,-1.125 0.401,-1.355 -0.089,-0.239 -0.987,-0.601 -1.253,-0.79 -0.471,-0.336 -0.913,-0.642 -1.32,-1.049 1.79,-1.342 3.646,-2.525 5.467,-3.826 0.228,-0.163 0.888,-0.37 0.979,-0.617 0.189,-0.503 0.319,-1.109 0.618,-1.557 0.612,-0.918 1.16,-1.741 2.062,-2.385 0.939,-0.672 1.832,-1.287 2.646,-2.101 0.83,-0.829 1.661,-1.605 2.553,-2.369 0.765,-0.656 1.178,-1.727 1.892,-2.441 0.455,-0.455 0.69,-0.648 0.842,-1.258 0.15,-0.599 0.302,-1.062 0.578,-1.612 0.171,-0.341 0.497,-0.665 0.59,-1.036 0.165,-0.656 0.329,-1.312 0.493,-1.967 0.117,-0.468 0.13,-0.968 0.184,-1.446 0.058,-0.515 0.325,-0.862 0.589,-1.312 0.168,-0.286 0.468,-1.132 0.771,-1.284 0.501,-0.25 0.995,-0.485 1.461,-0.795 0.861,-0.575 1.721,-1.189 2.668,-1.61 0.461,-0.205 1.128,-0.292 1.232,-0.812 0.133,-0.666 0.027,-1.064 -0.122,-1.737 -0.127,-0.572 -0.062,-0.966 0.022,-1.556 0.072,-0.5 -0.092,-1.092 0.04,-1.565 0.112,-0.403 0.574,-0.667 0.534,-1.107 -0.048,-0.52 -0.292,-1.332 -0.167,-1.836 0.12,-0.488 0.686,-1.075 0.953,-1.499 0.314,-0.494 0.42,-0.865 0.564,-1.443 0.253,-1.01 -0.104,-2.240995 -0.209,-3.277995 -0.051,-0.496 -0.021,-1.001 -0.021,-1.499 0,-0.614 -0.576,-0.759 -1.072,-1.089 -0.559,-0.373 -0.717,-0.388 -1.398,-0.388 -0.44,0 -0.825,-0.244 -1.196,-0.476 -0.412,-0.258 -0.873,-0.67 -1.335,-0.824 -0.57,-0.19 -0.987,-0.278 -1.407,-0.696 -0.832,-0.832 -1.569,-1.492 -1.807,-2.678 -0.191,-0.954 -0.346,-2.021 -1.001,-2.749 -0.591,-0.657 -1.437,-2.057 -2.478,-1.407 -0.336,0.211 -1.095,0.486 -1.226,0.877 -0.232,0.695 -0.411,1.076 -0.867,1.646 -0.491,0.614 -1.182,1.024 -1.689,1.634 -0.608,0.73 -1.103,0.844 -2.007,1.183 -0.947,0.355 -1.896,0.711 -2.845,1.066 -0.675,0.253 -1.509,-0.107 -2.212,0.128 -0.479,0.16 -0.732,0.441 -0.973,-0.038 -0.124,-0.25 -0.628,-0.667 -0.581,-0.977 0.083,-0.546 1.764,-1.535 2.133,-1.822 1.334,-1.038 2.403,-2.139 3.385,-3.512 -0.562,-0.312 -1.228,-0.877 -1.872,-0.942 -0.507,-0.051 -1.014,-0.102 -1.521,-0.152 -0.27,-0.027 -0.617,0.764 -0.761,0.979 -0.186,0.277 -0.607,0.247 -0.812,0.482 -0.202,0.232 -0.25,0.875 -0.336,1.175 -0.086,0.3 -1.466,0.921 -1.809,1.188 -0.55,0.426 -1.324,0.865 -1.781,1.387 -0.651,0.745 -1.041,1.331 -1.961,1.676 -0.877,0.33 -1.461,0.373 -2.307,-0.049 -0.718,-0.359 -1.408,-0.748 -2.105,-1.146 0.609,-0.305 1.22,-0.609 1.829,-0.914 0.509,-0.254 0.756,-0.662 1.112,-1.109 -0.849,-0.636 -1.625,-1.249 -2.604,-1.668 -1.069,-0.458 -1.797,-1.021 -2.761,-1.663 -0.436,-0.29 -0.862,-0.59 -1.312,-0.858 -0.638,-0.382 -0.854,-0.408 -1.604,-0.408 -0.541,0 -0.979,-0.049 -1.509,-0.156 -0.444,-0.089 -1.109,0.343 -1.519,0.5 -1.676,0.645 -4.08,1.619 -5.853,0.974 -0.476,-0.172 -1.191,-0.288 -1.603,-0.583 -0.461,-0.331 -0.841,-1.049 -1.194,-1.492 -0.609,-0.761 -1.26,-1.51 -1.947,-2.2 -0.604,-0.604 -0.985,-0.835 -1.772,-1.172 -0.422,-0.181 -1.482,-0.278 -1.891,-0.101 -0.512,0.223 -1.056,1.055 -1.455,1.455 -0.463,0.463 -0.872,0.994 -1.303,1.487 -0.382,-0.688 -1.367,-1.865 -0.961,-2.677 0.137,-0.273 0.85,-1.269 0.775,-1.552 -0.116,-0.452 -1.104,-0.376 -1.104,-0.959 0,-1.101 -0.007,-2.096 -0.777,-2.977 -0.759,-0.867 -1.489,-1.581 -2.41,-2.271 -1.715,-1.285 -3.708,-2.298 -5.626,-3.257 -0.428,-0.214 -0.916,-0.304 -1.374,-0.434 -0.354,-0.101 -0.726,-0.75 -0.916,-1.068 -0.257,-0.427 -0.507,-0.835 -0.806,-1.232 -0.217,-0.29 -0.434,-0.579 -0.651,-0.869 -0.193,-0.26 -0.316,-0.111 -0.623,-0.009 -0.511,0.17 -0.321,-2.542 -0.017,-2.771 0.872,-0.654 1.627,-1.449 2.496,-2.102 0.889,-0.667 1.714,-1.505 2.129,-2.542 0.185,-0.462 0.689,-0.767 0.852,-1.21 0.129,-0.35 0.084,-1.289 0,-1.654 -0.116,-0.508 -0.531,-1.064 -0.765,-1.529 -0.298,-0.597 -0.339,-0.835 -0.339,-1.513 0,-0.915 0.061,-1.872 0.317,-2.751 0.376,-1.288 0.751,-2.575 1.127,-3.863 0.081,-0.281 -0.295,-0.781 -0.411,-1.028 -0.28,-0.602 -0.562,-1.205 -0.843,-1.807 -0.408,-0.875 -1.173,-1.919 -2.03,-2.407 -0.438,-0.249 -1.001,-0.375 -1.471,-0.552 -0.39,-0.146 -1.194,-0.275 -1.492,-0.573 -0.818,-0.818 -1.479,-1.638 -2.187,-2.553 -0.354,-0.46 -0.727,-0.909 -1.09,-1.363 -0.396,-0.496 -0.656,-0.587 -1.262,-0.83 -1.969,-0.788 -3.493,-2.382 -5.308,-3.418 -0.953,-0.545 -1.938,-0.751 -3.007,-0.99 -0.761,-0.169 -0.899,-0.176 -1.364,-0.795 -0.222,-0.294 -0.852,0.472 -1.213,0.59 -0.344,0.112 -1.121,0.254 -1.473,0.184 -0.215,-0.042 -0.492,-0.296 -0.68,-0.409 -0.245,-0.147 -0.357,-0.056 -0.607,-0.143 -0.865,-0.302 -1.753,-1.347 -2.081,-2.166 -0.248,-0.623 -0.323,-0.733 -0.118,-1.348 0.174,-0.521 0.46,-1.093 0.545,-1.635 0.081,-0.516 0,-1.104 0,-1.627 0,-0.241 -1,-0.634 -1.196,-0.88 -0.638,-0.795 -1.286,-1.792 -2.301,-2.045 -0.602,-0.15 -0.96,-0.258 -1.471,-0.598 -0.423,-0.282 -0.954,-0.66 -1.47,-0.735 -0.489,-0.071 -1.134,0.125 -1.628,0.181 -0.242,0.027 -1.011,-0.597 -1.188,-0.796 -0.819,-0.923 -1.493,-1.645 -2.518,-2.327 0.416,-0.417 0.712,-0.624 0.826,-1.195 0.146,-0.73 0.646,-0.469 1.013,-1.011 0.124,-0.184 0.262,-1.259 0.075,-1.33 -0.398,-0.149 -1.219,-0.266 -1.44,-0.646 -0.604,-1.036 -1.172,-2.0240003 -1.921,-2.9600003 -0.265,-0.331 -0.276,-1.166 -0.369,-1.582 -0.104,-0.464 -0.132,-0.945 -0.211,-1.415 -0.104,-0.625 -0.209,-1.251 -0.312,-1.876 -0.089,-0.529 -0.662,-0.462 -1.154,-0.585 -1.057,-0.265 -1.915,-0.284 -2.909,0.283 -0.949,0.542 -1.846,1.163 -2.802,1.694 -0.414,0.23 -0.82,0.376 -1.092,0.763 -0.368,0.527 -0.729,1.062 -1.106,1.582 -0.34,0.468 -0.694,0.926 -1.042,1.389 -0.157,0.21 -1.265,-0.356 -1.506,-0.444 -0.955,-0.347 -1.217,-1.352 -1.863,-2.105 -0.463,-0.541 -0.737,-0.72 -0.737,-1.421 0,-0.562 -0.205,-1.08 -0.359,-1.619 -0.257,-0.897 -1.007,-1.789 -1.363,-2.68199998 -0.283,-0.71 -2.189,-0.276 -2.87,-0.082 -0.929,0.265 -1.7,0.85399998 -2.53,1.33999998 -0.287,0.167 -2.865,1.458 -2.53,1.877 0.37,0.464 0.733,0.895 1.152,1.314 0.301,0.301 0.281,0.94 0.518,1.318 0.623,0.996 1.104,1.834 1.334,2.993 0.235,1.1840003 0.746,1.8600003 1.753,2.4650003 0.396,0.237 0.933,0.303 1.372,0.43 0.097,0.027 -0.166,1.208 -0.134,1.431 0.089,0.623 0.082,1.05 0.471,1.536 0.505,0.63 0.618,0.536 1.437,0.536 0.459,0 0.94,-0.052 1.393,0.038 0.449,0.09 1.322,0.085 1.689,0.36 0.643,0.482 0.699,0.551 0.83,1.338 0.095,0.569 0.143,1.145 0.207,1.718 0.048,0.437 0.209,0.891 0.209,1.326 0,0.532 -0.191,1.132 -0.32,1.648 -0.127,0.509 -0.196,0.929 -0.4,1.438 -0.147,0.371 0.194,0.989 0.121,1.429 -0.072,0.436 -0.252,0.955 -0.045,1.369 0.194,0.387 -0.146,0.98 -0.265,1.376 -0.284,0.947 -0.194,1.888 -0.194,2.877 0,1.089 0.032,1.72 0.4,2.733 0.355,0.982 0.703,1.843 0.703,2.896 0,1.004 -0.706,1.667 -1.271,2.42 -0.201,0.269 -0.144,1.046 -0.186,1.383 -0.07,0.562 -0.301,0.724 0.078,1.177 0.354,0.427 0.662,0.608 0.595,1.153 -0.076,0.615 -0.268,0.959 0.175,1.4 0.604,0.603 0.672,1.898 1.161,2.633 0.273,-0.275 0.688,-0.543 0.783,-0.927 0.152,-0.615 0.356,-0.711 0.872,-1.097 0.235,0.831 0.366,1.436 0.366,2.293 0,0.716 -0.117,1.819 0.185,2.488 0.748,1.661 2.85,1.561 4.002,2.714 1.197,1.197 2.579,2.226 4.011,3.122 0.372,0.233 0.265,1.803 0.265,2.259 0,0.265 0.169,0.948 0.368,1.102 0.194,0.148 1.027,0 1.288,0 -0.102,0.66 -0.204,1.321 -0.306,1.981 -0.056,0.357 -0.042,1.349 -0.278,1.539 -0.285,0.229 -0.57,0.457 -0.855,0.685 -0.139,0.111 -0.031,0.81 -0.031,0.99 0,0.269 -0.153,0.521 -0.252,0.768 -0.152,0.381 -0.021,0.53 0.136,0.92 0.139,0.349 0.597,1.262 0.484,1.578 -0.138,0.385 -1.168,0.86 -1.504,1.129 -0.585,0.468 -1.084,0.809 -1.753,1.142 -0.493,0.246 -0.707,0.939 -0.976,1.407 1.479,0.658 4.858,1.526 4.966,3.495 0.025,0.472 -0.433,1.006 -0.366,1.471 0.067,0.482 0.735,0.883 0.735,1.383 0,0.48 0.189,0.791 0.09,1.283 -0.128,0.638 -0.541,0.909 -1.004,1.372 -0.367,0.368 -0.645,0.753 -0.949,1.179 -0.437,0.611 -0.264,0.759 -0.041,1.495 0.135,0.447 0.248,0.828 0.286,1.288 0.038,0.458 0.298,1.344 0.136,1.775 -0.384,1.019 -0.67,1.929 -0.77,3.016 -0.046,0.51 -0.022,1.086 -0.146,1.583 -0.116,0.464 -0.399,1.067 -0.352,1.545 0.107,1.072 0.11,2.282 0.453,3.311 0.304,0.916 0.641,1.97 0.641,2.942 0,1.086 0.58,1.89 0.793,2.946995 0.102,0.499 0.12,0.976 0.28,1.457 0.251,0.755 0.186,0.665 -0.453,1.12 -0.571,0.409 -1.145,0.817 -1.717,1.226 -0.386,0.276 -0.932,0.271 -1.391,0.354 -0.465,0.085 -0.919,0.174 -1.376,0.288 -0.897,0.225 -0.869,0.36 -1.194,-0.506 -0.245,-0.652 -0.257,-0.875 -0.157,-1.57 0.083,-0.574 -0.185,-0.887 -0.602,-1.304 -0.412,-0.412 -0.792,-0.742 -1.266,-1.08 -0.732,-0.522995 -0.634,-0.497995 -0.414,-1.376995 0.237,-0.953 0.258,-2.108 0.118,-3.078 -0.145,-1.018 -0.133,-2.166 -0.457,-3.137 -0.157,-0.472 -0.252,-1.07 -0.553,-1.473 -0.439,-0.589 -0.766,-0.752 -1.43,-1.084 -0.891,-0.444 -1.872,0.738 -2.64,0.948 -2.094,0.572 -4.319,1.333 -6.495,0.787 -1.021,-0.257 -1.712,-1.181 -2.68,-1.457 -0.952,-0.271 -2.1,-0.492 -3.042,0.047 -0.423,0.242 -0.845,0.542 -1.292,0.734 -0.477,0.205 -1.126,0.321 -1.398,0.777 -0.291,0.483 -0.593,0.925 -0.932,1.376 -0.254,0.339 -0.271,1.106 -0.606,1.347 -0.245,0.175 -1.222,0.657 -1.27,0.939 -0.09,0.541 -0.18,1.077 -0.299,1.611 -0.271,1.228 -0.07,2.002 0.273,3.202995 0.119,0.417 0.555,0.819 0.858,1.124 0.235,0.235 0.276,0.243 0.276,0.562 0,0.164 -0.095,0.747 0.041,0.848 0.687,0.516 0.677,0.528 1.471,0.211 0.391,-0.156 0.894,-0.291 1.298,-0.174 0.72,0.205 1.007,0.12 1.188,0.845 0.107,0.432 -0.637,0.816 -0.897,1.142 -0.316,0.396 -0.648,0.752 -0.854,1.216 -0.229,0.512 -0.389,1.125 -0.789,1.525 -0.432,0.432 -0.614,0.699 -1.197,0.816 -0.479,0.096 -1.089,0.108 -1.514,0.363 -0.849,0.509 -2.012,0.97 -2.71,1.667 -0.396,0.396 -0.766,0.693 -0.983,1.204 -0.243,0.568 -0.452,0.989 -0.818,1.48 -0.316,0.421 -0.519,0.825 -0.997,1.038 -0.512,0.227 -1.098,0.398 -1.529,0.758 -0.506,0.422 -0.815,0.73 -1.447,0.888 -0.497,0.125 -0.916,0.772 -1.271,1.129 -0.394,0.393 -0.561,0.694 -1.033,1.033 -0.544,0.388 -0.867,0.738 -1.288,1.264 -0.271,0.338 -0.48,0.989 -0.828,1.219 -0.312,0.208 -1.008,0.22 -1.396,0.375 -0.405,0.162 -1.066,0.604 -1.508,0.516 -0.686,-0.137 -0.869,-0.121 -1.521,0.116 -0.451,0.164 -0.971,0.464 -1.458,0.464 -0.649,0 -1.247,0.073 -1.892,0.166 -0.837,0.12 -2.012,1.107 -2.734,1.542 -0.899,0.54 -1.484,1.459 -2.225,2.199 -0.405,0.404 -0.55,0.847 -0.776,1.377 -0.174,0.407 -0.648,0.851 -0.229,1.129 0.688,0.458 0.739,0.626 1.494,0.325 0.52,-0.207 0.639,-0.746 1.066,-1.067 0.461,-0.345 0.877,-0.611 1.391,-0.869 0.44,-0.22 0.59,-0.847 1.065,-1.085 0.989,-0.494 2.047,-0.687 3.062,-0.28 0.496,0.199 0.981,0.43 1.472,0.647 0.511,0.227 0.617,0.725 0.864,1.219 0.202,0.403 0.096,0.821 0.39,1.189 0.402,0.504 0.764,1.009 1.122,1.546 0.564,0.849 1.763,1.292 2.501,2.029 0.804,0.803 1.297,1.743 1.844,2.727 0.17,0.306 -0.183,0.787 -0.11,1.144 0.119,0.596 0.281,1.091 0.508,1.656 0.11,0.277 -2.04,2.095 -2.336,2.39 -0.087,0.088 -0.946,-0.866 -1.071,-0.991 -0.419,-0.419 -0.886,-0.076 -1.432,0.08 -0.464,0.132 -0.914,0.605 -1.303,0.884 -0.311,0.222 -0.221,1.319 -0.258,1.689 -0.039,0.396 0.08,0.807 0.176,1.191 0.182,0.734 0.451,0.963 0.993,1.505 0.276,0.277 0.681,0.447 1.015,0.646 -0.389,0.194 -0.948,0.345 -1.213,0.698 -0.365,0.488 -0.748,0.94 -1.149,1.399 -0.69,0.788 -1.64,1.105 -2.273,1.921 -0.289,0.372 -0.586,0.955 -0.996,1.201 -0.532,0.319 -1,0.64 -1.486,1.027 -0.78,0.624 -1.596,0.936 -2.443,1.479 -1.073,0.685 -1.682,1.426 -2.456,2.422 -0.623,0.8 -1.384,1.521 -2.284,1.972 -0.765,0.382 -2.267,-0.35 -3.066,-0.483 -0.938,-0.156 -1.839,-0.866 -2.491,-1.519 -0.412,-0.412 -0.78,-0.705 -1.268,-1.028 -0.493,-0.328 -0.836,-0.206 -1.414,-0.271 -0.3,-0.033 -1.403,0.02 -1.579,-0.213 -0.354,-0.474 -0.616,-0.883 -0.881,-1.411 -0.48,-0.963 -1.528,-1.377 -2.108,-2.248 -0.654,-0.984 -1.259,-1.887 -2.167,-2.646 -0.707,-0.589 -1.025,-2.161 -1.382,-3.015 -0.391,-0.939 -0.518,-1.986 -0.818,-2.966 -0.143,-0.459 -0.339,-0.906 -0.339,-1.388 0,-0.342 0.065,-1.355 -0.367,-1.552 -0.284,-0.129 -1.138,0.516 -1.473,0.551 -0.48,0.051 -1.054,-0.183 -1.558,-0.183 -0.711,0 -0.908,0.044 -1.516,0.408 -0.24,0.145 -0.876,0.845 -0.773,1.102 0.244,0.612 0.399,0.928 0.862,1.391 0.314,0.315 0.729,0.744 0.826,1.185 0.063,0.291 0.462,1.288 0.246,1.503 -0.366,0.366 -1.007,0.794 -1.236,1.256 -0.449,0.901 -1.141,1.889 -1.014,2.903 0.1,0.796 0.225,0.845 -0.438,1.286 -0.642,0.428 -0.877,0.332 -1.661,0.244 -0.676,-0.075 -0.752,-0.318 -1.188,-0.864 -0.309,-0.384 -0.718,-0.666 -0.973,-1.09 -0.372,-0.619 -0.477,-0.71 -1.141,-0.995 -0.086,-0.037 -0.556,-0.171 -0.556,-0.274 0,-0.373 0,-0.745 0,-1.117 0,-0.544 -2.404,0.057 -2.799,0.254 -0.231,0.116 -0.465,0.231 -0.695,0.348 0.652,0.653 1.817,1.526 2.207,2.391 0.44,0.982 -0.007,2.141 -0.646,2.906 -0.639,0.768 -1.5,1.74 -2.44,2.117 -0.609,0.244 -0.94,0.311 -1.596,0.311 -0.52,0 -0.716,-0.645 -1.127,-0.953 -0.451,-0.339 -0.893,-0.692 -1.335,-1.045 -0.098,-0.079 -0.549,0.182 -0.659,0.226 -0.304,0.121 -0.413,0.099 -0.744,0.051 -0.765,-0.109 -0.885,-0.17 -1.431,-0.715 -0.419,-0.418 -0.75,-0.892 -1.104,-1.366 -0.363,-0.483 -0.652,-0.57 -1.224,-0.815 -0.512,-0.22 -0.93,-0.546 -1.387,-0.866 -0.862,-0.603 -1.712,-1.24 -2.754,-1.448 -0.574,-0.115 -0.374,-0.725 -0.659,-1.162 -0.22,-0.337 -0.927,-0.925 -1.288,-1.104 -0.46,-0.227 -1.201,-0.219 -1.707,-0.311 -0.396,-0.072 -1.06,0.293 -1.235,0.679 -0.144,0.311 0.186,1.027 0.186,1.396 0,0.548 0.079,1.125 -0.096,1.648 -0.206,0.617 -0.272,1.002 -0.272,1.651 0,0.178 -0.094,0.441 0.109,0.467 0.377,0.047 0.755,0.095 1.132,0.142 0.451,0.057 0.687,0.487 1.105,0.626 0.492,0.164 0.961,0.321 1.469,0.422 1.224,0.245 2.286,0.465 3.429,0.954 0.454,0.194 0.876,0.485 1.304,0.729 0.35,0.199 0.497,1.124 0.638,1.497 0.045,0.12 -2.361,0.963 -2.666,0.991 -0.73,0.066 -1.883,0.004 -2.494,0.528 -0.456,0.391 -1.9,1.328 -2.002,2.004 -0.041,0.272 0.318,0.746 0.399,1.032 0.115,0.403 0.217,0.814 0.35,1.213 0.085,0.255 0.441,0.89 0.32,1.134 -0.271,0.539 -0.539,1.079 -0.81,1.618 -0.19,0.383 -0.23,0.505 -0.595,0.712 -0.252,0.144 -0.953,0.368 -0.953,0.684 0,0.935 0.306,1.821 -0.111,2.658 -0.398,0.802 -0.7,1.548 -1.199,2.298 -0.243,0.364 -0.615,0.329 -1.04,0.414 -0.306,0.061 -0.734,0.704 -0.959,0.928 0.325,0.26 0.92,0.519 0.92,0.958 0,0.571 0.047,1.153 -0.049,1.717 -0.178,1.058 -0.521,2.07 -1.45,2.651 -0.459,0.287 -0.906,0.567 -1.339,0.892 -0.441,0.332 -0.574,0.829 -0.809,1.329 -0.254,0.544 -0.509,1.089 -0.763,1.633 -0.014,0.027 0.788,0.87 0.895,1.083 0.234,0.468 0.655,0.927 0.454,1.43 -0.241,0.603 -0.323,1.135 -0.415,1.782 -0.106,0.754 0.14,2.316 0.671,2.849 0.516,0.515 0.609,0.662 0.751,1.371 0.073,0.369 -0.335,1.207 -0.13,1.463 0.354,0.442 0.579,0.831 1.099,1.054 0.525,0.226 1.039,0.456 1.551,0.712 0.981,0.491 1.863,1.136 2.818,1.683 0.197,0.113 0.873,0.472 0.976,0.608 0.304,0.405 0.612,1.025 1.005,1.339 0.812,0.649 1.589,1.646 0.805,2.666 -0.208,0.271 -2.126,2.055 -2.351,1.965 -0.5,-0.199 -0.909,-0.484 -1.421,-0.586 -0.603,-0.121 -1.042,0.074 -1.635,0.244 -0.912,0.261 -1.813,1.55 -2.446,2.183 -0.772,0.773 -0.774,1.742 -1.298,2.616 -0.283,0.473 -0.656,0.81 -1.049,1.201 -0.35,0.349 -0.777,0.472 -1.168,0.763 -1.935,1.45 -4.021,1.362 -6.338,1.362 -0.349,0 -0.656,-0.287 -0.98,-0.409 -0.548,-0.206 -1.093,-0.421 -1.648,-0.606 -0.771,-0.257 -0.808,-0.278 -1.499,0.136 -0.489,0.293 -0.785,0.872 -1.123,1.323 -0.659,0.879 -1.239,1.599 -1.733,2.586 -0.52,1.037 -1.131,1.833 -1.895,2.706 -0.684,0.781 -0.929,1.79 -1.13,2.802 -0.162,0.809 -1.604,1.653 -2.218,2.267 -0.623,0.623 -1.996,0.886 -2.77,0.306 -0.619,-0.465 -0.663,-0.428 -1.418,-0.277 -0.554,0.111 -0.94,0.153 -1.396,0.471 -0.925,0.647 -1.812,1.402 -2.844,1.86 -1.068,0.475 -2.033,0.805 -3.196,0.951 -1.064,0.133 -2.059,0.423 -3.048,0.82 -0.577,0.23 -0.893,0.331 -1.51,0.331 -0.282,0 -0.854,-0.776 -1.055,-1.016 -0.815,-0.98 -1.535,-1.607 -2.759,-2.015 -0.46,-0.153 -0.631,-0.675 -1.046,-0.84 -0.599,-0.239 -1.195,-0.478 -1.793,-0.717 -0.361,-0.145 -1.183,0.12 -1.572,0.163 -0.451,0.05 -0.971,0.059 -1.422,0.009 -0.45,-0.05 -1.229,0.024 -1.627,-0.181 -0.286,-0.148 -0.859,-0.896 -0.951,-1.215 -0.131,-0.459 -0.213,-0.959 -0.451,-1.376 -0.314,-0.553 -0.603,-1.016 -0.757,-1.63 -0.112,-0.449 0.39,-1.064 0.589,-1.464 0.208,-0.416 -0.521,-0.999 -0.781,-1.33 -0.651,-0.839 -1.567,-1.085 -2.361,-1.72 -0.555,-0.443 -0.796,-0.624 -1.056,-1.272 -0.199,-0.502 -0.328,-1.029 -0.477,-1.548 -0.055,-0.189 -2.465,-0.006 -2.905,-0.094 -0.396,-0.079 -1.215,-0.076 -1.539,-0.319 -0.478,-0.358 -0.941,-0.771 -1.449,-1.087 -0.983,-0.615 -1.816,-0.622 -2.872,-0.153 -1.066,0.473 -1.892,1.141 -2.896,1.715 -1.846,1.054 -4.302,-0.036 -6.002,1.196 -0.413,0.299 -0.722,0.765 -1.104,1.104 -0.396,0.351 -0.824,0.624 -1.17,1.026 -0.28,0.329 -0.83,0.736 -0.869,1.183 -0.056,0.6 -0.185,1.235 -0.169,1.836 0.013,0.462 0.148,0.929 0.195,1.39 0.036,0.362 0.351,1.474 0.153,1.768 -0.333,0.498 -0.482,1.038 -1.083,1.072 -0.291,0.017 -0.425,-0.028 -0.679,-0.155 -0.233,-0.117 -0.562,0.069 -0.793,-0.029 -0.63,-0.265 -0.439,-0.785 -1.196,-0.659 -0.782,0.13 -0.901,-0.1 -1.531,-0.604 -0.811,-0.649 -1.473,-1.306 -2.564,-1.525 -0.514,-0.103 -1.006,-0.221 -1.509,-0.364 -0.741,-0.212 -0.854,0.091 -1.458,0.593 -0.393,0.327 -0.908,0.483 -1.374,0.689 -0.595,0.264 -0.776,0.627 -1.164,1.168 -0.297,0.415 -0.502,0.862 -0.73,1.319 -0.329,0.66 -0.511,0.461 -1.254,0.394 -0.524,-0.048 -0.978,-0.081 -1.473,-0.246 -0.512,-0.17 -1.134,-0.053 -1.593,-0.225 -0.202,-0.076 -1.346,-0.637 -1.467,-0.515 -0.438,0.437 -0.665,0.959 -1.281,0.783 -0.706,-0.202 -0.868,-0.208 -1.269,-0.809 -0.397,-0.596 -0.7,-0.718 -1.354,-1.045 -0.614,-0.308 -0.529,-0.512 -0.646,-1.207 -0.061,-0.355 -0.814,-0.523 -1.146,-0.617 -0.586,-0.167 -0.82,-0.284 -1.383,-0.097 -0.499,0.166 -1.005,0.296 -1.464,0.552 -0.184,0.102 -1.24,0.841 -1.396,0.738 -0.448,-0.3 -0.89,-0.614 -1.361,-0.876 -1.056,-0.585 -2.116,-1.134 -3.195,-1.673 -1.885,-0.942 -3.14,-2.79 -4.792,-4.05 -0.27,-0.206 -0.872,-0.764 -1.213,-0.722 -0.456,0.057 -1.361,-0.082 -1.361,0.447 0,0.779 0.021,0.983 -0.442,1.599 -0.364,0.485 -0.685,1.007 -1.021,1.511 -1.153,1.732 -3.408,2.653 -4.422,4.428 -1.01,1.768 -1.472,3.769 -1.964,5.737 -0.175,0.696 -0.349,1.393 -0.523,2.089 -0.137,0.547 -0.584,0.71 -1.043,1.039 -0.763,0.545 -1.686,1.008 -2.582,1.284 -1.093,0.336 -2.138,0.51 -2.924,1.394 -0.417,0.469 -0.833,0.938 -1.25,1.406 -0.142,0.159 0.163,1.063 0.193,1.344 0.072,0.65 0.195,1.25 0.066,1.891 -0.079,0.399 -0.076,1.367 -0.459,1.563 -0.235,0.121 -1.429,-0.095 -1.545,-0.33 -0.26,-0.52 -0.547,-1.011 -0.846,-1.51 -0.302,0.202 -1.034,0.493 -1.136,0.848 -0.125,0.436 -0.298,0.878 -0.357,1.328 -0.147,1.115 -0.267,2.231 -0.503,3.331 -0.264,1.231 -0.433,2.019 -1.192,3.034 -0.346,0.46 -0.666,0.954 -1.041,1.39 -0.318,0.371 -0.812,0.651 -0.996,1.112 -0.144,0.354 -0.732,1.281 -0.66,1.647 0.072,0.365 0.995,0.994 1.271,1.269 0.189,0.19 0.02,1.285 0.02,1.569 0,0.173 0.793,0.571 0.965,0.856 0.313,0.523 0.381,0.891 0.48,1.501 0.072,0.437 -0.283,0.894 -0.355,1.327 -0.108,0.646 -0.217,1.293 -0.325,1.94 -0.071,0.424 -0.816,0.304 -0.767,0.733 0,-0.062 0,-0.123 0,-0.185 -1.045,0.161 -2.069,0.368 -3.127,0.368 -0.655,0 -0.748,0.01 -1.26,0.407 -0.363,0.284 -0.883,0.942 -1.36,0.823 -1.09,-0.272 -2.134,-0.268 -3.227,-0.486 -0.311,-0.062 -0.987,-0.019 -1.198,-0.256 -0.452,-0.509 -0.905,-1.019 -1.357,-1.528 -0.229,-0.256 -0.019,-0.906 -0.201,-1.272 -0.286,-0.572 -0.692,-0.775 -1.225,-1.146 -0.547,-0.383 -0.877,-0.392 -0.746,-1.047 0.118,-0.592 -10e-4,-1.111 -0.087,-1.711 -0.076,-0.539 -0.179,-1.075 -0.27,-1.612 -0.09,-0.535 -0.319,-0.86 -0.473,-1.366 -0.149,-0.497 -0.124,-1.111 -0.182,-1.628 -0.021,-0.189 -0.764,-1.087 -0.944,-1.137 -1.027,-0.28 -1.939,-0.513 -2.874,-1.011 -0.813,-0.434 -2.405,-0.822 -1.967,-2.025 0.208,-0.573 0.417,-1.146 0.625,-1.72 0.05,-0.135 -1.134,-1.047 -1.268,-1.167 -0.77,-0.692 -1.487,-1.432 -2.22,-2.164 0.904,-0.724 1.697,-1.515 2.519,-2.334 0.743,-0.744 1.233,-1.661 2.062,-2.324 0.46,-0.368 0.715,-0.803 1.044,-1.295 0.209,-0.314 -0.222,-1.156 -0.318,-1.494 -0.239,-0.839 -0.649,-2.08 -0.306,-2.94 0.229,-0.575 0.46,-1.151 0.69,-1.726 0.188,-0.47 0.83,-0.961 1.164,-1.343 0.282,-0.325 0.843,0.004 1.103,0.264 0.512,0.513 0.872,0.627 1.568,0.858 0.366,0.122 1.177,-0.215 1.555,-0.29 0.549,-0.11 0.322,-0.642 0.322,-1.16 0,-0.333 0.168,-1.228 -0.021,-1.511 -0.291,-0.438 -0.641,-0.851 -0.808,-1.351 -0.451,-1.352 -0.685,-2.408 -0.802,-3.826 -0.087,-1.048 -0.771,-2.173 -1.152,-3.165 -0.457,-1.187 -0.988,-2.293 -1.559,-3.434 -0.262,-0.522 -0.489,-1.061 -0.73,-1.592 -0.28,-0.615 -0.216,-0.82 -0.08,-1.499 -1.351,0 -2.567,0.083 -3.889,0.376 -0.661,0.146 -1.521,0.075 -1.771,0.742 -0.239,0.643 -0.459,1.268 -0.646,1.927 -0.166,0.579 -0.53,1.306 -0.483,1.916 0.059,0.746 0.101,1.496 0.174,2.24 0.056,0.547 0.348,1.453 0.113,1.958 -0.345,0.749 -0.688,1.497 -1.035,2.246 -0.434,-0.289 -0.976,-0.521 -1.247,-0.974 -0.327,-0.545 -0.49,-0.968 -0.666,-1.582 -0.149,-0.528 -0.311,-1.053 -0.468,-1.579 -0.22,-0.732 -0.05,-0.836 0.174,-1.567 0.229,-0.75 0.201,-0.902 -0.327,-1.43 -0.207,-0.208 -1.219,-0.041 -1.498,-0.041 -0.66,0 -1.32,0 -1.981,0 -0.47,0 -1.085,0.386 -1.526,0.552 -0.306,-1.12 -0.662,-1.977 -0.367,-3.126 0.121,-0.474 0.294,-0.956 0.513,-1.394 0.166,-0.33 0.961,-1.099 0.959,-1.366 -0.001,-0.163 -0.473,-0.399 -0.553,-0.552 -0.109,-0.207 -0.099,-0.587 -0.136,-0.817 -0.097,-0.581 -1.075,-0.311 -1.156,-0.681 -0.079,-0.354 -0.487,-1.303 -0.362,-1.628 0.156,-0.407 0.881,-0.658 1.114,-1.124 0.427,-0.853 0.801,-1.992 0.703,-2.955 -0.047,-0.466 0.029,-1.235 -0.18,-1.654 -0.257,-0.516 -0.515,-0.969 -0.627,-1.532 -0.175,-0.875 -0.431,-2.143 -1.012,-2.851 -0.465,-0.566 -0.776,-0.538 -1.379998,-0.337 -0.483,0.161 -0.978,0.385 -1.38,0.705 -1.049,0.832 -1.115,1.761 -0.939,2.993 0.053,0.366 -0.044,0.938 -0.18,1.277 -0.298,0.746 -0.401,0.913 -1.066,1.357 -0.442,0.296 -0.883,0.424 -1.393,0.593 -0.671,0.223 -0.856,0.158 -1.554,-0.041 -0.418,-0.12 -0.839,-0.237 -1.266,-0.322 -0.839,-0.168 -0.812,-0.123 -1.328,0.58 -0.238,0.326 -0.571,1.103 -0.919,1.288 -0.323,0.172 -1.106,-0.001 -1.478,-0.083 -0.519,-0.115 -1.033,-0.25 -1.561,-0.325 -0.787,-0.113 -1.069,-0.191 -1.704,-0.665 -0.339,-0.253 -0.829,-0.32 -1.198,-0.542 -0.636,-0.38 -0.844,-0.65 -1.26,-1.273 -0.289,-0.434 -0.458,-0.936 -0.662,-1.414 -0.146,-0.342 -0.997,-0.524 -1.335,-0.664 -1.047,-0.433 -2,-0.694 -2.771,-1.535 -0.866,-0.945 -1.659,-1.975 -2.562,-2.878 -0.621,-0.623 -0.551,-0.808 -0.551,-1.706 0,-0.424 -0.477,-0.958 -0.743,-1.292 -0.131,-0.163 -0.545,-0.517 -0.545,-0.732 0,-0.182 0.102,-0.753 -0.017,-0.887 -0.424,-0.484 -0.847,-0.968 -1.271,-1.452 -0.195,0.261 -0.931,1.536 -1.213,1.43 -0.777,-0.292 -1.455,-0.567 -2.165,-0.993 -0.246,-0.148 -0.116,-0.672 -0.116,-0.938 0,-0.235 -0.496,-0.647 -0.644,-0.823 -0.362,-0.435 -0.409,-1.067 -1.004,-1.067 -1.543,0 -3.162,-0.154 -4.691,0.065 -0.281,0.04 -0.676,0.187 -0.945,0.071 -0.385,-0.165 -0.776,-0.386 -1.178,-0.504 -0.697,-0.207 -1.485,-0.248 -2.205,-0.368 0.45,-1.051 0.689,-1.979 0.913,-3.103 0.031,-0.156 -2.148,-0.943 -2.45,-0.943 -0.725,0 -1.448,0 -2.174,0 -0.378,0 -0.872,-0.1 -1.22,0.074 -0.991,0.496 -1.954,0.991 -2.99,1.38 -1.109,0.417 -2.148,0.786 -3.302,1.052 -1.123,0.259 -2.128,0.254 -3.287,0.254 -0.425,0 -1.001,0.327 -1.399,0.46 -0.33,0.11 -1.128,0.56 -1.47,0.424 -0.574,-0.23 -1.149,-0.46 -1.727,-0.691 0.113,0.045 -0.972,0.965 -1.11,1.048 -0.969,0.582 -1.727,1.389 -2.52,2.182 -0.647,0.647 -1.871,1.073 -2.682,1.536 -0.614,0.351 -1.069,1.797 -1.069,2.5 0,0.547 0.104,1.202 0,1.737 -0.05,0.252 -0.398,1.256 -0.642,1.305 -1.138,0.228 -2.259,0.477 -3.385,0.758 -0.384,0.096 -0.759,0.2 -1.137,0.317 -0.515,0.158 -1.287,0.578 -1.826,0.562 -1.015,-0.03 -1.882,-0.973 -2.741,-1.363 -1.072,-0.488 -2.097,-0.98 -3.119,-1.564 -0.964,-0.55 -1.843,-1.347 -2.736,-2.003 -0.766,-0.56 -2.204,0.038 -2.99,-0.403 -0.437,-0.245 -0.523,-0.834 -1.026,-1.036 -0.542,-0.217 -1.079,-0.387 -1.64,-0.555 -0.184,-0.055 -1.1130002,-0.476 -1.2030002,-0.025 -0.141,0.705 -0.265,0.998 -0.698,1.575 -0.276,0.369 -0.394,0.987 -0.559,1.415 -0.188,0.484 -0.391,0.883 -0.391,1.398 0,1.153 -0.362,2.142 -0.505,3.283 -0.056,0.445 0.236,0.915 0.688,1.117 0.583,0.262 1.122,-0.025 1.438,-0.446 0.275,-0.368 0.8490002,-0.632 1.3200002,-0.658 0.183,-0.01 1.436,0.261 1.479,0.393 0.362,1.087 0.756,2.053 1.268,3.078 0.425,0.849 0.441,2.02 0.806,2.927 0.267,0.663 0.314,0.764 0.095,1.427 -0.157,0.47 -0.315,0.939 -0.461,1.414 -0.196,0.636 -0.393,1.271 -0.588,1.907 -0.081,0.265 -0.901,0.536 -1.165,0.642 -0.515,0.206 -0.97,0.369 -1.51,0.478 -0.4500002,0.091 -0.9730002,-0.06 -1.3800002,0.144 -0.55,0.274 -1.1,0.549 -1.648,0.824 -0.354,0.177 -1.355,-0.123 -1.76,-0.164 -0.315,-0.032 -0.854,0.743 -1.065,0.955 -0.364,0.365 -0.724,0.719 -1.114,1.055 -0.944,0.81 -1.355,1.644 -1.956,2.744 -0.457,0.837 -0.58199997,1.754 -0.81199997,2.673 -0.157,0.627 -0.313,1.254 -0.472,1.881 -0.115,0.464 0.083,1.144 0.126,1.617 0.09,0.972 -0.401,1.931 -0.322,2.882 0.052,0.625 0.104,1.25 0.155,1.876 0.026,0.324 0.021,1.041 0.235,1.254 0.354,0.352 0.66799997,0.861 1.17399997,0.934 0.711,0.102 1.06,0.049 1.743,-0.04 0.458,-0.059 0.934,0.04 1.396,-0.012 0.485,-0.054 1.23,-0.3 1.691,-0.115 0.513,0.205 0.998,0.422 1.491,0.668 0.645,0.322 0.676,-0.181 1.309,-0.357 0.42,-0.117 1.0740002,0.213 1.4020002,-0.115 0.496,-0.497 0.738,-0.857 1.053,-1.486 0.269,-0.535 1.253,-1.331 1.805,-1.537 1.005,-0.377 1.625,-0.541 2.692,-0.541 0.316,0 0.851,0.464 1.124,0.621 0.361,0.206 0.771,0.305 1.165,0.438 0.327,0.109 1.062,-1.798 1.241,-2.161 0.552,0.306 1.098,0.625 1.656,0.919 0.727,0.383 1.039,0.732 1.573,1.375 0.297,0.356 0.263,1.187 0.357,1.659 0.106,0.534 0.254,1.28 -0.023,1.764 -0.382,0.668 -0.618,1.071 -0.713,1.822 -0.096,0.767 -0.349,1.3 -0.672,2.012 -0.546,1.201 -0.668,2.511 -1.26,3.69 0.109,0.055 0.249,0.164 0.369,0.185 -0.093,-0.082 -0.258,-0.128 -0.369,-0.185 -0.579,2.03 -2.023,3.912 -2.023,6.073 0,1.06 0.103,2.099 0.394,3.119 0.171,0.598 0.084,0.855 -0.07,1.474 -0.146,0.584 -0.139,1.101 -0.139,1.708 0,0.504 0.08,1.014 0.126,1.516 0.061,0.659 -0.061,0.916 -0.327,1.541 -0.407,0.95 -0.533,2.035 -0.533,3.061 0,1.015 -0.338,2.013 -0.45,3.024 -0.073,0.667 -0.119,0.887 0.175,1.475 0.289,0.577 0.594,0.687 1.042,1.135 0.438,0.437 0.748,0.726 1.295,1 0.447,0.224 0.981,0.232 1.434,0.44 0.512,0.236 0.633,0.634 1.001,1.001 0.404,0.405 0.84,0.752 1.037,1.245 0.206,0.514 0.37,0.968 0.478,1.509 0.108,0.54 -0.504,0.966 -0.84,1.369 -0.219,0.263 -0.157,1.121 -0.201,1.468 -0.056,0.446 -0.496,1.015 -0.694,1.412 -0.502,1.005 -0.882,2.007 -1.332,3.031 -0.203,0.461 -0.457,0.871 -0.734,1.288 -0.355,0.536 -0.49,0.979 -0.669,1.604 -0.137,0.478 -0.765,0.393 -1.171,0.603 -0.514,0.266 -0.986,0.74 -1.45,1.087 -0.324,0.243 -1.178,0.227 -1.575,0.298 -0.553,0.101 -0.929,0.348 -1.423,0.63 -0.98,0.561 -1.668,1.156 -2.47,1.958 -0.256,0.256 -0.158,1.119 -0.188,1.463 -0.043,0.506 -0.058,0.941 -0.016,1.445 0.023,0.281 -0.055,1.438 0.172,1.607 0.581,0.436 0.908,0.574 1.612,0.75 0.617,0.154 0.655,0.283 1.029,0.817 0.273,0.392 0.812,0.881 0.812,1.378 0,0.247 -0.158,1.509 0.025,1.641 0.416,0.297 1.053,0.588 1.338,1.016 0.637,0.955 1.424,1.613 2.152,2.486 0.715,0.857 1.675,1.524 2.164,2.507 0.179,0.354 -0.233,0.974 -0.154,1.368 0.104,0.524 0.176,0.969 0.176,1.5 0,0.539 -0.127,1.246 0,1.771 0.136,0.562 0.584,1.168 0.843,1.686 0.305,0.606 0.383,0.542 1.078,0.657 0.45,0.075 0.896,0.179 1.345,0.255 0.555,0.092 1.05,0.161 1.607,0.161 0.667,0 0.951,-0.42 1.457,-0.854 0.715,-0.614 0.475,-2.119 0.475,-2.98 0,-0.306 0.826,-0.992 1.033,-1.233 0.354,-0.413 0.562,-0.624 1.083,-0.71 1.215,-0.202 2.274,-0.291 3.505,-0.291 1.191,0 2.092,-0.259 3.249,-0.589 0.493,-0.141 0.79,-0.333 1.227,-0.623 0.442,-0.296 0.833,-0.323 1.379,-0.25 0.656,0.088 1.313,0.175 1.973,0.263 0.715,0.095 0.81,0.19 1.336,0.716 0.308,0.307 0.859,-0.149 1.246,-0.063 0.555,0.123 1.108,0.257 1.666,0.369 0.505,0.101 0.955,0.205 1.435,0.384 0.742,0.277 0.903,0.348 1.65,0.135 0.521,-0.149 0.89,-0.359 1.359,-0.64 0.415,-0.249 0.536,-0.858 0.873,-1.195 0.812,-0.812 1.638,-1.55 2.067,-2.63 0.319,-0.799 1.598,-1.54 2.286,-2.056 0.903,-0.677 1.916,-1.09 2.95,-1.533 0.456,-0.195 1.015,-0.259 1.495,-0.379 0.688,-0.172 0.758,-0.178 1.394,0.14 0.491,0.246 0.943,0.451 1.464,0.625 0.604,0.201 0.841,0.28 1.195,0.889 0.462,0.792 0.727,2.113 1.872,2.228 1.291,0.129 2.416,0.102 3.712,10e-4 0.938,-0.072 1.918,0.819 2.304,1.592 0.128,0.256 1.26,0.412 1.538,0.496 0.562,0.169 0.322,0.809 0.322,1.348 0,0.347 0.482,0.747 0.599,1.096 0.219,0.656 0.416,1.106 0.8,1.68 0.312,0.469 0.342,0.892 0.436,1.454 0.128,0.776 0.265,0.803 0.966,1.084 0.383,0.153 0.543,1.057 0.688,1.42 0.203,0.508 0.373,1.023 0.547,1.542 0.104,0.315 0.013,0.798 0.013,1.125 0,0.802 0,1.604 0,2.406 0,0.25 -0.114,0.791 0.062,0.992 0.4,0.459 0.776,0.984 1.224,1.4 0.416,0.388 0.935,0.701 1.39,1.041 0.356,0.268 0.873,0.339 1.204,0.629 0.923,0.808 1.65,1.371 2.74,1.914 0.147,0.074 1.194,0.722 1.313,0.623 0.429,-0.356 0.838,-0.754 1.315,-1.041 0.562,-0.338 0.807,-0.575 1.203,-1.104 0.262,-0.35 1.082,-0.567 1.477,-0.764 0.402,-0.201 2.454,-0.425 2.84,-0.157 0.946,0.656 1.926,1.275 2.812,2.014 1.717,1.43 2.388,3.482 2.857,5.594 0.219,0.984 0.271,2.4 1.196,2.93 1.009,0.576 2.040998,0.745 3.174998,1.007 0.332,0.077 1.134,-0.414 1.463,-0.538 0.276,-0.104 0.597,-1.287 0.724,-1.572 0.191,-0.431 0.639,-0.811 0.938,-1.17 0.17,-0.205 1.235,-0.265 1.454,-0.101 0.652,0.487 0.714,0.411 1.509,0.212 0.525,-0.132 1.021,-0.182 1.563,-0.229 0.569,-0.053 0.912,-0.01 1.344,-0.369 0.431,-0.357 0.991,-0.734 1.323,-1.194 0.319,-0.442 0.521,-1.041 0.766,-1.528 0.314,-0.631 0.323,-0.674 0.989,-0.896 0.698,-0.231 0.867,-0.437 1.45,0 0.411,0.31 0.797,0.731 0.899,1.243 0.143,0.72 0.317,0.769 0.93,1.203 0.504,0.359 0.693,0.695 1.018,1.233 0.657,1.095 1.868,1.021 2.959,1.118 0.423,0.038 0.836,-0.632 1.117,-0.915 0.34,-0.34 0.747,-0.616 1.146,-0.882 0.513,-0.342 0.935,-0.646 1.368,-1.08 0.208,-0.208 0.497,-0.999 0.713,-0.938 0.519,0.148 1.03,0.229 1.465,0.554 0.596,0.446 0.98,0.274 1.728,0.192 0.883,-0.099 1.437,-1.797 1.798,-2.522 0.144,-0.285 0.678,-0.396 0.956,-0.57 0.472,-0.294 0.938,-0.595 1.415,-0.881 0.935,-0.562 1.872,-1.007 2.733,-1.677 0.456,-0.354 0.781,-0.629 1.323,-0.809 0.64,-0.211 0.631,0.705 0.76,1.156 0.103,0.357 0.429,0.77 0.388,1.139 -0.059,0.525 -0.172,1.073 -0.172,1.604 0,1.141 0.064,2.3 0,3.439 -0.052,0.924 -0.489,2.367 0.843,2.633 0.934,0.188 2.146,0.554 3.021,-0.057 0.391,-0.273 0.72,-0.961 1.003,-1.34 0.313,-0.419 0.606,-0.824 0.976,-1.193 1.605,-1.605 3.604,-2.189 5.729,-2.797 0.142,-0.041 1.454,2.711 1.614,3.014 0.137,0.259 -0.644,0.808 -0.837,1.002 -0.119,0.119 -0.119,0.494 -0.151,0.654 -0.062,0.312 -0.161,0.42 -0.365,0.674 -0.707,0.884 -0.612,2.101 -0.612,3.209 0,0.662 0.405,0.656 0.989,0.947 0.429,0.215 0.675,0.82 0.819,1.254 0.144,0.432 0.249,0.82 0.414,1.234 0.336,0.842 0.376,0.848 -0.17,1.575 -0.274,0.364 -0.399,0.79 -0.462,1.229 -0.116,0.814 -0.236,0.953 -0.824,1.539 -0.205,0.205 -0.9,-0.002 -1.241,0.226 -0.504,0.336 -1.025,0.655 -1.511,1.019 -0.535,0.402 -0.653,0.584 -0.93,1.189 -0.187,0.41 -0.579,0.951 -0.579,1.414 0,0.662 0,1.322 0,1.984 0,0.775 -0.042,0.789 0.59,1.264 0.398,0.3 0.984,0.109 1.433,0.293 0.365,0.148 1.105,0.648 1.325,0.977 0.39,0.583 0.532,0.803 0.634,1.512 0.084,0.586 -0.03,1.117 -0.114,1.705 -0.149,1.057 0.546,1.961 0.546,2.979 0,0.465 -0.308,0.868 -0.371,1.323 -0.082,0.57 -0.16,1.143 -0.257,1.711 -0.159,0.959 -0.283,2.396 0.523,3 0.381,0.287 0.834,0.352 1.229,0.6 0.483,0.303 0.966,0.607 1.45,0.906 0.953,0.585 1.804,0.734 2.941,0.734 0.871,0 0.757,0.069 0.995,0.901 0.146,0.506 0.036,0.978 0.11,1.491 0.084,0.57 0.313,1.15 0.466,1.707 0.112,0.416 -0.091,1.08 0.086,1.418 0.194,0.375 1.107,0.775 1.456,1.02 0.466,0.326 0.88,0.352 1.448,0.447 0.945,0.158 1.771,0.841 2.733,1.012 1.243,0.219 2.36,0.299 3.439,0.946 0.956,0.573 2.01,1.017 3.007,1.515 0.724,0.362 1.072,1.006 1.504,1.652 0.255,0.382 1.007,1.355 0.911,1.829 -0.141,0.7 -0.4,1.349 -0.561,2.04 -0.114,0.496 -0.188,2.045 -0.635,2.299 -0.8,0.457 -1.601,0.914 -2.4,1.372 -0.149,0.086 -0.076,0.774 -0.055,0.951 0.071,0.575 0.227,0.651 -0.039,1.181 -0.345,0.689 -1.553,0.994 -2.218,1.326 -0.762,0.381 -1.301,0.497 -2.156,0.619 0.813,1.902 2.205,3.613 2.205,5.742 0,1.226 0.14,2.332 0.327,3.548 0.166,1.077 0.042,2.237 0.042,3.327 0,0.435 0.063,0.826 0.136,1.258 0.094,0.562 0.744,0.41 1.184,0.673 0.397,0.237 0.757,0.497 1.204,0.618 0.19,0.053 1.688,0.334 1.709,0.484 0.088,0.611 0.175,1.221 0.263,1.832 0.105,0.748 0.051,0.795 -0.418,1.42 -0.232,0.309 -0.13,1.236 -0.161,1.617 -0.049,0.584 -0.188,0.99 -0.397,1.549 -0.215,0.574 -0.17,0.85 -0.093,1.471 0.062,0.484 -0.032,1.068 0.083,1.527 0.288,1.156 1.409,1.816 2.274,2.609 0.628,0.576 0.925,2.008 1.192,2.814 0.36,1.082 0.488,2.295 0.725,3.412 0.088,0.418 0.416,0.824 0.621,1.193 0.324,0.586 0.322,0.861 0.322,1.547 0,0.949 0.553,1.844 0.553,2.807 0,1.105 0.031,2.125 0.214,3.215 0.218,1.309 0.312,2.266 0.165,3.574 -0.175,1.555 -0.074,4.33 2.014,4.336 -0.185,0 -0.368,0 -0.553,0 0.287,0.287 0.868,0.658 0.947,1.064 0.104,0.51 0.011,1.229 0.155,1.695 0.321,1.031 1.201,1.709 2.075,2.201 0.595,0.334 1.189,0.67 1.784,1.004 0.374,0.209 0.792,0.02 1.193,0.129 1.174,0.318 2.037,0.586 3.069,1.207 0.525,0.314 1.051,0.631 1.576,0.945 0.198,0.119 0.05,1.223 0.05,1.473 0,1.041 0.688,2.139 1.132,3.029 0.464,0.928 0.65,1.945 1.074,2.885 0.201,0.445 0.562,0.832 0.736,1.287 0.208,0.543 0.148,0.875 0.506,1.35 0.61,0.814 1.393,1.777 2.53,1.777 1.109,0 2.078,0.344 2.994,1.029 0.468,0.35 0.914,0.711 1.361,1.084 0.485,0.404 0.344,0.787 0.517,1.379 0.321,1.113 0.896,1.961 1.012,3.127 0.068,0.693 0.062,2.588 0.694,2.859 1.122,0.48 1.918,1.145 2.875,1.91 0.198,0.156 0.136,1.307 0.158,1.564 0.044,0.479 0.291,0.988 0.778,1.207 0.36,0.162 0.928,-0.051 1.338,0.066 0.508,0.145 1.004,0.291 1.522,0.385 1.145,0.209 2.141,0.355 3.3,0.191 0.765,-0.109 0.664,-0.047 0.982,0.654 0.223,0.488 0.66,1.035 0.484,1.562 -0.228,0.686 -0.38,0.926 -0.893,1.438 -0.384,0.381 -0.548,1.086 -0.765,1.574 -0.163,0.369 -0.453,0.908 -0.455,1.299 -0.001,0.242 0.38,1.352 0.571,1.484 1.809,1.264 3.358,2.324 5.604,2.574 0.95,0.105 2.194,-0.02 3.067,0.346 0.591,0.246 1.181,0.492 1.771,0.738 0.479,0.199 1.274,0.104 1.791,0.145 0.979,0.076 1.854,0.539 2.823,0.635 0.504,0.053 1.074,0.193 1.58,0.137 0.36,-0.039 1.353,-0.342 1.631,-0.104 0.372,0.32 0.915,0.645 1.205,1.033 0.229,0.307 0.271,1.17 0.627,1.32 0.618,0.256 1.235,0.514 1.854,0.77 0.43,0.18 1.002,0.238 1.382,0.486 0.947,0.619 1.11,1.727 1.664,2.588 0.546,0.848 1.04,2.029 1.8,2.693 0.328,0.287 2.444,1.77 2.389,2.076 -0.109,0.605 -0.22,1.209 -0.329,1.814 -0.083,0.461 0.232,1.209 0.324,1.67 0.235,1.18 1.372,1.367 2.353,1.811 0.821,0.375 1.804,0.314 2.597,0.768 1.125,0.643 2.101,1.088 2.905,2.096 0.542,0.678 2.079,0.398 2.58,1.186 0.365,0.574 0.729,1.148 1.096,1.725 0.229,0.361 -0.272,1.133 -0.415,1.51 -0.322,0.859 -1.054,1.854 -0.869,2.777 0.128,0.633 0.471,0.562 0.854,1.043 0.412,0.514 0.719,0.893 1.263,1.254 0.453,0.303 0.731,0.57 1.095,0.979 0.303,0.342 0.675,1.045 1.157,1.045 0.391,0 1.104,-0.176 1.36,0.152 0.39,0.502 0.783,1 1.169,1.504 0.419,0.547 0.552,0.705 0.552,1.377 0,0.646 0.367,0.875 0.8,1.361 0.347,0.389 0.644,0.629 0.755,1.129 0.133,0.594 0.202,1.145 0.516,1.666 0.318,0.529 0.636,0.787 1.125,1.178 0.276,0.223 0.979,0.727 1.044,1.053 0.223,1.117 0.729,2.076 0.729,3.221 0,0.979 -0.878,1.883 -1.445,2.594 -0.094,0.117 -1.363,-0.504 -1.543,-0.576 -0.553,-0.221 -0.245,-0.664 -0.352,-1.191 -0.208,-1.039 -0.007,-2.271 -1.075,-2.801 -0.942,-0.467 -2.11,-0.668 -3.097,-1.09 -0.28,-0.121 -1.956,1.082 -2.305,1.309 -1.04,0.672 -2.204,1.217 -2.95,2.213 -0.282,0.375 -0.781,0.551 -1.059,0.92 -0.469,0.625 -0.679,0.758 -1.402,1.047 -0.462,0.186 -0.998,0.256 -1.48,0.377 -0.27,0.066 -0.19,1.129 -0.429,1.32 -0.896,0.717 -1.97,1.014 -2.698,1.887 -0.714,0.857 -1.614,1.055 -2.631,1.424 -0.156,0.057 -1.445,0.418 -1.445,0.551 0,0.512 0.173,1.336 0,1.812 -0.115,0.32 -0.734,0.627 -0.734,0.971 0,0.682 -0.143,0.812 0.478,1.061 0.804,0.32 1.806,0.928 2.649,1.096 0.41,0.082 0.799,-0.041 1.206,0.096 0.683,0.229 0.795,0.229 1.11,0.861 0.216,0.428 0.438,0.678 0.519,1.158 0.084,0.502 0.16,0.916 0.659,1.195 0.903,0.51 1.51,-0.479 2.263,-0.855 0.355,-0.178 0.753,-0.303 1.014,-0.605 0.251,-0.293 0.629,-0.975 0.984,-1.127 0.396,-0.168 0.838,-0.451 1.258,-0.539 0.48,-0.1 1.086,0 1.576,0 0.9,0 1.635,0.221 2.47,0.553 -0.658,0.986 -1.265,1.615 -2.3,2.207 -0.584,0.334 -0.688,0.459 -0.991,1.064 -0.118,0.234 0.618,1.061 0.716,1.326 0.146,0.4 0.261,0.977 0.041,1.342 -0.418,0.697 -0.521,0.713 -1.31,0.939 -0.93,0.264 -1.633,0.873 -2.632,1.039 -0.587,0.096 -1.007,-0.025 -1.176,0.562 -0.198,0.691 -0.249,0.939 -0.074,1.635 0.155,0.619 0.32,0.916 0.706,1.43 0.31,0.414 -0.077,1.141 -0.291,1.498 -0.538,0.896 -2.135,0.715 -2.438,1.854 -0.091,0.342 0.094,1.125 0.185,1.473 0.176,0.668 0.328,0.902 0.924,1.156 0.612,0.264 0.93,0.314 1.601,0.314 0.163,0 0.623,1.01 0.579,1.209 -0.1,0.445 -0.111,1.201 -0.364,1.582 -0.34,0.508 -0.676,0.955 -0.868,1.531 -0.18,0.535 -0.396,1.004 -0.647,1.51 -0.2,0.398 -0.213,0.842 -0.335,1.27 -0.147,0.52 -0.229,1.031 -0.553,1.465 -0.189,0.25 -0.659,1.281 -0.887,1.365 -0.233,0.086 -1.077,-0.283 -1.326,-0.383 -0.539,-0.217 -1.021,-0.434 -1.524,-0.721 -0.524,-0.299 -0.774,-0.381 -1.376,-0.449 -0.911,-0.1 -0.897,-0.229 -1.079,0.674 -0.165,0.828 -0.408,2.115 -0.198,2.957 0.154,0.617 0.299,0.92 0.906,1.234 0.483,0.248 1.015,0.312 1.487,0.598 0.478,0.287 0.929,0.469 1.454,0.666 0.636,0.238 0.832,0.555 1.264,1.094 0.211,0.266 0.137,0.793 0.285,1.119 0.278,0.611 0.557,1.223 0.835,1.836 0.161,0.355 0.56,0.545 0.56,0.955 0,0.742 0,1.484 0,2.227 0,1.094 0.079,2.105 0.207,3.193 0.024,0.209 0.008,1.277 0.192,1.389 0.503,0.301 0.783,0.531 1.358,0.531 0.441,0 1.179,0.15 1.592,-0.016 0.548,-0.219 1.039,-0.387 1.613,-0.514 1.173,-0.26 2.306,-0.205 3.51,-0.205 0.86,0 1.767,0.443 2.608,0.338 0.244,-0.029 1.115,0 1.269,-0.188 0.212,-0.264 0.488,-0.824 0.822,-0.92 0.94,-0.27 1.636,-0.336 2.617,-0.336 0.555,0 1.651,0.957 2.132,0.691 0.468,-0.262 0.936,-0.521 1.403,-0.779 0.311,-0.174 0.32,-0.594 0.42,-0.924 0.052,-0.172 0.18,-1.002 0.375,-1.016 0.531,-0.037 1.063,-0.076 1.597,-0.113 0.516,-0.037 1.866,-0.156 2.212,0.328 0.514,0.717 1.011,1.553 1.639,2.182 0.229,0.229 0.817,0.465 0.931,0.764 0.181,0.482 0.359,0.961 0.541,1.443 -0.245,0.061 -0.49,0.123 -0.735,0.184 0.575,0.576 1.14,1.104 2.021,1.104 0.521,0 0.703,-0.021 1.126,0.26 0.396,0.264 0.734,0.484 1.175,0.66 0.763,0.305 1.225,0.957 1.719,1.594 0.599,0.771 1.052,1.174 1.867,1.719 0.245,-0.494 0.364,-0.734 0.796,-1.059 0.539,-0.404 0.985,-0.607 1.196,-1.242 0.215,-0.645 0.161,-0.635 0.806,-0.742 0.757,-0.125 1.514,-0.252 2.271,-0.379 1.014,-0.168 0.802,-1.775 0.543,-2.547 -0.168,-0.504 -0.517,-0.92 -0.81,-1.359 -0.266,-0.4 -0.233,-1.307 -0.312,-1.777 -0.34,-2.021 -1.364,-3.748 -1.364,-5.805 0,-1.064 0.219,-2.021 0.008,-3.074 -0.067,-0.338 -0.96,-0.875 -1.221,-1.102 -0.44,-0.387 -0.989,-0.064 -1.539,0.059 -0.53,0.119 -0.503,-0.131 -0.783,-0.598 -0.234,-0.393 -0.377,-0.826 -0.547,-1.25 -0.143,-0.355 -0.412,-0.686 -0.215,-1.029 0.212,-0.371 0.618,-0.83 0.618,-1.268 0,-1.799 0.479,-3.664 0.828,-5.428 0.168,-0.846 -0.732,-1.494 -1.035,-2.301 -0.32,-0.854 -0.599,-1.721 -0.92,-2.574 -0.271,-0.727 -0.521,-1.773 -1.186,-2.215 -0.816,-0.543 -1.594,-1.025 -2.469,-1.463 0.354,-0.266 0.687,-0.43 0.852,-0.842 0.272,-0.682 0.308,-0.641 1.028,-0.783 1.07,-0.215 1.415,-0.867 2.036,-1.695 0.472,-0.627 1.801,-0.072 2.262,-0.688 0.604,-0.803 1.421,-1.176 2.281,-1.693 -0.584,-0.438 -0.618,-0.594 -1.288,-0.344 -0.79,0.297 -0.869,0.369 -1.612,0 -0.268,-0.135 -0.466,-1.189 -0.565,-1.467 -0.271,-0.738 -0.063,-0.727 0.51,-1.297 0.314,-0.316 0.836,-0.432 1.119,-0.75 0.153,-0.176 0.241,-0.486 0.347,-0.697 0.095,-0.189 0.523,-0.342 0.702,-0.447 0.785,-0.471 1.974,0.301 2.836,0.223 0.604,-0.055 1.209,-0.109 1.812,-0.166 0.494,-0.045 0.573,-0.828 0.923,-1.121 0.323,-0.273 0.899,-0.439 1.291,-0.607 0.859,-0.367 0.771,-0.264 1.375,0.459 0.378,0.453 0.691,0.369 1.287,0.424 0.707,0.064 0.956,0.047 1.489,0.49 0.857,0.715 1.783,1.33 2.632,2.057 0.603,0.518 0.598,0.434 0.244,1.141 -0.28,0.561 -0.555,1.014 -0.932,1.516 -0.155,0.207 0.264,1.213 0.331,1.482 0.042,0.168 1.507,0.301 1.714,0.34 0.443,0.08 0.79,-0.086 1.234,-0.129 0.604,-0.059 1.242,0 1.851,0 1.006,0 1.707,-0.527 2.653,-0.818 0.652,-0.201 1.306,-0.402 1.959,-0.602 0.414,-0.129 0.678,-0.879 0.896,-1.23 0.493,-0.789 0.364,-2.113 0.48,-3.049 0.058,-0.457 0.103,-0.916 0.145,-1.375 0.063,-0.705 0.276,-1.066 -0.274,-1.508 -0.791,-0.635 -1.446,-1.689 -2.39,-2.043 -0.606,-0.23 -1.473,-0.326 -2.033,-0.605 -0.735,-0.369 -1.459,-0.729 -2.224,-1.035 -0.544,-0.217 -1.571,0.203 -2.145,0.307 -0.166,0.029 -0.991,-1.611 -1.125,-1.834 0.568,-0.154 1.138,-0.311 1.706,-0.465 0.539,-0.146 0.805,-0.672 1.155,-1.096 0.212,-0.254 1.126,0.035 1.442,0.074 0.353,0.045 0.78,-0.34 1.161,-0.41 0.567,-0.104 1.137,-0.211 1.707,-0.311 0.562,-0.098 1.078,0.049 1.145,-0.557 0.124,-1.111 0.165,-2.135 -0.194,-3.215 -0.197,-0.592 -0.466,-0.916 -0.841,-1.416 -0.268,-0.355 -0.973,-0.453 -1.403,-0.561 -0.609,-0.154 -0.783,-0.375 -1.234,-0.828 -0.307,-0.307 -0.721,-0.988 -1.182,-0.943 -0.83,0.084 -2.677,0.525 -3.076,-0.408 -0.234,-0.547 -0.396,-0.961 -0.479,-1.545 -0.055,-0.381 -0.381,-1.238 -0.166,-1.525 0.622,-0.83 1.585,-1.441 1.913,-2.428 -0.062,0.184 -0.122,0.367 -0.184,0.553 0.736,0 0.923,0.002 1.509,0.441 0.477,0.357 0.911,0.779 1.359,1.17 0.28,0.248 0.662,0.527 1.031,0.602 0.74,0.148 0.904,0.166 1.575,-0.17 0.953,-0.479 2.065,0.117 2.065,1.176 0,0.412 -0.193,1.383 0,1.746 0.202,0.381 0.862,0.668 1.168,1.025 0.854,0.992 1.286,1.346 2.589,1.428 0.627,0.039 1.254,0.078 1.881,0.117 0.443,0.027 1.088,-0.381 1.505,-0.537 0.397,-0.15 1.229,0.107 1.651,0.15 0.432,0.043 0.865,0.254 1.253,0.447 0.521,0.26 0.928,0.332 1.131,0.875 0.235,0.629 0.357,1.039 0.823,1.506 0.229,0.229 0.459,0.459 0.688,0.688 -0.142,-0.992 -0.799,-3.008 0,-3.861 0.188,-0.203 0.674,-0.232 0.919,-0.369 0.271,-0.148 0.48,-0.439 0.768,-0.562 0.694,-0.299 1.247,-0.539 1.992,-0.631 0.646,-0.08 1.289,-0.143 1.937,-0.201 0.754,-0.068 1.141,-0.043 1.375,0.846 0.037,0.139 -0.095,0.877 0.016,0.926 0.309,0.131 0.616,0.264 0.926,0.396 0.335,0.143 1.573,0.945 1.818,0.516 -0.062,0.062 -0.123,0.123 -0.185,0.186 1.051,0.42 2.046,0.93 3.059,1.436 0.199,0.1 -0.555,2.502 -1.062,2.615 -0.388,0.086 -1.339,0.104 -1.628,0.363 -0.601,0.531 0.059,1.078 -0.921,0.711 -1.118,-0.418 -2.042,-0.342 -3.222,-0.234 -0.979,0.088 -2.208,0.152 -2.663,1.178 -0.168,0.377 -0.184,0.961 -0.184,1.381 0,0.898 -0.011,0.998 0.621,1.629 0.379,0.381 0.802,0.717 1.205,1.07 0.481,0.422 0.887,0.406 1.534,0.498 0.471,0.066 0.935,0.248 1.391,0.377 0.432,0.123 0.925,0.562 1.37,0.562 0.814,0 1.262,0.123 1.794,0.791 0.529,0.66 0.679,1.146 0.913,1.967 -1.385,0.23 -2.555,-0.018 -3.844,-0.568 -0.66,-0.283 -1.193,0.338 -1.776,0.703 -0.177,0.109 0.353,1.443 0.585,1.598 0.812,0.541 1.138,0.674 2.104,0.771 0.721,0.072 1.382,0.236 2.086,0.414 0.501,0.125 1.057,0.854 1.434,1.186 0.54,0.473 1.08,0.943 1.619,1.416 0.215,-0.537 0.307,-0.869 0.751,-1.227 0.668,-0.535 0.694,-0.334 1.425,0.104 0.427,0.256 0.869,-0.043 1.047,0.49 0.193,0.582 0.291,1.031 0.348,1.639 0.093,1.02 0.113,2.27 0.478,3.225 0.387,1.014 1.195,1.75 1.412,2.836 0.222,1.105 0.331,1.971 0.782,3.02 0.158,0.371 0.012,0.912 0.275,1.23 0.404,0.484 0.791,0.883 1.023,1.465 0.201,0.504 0.271,0.99 0.36,1.527 0.057,0.336 1.16,0.143 1.387,0.066 0.672,-0.225 0.825,-0.434 1.287,-0.986 0.378,-0.455 0.219,-0.789 0.29,-1.361 0.062,-0.498 0.117,-0.998 0.188,-1.496 0.116,-0.814 0.068,-1.076 0.7,-1.582 0.895,-0.715 1.522,-1.58 2.206,-2.49 0.614,-0.818 1.657,-1.48 2.393,-2.215 0.795,-0.793 1.898,-0.752 2.93,-0.752 0.505,0 1.086,-0.232 1.578,-0.344 0.391,-0.086 0.835,0.16 1.242,0.16 0.448,0 1.242,0.164 1.653,-0.014 0.403,-0.172 1.228,-0.299 1.285,-0.768 0.28,-2.242 0.459,-4.332 0.111,-6.578 -0.038,-0.252 -0.017,-0.729 -0.16,-0.945 -0.219,-0.328 -0.583,-0.705 -0.716,-1.074 -0.263,-0.736 -0.163,-1.633 -0.068,-2.389 0.185,-1.471 -0.274,-3.143 -0.482,-4.6 0.624,0.139 1.25,0.316 1.886,0.396 0.926,0.115 1.43,0.107 2.33,-0.117 0.487,-0.123 1.412,-0.656 1.514,-1.158 0.145,-0.717 0.172,-1.424 0.292,-2.146 0.096,-0.572 0.172,-1.119 0.5,-1.588 0.342,-0.488 0.694,-1.457 1.336,-1.457 0.954,0 1.908,0 2.862,0 0.594,0 1.097,0.447 1.604,0.736 0.208,-0.416 0.381,-0.875 0.66,-1.248 0.454,-0.607 0.482,-0.92 0.579,-1.68 0.125,-0.994 1.713,-1.119 2.529,-1.119 2.233,0 4.373,-1.369 6.35,-2.305 0.59,-0.279 0.365,-2.359 0.365,-2.922 0,-0.467 0.374,-1.043 0.545,-1.469 0.214,-0.537 0.189,-0.959 0.189,-1.543 0,-1.086 0.693,-2.029 1.236,-2.898 0.205,-0.328 0.823,-0.301 1.113,-0.592 0.447,-0.447 0.93,-0.842 1.416,-1.248 0.354,-0.295 1.023,-0.359 1.459,-0.49 0.462,-0.139 0.934,-0.416 1.396,-0.51 0.396,-0.078 1.077,-0.078 1.472,0 0.21,0.041 0.433,0.172 0.631,0.25 0.339,0.137 0.221,0.162 0.362,0.447 0.31,0.617 0.393,0.625 1.041,0.861 0.417,0.15 1.218,0.229 1.334,0.693 0.08,0.318 0.112,1.273 0.492,1.211 0.668,-0.111 1.336,-0.223 2.004,-0.332 0.212,-0.035 0.769,0.75 0.899,0.969 0.069,0.117 0.432,0.549 0.409,0.682 -0.034,0.197 -0.558,0.559 -0.704,0.705 -0.063,0.062 0.415,1.082 0.541,1.146 0.58,0.289 1.158,0.578 1.738,0.867 0.892,0.445 1.668,1.111 2.575,1.564 0.562,0.279 1.121,0.559 1.683,0.84 0.411,0.205 0.685,0.646 1.115,0.82 0.595,0.236 0.956,0.455 1.457,0.854 0.332,0.268 0.858,0.428 0.979,0.945 0.269,1.166 0.383,2.154 1.099,3.107 0.395,0.525 0.553,0.742 0.66,1.379 0.089,0.531 0.182,0.908 0.386,1.42 0.18,0.445 -0.042,1.148 -0.089,1.619 -0.059,0.592 -0.596,0.828 -1.044,1.203 -0.298,0.248 -0.73,0.43 -0.906,0.779 -0.317,0.637 -0.637,1.275 -0.955,1.912 -0.222,0.441 -0.366,0.926 -0.541,1.389 -0.196,0.525 -0.636,0.965 -0.97,1.41 -0.582,0.777 -0.579,2.094 -0.768,3.035 -0.098,0.484 -0.003,1.072 -0.003,1.566 0,0.492 -0.359,1.092 -0.525,1.549 -0.188,0.514 -0.397,0.83 -0.73,1.273 -0.231,0.309 -0.03,1.402 -0.03,1.787 0,0.955 0.113,1.916 0.23,2.865 0.139,1.107 0.059,2.186 0.137,3.295 0.032,0.467 0.029,1.135 0.366,1.473 0.391,0.391 0.576,0.967 0.821,1.457 0.216,0.432 0.495,0.832 0.751,1.24 0.302,0.484 0.253,0.664 0.217,1.25 -0.072,1.17 -0.157,2.32 -0.304,3.484 -0.051,0.402 0.171,0.875 0.171,1.305 0,0.521 -0.012,1.061 -0.185,1.562 -0.087,0.252 -0.688,1.006 -0.456,1.17 0.393,0.279 0.917,0.883 1.415,0.828 0.478,-0.055 0.955,-0.107 1.433,-0.16 0,1.111 -0.083,2.045 -0.368,3.127 -0.297,1.127 -0.734,2.088 -0.734,3.26 0,1 0.744,1.682 0.956,2.602 0.149,0.652 0.301,1.305 0.451,1.957 0.112,0.488 -0.065,0.984 -0.154,1.475 -0.188,1.027 -0.101,2.045 -0.307,3.068 -0.071,0.361 -1.062,0.533 -1.391,0.656 -0.411,0.154 -1.057,-0.02 -1.484,-0.047 -0.521,-0.033 -1.044,-0.082 -1.565,-0.098 -0.893,-0.029 -0.736,0.072 -0.736,0.922 0,1.041 0.509,1.904 0.655,2.93 0.088,0.611 0.175,1.221 0.262,1.832 0.022,0.156 -1.093,0.799 -1.26,0.918 -0.177,0.125 -0.025,1.344 -0.025,1.572 0,0.533 -0.165,0.799 -0.409,1.289 -0.393,0.783 -0.768,1.648 -0.911,2.518 -0.175,1.043 -0.162,2.387 -0.638,3.338 -0.246,0.494 -0.432,0.785 -0.432,1.326 0,0.566 0.072,1.184 0,1.746 -0.074,0.578 -0.184,0.74 -0.041,1.309 0.073,0.293 0.169,1.455 0.408,1.635 0.146,0.109 0.555,-0.055 0.735,0 0.193,0.057 0.41,0.256 0.579,0.361 0.431,0.27 0.858,0.535 1.28,0.816 0.96,0.641 1.62,1.441 2.369,2.316 -0.344,0.139 -0.72,0.385 -1.096,0.354 -0.639,-0.049 -1.275,-0.098 -1.913,-0.145 -0.444,-0.035 -0.843,-0.205 -1.266,-0.348 -0.412,-0.137 -1.003,0.076 -1.428,0.139 0.521,0.777 0.884,1.213 1.628,1.771 0.6,0.449 1.148,0.977 1.55,1.619 0.487,0.779 0.855,1.309 1.005,2.209 0.124,0.744 0.633,1.453 0.969,2.123 1.003,-0.557 1.651,-0.916 2.364,-1.807 0.284,-0.354 0.938,-0.602 1.322,-0.844 0.338,-0.211 0.473,-0.771 0.839,-0.877 0.404,-0.113 1.008,-0.479 1.35,-0.186 0.383,0.328 0.797,0.639 1.152,0.994 0.784,0.785 1.567,1.566 2.353,2.352 0.46,-1.15 0.552,-1.996 0.552,-3.232 0,-1.059 0.207,-2.109 0.339,-3.158 0.125,-1.008 -0.031,-1.986 0.191,-2.986 0.228,-1.016 0.801,-1.994 1.708,-2.598 0.419,-0.281 0.836,-0.717 1.351,-0.717 0.778,0 0.933,0.152 1.271,-0.521 0.277,-0.555 0.556,-1.111 0.834,-1.666 0.206,-0.412 -0.255,-0.971 0.21,-1.236 0.356,-0.205 0.85,-0.664 1.271,-0.588 0.561,0.104 1.32,0.104 1.837,0.336 0.438,0.197 0.749,0.557 1.212,0.74 0.555,0.223 1.119,0.422 1.652,0.689 0.46,0.23 0.895,0.492 1.335,0.756 0.195,0.117 1.279,-0.242 1.503,-0.348 0.891,-0.428 1.438,-1.764 1.134,-2.668 -0.204,-0.611 -0.45,-0.938 -0.857,-1.447 -0.279,-0.35 -0.905,-0.316 -1.291,-0.537 -0.905,-0.52 -1.804,-1.018 -2.826,-1.273 -0.627,-0.156 -1.254,-0.314 -1.881,-0.471 -0.387,-0.098 -0.489,-1.018 -0.606,-1.367 -0.171,-0.512 0.232,-0.594 0.262,-1.08 0.037,-0.645 0.074,-1.289 0.112,-1.934 0.062,-1.023 0.101,-2.086 1.175,-2.488 0.644,-0.242 0.947,-0.375 1.43,-0.855 0.26,-0.26 1.382,-0.162 1.747,-0.193 0.405,-0.037 0.336,0.029 0.47,0.43 0.183,0.545 0.143,0.619 0.675,0.795 0.666,0.223 1.363,0.301 1.99,0.613 0.726,0.361 1.437,0.715 2.188,1.018 0.325,0.129 0.771,-0.049 1.107,-0.104 0.368,-0.062 0.783,0.068 1.148,0.121 0.328,0.047 0.567,0.184 0.867,0.334 0.291,0.145 0.676,0.117 0.939,0.295 0.365,0.244 0.647,0.365 0.736,0.805 0.103,0.518 0.104,0.611 0.509,0.936 0.371,0.295 0.446,0.436 0.9,0.391 0.482,-0.047 0.966,-0.096 1.447,-0.145 0.71,-0.07 1.522,0.123 2.234,0.182 -0.192,-0.957 0,-1.766 0,-2.727 0,-1.236 0,-2.473 0,-3.709 0.484,0.242 0.968,0.467 1.466,0.68 0.439,0.189 1.098,0.252 1.445,0.557 0.188,0.164 1.384,1.041 1.274,1.225 -0.35,0.582 -0.699,1.166 -1.049,1.748 -0.035,0.061 0.434,0.465 0.498,0.529 0.104,0.105 0.633,-0.254 0.757,-0.316 0.578,-0.289 0.784,-0.826 1.126,-1.373 0.215,-0.342 0.437,-1.219 0.735,-1.396 0.194,-0.113 0.765,0.154 0.919,0 0.1,-0.1 0,-0.76 0,-0.918 0.638,0.531 1.275,1.055 1.931,1.562 0.787,0.611 1.179,1.17 1.738,2.01 0.449,0.674 1.182,1.168 1.785,1.705 0.253,0.223 1.674,-0.406 1.838,-0.734 0.111,-0.223 0.274,-0.844 0.541,-0.879 0.385,-0.049 1.017,0 1.361,-0.172 0.286,-0.143 0.513,-0.541 0.759,-0.752 0.395,-0.338 0.789,-0.676 1.184,-1.016 0.599,-0.514 -0.572,-1.725 0.542,-1.725 0.738,0 1.621,0.316 2.113,0.918 0.741,-0.738 1.906,-1.361 2.162,-2.383 0.114,-0.459 0.312,-0.893 0.428,-1.35 0.213,-0.85 0.407,-0.74 1.26,-0.955 0.437,-0.109 0.826,-0.096 1.278,-0.096 0.37,0 1.56,0.213 1.863,0 0.226,-0.156 0.375,-1.125 0.46,-1.381 0.209,-0.625 0.418,-1.25 0.626,-1.877 0.122,-0.365 -0.105,-1.031 -0.153,-1.416 -0.023,-0.188 0.893,-0.666 1.05,-0.602 0.908,0.363 2.003,0.945 2.995,0.613 1.006,-0.336 2.015,-0.562 3.025,-0.865 0.465,-0.139 0.932,-0.328 1.415,-0.381 0.432,-0.049 1.2,0.031 1.545,-0.254 0.88,-0.734 1.846,-1.373 2.482,-2.33 0.283,-0.426 0.486,-1.025 1.006,-1.129 0.628,-0.125 1.095,-0.074 1.737,0 1.032,0.115 1.459,1.42 2.495,1.547 0.349,0.043 1.181,0.32 1.459,0.088 0.452,-0.375 0.908,-0.719 1.284,-1.17 0.37,-0.445 0.735,-0.865 1.146,-1.273 0.403,-0.404 0.232,-1.041 0.232,-1.596 0,-1.023 0.246,-2.059 0.46,-3.051 0.229,-1.066 0.309,-2.195 0.712,-3.203 0.202,-0.506 0.665,-0.84 1.047,-1.223 0.365,-0.365 1.156,-0.172 1.647,-0.172 0.812,0 1.802,0.438 2.531,-0.109 0.562,-0.418 0.606,-0.504 0.775,-1.178 0.186,-0.744 0.208,-0.75 0.898,-1.094 0.835,-0.416 1.706,-0.57 2.603,-0.793 0.246,-0.062 1.314,-0.381 1.277,-0.715 -0.028,-0.543 -0.089,-1.086 -0.149,-1.629 z M 62.734642,283.31379 c -0.01,0 -0.174,0 -0.184,0 0.009,0 0.179,0 0.184,0 z m 428.169998,184.836 c -0.115,0.057 -0.246,0.123 -0.367,0.184 0.122,-0.063 0.245,-0.124 0.367,-0.184 z m -19.309,-328.841 c 0,0.315 -0.174,1.099 0.184,1.103 -0.122,0.123 -0.245,0.245 -0.367,0.368 0.122,-0.123 0.244,-0.245 0.366,-0.367 -0.733,-0.008 0.228,-1.926 0.369,-2.207 -0.184,0.367 -0.37,0.736 -0.552,1.103 z m -241.491,331.415 c -0.062,-0.184 -0.123,-0.367 -0.185,-0.553 0.062,0.186 0.124,0.369 0.185,0.553 z m 264.664,66.943 c 0.123,0.123 0.245,0.246 0.368,0.369 -0.123,-0.121 -0.246,-0.246 -0.368,-0.369 z m 2.575,0.736 c -0.497,0 -1.702,0.252 -2.022,-0.184 0.463,0.623 1.753,-0.262 2.207,0.367 -0.062,-0.06 -0.125,-0.12 -0.185,-0.183 z"
   style="fill:#a30000;fill-opacity:1;stroke:none;stroke-width:1.60000002" />




</svg>