<?xml version="1.0" encoding="UTF-8" standalone="no"?>
<svg
   xmlns:dc="http://purl.org/dc/elements/1.1/"
   xmlns:cc="http://creativecommons.org/ns#"
   xmlns:rdf="http://www.w3.org/1999/02/22-rdf-syntax-ns#"
   xmlns:svg="http://www.w3.org/2000/svg"
   xmlns="http://www.w3.org/2000/svg"
   id="svg969"
   version="1.1"
   viewBox="0 0 240.85158 253.43137"
   height="253.43137mm"
   width="240.85158mm">
  <defs
     id="defs963" />
  <metadata
     id="metadata966">
    <rdf:RDF>
      <cc:Work
         rdf:about="">
        <dc:format>image/svg+xml</dc:format>
        <dc:type
           rdf:resource="http://purl.org/dc/dcmitype/StillImage" />
        <dc:title></dc:title>
      </cc:Work>
    </rdf:RDF>
  </metadata>
  <path
     d="M 217.37758,2.7945321e-4 C 216.95509,-0.00972055 216.9379,0.25042945 216.58434,0.49637945 c -0.40406,0.28108 -1.19473,0.29822 -1.03662,0.71985005 0.15811,0.42163 0.65008,1.17719 0.65008,1.17719 0,0 -0.96587,0.17572 -1.29966,0.36897 -0.33379,0.19325 -0.36899,0.75556 -0.54467,1.21233 -0.17568,0.45676 -0.65014,1.52811 -1.1069,1.84433 -0.45677,0.31622 -1.30024,0.98394 -1.70429,1.14205 -0.40407,0.15811 -1.24698,0.21088 -1.38752,0.54467 -0.14054,0.33379 -0.31633,1.54618 -0.94878,1.70429 -0.63244,0.15811 -1.03661,0.10546 -0.93121,0.43925 0.10541,0.33379 -0.0177,1.3523595 -0.56223,1.3172295 -0.54461,-0.0351 -1.08263,-0.0501 -1.08263,-0.0501 0,0 -0.65636,0.43663 -1.25367,0.0853 -0.5973,-0.35136 -1.65164,-0.24596 -2.16111,-0.0176 -0.50946,0.22838 -1.75656,1.75702 -2.45928,1.98541 -0.70271,0.22838 -2.51203,0.80823 -2.88096,0.94878 -0.36892,0.14054 -1.05421,1.40515 -1.07177,2.00246 -0.0176,0.59731 0.31621,2.45936 0.0176,3.16208 -0.29865,0.70271 -0.65009,2.07326 -0.65009,2.07326 0,0 -2.10795,0.10545 -2.7404,0.38654 -0.63244,0.28108 -1.95035,0.10551 -2.63549,0.86093 -0.68515,0.75542 -3.37297,2.30115 -3.79461,2.31872 -0.42163,0.0176 -2.45935,0.73796 -3.07423,0.93121 -0.0703,0.0176 -0.36795,0.27103 -0.77256,0.89968 -0.1938,-0.10919 -1.9152,-0.91728 -2.49494,-1.14566 -0.57974,-0.22839 -1.73943,-1.28261 -1.73943,-1.28261 0,0 -1.58132,1.38808 -1.79214,1.82728 -0.21081,0.43919 -2.59989,0.66764 -3.03909,0.54467 -0.43919,-0.12298 -0.68529,0.49149 -1.24747,0.94826 -0.56217,0.45676 -1.36998,0.36895 -1.75648,0.21084 -0.38649,-0.15811 -1.03668,-1.1767 -1.45831,-1.42265 -0.42163,-0.24595 -1.0113,-0.63562 -1.0113,-0.63562 -0.0429,-0.0497 -0.0957,-0.80518 -0.56999,-1.31465 -0.47434,-0.50947 -1.33482,-0.47443 -1.44023,-0.82579 -0.10541,-0.35136 -0.73795,-1.21186 -0.82579,-1.56321 -0.0878,-0.35136 0.1447,-1.17358 0.1447,-1.17358 0,0 -0.46295,-0.86545 -0.18966,-1.26297 0.2733,-0.39751 0.37259,-1.54047 0.37259,-1.54047 0,0 -1.09327,-0.2979 -1.54047,0.17415 -0.44721,0.47205 -1.61508,0.84467 -2.13682,0.67076 -0.52174,-0.17392 -1.16776,-0.0997 -1.56528,0.17363 -0.39752,0.27329 -0.57103,1.2175 -0.57103,1.2175 0,0 -2.11185,-0.27321 -2.53421,-0.0496 -0.42236,0.2236 -1.54046,-0.42236 -2.18643,0 -0.64596,0.42236 -1.14311,1.41597 -1.11828,1.71411 0.0248,0.29813 -0.24391,0.9834 -0.24391,0.9834 -0.0789,-0.0391 -1.2467,-0.4369 -2.04173,-0.61082 -0.79504,-0.17391 -0.8692,-0.14883 -0.8692,-0.14883 0,0 0.84439,-0.79493 0.84439,-1.34152 0,-0.54658 -0.62126,-1.61492 -1.19269,-2.23603 -0.57143,-0.62112 -1.24189,-0.52181 -2.1363,-0.91933 l -0.67283,0.20257 c 0,0 -1.22993,-0.15816 -1.45831,-0.45682 -0.22839,-0.29865 -0.0528,-1.12448 -0.61495,-1.19476 -0.56217,-0.0703 -1.00151,0.75548 -1.15962,0.50953 -0.15811,-0.24595 -0.12304,-1.19474 -0.59738,-1.07177 -0.47433,0.12298 -0.86043,0.63247 -1.03611,0.1757 -0.17568,-0.45676 0,-1.21232 0,-1.21232 0,0 -0.74656,0.0418 -1.16892,0.38964 -0.42236,0.34782 -1.04347,1.51546 -1.29191,1.63969 -0.24845,0.12422 -0.89467,0.89405 -1.44126,0.54622 -0.54658,-0.34783 -1.1926,-0.76982 -1.56528,-0.54622 -0.37267,0.2236 -1.73875,0.74513 -1.83813,0.76998 -0.0994,0.0248 0.24853,0.74521 -0.0496,1.04335 -0.29814,0.29813 -1.50378,0.93999 -1.50378,0.93999 0,0 -1.602,-0.11996 -2.22312,-0.71624 -0.62112,-0.59627 -3.20489,-0.52145 -3.57756,-0.49661 -0.37267,0.0249 -1.2919,-0.94413 -1.93787,-0.62115 -0.64596,0.32298 -2.0624,-0.19871 -2.38538,-0.0248 -0.32298,0.17391 -1.8386,1.19237 -2.50941,1.39113 -0.6708,0.19876 -2.7578,-0.0499 -3.50314,-0.19896 -0.74535,-0.14907 -1.66422,-0.59635 -1.83813,-0.27336 -0.17392,0.32298 -1.26716,0.91927 -0.91933,1.2671 0.34783,0.34783 1.21739,0.69592 0.64596,0.7953 -0.57143,0.0994 -2.45975,0.22368 -3.13056,0.27337 -0.67081,0.0497 -3.205,0.94417 -3.82612,0.91932 -0.62112,-0.0248 -1.19254,-0.12434 -1.29191,0.0744 -0.0994,0.19876 -0.37279,1.39104 -0.24857,1.76371 0.12423,0.37268 -0.96893,1.09319 -0.96893,1.59009 0,0.49689 0.72088,2.13682 0.72088,2.13682 0,0 0.89432,0.0744 1.34153,-0.54674 0.4472,-0.62112 1.91265,-0.91889 2.48408,-0.54622 0.57143,0.37267 1.98779,0.96853 2.11202,1.53996 0.12421,0.57143 0.39735,1.34203 0.0992,1.98799 -0.29814,0.64597 0.14986,1.53789 0.14986,1.53789 -0.72114,0.0271 -1.29266,0.54859 -2.11254,1.31879 -0.81987,0.77018 -1.73915,1.88844 -1.59008,2.41018 0.14907,0.52175 -0.472,0.81998 -0.99374,1.2175 -0.52174,0.39752 -0.32292,1.36644 -1.31671,1.614889 -0.99379,0.248447 -2.73308,1.44113 -3.42873,1.838648 -0.69566,0.397515 -0.24801,1.689018 -0.59583,2.185913 -0.34783,0.496896 -1.193,0.894509 -2.28617,1.540473 -1.09317,0.645965 -1.24178,2.434995 -1.24178,2.434995 0,0 -1.528311,0.261009 -2.025201,-0.08682 -0.4969,-0.347826 -1.25479,-0.608917 -1.2051,0.136428 0.0497,0.745341 -0.49027,1.734745 -0.54622,2.484601 -0.0546,0.731348 -0.11125,0.909061 -0.16174,1.353923 -0.0727,0.640578 -2.45947,-0.225081 -2.17403,0.4346 0.30056,0.694613 1.04395,1.639958 0.3483,2.434992 -0.69566,0.795033 -3.42897,3.825875 -3.27991,4.620908 0.14907,0.79503 0.0501,1.391404 -0.54621,1.540473 -0.59628,0.149069 -1.49115,1.540385 -1.64021,2.236038 -0.14907,0.695654 -0.79474,2.136537 -1.14257,2.633433 -0.34783,0.496895 -0.99382,1.192604 -0.94413,1.888257 0.0497,0.695653 -0.43305,1.579232 -0.43305,1.579232 -0.36171,-0.272479 -0.56766,-0.37456 -0.93741,-0.06976 -0.31754,-0.371303 -1.25553,0.08357 -1.10846,-0.590145 0.3896,-0.450485 0.0968,-0.758711 -0.18965,-1.131716 -0.0233,-0.892913 -0.93043,-1.095438 -1.53789,-1.462442 -0.99708,0.08561 -1.26393,-1.069586 -1.65726,-1.757516 -0.37084,-0.641511 -0.75955,-1.264084 -1.52756,-1.455724 -0.67395,-0.226711 -1.38254,0.218789 -1.98696,0.502812 -0.7,0.09964 -1.4055,-0.388075 -2.13837,-0.350883 -0.81256,-0.348676 -1.12119,0.592005 -1.8433,0.574641 -0.97915,0.386503 -1.26216,-0.310962 -1.18132,-1.187524 0.25497,-0.973508 0.55087,-1.938557 0.85525,-2.895947 -0.20714,-0.377542 -1.16211,-0.08871 -1.61489,-0.436666 -0.70316,-0.430527 -1.35948,0.484714 -2.08722,0.112136 -0.70806,-0.118038 -1.45468,-0.68626 -1.38182,-1.439188 0.38926,-0.952359 0.26376,-1.995241 0.12557,-2.985346 -0.80145,0.863015 -1.45576,2.289119 -2.85461,1.975072 -1.19889,0.0087 -1.739,1.237207 -2.83703,1.511019 -0.88065,0.191688 -1.35094,0.854946 -1.26762,1.711524 -0.17302,0.911055 -1.31595,1.080489 -2.09807,0.961181 -1.06433,0.121719 -1.18383,1.629092 -2.08101,2.11305 -0.99928,0.416187 -0.50483,1.559176 -0.66972,2.335257 -0.19407,0.851305 -1.14878,1.135769 -1.2299,2.057239 -0.67867,0.562133 -1.28531,1.076139 -1.15704,1.934765 -0.58619,0.577043 -1.17616,1.055293 -1.55494,1.824178 -0.96326,0.830366 -0.83582,2.179039 -1.38906,3.21686 0.0352,0.781325 0.0898,1.67777 0.34623,2.475817 -0.27909,0.790398 -0.28511,1.406038 -0.52555,2.144572 0.58309,0.85924 -0.40703,0.740119 -0.30438,1.845882 -0.71941,0.339285 -0.6026,1.330134 -0.90537,2.091862 0.032,1.115446 -1.1185,0.822417 -1.78335,1.315683 -0.40646,0.676349 -1.03883,1.31373 -1.61076,1.924946 -0.0706,0.808176 -1.24774,1.441577 -0.70073,2.258777 0.14085,0.517981 -0.67877,1.197227 -0.55242,1.800405 -0.26739,-1.213072 -0.5855,0.150969 -1.4366,0.120407 -1.05395,0.451847 -1.00474,-1.060082 -2.09497,-0.481624 -1.35801,-0.170071 -0.94442,0.506243 -1.5906,1.048515 -0.51859,0.329366 -0.14383,1.451081 -1.1653,1.774052 -0.0109,0.60138 0.29797,1.284362 -0.88883,1.390613 0.0653,0.389123 -0.30333,1.261438 -0.54364,2.118217 0.62533,0.500753 0.87416,-0.881949 1.36684,-0.10387 0.99431,-0.788635 1.31787,1.195652 0.0837,0.837676 -0.38172,0.245089 0.18896,1.050605 -0.72709,1.353405 0.14262,0.87109 0.21727,1.198705 0.11886,2.057238 0.48948,0.05951 1.56915,0.491401 1.38596,1.389063 -0.825,0.532733 0.41343,2.246065 -0.81701,1.437125 -0.99779,-0.78387 -1.18068,0.0159 -0.81235,0.88728 1.02751,1.05062 -0.72758,0.0518 -1.11983,0.49041 -1.21017,1.22798 0.80757,0.0685 0.68161,0.60151 -0.70494,0.87747 -0.59697,1.13527 0.35864,1.279 0.24552,0.65643 0.69039,2.01587 -0.46768,1.88257 -1.34089,-0.28579 -0.93592,0.13179 -0.50487,1.11156 0.31111,1.32408 -1.45229,0.0689 -1.35651,1.34204 -0.8139,0.3796 0.63158,0.8157 -0.016,1.65106 -1.50438,-0.22318 -0.13999,1.19011 -1.14928,1.36891 -0.49224,0.60781 -1.09062,0.98632 -1.42989,1.74356 -0.59742,0.24879 -0.69298,0.3139 -1.09554,0.88573 -0.32145,0.0303 -0.64464,-0.39773 -0.96583,-0.2589 -0.44633,0.0398 -0.12601,0.56068 0.0687,0.74208 0.40593,0.19473 0.2182,0.661 0.26148,1.02164 -0.17121,0.14709 -0.71622,-0.48841 -0.86248,-0.13901 -0.58716,0.65423 0.80159,0.35428 -0.21807,1.14774 -0.33131,0.40836 0.15358,0.48951 0.50126,0.41547 -0.20568,0.39066 -0.46225,0.75757 -0.63356,1.16427 -0.27284,0.3417 0.0194,0.6136 0.21963,0.89711 0.0292,0.39789 0.74198,0.33957 0.54364,0.69246 -0.0647,0.4494 -0.57804,0.57833 -0.70177,1.00407 -0.51854,-0.058 -0.98077,0.2718 -1.50482,0.1757 -0.3456,0.16795 -0.18262,0.65016 -0.30127,0.94723 -0.0798,0.45454 -0.62415,0.20225 -0.58808,-0.16278 -0.0562,-0.40132 -0.1225,-0.78274 -0.55656,-0.4284 -0.39226,0.0697 -0.58084,0.4781 -0.95291,0.56276 -0.47316,0.0336 -0.6675,0.49633 -0.96686,0.79737 -0.30382,0.17349 -0.72395,0.55138 -0.5855,-0.0527 -0.0773,-0.5031 -0.57663,-0.86213 -1.06557,-0.9338 -0.47928,-0.23465 -0.74028,-0.78016 -0.94878,-1.25418 -0.0889,-0.57547 -0.41665,-0.0221 -0.66352,0.14831 -0.24961,0.42889 -0.56982,-0.024 -0.88263,-0.11317 -0.33517,-0.0404 -0.80852,0.15854 -0.90848,-0.28887 0.0362,-0.2934 0.49855,-0.52236 0.3576,-0.90331 0.11337,-0.6248 -0.25841,-0.0426 -0.52503,0.078 -0.39789,0.30243 -0.99061,0.41251 -1.19941,0.90124 0.0141,0.33241 0.25067,0.68157 0.34727,1.02009 -0.14005,0.84719 -0.54701,1.43477 -0.94465,2.10375 -0.0861,0.39091 0.40523,0.55096 -0.10852,0.78341 -0.72334,0.56785 -0.19888,1.00672 0.10129,1.68207 -0.12471,0.97398 -1.04783,1.89888 -0.65888,2.84582 -0.23922,0.31142 -0.36951,0.60437 0.0662,0.79995 0.22678,0.14153 0.80843,-0.82081 0.69091,0.27079 -0.19174,0.54874 -0.752,0.76456 -1.1777,1.10226 -0.22355,1.08518 -0.60466,0.70333 -0.45217,1.64744 -0.0728,0.56807 -0.43715,1.0013 -0.74673,1.45986 -0.45693,-0.22561 -0.91404,-0.45135 -1.37097,-0.67696 -0.19985,0.13517 -0.33091,0.21262 -0.49713,0.43615 -0.49713,0.43576 0.32305,0.86931 0.91932,1.11776 0.24971,0.0867 1.01044,1.64772 1.54048,2.41019 0.17391,0.59627 -0.47193,0.96857 -0.39739,1.19217 0.0745,0.22361 1.68961,-0.67068 2.13682,-0.39739 0.11564,0.93643 -0.74312,1.78426 -0.94413,1.96267 -0.24845,0.2733 -0.16898,1.88568 -0.16898,1.88568 0.003,-0.0182 -1.58892,-0.58812 -1.82728,0.5271 -0.10954,0.51252 0.8082,2.00303 0.61495,2.5125 -0.19325,0.50947 -0.45636,0.28111 -0.93069,0.14056 -0.47434,-0.14054 -0.80821,0.38607 -0.79065,0.77257 0.0176,0.38649 1.19426,0.84338 1.36994,1.03663 0.17568,0.19324 -1.79163,1.33532 -1.8619,1.40559 -0.0703,0.0703 0.65015,1.52812 1.15962,1.89705 0.50947,0.36892 1.08887,-0.15814 1.49293,-0.21084 0.40406,-0.0527 2.02778,1.0635 2.02778,1.0635 -0.16926,0.49189 -0.88691,0.43527 -1.71152,0.27182 0,0 -0.80824,1.54616 -1.00149,1.65157 -0.19325,0.10541 -0.79013,-0.59737 -0.79013,-0.59737 0,0 -1.61649,-0.10546 -2.05569,-0.40412 -0.4392,-0.29865 -0.91363,0.35145 -0.89607,0.66766 0.0176,0.31623 1.8097,1.7565 1.77457,1.87948 -0.0351,0.12297 -0.63257,1.70428 -1.07177,1.70428 -0.4392,0 -0.59742,-1.26502 -0.8785,-1.15961 -0.28109,0.1054 -0.80825,1.42321 -1.01906,1.77456 -0.21082,0.35137 -0.36843,1.28216 -0.15761,1.79163 0.21081,0.50947 0.15809,1.49345 -0.12299,1.56372 -0.2810899,0.0703 -1.1947699,0.63255 -1.3001799,0.84336 -0.10541,0.21082 0.54465,0.84341 0.38654,1.21233 -0.15811,0.36893 -1.17719,0.8956 -1.12448,1.31724 0.0527,0.42162 1.19482,1.1948 1.70429,1.56373 0.5094699,0.36892 0.4040999,2.35387 0.3338299,2.51199 -0.0703,0.15811 -1.2650799,0.12301 -1.5461599,0.31626 -0.28109,0.19324 0.0703,1.35295 0.0527,1.86241 -0.0176,0.50948 -0.43925,2.40662 -0.40411,2.72284 0.0351,0.31622 0.9488,0.56224 1.14205,0.59738 0.19324,0.0351 0.0527,1.33533 -0.21084,1.51102 -0.26352,0.17567 -1.70432,0.43926 -1.91513,0.54466 -0.21082,0.10541 -1.17669,-0.21085 -1.3348,-0.22841 -0.15811,-0.0176 -0.15813,-0.94878 -0.15813,-0.94878 0,0 -0.47442,0.0527 -0.7028,0.26355 -0.22839,0.21082 0.43929,1.38757 0.79065,1.79163 0.35136,0.40406 1.29966,1.33531 1.29966,1.33531 0,0 -0.45686,0.70284 -0.77308,0.98392 -0.31622,0.28109 0.28112,1.4056 0.28112,1.4056 0,0 -0.59688,0.59691 -0.73742,0.98341 -0.14055,0.38649 0.17518,1.6165 0.17518,2.17868 0,0.56217 1.22992,0.66767 1.44074,0.84335 0.21082,0.17568 1.15966,-0.31624 1.51102,-0.21084 0.35135,0.10541 -0.66768,2.70529 -0.80822,2.95125 -0.14055,0.24595 -1.46908,3.21331 -1.84175,3.4866 -0.37267,0.27329 -1.6895,1.7395 -1.88826,2.33578 -0.19876,0.59627 0.81947,1.36628 0.57103,1.7141 -0.24845,0.34783 -1.04351,0.84467 -0.94413,1.6397 0.0994,0.79503 1.66497,2.80738 2.0128,2.9316 0.34782,0.12423 0.94722,-0.4253 0.94722,-0.4253 -0.18275,0.24368 -1.23771,2.03849 -0.89761,2.16473 0.3294,0.12227 0.47201,1.16777 0.0248,1.88826 -0.44721,0.7205 -0.91916,1.34129 -1.6645,1.46554 -0.74534,0.12424 -0.47213,1.41644 0.0496,2.06241 0.52174,0.64597 -0.24836,0.84439 -0.37259,1.16737 -0.12422,0.32299 0.24841,1.26737 0.34779,1.73943 0.0994,0.47205 -1.63973,1.19257 -2.26085,1.59008 -0.62112,0.39751 -0.0251,0.8447 0.14883,1.29191 0.17391,0.4472 -0.5959,1.66462 -0.8692,1.91306 -0.27329,0.24846 -1.46629001,0.24829 -1.64021001,0.4222 -0.17391,0.17392 -0.0496,1.2423 -0.0496,1.2423 0,0 0.89444,0.37271 1.26711001,0.32298 0.37267,-0.0497 1.26733,-0.52194 2.08721,-0.19895 0.81988,0.32297 1.41629,0.49691 1.83865,1.2671 0.42236,0.77019 1.26674,0.49698 2.1363,0.27337 0.86957,-0.2236 1.61488,1.11788 2.26085,1.36633 0.6459599,0.24838 1.3170599,-0.14912 2.0623999,0.0248 0.74535,0.17392 1.06795,-0.64609 1.51516,-0.89452 0.4472,-0.24846 1.30793,-0.53899 1.30793,-0.53899 0,0 0.0703,0.1055 0.0703,0.7028 0,0.59732 1.26455,1.29975 1.5105,2.00246 0.24595,0.70273 0.56229,0.70287 1.01906,1.15962 0.45676,0.45677 0.31622,1.44081 0,1.96784 -0.31623,0.52705 -0.0703,1.51061 0.14056,2.31872 0,0 1.44236,-1.17738 1.71565,-1.37614 0.2733,-0.19876 2.11206,-1.56508 2.41019,-2.01228 0.29814,-0.44721 0.447,-1.44125 1.09296,-2.08721 0.64596,-0.64597 1.18033,-1.82615 1.47846,-1.88826 0.29814,-0.0621 1.05571,-0.0249 1.40353,-0.29817 0.34783,-0.2733 1.45366,-0.0248 1.45366,-0.0248 0,0 0.0374,0.74576 0.22376,1.01906 0.18634,0.27329 0.47203,0.79468 0.33538,1.17977 -0.13665,0.38509 -0.286,1.26696 -0.7829,1.6769 -0.49689,0.40994 -0.59597,1.45342 -0.50901,1.60249 0.087,0.14907 0.0853,1.08417 0.0853,1.08417 0,0 1.68626,-0.49141 2.2133,-0.5793 0.52704,-0.0878 0.87853,0.0698 1.15962,0.29818 0.28109,0.22838 1.93274,0.35136 2.35438,0.43925 0.42162,0.0878 1.08883,-0.21039 1.1591,-0.79014 0.0703,-0.57973 0.47441,-0.7204 0.66766,-1.08934 0.19326,-0.36891 0.29865,-1.58134 -0.0176,-1.89755 -0.31622,-0.31624 -0.0879,-0.7203 -0.0527,-0.86093 0.0351,-0.14046 0.87854,-0.017 1.21233,0.14108 0.33379,0.15808 0.94883,-0.0532 1.40559,-0.0532 0.45677,0 1.86194,0.57984 2.12546,0.82579 0.26352,0.24596 0.75552,1.49348 0.86093,1.86241 0.10541,0.36892 0.33379,0.68526 0.0351,0.86093 -0.29866,0.17568 -0.70281,0.4915 -0.77308,0.94827 -0.0703,0.45676 -0.52712,1.93271 -0.68523,2.12597 -0.15811,0.19323 0.54467,1.33531 0.54467,1.33531 0,0 0.36903,-0.36898 0.86093,-0.33383 0.4919,0.0351 1.31778,-0.73802 1.63401,-1.30018 0.31622,-0.56217 0.98347,-1.47586 1.58078,-1.51101 0.59731,-0.0351 1.82734,-0.70237 2.35437,-0.84285 0.52705,-0.14055 2.84585,0.28056 3.05667,0.38603 0.21081,0.10539 1.64848,-0.68523 1.64848,-0.68523 0,0 0.001,-0.001 0.12609,-0.4036 0.12493,-0.40224 -0.0528,-1.10697 -0.49197,-1.70428 -0.43919,-0.59731 -0.82577,-0.65014 -0.70279,-1.03663 0.12297,-0.3865 0.82584,-1.33482 1.26503,-1.47537 0.4392,-0.14054 1.35238,0.19327 1.35238,0.19327 0,0 0.75548,-0.28115 0.49196,-0.56224 -0.26352,-0.28108 -0.77311,-0.24601 -0.96635,-0.56224 -0.19325,-0.31622 -0.79051,-1.74397 -1.20045,-2.12907 -0.0497,-0.0621 -0.65835,-0.21135 -0.65835,-0.21135 0,0 0.32299,-0.31054 0.63355,-0.33538 0.31056,-0.0248 1.54065,-0.19898 1.75183,0.13642 0.21118,0.33541 0.88203,0.39783 1.25471,0.7705 0.37266,0.37267 0.58348,1.61471 0.54621,1.72651 -0.0373,0.1118 0.69585,0.77039 0.84491,0.83251 0.14907,0.0621 1.20501,0.062 1.57769,0.39739 0.37267,0.3354 1.13063,0.99383 1.47846,0.93172 0.34782,-0.0621 1.12382,-0.35049 1.45314,-0.55913 0.28571,0.16149 1.52779,1.42857 1.7017,1.60248 0.17392,0.17391 1.3666,2.26116 1.51567,2.70836 0.14908,0.44721 -0.0743,1.63961 0.17415,2.33526 0.24845,0.69565 0.86963,0.72049 1.24231,0.64596 0.37267,-0.0745 0.44719,-0.32329 0.96893,-0.44752 0.52174,-0.12422 0.77009,-0.69556 1.34152,-0.69556 0.57143,0 0.8694,0.91959 0.74517,1.39164 -0.12422,0.47205 0.14935,1.29191 0.14935,1.29191 0,0 -0.11184,0.29814 0.0248,0.32298 0.13665,0.0248 1.18011,-0.22354 1.29191,-0.0372 0.1118,0.18634 -0.0376,0.96875 -0.42271,1.40353 -0.38509,0.43479 -0.67058,0.88205 -0.4594,1.2423 0.21118,0.36025 0.3353,1.49062 0.062,1.96267 -0.27329,0.47205 -0.0745,1.71415 0.29817,2.01228 0.37267,0.29814 1.44094,0.64595 1.63969,1.29191 0.19876,0.64597 0.74557,1.19253 1.14309,1.6149 0.39751,0.42236 0.99373,0.74569 0.99373,0.74569 0,0 0.38485,-0.18666 0.79479,0.19844 0.40994,0.38509 1.01892,1.04348 1.10587,1.2795 0.087,0.23603 0.78236,0.47229 1.11777,0.49713 0.3354,0.0248 1.04594,-1.00205 1.18649,-1.38855 0.14054,-0.38649 -0.22838,-1.12452 0.0351,-1.52858 0.26352,-0.40407 0.96586,-0.63208 1.15911,-1.17668 0.19325,-0.54461 0.90175,-1.03353 0.90175,-1.03353 l 1.13637,1.01596 c 0.34905,-0.39833 0.65532,-0.85626 0.96531,-1.27951 1e-5,0 0.31626,-1.96267 0.31626,-1.96267 0,0 1.00205,-0.008 1.35341,0.30799 0.35136,0.31623 0.49201,1.2124 0.91364,1.757 0.42163,0.5446 1.51107,0.94877 1.96784,0.84336 0.45676,-0.10541 1.63348,-0.59745 1.56321,-1.2299 -0.0703,-0.63244 1.08934,-0.45682 1.08934,-0.45682 0,0 0.19329,-1.42322 0.42168,-1.82728 0.28637,-1.06196 0.69155,-3.29281 2.03811,-3.21479 0.57975,0.0703 1.70382,0.12302 2.10789,0.33383 l 1.76371,-0.15348 c 0,0 -0.19867,0.74494 -0.0496,0.89401 0.14907,0.14907 1.14272,0.12457 1.68931,0.0997 0.54658,-0.0248 0.91951,-0.49713 1.44125,-0.49713 0.52174,0 1.10543,-0.0371 1.37873,-0.40979 0.27329,-0.37268 0.0252,-0.60859 0.74569,-0.70797 0.7205,-0.0994 1.10514,-0.60885 1.24178,-0.54674 0.13665,0.0621 0.44754,0.55892 0.7581,0.69557 0.310561,0.13664 1.229581,0.53405 1.428341,0.70797 0.19875,0.17391 1.52822,-0.087 1.75183,0.0124 0.2236,0.0994 0.95648,0.19892 1.30431,0.22375 0.34783,0.0248 0.62115,0.53434 0.62115,0.53434 0,0 0.84457,-0.13666 1.05575,-0.31058 0.21118,-0.17391 0.68332,0.23589 0.90692,0.4098 0.2236,0.17391 0.6457,0.63335 0.48421,1.08055 -0.0359,1.05209 0.75653,1.93644 1.18029,2.85719 0.17391,0.38509 0.1865,0.90722 -0.0992,1.36684 -0.28572,0.45963 0.0357,1.8423 0.21136,2.14096 0.17568,0.29865 0.73795,0.5271 0.7555,0.61495 0.0176,0.0878 -0.19322,0.57984 0.14056,0.86092 0.74445,0.59738 1.07467,1.4214 1.9849,1.59887 0.0351,-0.1054 0.2636,-1.03664 0.7028,-1.10691 0.4392,-0.0703 0.6677,0.63253 1.0542,0.68523 0.38649,0.0527 1.89756,0.56224 1.89756,0.56224 0,0 0.64964,-0.28113 1.26452,-0.3514 0.61487,-0.0703 0.50957,-0.75552 0.86093,-0.86093 0.35136,-0.1054 1.37049,0.0703 1.68671,-0.22841 0.68242,-0.37111 0.87068,-0.0825 1.59836,0.38654 0,0 0.68529,-0.79069 1.21233,-1.19476 0.52703,-0.40406 1.22997,0.29864 1.82728,-0.14056 0.59731,-0.43919 0.80777,-0.96637 1.42265,-1.15961 0.61487,-0.19325 0.88362,0.0313 1.23145,0.15554 0.96794,0.0508 1.82287,-0.41727 2.78225,-0.47232 0,0 0.72077,0.47232 1.11828,0.47232 0.39752,0 1.04315,0.54642 1.49035,0.4222 0.44721,-0.12422 1.09328,-0.34775 1.2175,-0.0496 0.12422,0.29814 0.1242,1.09309 0.33538,1.32912 0.21118,0.23602 0.95671,0.79481 1.16789,0.76998 0.21118,-0.0248 0.52182,0.2734 0.90692,0.57154 0.38509,0.29813 1.24198,-0.0498 1.44074,-0.22376 0.19875,-0.17392 1.11811,-0.037 1.54047,0.16175 0.42236,0.19875 0.64587,0.85693 1.01854,0.76998 0.37267,-0.087 0.75797,-0.62074 1.15549,-0.55863 0.39751,0.0621 1.15522,-0.0623 1.31671,-0.19895 0.1615,-0.13665 0.51213,0.64546 0.65268,0.83871 0.14054,0.19324 0.45686,0.98393 0.82579,1.12448 0.36892,0.14054 1.47589,-0.15808 1.634,0.28112 0.15812,0.43919 0.51887,1.28728 0.79996,1.4981 0.12456,0.24519 0.6463,0.99047 1.06866,1.41283 0.42236,0.42236 1.04358,-0.37267 1.54048,-0.32298 0.49689,0.0497 1.21733,0.96885 1.63969,1.01854 0.42236,0.0497 1.14304,-0.72049 1.81384,-0.64595 0.67081,0.0745 1.41594,0.99374 1.41594,0.99374 0,0 0.34818,0.89451 0.42271,1.54047 0.0745,0.64596 1.21738,0.81998 1.29191,1.2175 0.0745,0.39751 0.0245,1.39148 0.22324,1.81384 0.19876,0.42236 0.0693,1.17154 0.28887,1.41748 0.2196,0.24596 0.86097,0.44802 1.21233,0.43047 0.35136,-0.0176 1.63401,-0.11421 1.63401,-0.11421 l -0.32246,-2.07429 c -0.22103,-1.40951 0.97214,-1.9513 2.10633,-1.09864 0.36329,0.23 0.7253,0.46913 1.15445,0.25632 l 1.16066,-4.7191 c 0.12899,-1.91847 0.13832,-3.95298 0.28938,-5.86785 0.0353,-0.43188 0.13473,-0.81912 0.59687,-0.95395 0.32462,-0.3466 0.7738,-0.15337 1.15807,-0.032 0.36571,0.11488 0.74754,0.41413 1.10381,0.41909 0.31452,-0.24819 0.83387,-0.36743 0.75189,-0.86506 0.26441,-0.66877 -0.54556,-1.16696 -0.35657,-1.83503 0.0915,-0.68121 -0.0517,-1.42885 0.38654,-2.01176 0.56952,-1.13639 1.23069,-2.23402 1.95854,-3.2706 0.78646,-0.62113 1.08759,-1.60645 1.67483,-2.38848 0.52401,-0.83134 1.2511,-1.51513 1.68672,-2.40658 0.43418,-0.72005 0.86858,-1.44002 1.30276,-2.16007 -0.28868,-0.80601 -1.03948,-1.34408 -1.40715,-2.09135 -0.086,-0.32934 -0.17202,-0.65874 -0.25786,-0.98805 l 1.36581,-0.94051 c 0,0 0.2987,-1.86197 0.43925,-2.40657 0.14054,-0.54461 1.61659,-3.61929 1.75028,-3.84525 -0.0157,-1.05128 -0.0218,-2.09907 -0.1695,-3.14296 0.16808,-1.01604 0.36753,-2.2679 0.64285,-3.37085 0.69403,-0.76461 2.13107,-0.70623 2.85564,-1.649 l 1.46606,-6.96236 c 0,0 0.32306,-0.47177 0.59635,-0.49661 0.27329,-0.0248 0.65835,0.45837 0.65835,0.45837 l 0.14056,-1.2299 3.15382,-7.06624 -0.37621,-5.67252 0.15348,-0.64957 2.81637,-0.0641 5.30562,-6.14329 c -0.79168,-0.66498 -1.769,-1.45838 -2.82257,-2.04639 l 0.19947,-0.66249 c 1.51952,-0.042 3.02303,-0.51918 4.3987,-1.16737 1.22551,-2.06917 2.14149,-4.80522 0.17415,-6.64973 0.42606,-0.46567 0.91803,-0.76215 1.5012,-1.03042 -0.36588,-0.8214 -0.73159,-1.64284 -1.09813,-2.46394 l 0.75603,-0.25166 2.8019,-0.50385 0.94878,-3.0732 3.92947,-8.10131 c 0.90785,-0.30721 1.84598,-0.45317 2.697,-0.90847 l 0.61701,-0.94051 c 1.82622,-0.79272 2.96145,-2.15438 4.20285,-3.75481 l 1.45262,-2.12029 c 1.40938,-2.57078 2.75242,-5.23494 2.9161,-8.20776 -0.2246,-0.7014 -0.46403,-1.36651 -0.85886,-1.99523 0.65835,-1.36964 1.54132,-2.19022 2.82257,-0.8816 0.44016,0.3244 0.67196,0.37458 1.24643,0.25632 -0.0918,-0.5007 -0.11919,-0.9335 -0.42426,-1.35341 0.45371,-3.0358 2.54106,-0.93705 1.50482,0.97255 l 0.88004,0.53485 c 0.91815,-0.47557 1.82262,-0.96994 2.69906,-1.5198 0.14817,-2.09302 1.60894,-4.04335 3.05305,-5.82394 l -0.0398,-1.0666 c -1.44951,-1.77497 -1.54408,-3.62342 0.24081,-5.70146 0.0498,-0.6729 -0.16598,-1.21998 -0.29869,-1.88929 l 0.0294,-1.44022 c 0,0 0.40934,-0.77932 0.88367,-1.0604 0.47434,-0.28109 1.35288,-0.79019 1.31775,-1.26452 -0.0351,-0.47434 1.28209,-2.38952 1.28209,-2.38952 0,0 0.57983,0.31624 0.75551,0.19327 l 1.01338,-0.42736 c 0,0 -0.0496,-0.69569 0.27336,-0.94413 0.32299,-0.24845 1.34132,-0.8944 1.46555,-1.29192 0.12422,-0.39751 0.69596,-1.01857 0.77049,-1.63969 0.0745,-0.62112 0.447,-1.36663 0.76998,-1.81384 0.32298,-0.44721 0.84491,-1.54048 0.84491,-1.54048 0,1e-5 0.86951,0.24873 0.99374,0.14935 0.12422,-0.0994 0.4744,-1.60975 0.50953,-1.8557 0.0351,-0.24595 0.42168,-1.24695 0.42168,-1.24695 -0.0878,-0.0527 -0.45689,-0.65012 -1.07177,-0.86093 -0.61488,-0.21082 -1.05426,0.22836 -1.54616,-0.14056 -0.4919,-0.368927 -0.73788,-1.651622 -0.26355,-2.002981 0.47433,-0.351359 1.05425,-1.651121 1.47588,-2.160593 0.42163,-0.509468 2.67012,-1.669147 2.67012,-1.669147 0,0 0.75552,-1.738958 0.84336,-2.125454 0.0878,-0.386492 0.43927,-1.563753 0.57981,-1.774568 0.14054,-0.210817 0.59735,-1.405633 0.38654,-1.704287 -0.21081,-0.298654 -0.75552,-1.651119 -0.80822,-2.143022 -0.0527,-0.491903 0.0879,-1.019061 0.0879,-1.019061 0,0 1.26503,-1.457815 1.19476,-1.651061 -0.0703,-0.193246 -0.6501,-1.511057 -0.7028,-1.809708 -0.0527,-0.298656 -0.7731,-1.229934 -0.94878,-1.52859 -0.0527,-0.122976 -0.24598,-0.685229 -0.24598,-0.685229 0,0 0.79068,-0.667186 1.07177,-1.018542 0.28108,-0.351359 1.25315,-1.659848 1.25315,-1.659848 0,0 -0.23408,-0.606724 -0.16381,-0.975651 0.0703,-0.368927 -0.28112,-0.733803 -0.28112,-0.733803 2.5e-4,5.5e-5 -1.28264,0.452699 -1.51102,0.470254 -0.22838,0.01755 -1.42271,-0.614939 -1.93218,-0.509529 -0.50947,0.105407 -1.14344,-0.909505 -1.5658,-0.909505 h -1.81384 c 0,0 -0.99349,-0.472046 -1.46554,-0.32298 -0.47206,0.149069 -1.90119,-0.155035 -2.02417,-0.242877 -0.12297,-0.08784 -0.75554,-1.124495 -1.03663,-1.24747 -0.28109,-0.122976 -1.01861,-0.439256 -1.58078,-0.491959 -0.56217,-0.05271 -1.12257,-0.527137 -1.34617,-0.825272 -0.2236,-0.298138 -0.84475,-0.894165 -1.26711,-0.794785 -0.42236,0.09938 -1.66429,0.198679 -2.1115,0.04961 -0.4472,-0.149069 -1.34203,-1.59004 -1.66501,-1.937867 -0.32299,-0.347826 -1.39093,-0.919599 -1.51515,-1.068668 -0.12423,-0.149069 -1.66502,-2.559018 -1.66502,-2.559018 l 1.2175,-3.701582 c 0,0 0.0248,-2.385337 0.0496,-3.056143 0.0248,-0.670812 1.19269,-3.3538 1.19269,-3.3538 0,0 1.0187,-3.00617 1.56528,-3.552757 0.54658,-0.546584 1.73919,-2.981523 1.88826,-3.42873 0.14907,-0.447206 0.19851,-0.993658 0.79478,-1.043347 0.59627,-0.04969 0.94421,-0.645866 0.89452,-1.34152 -0.0497,-0.695655 -0.27298,-1.416248 -0.19844,-1.863452 0.0745,-0.447207 0.55501,-2.644801 0.55501,-2.644801 -0.009,-0.113054 -0.13262,-0.78381 0.0662,-0.858346 0.19875,-0.07453 1.61468,-1.093393 1.73891,-1.143082 0.12422,-0.04969 1.41593,-0.298172 1.41593,-0.298172 0,0 1.01886,-1.117997 1.14308,-1.29191 0.12423,-0.173913 0.69557,-0.993698 0.69557,-1.664498 0,-0.67081 -0.14919,-1.71419 0.0744,-1.98748 0.22361,-0.27329 0.67076,-1.36632 0.67076,-1.36632 0,0 -1.16768,0.72029 -1.61489,0.76997 -0.4472,0.0497 -1.83849,-0.0499 -1.93786,-0.19895 -0.0994,-0.14907 -0.42207,-1.04355 -1.14257,-0.91932 -0.7205,0.12422 -3.7515,-0.69536 -4.19871,-1.14257 -0.44721,-0.4472 -0.84486,-1.31691 -1.51567,-1.51567 -0.67081,-0.19876 -1.1933,-0.0181 -1.29191,-0.81959 -0.0986,-0.80146 -0.9939,-0.34818 -1.2175,-0.42271 -0.2236,-0.0745 -0.79505,-1.39116 -1.2671,-1.6893 -0.47205,-0.29814 -1.36656,-0.52189 -1.86346,-0.54674 -0.49689,-0.0249 -1.10949,-0.51366 -1.10949,-0.51366 0,0 0.84335,-1.31781 0.75551,-1.79214 -0.0878,-0.47433 -0.79059,-1.0713 -0.28112,-1.42265 0.50948,-0.35136 0.40361,-1.12452 0.52658,-1.44074 0.12298,-0.31622 0.40415,-0.75555 0.68523,-1.10691 0.28109,-0.35136 -1.12395,-0.45686 -1.05368,-0.80822 0.0703,-0.35136 1.05364,-0.77265 0.66714,-1.47536 -0.38649,-0.70272 -1.19422,-1.61649 -1.01854,-2.00298 0.17568,-0.3865 0.52709,-1.37001 0.45682,-1.96732 -0.0703,-0.59731 0.31583,-1.30019 1.05368,-1.37046 0.73785,-0.0703 1.01907,-1.08941 1.0542,-1.65158 0.0351,-0.5621695 0.63254,-1.5105295 0.77308,-1.7564795 0.14055,-0.24595 1.10695,-0.90485 1.45831,-0.80822 0.35136,0.0966 0.70226,-0.1933 0.48266,-0.44804 -0.2196,-0.25473 -1.37878,-0.50949 -1.77405,-0.21084 -0.39528,0.29866 -1.09811,0.20203 -0.94878,-0.0527 0.14932,-0.25473 0.66763,-1.42268 0.49196,-1.70377 -0.17568,-0.28109 0.60619,-2.02936 0.88728,-2.27531 0.28109,-0.24595 1.49295,-0.75557 1.5105,-1.26504 0.0176,-0.50947 -0.0698,-1.33479005 -0.50901,-1.21181005 -0.4392,0.12297 -1.10691,0.52658005 -1.10691,0.52658005 0,0 -0.40418,-1.10641005 -1.03663,-1.21181005 -0.0791,-0.0132 -0.1479,-0.0203 -0.20825,-0.0216999968 z"
     style="display:inline;fill:#a30000;fill-opacity:1;fill-rule:nonzero;stroke:none;stroke-width:0.31811118"
     id="path931" />
</svg>
