<?xml version="1.0" encoding="UTF-8" standalone="no"?>
<svg
   xmlns:dc="http://purl.org/dc/elements/1.1/"
   xmlns:cc="http://creativecommons.org/ns#"
   xmlns:rdf="http://www.w3.org/1999/02/22-rdf-syntax-ns#"
   xmlns:svg="http://www.w3.org/2000/svg"
   xmlns="http://www.w3.org/2000/svg"
   id="svg964"
   version="1.1"
   viewBox="0 0 295.03613 108.60766"
   height="108.60766mm"
   width="295.03613mm">
  <defs
     id="defs958" />
  <metadata
     id="metadata961">
    <rdf:RDF>
      <cc:Work
         rdf:about="">
        <dc:format>image/svg+xml</dc:format>
        <dc:type
           rdf:resource="http://purl.org/dc/dcmitype/StillImage" />
        <dc:title></dc:title>
      </cc:Work>
    </rdf:RDF>
  </metadata>
  <path
     id="path1029"
     d="m 197.63297,0 -0.35967,0.71933 -0.48679,0.61392 -0.25425,0.14831 -0.63511,-0.12712 -1.12189,1.77818 -0.57102,0.0424 -0.40257,-0.1695 -0.19016,-0.29611 -0.63511,0.67697 -1.24902,1.29139 -2.79363,1.20664 0.33849,0.25373 -0.1695,0.55036 -0.65629,0.40204 -0.3173,1.65106 0.14832,0.29663 -0.19069,0.74052 -0.14831,1.77819 -0.1478,2.32802 0.19017,1.29139 -0.14779,1.10071 -0.61392,0.67748 -0.57154,0.27492 -0.71985,0.25425 0.10593,0.38085 -0.95239,0.86765 -0.57154,0.78341 -0.78342,0.38086 -0.25373,0.55035 -0.65629,0.63511 -0.21187,-0.27544 -0.52865,-0.16898 -0.48731,0.19017 -0.52917,0.0212 -0.35967,-0.59273 -1.50275,-1.18494 -0.99477,-0.50798 -1.14308,-0.88935 -0.0212,-0.46561 1.35444,-0.12712 0.55035,0.12712 0.38138,-1.56631 0.38085,-0.44442 -0.57154,-0.57154 -0.40204,-0.61391 -0.12712,-0.52917 -0.19069,-0.35967 0.38137,-0.91002 -0.19068,-0.25425 0.35966,-0.21135 0.1695,-0.19069 0.0848,-0.31781 -0.0848,-0.88883 0.12713,-0.38086 -0.12713,-0.44442 -0.59273,-0.1695 -0.57154,-0.2961 -0.38085,0.23254 -1.43919,0.21188 -0.50798,0.16898 0.0212,0.38137 -0.86816,-1.29139 -0.40204,-0.19017 -0.82528,-0.10594 -0.57154,0.55035 -0.10594,0.57154 0.0847,0.4868 -0.10593,0.48679 -0.35967,0.42323 0.10542,0.38085 -0.0842,0.19069 -1.03714,1.50275 -0.339,1.16427 -0.23254,-0.0212 -1.16427,0.65629 v 0.61339 h -0.46561 l -0.65629,0.0848 -0.21187,0.19068 -0.50798,0.12713 -0.0424,0.52916 0.1695,1.16427 -0.35967,0.25373 -1.43971,1.73581 0.1695,0.63511 0.21187,0.12661 0.52917,-0.23255 0.59273,-0.44442 0.48679,-0.48679 1.39682,-0.91054 -0.44442,1.03715 -0.65629,0.27543 -1.60869,1.10071 -0.71934,1.10071 0.21136,0.63459 -0.46561,-0.0424 -0.57154,-0.2961 -0.42323,0.0636 -0.50797,0.38085 -0.46561,0.63511 -0.27543,0.65629 -0.12713,0.67696 0.27544,0.23306 1.60868,0.31729 0.44442,-0.16898 0.9524,-0.0212 0.57154,-0.339 0.36018,-0.38085 0.25374,-0.3173 0.23306,-0.78341 0.35966,-0.42323 0.38086,0.0424 0.23306,0.1695 0.0636,0.40204 -0.38137,0.3173 -0.33848,0.78341 -0.35967,-0.14831 -0.25425,0.12712 -0.6351,0.63511 -0.48679,0.19017 -1.16427,0.23306 -1.29088,-0.0636 -0.4656,0.52916 -0.339,0.0424 -0.6134,-0.1695 -1.35496,0.76223 -0.74052,0.55035 -0.29662,0.4656 -0.3173,-0.0636 -1.03714,-0.61391 -0.63511,-0.57155 -0.52916,-0.10593 -0.61392,0.0636 -0.76223,0.40256 -0.38085,-0.10594 -1.2485,0.35967 -0.63511,0.0424 -0.52916,0.21187 -0.61392,0.0419 -0.67748,0.38137 -0.67748,-0.0848 -0.35966,0.35967 -0.46561,-0.25373 -0.40204,0.0848 -0.19069,0.33848 -0.59273,-0.23306 -0.2961,-0.0424 -0.12713,0.50798 0.0212,0.14831 -0.74104,0.82579 -1.84123,2.7094 -0.93121,1.79885 -0.95292,1.39682 -0.76171,0.71985 -0.29662,0.50798 -0.0842,0.4656 -1.33377,-0.23254 -0.67748,0.14779 -2.26446,1.84175 -0.84698,0.57154 -0.23254,-0.27543 -0.55035,0.21187 -1.77819,-0.69866 -0.59273,0.14831 0.0424,-0.63511 -0.35967,-0.2961 0.0424,-2.41329 -0.339,-0.33848 0.0212,-0.3173 -0.4656,-0.31781 -0.12661,-0.2961 0.40204,-0.6351 0.0636,-1.22784 0.25373,-0.80408 0.35967,-0.74104 -0.27492,-0.48679 0.1695,-0.50798 0.44442,-0.55036 0.0212,-0.42323 0.80408,-0.97358 -0.40204,-0.69867 -0.0424,-0.71985 -0.1695,-0.40204 -0.33848,0.36018 -0.74104,0.52917 -0.38086,0.57102 -0.25373,0.14832 -1.07952,-0.29611 -0.63511,-0.36019 -0.86764,-0.0842 -0.74104,0.27492 -0.74104,0.50798 -0.6134,0.0212 -0.52917,0.38086 -0.55035,0.67748 -3.89486,0.19069 -1.48156,0.35966 -0.31781,0.52917 -0.42323,-0.19069 -0.88883,-0.65577 0.71933,-0.29662 0.44494,-0.40205 0.57154,-0.0212 0.52916,-0.21187 0.0207,-0.40204 0.52917,-1.01596 -1.2485,0.61391 -1.65107,-0.23306 -0.69866,0.93173 -1.69344,1.16375 -0.40204,0.50798 -0.80409,0.14831 -0.65629,0.0212 -0.52916,-0.14832 0.0848,-0.33848 0.69866,-1.22783 0.40204,-1.05833 0.0424,-0.82527 0.19017,-0.19069 0.67748,-0.21136 0.4656,-0.52916 0.25425,-1.31259 v -0.80408 l -0.0848,-0.0424 h -0.25425 l -0.50797,0.12661 -0.67697,0.27544 -1.22783,-0.21188 -0.44442,-0.21135 -1.18545,-0.12713 -0.93121,0.0424 -0.40256,0.19068 -0.38086,0.0419 -0.0848,-0.38085 0.0636,-0.55036 -0.0424,-0.86764 -0.61391,-2.20142 -0.27492,-0.61392 -0.40205,-0.27492 -0.8046,-0.23306 -0.2961,-0.84646 -0.50798,0.27492 -0.27544,0.36019 -0.25373,0.14779 -1.35496,-0.33848 h -0.25373 l 0.0424,1.48156 0.27492,1.46038 -0.2961,-0.16898 -0.36019,-0.52917 -1.12137,-0.91054 -0.57155,-0.19017 0.16898,-0.38137 -0.0636,-0.21135 -0.40204,-0.14832 -0.38085,-0.44441 -0.55036,-0.80409 -0.14831,0.10542 -0.10593,0.42375 -0.50799,-0.27544 -0.27491,0.23306 0.0424,0.38086 -0.31781,0.0424 -1.26969,-0.19068 -1.33377,-0.0424 -0.21136,0.1695 -0.12712,0.4656 -0.29611,0.0212 -0.0636,-0.88884 -0.38137,0.19017 -0.423226,-0.21135 -0.40204,0.23254 -0.35967,-0.33848 -1.03714,-0.35967 -0.10594,0.48679 -1.16427,0.57154 -0.52917,0.55036 -0.99477,1.43919 -0.29662,0.67748 -0.0419,0.61339 -0.88935,-0.0212 -1.1219,-0.25373 -0.0212,-0.55035 0.127129,-0.50798 -0.86765,0.23254 -0.465609,0.69867 -0.296621,-0.0636 -0.190169,-0.23254 0.57154,-0.65629 0.63459,-1.18546 -0.19017,-0.0212 -0.31781,0.1695 -0.33848,-0.0424 -0.38085,-0.80408 0.44441,-0.55036 -0.0847,-0.29662 0.21188,-0.31729 0.14779,-0.44442 -0.40204,0.0631 -0.31729,0.1695 -0.78342,0.23306 -0.67748,0.38085 -0.4656,-0.0424 -0.29611,-0.55036 -0.4656,0.25425 -2.66702,0.12661 -1.03715,1.41852 -0.52916,0.21135 -1.60869,0.46561 -1.5875,0.61391 -1.03715,0.63511 -0.0424,0.57154 0.19017,0.4656 -0.21136,0.50798 -0.19068,0.23306 -1.058338,-0.0424 -0.338479,-0.80461 -0.254248,-0.0424 -0.147795,-0.42323 0.105418,-0.71933 2.116671,-1.77819 -2.349213,-0.93121 -0.338998,-0.48679 -0.994772,-0.0212 -0.444418,-0.16949 -0.486791,-0.59273 -0.359667,0.1695 -0.59273,0.97358 v 0.42323 l -0.127124,0.48679 -0.804085,0.339 -0.994772,0.63459 -0.635103,0.91053 -0.762227,0.44442 -0.550353,0.65629 -0.804087,0.7829 -0.74104,0.44442 -0.529166,0.0212 -0.148313,-0.38085 0.741043,-0.93121 0.741039,-1.86294 0.6134,-0.42323 0.148309,-0.35967 0.105937,-0.93172 -0.04237,-1.22732 -0.444418,-0.38137 -0.571542,-0.7829 -1.037146,-1.22783 -0.783415,-1.35444 -0.550352,-0.52917 -0.211357,-0.23306 -0.550355,-0.27492 -0.275436,-0.3178 -0.825273,-0.42323 -0.402042,-0.12713 -0.635103,0.27544 -0.550355,0.52916 -0.613915,0.38086 -0.105937,0.19068 -0.04237,0.16899 -1.037146,0.31781 -1.820042,0.74052 -1.100709,-0.33848 -0.105937,-0.44442 -0.25373,-0.44442 -0.275436,-0.44441 -0.338482,-0.1695 -0.741039,-0.1695 -0.274918,-0.29611 -0.08475,-0.19068 -0.254249,0.0212 -0.655775,0.27544 -0.635103,-0.0424 -1.566312,0.12661 -1.820561,0.74104 -0.169497,0.1695 -0.549839,0.42323 -0.233061,0.65629 -0.698664,0.16898 -0.08475,0.57154 -0.465603,0.82579 -3.725355,1.03715 -0.867648,0.0636 -4.995561,0.80408 -1.439187,0.12713 -0.148313,-0.19069 -0.274918,-0.57154 -1.439187,0.44493 -0.444418,0.38086 -0.360186,0.74052 -0.317291,0.12713 -0.190687,-0.25373 -0.444418,-0.99478 -0.338479,-0.1695 -0.423749,0.12713 h -0.486791 l -0.507979,-0.0847 -0.380854,-0.19069 -0.105937,-0.44441 -0.59273,0.0212 -0.719336,0.6351 -0.592727,0.0212 -0.550355,-0.0848 -0.529166,0.14832 -0.31781,-0.0424 -0.126608,-0.36018 -0.486791,0.38137 -0.275437,0.33848 -0.296106,0.33848 -0.254248,0.84698 h -0.486791 l -0.127125,0.27492 -0.296106,-0.0212 -0.825788,0.31782 0.402558,0.74052 -0.444418,0.25425 -0.656288,0.16898 -0.127124,0.50798 -0.148313,0.1695 -0.550354,-0.1695 -0.465603,0.31781 -0.444418,0.0636 -0.42323,0.50798 -0.380855,0.21135 -0.275436,0.93173 -1.015958,0.7829 -0.741042,-0.25373 -0.655773,-0.0847 -0.656291,0.10593 -0.592727,0.44442 -1.037148,0.99477 0.486793,0.29611 0.465603,0.38137 0.42323,0.0424 0.275437,0.27491 0.04238,0.29611 -0.105939,0.38137 -0.910022,1.18494 -0.317809,0.27544 -0.804085,-0.1695 -0.275436,0.19069 v 0.25373 l 0.233061,0.0424 0.1695,0.14831 -0.360186,0.25425 -0.317293,0.0842 -0.380855,0.31781 -1.482082,0.14832 -0.232542,0.59221 -0.550355,0.19068 -0.888836,-0.0424 -0.825788,0.1695 -0.592727,0.0424 0.127121,0.42323 -0.02119,0.40204 0.359667,0.1695 0.275436,0.33848 -0.127124,1.88413 0.190685,0.84646 0.232545,0.1695 0.02119,0.69814 -0.27492,0.42375 -0.57154,0.55035 -0.317812,0.40205 -0.973582,0.80408 0.105936,0.48679 -0.127124,0.29663 -0.550355,0.31729 -0.592727,0.21187 H 9.546351 L 9.080229,37.27445 7.874102,37.02072 H 7.513917 l -0.296106,0.91002 0.1695,0.76223 1.058333,1.22732 0.761709,0.76222 0.1695,0.29611 0.402042,0.12712 0.105937,0.59273 0.1695,0.23255 1.100706,0.44493 0.465606,0.31729 0.465603,0.84646 v 0.44494 l 0.507982,1.46037 3.302121,2.11667 0.19017,0.88884 0.105936,0.16949 1.185458,0.35967 0.402042,0.12713 0.190688,-0.25425 0.317294,0.0636 1.375624,1.52394 -0.105418,0.61391 -0.635103,0.38138 -0.507979,0.97358 -0.360185,0.42323 -0.676963,-0.21187 -0.57154,-0.25374 -1.037145,-0.19068 -0.402045,0.71985 -0.211873,0.86765 -0.635103,0.29662 -0.952397,0.12661 -0.74104,0.21187 -0.761709,0.0636 -0.571542,0.4868 -0.952397,-0.0847 -0.804603,0.0847 -1.333251,0.31729 -1.799373,0.1695 -0.867649,0.86765 -0.360185,-0.0212 -0.380854,0.48679 0.02119,-0.063 -0.402042,0.21136 -0.338482,-0.0424 -0.04237,0.0212 h -0.02119 -0.02119 l -0.08475,0.0212 h -0.02127 -0.04238 l -0.06356,0.0212 -0.02119,0.0212 h -0.04237 l -0.06356,0.0424 -0.02119,0.0212 -0.04238,0.0212 -0.105418,0.0636 -0.04238,0.0212 h -0.02119 l -0.04237,0.0424 h -0.06356 l -0.296106,0.0848 -0.06356,0.0207 -0.02119,0.0424 0.02119,0.0212 0.06356,0.1695 0.04186,0.0424 0.02119,0.0636 0.02119,0.0212 v 0.0212 l 0.02119,0.0212 v 0.0212 l 0.02119,0.0212 0.02119,0.0842 0.02119,0.0424 0.02119,0.0424 v 0.0212 l 0.02119,0.0424 0.02119,0.0212 v 0.0212 l 0.02119,0.0636 0.02119,0.0212 0.02119,0.0424 v 0.0424 l 0.02119,0.0424 0.02119,0.0636 0.02119,0.0212 0.04237,0.12661 v 0.0424 l 0.04238,0.0636 v 0.0212 l 0.02119,0.0636 0.02119,0.0424 0.02119,0.0212 0.02119,0.0847 v 0.0424 l 0.02066,0.0212 0.04237,0.12661 0.04238,0.0636 0.02119,0.0424 0.06356,0.14831 0.04237,0.0636 0.02119,0.0847 0.02119,0.0419 v 0.0424 0.0424 l -0.02119,0.0424 v 0.0424 l -0.02119,0.0636 v 0.0636 0.0424 l -0.02119,0.0424 v 0.0212 0.0424 0.0212 l -0.02119,0.063 v 0.0212 l -0.02119,0.0847 -0.02119,0.10594 H 3.87325 l -0.02119,0.0424 v 0.0847 l -0.02119,0.0848 v 0.0212 l -0.02119,0.1266 H 3.78849 l -0.02119,0.0636 -0.06305,0.14832 -0.127124,0.0847 -0.148312,-0.0636 h -0.02119 -0.02119 v 0.0212 l -0.02119,0.0636 v 0.0424 0.0424 l 0.02119,0.0424 v 0.0631 l 0.02119,0.0424 0.02119,0.0424 v 0.0424 l 0.04237,0.0848 v 0.0212 l 0.02119,0.0848 0.04237,0.0424 v 0.0212 l -0.02119,0.0212 -0.02119,0.0424 -0.08475,0.12661 h -0.02119 l -0.02119,0.0212 -0.04238,0.0424 -0.02119,0.0212 h -0.02119 v 0.0212 l -0.04237,0.0212 h -0.04186 l -0.02119,0.0212 h -0.02119 -0.02119 l -0.02119,0.0212 h -0.04237 l -0.06356,0.0212 -0.02119,0.0212 -0.04237,0.0848 v 0.0212 l -0.02119,0.0212 v 0.0212 h 0.02119 0.02119 l -0.02119,0.0847 -0.02119,0.0842 v 0.0212 0.0636 0.0424 0.0212 0.0212 h 0.02119 v 0.0212 l 0.02119,0.0212 v 0.0212 0.0424 l 0.02119,0.0212 v 0.0424 l 0.04238,0.0636 h 0.02119 l 0.02119,0.0424 -0.02119,0.0418 v 0.0212 h -0.02119 l -0.02119,0.0212 v 0.0212 h 0.02119 0.02119 v 0.0212 l -0.02119,0.0212 v 0.0212 l -0.02119,0.0848 -0.02119,0.0424 -0.02119,0.0847 v 0.0636 0.0424 l 0.02119,0.0212 v 0.0212 l -0.02119,0.14779 v 0.0636 0.10593 0.0424 l -0.02119,0.14831 v 0.0212 0.10542 h 0.04237 l 0.02119,0.0212 h 0.04237 l 0.02119,0.0212 h 0.02119 l 0.06356,0.0424 0.02119,0.0212 h 0.02119 l 0.02119,0.0212 v 0.0212 l 0.02066,0.0212 -0.02066,0.0212 v 0.0424 0.0212 0.0848 0.0424 0.0212 0.063 0.0212 l -0.02119,0.0212 v 0.0212 l -0.02119,0.0212 v 0.0212 0.0424 0.0212 l 0.02119,0.0212 0.02119,0.0212 v 0.0212 0.0212 l 0.02066,0.0424 v 0.0212 l -0.02066,0.0212 -0.04237,0.0212 h -0.02119 l -0.02119,0.0424 -0.06356,0.0424 -0.02119,0.0212 -0.02119,0.0212 v 0.0207 l -0.04238,0.0212 -0.02119,0.0212 -0.02119,0.0212 h -0.04237 l -0.06356,0.0212 h -0.08475 l 0.105937,0.0212 h 0.02119 l -0.06356,0.0636 -0.08475,0.12712 -0.02119,0.0212 -0.04186,0.0424 -0.02119,0.0424 -0.04238,0.0424 -0.02119,0.0212 -0.02119,0.0212 -0.04237,0.0419 -0.04238,0.0424 -0.02119,0.0212 -0.06356,0.0636 -0.127124,0.1695 -0.02119,0.0636 -0.06356,0.0848 -0.02066,0.0212 -0.02119,0.0424 h -0.02119 l -0.04238,0.0842 -0.02119,0.0424 -0.08475,0.12713 -0.04237,0.0636 v 0.0212 l -0.02119,0.0424 h -0.02119 v 0.0212 l -0.04237,0.0636 v 0.0212 l -0.02119,0.0424 -0.169498,0.29611 -0.04186,0.0847 -0.08475,0.14831 -0.02119,0.0207 v 0.0212 0.0212 l -0.02119,0.0212 -0.148313,0.27543 -0.02119,0.0424 -0.02119,0.0636 v 0.0636 l -0.02119,0.0631 -0.02119,0.0848 -0.02119,0.0212 v 0.0424 l -0.04238,0.12712 -0.02119,0.19069 -0.06305,0.38085 -0.211873,0.46561 -0.275437,0.69866 v 0.1478 0.0212 0.0636 l -0.02119,0.0424 -0.02066,0.0424 v 0.0212 0.0424 0.0424 0.14832 0.063 0.0636 0.0636 0.0636 0.0424 l 0.06305,0.12713 0.127125,0.0212 v 0.0424 l 0.02119,0.0424 v 0.0842 0.0636 l -0.02119,0.10594 -0.02119,0.12712 -0.02119,0.0848 v 0.0212 l -0.04237,0.10542 -0.147794,0.31781 -0.06356,0.25373 v 0.0636 l -0.02119,0.0424 -0.02119,0.19068 -0.02119,0.12713 v 0.0207 l -0.02119,0.0212 v 0.0212 0.0212 l -0.06356,0.0636 -0.02119,0.0636 -0.190687,0.33848 v 0.0212 l -0.06304,0.10593 v 0.0424 L 0.02119,72.86007 0,72.92367 v 0.14831 l 0.02119,0.0212 0.02119,0.16898 0.06304,0.1695 0.04237,0.0636 0.02119,0.0636 v 0.10594 0.0207 0.0424 0.0212 l -0.02119,0.12713 0.02119,0.12712 v 0.14831 0.1478 l -0.02119,0.21187 -0.02119,0.12713 0.02119,0.19016 v 0.19069 0.0848 l 0.02119,0.0847 v 0.0842 0.0424 l 0.02119,0.10593 0.04237,0.10594 0.02119,0.0212 0.02119,0.0424 v 0.0636 l 0.02119,0.16898 v 0.0424 0.0212 l 0.02119,0.0848 v 0.0424 l 0.02119,0.0636 0.02119,0.0212 0.02119,0.0424 0.02119,0.0424 0.02119,0.0424 0.127121,0.0848 h 0.02119 l 0.147797,-0.0212 0.06356,0.16898 0.04237,0.1695 0.06356,0.19068 0.04238,0.0842 v 0.0212 l 0.02119,0.0636 0.105936,0.27544 0.02119,0.0424 0.06304,0.1478 0.148313,0.29662 0.02119,0.0636 v 0.0212 h 0.02119 v 0.0212 l 0.02119,0.0424 0.02119,0.0207 0.105939,0.12712 0.08475,0.0848 0.02119,0.0212 0.105418,0.1695 0.1695,0.27491 0.02119,0.0424 0.105937,0.27543 0.08475,0.12661 -0.04237,0.0848 0.02119,0.0424 0.08475,0.10593 v 0.0424 l 0.02119,0.0636 v 0.14779 0.10594 0.0212 0.0212 l -0.02119,0.16949 -0.02119,0.12713 0.06304,0.12661 -0.10542,0.0424 -0.04238,0.0212 -0.105936,0.0636 -0.169498,0.1483 v 0.0212 l 0.04237,0.12712 v 0.1478 l -0.04237,0.0636 -0.04237,0.0424 v 0.0212 h -0.02119 l -0.04237,0.0636 -0.126608,0.12713 -0.08475,0.0636 -0.105936,0.0842 -0.08475,0.0847 h -0.02119 l -0.06356,0.0848 0.04238,0.0424 0.105937,0.0212 0.105936,0.0424 0.06356,0.0212 h 0.02119 0.06356 0.08423 0.02119 0.06356 l 0.04237,0.0212 0.04237,0.0636 0.04238,0.0636 0.105937,0.0212 0.08475,0.0207 h 0.06356 l 0.105418,0.0212 h 0.06356 0.04237 l 0.1695,0.0212 0.02119,0.0212 v 0.0212 l 0.105937,0.0212 v 0.0636 h 0.02119 l 0.06305,0.0212 h 0.02119 0.105939 l 0.02119,0.0636 v 0.0848 l 0.08475,-0.0212 h 0.04237 0.06356 0.06356 0.02119 0.04238 0.02119 l 0.126608,0.0212 h 0.06356 0.02119 l 0.04238,0.0636 0.06356,0.0847 h 0.04237 l 0.08475,0.0212 0.02119,0.0207 0.02119,0.0424 v 0.0212 l 0.126606,0.0424 0.08475,0.0212 h 0.04237 l 0.06356,-0.10593 h 0.08475 0.105936 l 0.04238,-0.0419 h 0.02119 0.02119 l 0.04186,-0.0212 h 0.105939 0.02119 0.02119 l 0.08475,0.0212 h 0.06356 l 0.04238,0.0207 0.08475,0.0212 h 0.06356 l 0.04186,0.0212 0.08475,0.0212 h 0.04237 0.06356 0.04237 0.127124 0.04238 l 0.105421,0.0847 h 0.06356 l 0.02119,0.0212 0.06356,0.0212 0.127125,0.0212 0.127124,-0.0424 0.296106,-0.0636 0.127124,-0.0212 0.06356,-0.0636 0.380854,-0.0419 0.317294,-0.21187 0.423746,-0.55036 0.761712,-0.76223 0.338997,-0.31729 0.126606,-0.10594 0.254248,-0.0636 h 0.06356 l 0.04238,0.0212 0.126606,0.0212 h 0.08475 l 0.02119,0.0212 h 0.04237 0.02119 0.02119 l 0.04237,0.0212 h 0.06356 l 0.08475,0.0636 0.06356,0.0424 0.02119,0.0212 0.06304,0.0424 h 0.02119 l 0.04238,0.0212 0.06356,0.0212 0.02119,0.0212 h 0.04238 l 0.04237,0.0212 h 0.02119 0.04237 0.04238 0.06356 l 0.04238,0.0212 h 0.08423 0.06356 0.02119 0.04237 l 0.04238,0.0424 0.1695,0.10542 0.04237,0.0424 0.02119,0.0212 0.04238,0.0424 0.02119,0.0212 0.02119,0.0212 h 0.04186 l 0.08475,0.0212 h 0.02119 0.06356 0.02119 0.127124 0.04237 l 0.08475,0.0212 h 0.02119 0.02119 l 0.126608,0.0212 h 0.02119 l 0.08475,0.0636 h 0.02119 v 0.0212 h 0.02119 l 0.105939,0.0212 h 0.04237 l 0.04238,0.0212 0.08423,0.0212 h 0.02119 0.02119 l 0.06356,0.0212 0.08475,-0.0847 0.04238,-0.0636 0.04237,-0.0424 0.02119,-0.0212 0.02119,-0.0212 0.02119,-0.0212 0.105937,-0.12712 0.08423,-0.0842 0.06356,-0.0636 0.02119,0.0212 0.02119,0.0212 0.04237,0.0212 0.08475,0.0842 -0.02119,0.0212 v 0.10594 l 0.02119,0.12712 0.02119,0.12713 0.04238,0.0842 0.04237,0.10593 v 0.0424 0.0212 0.0424 l 0.02119,0.12712 0.04237,0.0212 0.04238,0.0636 0.04237,0.0212 0.02119,0.0212 0.02066,0.0212 0.06356,0.0419 0.02119,-0.0842 0.02119,-0.0424 0.02119,-0.0636 0.02119,-0.0636 0.04237,-0.0847 0.04238,0.0424 0.233061,0.0212 0.126606,-0.14831 0.148312,-0.21136 0.04237,-0.0636 0.402045,-0.21187 0.04237,-0.0212 h 0.06356 l 0.105937,0.0212 h 0.06356 0.02119 0.02119 l 0.02119,-0.0424 0.02119,-0.0212 0.06304,-0.0424 0.211876,-0.0212 h 0.02119 l 0.06356,0.0212 0.04238,0.0424 0.08475,0.0212 0.02119,0.0212 0.168981,0.12713 0.04237,0.0424 0.04238,0.0212 0.04238,0.0424 0.04237,0.0212 0.08475,0.0636 0.08475,0.0424 0.02119,0.0212 0.04237,0.0207 0.147796,0.10593 h 0.02119 l 0.02119,0.0636 0.02119,0.0212 0.08475,0.14831 0.02119,0.0424 0.06356,0.14779 0.127121,0.21188 v 0.0212 0.0212 0.0212 0.23307 0.0207 l 0.02119,0.12712 v 0.0212 0.0424 0.0847 h -0.02119 l 0.02119,0.12713 v 0.0636 l 0.02066,0.16898 0.02119,0.0212 0.317812,0.0424 h 0.04237 l 0.04238,0.0212 h 0.04237 l 0.147794,0.0424 0.06356,0.0212 0.275436,0.0847 h 0.02119 l 0.02119,0.0212 0.02119,0.0212 0.04186,0.0212 h 0.06356 l 0.06356,0.0212 h 0.04237 0.02119 l 0.148312,0.0636 0.105937,0.0419 0.126605,-0.0207 h 0.04238 l 0.08475,-0.0847 0.02119,-0.0212 0.04237,-0.0212 h 0.02119 l 0.04237,-0.0212 0.08475,-0.0424 0.06356,-0.0212 0.08423,-0.0424 0.02119,-0.0212 h 0.02119 v -0.0212 l 0.04238,-0.0212 0.02119,-0.0212 0.06356,-0.0212 h 0.02119 0.02119 l 0.02119,0.0212 h 0.02119 v 0.0212 l 0.06356,0.0636 0.08475,0.0424 0.04237,0.0424 0.02119,0.0212 0.02119,0.0212 0.04186,0.0424 0.04237,0.0212 v 0.0212 l 0.105936,0.063 0.04238,0.0212 0.04237,0.0424 h 0.02119 l 0.06356,0.0424 h 0.02119 0.04237 v 0.0212 l 0.232546,0.0847 0.02119,0.0212 h 0.02119 l 0.105937,0.0424 h 0.02119 l 0.06356,0.0424 h 0.02119 l 0.04237,0.0212 0.147797,0.0636 0.04237,0.0212 0.04237,0.0212 0.02119,0.0212 0.04237,0.0424 0.02119,0.0207 v 0.0212 h 0.02119 v 0.0424 l 0.04237,0.0424 0.02119,0.0212 0.02119,0.0636 0.04237,0.0212 0.190686,0.10594 0.147796,0.0847 0.169497,0.10593 h 0.02119 l 0.08475,0.0631 0.147794,0.0636 0.211875,0.0848 h 0.02119 l 0.04238,0.0424 0.04238,0.0424 0.105936,0.0636 0.02119,0.0212 0.04237,0.0212 0.126609,0.0424 0.190685,0.0424 h 0.04238 l 0.148309,0.0212 0.147797,-0.0212 h 0.04237 l 0.211875,0.0212 h 0.06356 l 0.168982,0.0212 0.105936,0.0207 h 0.06356 l 0.08475,-0.0207 h 0.190685 l 0.211358,-0.0212 0.105936,-0.0212 h 0.105937 l 0.06356,0.0212 0.04237,0.0212 0.04186,0.0207 0.04238,0.0212 0.02119,0.0424 v 0.0212 h 0.02119 v 0.0424 l 0.04237,0.0636 0.02119,0.0212 0.02119,0.0424 0.02119,0.0424 0.02119,0.0424 v 0.0212 l 0.02119,0.0424 0.06356,0.10593 0.06356,0.0842 0.02119,0.0847 0.126609,0.0424 0.04237,0.0424 0.06356,0.0424 0.105937,0.0636 0.02119,0.0212 0.127123,0.0636 0.168982,0.10542 0.233061,0.14831 h 0.02119 l 0.02119,0.0212 0.04237,0.0212 0.02119,0.0212 0.08475,0.0636 0.126607,0.12712 0.105938,0.10594 h 0.02119 l 0.08475,0.0842 0.08475,0.0424 0.08475,0.0424 0.02119,0.0212 h 0.02119 l 0.04237,0.0212 h 0.02119 l 0.06304,0.0424 0.08475,0.0424 h 0.02119 l 0.211875,0.10593 0.04237,0.0424 0.08475,0.0212 0.147796,0.0424 0.127125,0.0212 0.105936,0.0207 h 0.06356 0.105937 l 0.04186,0.0212 h 0.148312 l 0.04238,0.0212 0.190685,0.0424 0.190169,0.0848 0.04238,0.0212 0.06356,0.0424 0.06356,0.0424 0.06356,0.0424 0.105937,0.0636 0.02119,0.0212 0.147793,0.0424 h 0.02119 l 0.06356,0.0842 0.02119,0.0424 0.02119,0.0424 0.190688,0.10594 0.04237,0.0212 0.02119,0.0424 0.04238,0.0212 0.02119,0.0212 0.105421,0.0848 v 0.0212 l 0.06356,0.0424 0.105935,0.0636 0.127125,0.063 0.105936,0.0636 0.168982,0.0848 0.04237,0.0424 0.06356,0.0424 0.04237,0.0212 0.04238,0.0212 h 0.04238 l 0.08475,0.0212 0.08475,0.0212 0.06305,0.0212 0.127124,0.0424 0.127124,0.0636 h 0.02119 l 0.02119,0.0212 0.105937,-0.0424 0.147793,-0.0424 0.04238,-0.0212 0.02119,-0.0424 0.02119,-0.0212 h 0.08475 l 0.190686,-0.0424 h 0.04238 0.06304 0.06356 0.105936 l 0.105937,-0.0212 0.04238,0.0212 h 0.02119 l 0.190168,0.0212 0.06356,0.0212 h 0.127123 l 0.08475,0.0212 0.1695,0.0212 h 0.08423 l 0.08475,0.0212 h 0.02119 0.08475 0.211874 0.147793 0.127125 0.105936 0.02119 0.211872 l 0.253734,0.0212 h 0.190684 0.08475 l 0.147796,0.0212 h 0.211874 0.253729 l 0.233061,0.0424 h 0.04238 l 0.08475,0.0212 0.274917,0.0207 h 0.190689 0.148309 0.274921 0.08475 l 0.127123,0.0636 0.126607,0.0847 0.190688,0.0636 0.02119,0.0212 0.06356,0.0212 0.04237,0.0212 0.253729,0.10594 0.233061,0.10593 0.232543,0.12661 0.23306,0.12713 0.04238,0.0212 0.06356,0.0212 h 0.06356 0.04237 0.02119 0.04186 0.14831 l 0.08475,0.0212 v 0.0424 0.0424 l 0.02119,0.0636 0.02119,0.0212 0.04238,0.0212 0.127124,0.063 0.06356,0.0847 0.06305,0.0212 0.04238,0.0424 h 0.105937 0.1695 l 0.127121,0.0424 h 0.04186 l 0.04237,-0.0212 0.127125,0.0212 0.08475,0.0212 h 0.127124 0.190169 0.02119 0.08475 0.02119 0.04238 l 0.02119,0.0212 0.04237,0.0847 0.04238,0.0424 0.04238,0.0636 0.190168,0.0636 0.06356,0.0419 0.06356,0.0424 0.02119,0.0212 h 0.02119 l 0.06356,0.0424 h 0.04238 l 0.06356,0.0424 0.04237,0.0212 h 0.04238 0.04237 l 0.02119,-0.0424 0.02066,-0.0636 0.06356,0.0212 h 0.02119 0.04238 l 0.06356,0.0212 h 0.02119 0.02119 l 0.02119,-0.0212 0.02119,-0.0212 0.02119,-0.0212 0.04238,0.0212 0.02119,0.0212 0.06356,0.0424 0.06356,0.0636 0.08423,0.0636 0.06356,0.0636 0.04237,0.0424 v 0.0212 l 0.02119,0.10594 v 0.063 l 0.04238,0.0212 0.06356,0.0212 0.02119,0.0212 h 0.02119 l 0.02119,0.0212 0.04237,0.0212 0.105936,-0.0636 0.105421,-0.0636 0.08475,-0.10542 0.02119,-0.0424 0.02119,-0.0212 h 0.02119 l 0.04237,-0.0212 h 0.04238 l 0.127124,-0.0424 h 0.02119 0.04237 v -0.0212 l 0.04186,-0.0212 h 0.02119 l 0.06356,-0.0212 0.02119,-0.0212 h 0.02119 0.02119 l 0.105936,0.0212 h 0.02119 l 0.06356,0.0212 0.25373,0.0424 h 0.02119 l 0.04238,0.0212 0.06356,0.0212 0.04238,0.0212 0.04237,0.0212 h 0.02119 0.02119 l 0.25373,0.0636 0.06356,0.0212 h 0.04237 l 0.04238,0.0212 0.190685,0.12661 h 0.02119 l 0.105937,0.0636 h 0.04186 l 0.02119,0.0212 h 0.02119 0.02119 l 0.105937,0.0212 0.06356,-0.0212 h 0.04238 0.02119 0.02119 0.02119 l 0.08475,-0.0212 h 0.06356 l 0.10542,0.0212 0.105937,0.0424 0.105936,0.0636 0.127125,0.0636 0.04238,0.0424 0.147793,0.0847 h 0.06356 l 0.06356,0.0212 h 0.08475 l 0.04238,0.0212 h 0.04237 l 0.08475,0.0419 0.02119,-0.0212 h 0.06305 l 0.148312,-0.10542 0.04238,-0.0212 0.127125,-0.0636 v -0.0212 l 0.02119,0.0212 h 0.02119 0.04238 0.04238 l 0.211354,0.0424 h 0.04238 l 0.08475,0.0212 0.148312,0.0424 0.168982,0.0424 0.105936,0.0419 h 0.06356 l 0.127125,0.0424 0.08475,0.0212 0.168981,0.0424 h 0.04238 0.04237 v -0.0424 h 0.02119 v 0.0212 l 0.02119,0.0212 0.02119,-0.0424 h 0.06356 l 0.02119,-0.0212 h 0.06356 l 0.211357,0.0212 0.148313,0.0848 0.169497,0.0636 0.168981,0.0636 0.127125,0.0636 0.04237,0.0212 0.04238,0.0212 0.105937,0.0212 h 0.02119 0.02119 0.02119 v 0.0212 h 0.02119 l 0.04238,0.0212 v -0.0212 l 0.04237,0.0212 0.02066,-0.0212 0.04237,0.0212 0.190688,0.0636 h 0.04237 l 0.04238,0.0207 0.105937,0.0212 0.126606,0.0212 h 0.105939 l 0.04237,-0.0212 0.105936,0.0424 0.127125,0.0424 0.126608,0.0212 0.127124,0.0424 0.127122,0.0424 h 0.04238 0.02119 l 0.232542,-0.14831 v -0.0212 h 0.02119 l 0.06356,-0.0424 0.42323,0.14831 0.338997,-0.12712 0.359667,-0.19017 0.359669,-0.0847 h 0.02119 0.02119 0.02119 l 0.06356,-0.0212 h 0.02119 l 0.06356,0.0424 0.06356,0.0424 0.02119,0.0212 h 0.02119 l 0.02119,0.0212 0.06356,0.0424 0.06356,0.0424 0.105418,0.0631 0.02119,0.0212 h 0.02119 v 0.0212 h 0.02119 v 0.0212 h 0.02119 0.02119 v 0.0212 l 0.105936,0.0636 0.04238,0.0636 0.105937,0.14831 0.04237,0.0636 0.105418,0.1478 0.04238,0.0424 0.02119,0.0424 0.08475,0.10593 0.02119,0.0212 0.105936,0.10593 0.06356,0.0636 0.04237,0.0424 0.168981,0.12661 0.02119,0.0212 v 0.0212 l 0.02119,0.0212 h 0.02119 l 0.02119,0.0212 0.06356,0.0424 0.127124,0.10593 0.338481,0.23255 0.06356,0.0212 0.190686,0.12712 0.147796,0.10594 0.275434,0.12712 0.105936,0.0636 0.168982,0.10542 0.1695,0.0847 0.190685,0.10594 h 0.02119 l 0.02119,0.0212 0.06356,0.0636 0.06305,0.0424 0.1695,0.12713 0.04238,0.0424 0.08475,0.0842 0.06356,0.0424 0.04238,0.0424 h 0.04237 0.04237 l 0.04186,0.0212 h 0.04237 0.02119 l 0.04238,0.0212 h 0.02119 l 0.06356,0.0212 h 0.04237 l 0.148312,0.0424 0.168981,0.0212 0.211873,0.0212 h 0.08475 l 0.06356,0.0212 h 0.105937 0.08423 l 0.06356,-0.0212 h 0.06356 l 0.08475,-0.0212 h 0.08475 0.105937 0.08423 l 0.06356,0.0212 h 0.04238 l 0.06356,0.0212 0.08475,0.0212 h 0.08475 0.06356 l 0.08475,0.0424 0.06304,0.0212 h 0.04238 l 0.105936,0.0212 0.233061,0.0212 h 0.02119 l 0.06356,0.0212 0.08423,0.0212 0.06356,0.0212 0.04237,0.0207 0.148312,-0.0419 0.190685,-0.0424 0.08423,-0.0212 0.08475,0.0424 0.08475,0.0212 0.08475,0.0419 0.04238,0.0212 0.04237,0.0424 0.253733,0.21187 0.105936,0.0848 0.105937,0.0847 0.105936,0.0842 0.08423,0.0212 0.127125,0.0636 0.190685,0.0636 0.105936,0.0424 v 0.0212 l -0.02119,0.0212 v 0.0212 0.0212 l 0.02119,-0.0212 0.04238,-0.0212 v 0.0212 l 0.02119,-0.0212 0.02119,0.0212 h 0.02066 0.02119 l 0.04238,0.0212 v 0.0212 l 0.04238,-0.0212 0.06356,0.0212 h 0.02119 l 0.02119,-0.0212 v 0.0212 h 0.02119 l 0.08475,0.0848 h 0.08475 l 0.08475,0.0212 0.06305,0.0212 0.190688,0.0424 0.105936,0.0212 0.169498,0.0419 0.10542,0.0212 0.04238,0.0212 0.211873,0.0424 0.105936,0.0424 0.105421,0.0212 0.06356,0.0212 0.06356,0.0424 0.08475,0.0212 0.08475,0.0212 v 0.0212 l 0.06356,0.0212 0.08475,0.0424 0.06356,0.0212 h 0.08423 0.08475 l 0.127124,-0.0212 h 0.08475 0.105936 0.06305 l 0.127125,-0.0212 h 0.06356 0.06356 l 0.02119,-0.0212 0.296106,0.0848 h 0.254249 l 0.1695,-0.14831 0.126606,-0.29611 0.148312,-0.27543 0.02119,-0.0636 0.296106,-0.0424 0.233061,-0.0424 1.121894,-0.35967 0.804084,-0.21188 0.338998,-0.10541 0.59273,-0.12713 0.168981,-0.19069 0.04238,-0.0212 0.14831,-0.14779 0.486793,-0.14831 0.402043,-0.35967 0.02119,0.0212 0.02119,0.0207 h 0.02119 l 0.04238,-0.0207 h 0.04237 l 0.08475,-0.0212 v 0.0212 l 0.08475,0.0419 v -0.0212 -0.0207 l -0.02119,-0.10594 0.232544,0.0636 0.381371,0.0424 0.08423,-0.0636 v -0.25425 l 0.02119,0.0212 0.04237,0.0212 0.127125,0.0424 0.08475,-0.0212 h 0.06356 l 0.02119,-0.0212 h 0.02119 l 0.04237,-0.0212 0.02119,-0.0212 h 0.04186 l 0.04237,-0.0212 0.04238,0.0212 0.233061,0.10594 0.359666,-0.0636 0.338998,-0.0848 h 0.02119 l 0.10542,0.0212 0.296622,0.0212 0.444418,0.0212 0.444418,-0.0847 h 0.02119 0.02119 0.04238 0.04238 l 0.06356,-0.0212 0.04238,-0.0424 0.02119,-0.0212 h 0.04237 0.08423 l 0.02119,-0.0212 h 0.04238 l 0.02119,0.0212 v -0.0212 h 0.04238 l 0.02119,-0.0212 0.04237,0.0212 0.04237,-0.0419 h 0.02119 l 0.02119,0.0419 0.02119,0.0424 0.02119,0.0424 0.02119,0.0424 0.02119,0.0212 v 0.0212 l 0.04238,0.0212 h 0.02119 l 0.04186,0.0212 v 0.0212 0.0212 h 0.02119 0.02119 l 0.02119,0.0212 0.02119,0.0212 h 0.04238 0.02119 l 0.02119,-0.0212 h 0.02119 l 0.127125,-0.0636 0.02119,-0.0636 h 0.02119 l 0.02119,0.0212 -0.02119,0.0424 0.04237,0.0212 0.04238,-0.0424 0.02119,-0.0212 v -0.0212 l 0.02119,-0.0212 h 0.02119 v 0.0212 l 0.08423,-0.0212 0.105936,0.1695 h 0.275437 l 0.04237,0.0424 0.02119,-0.0424 h 0.444572 l 0.190169,0.0424 0.08475,0.0424 0.04237,-0.0424 0.148313,-0.14831 h 0.02119 v 0.0212 0.0212 h 0.02119 0.02119 l -0.02119,0.0212 0.04238,0.0212 0.02119,0.0212 h 0.04237 0.04186 0.04237 0.02119 0.02119 0.06356 v -0.0212 l 0.02119,0.0212 v -0.0636 l 0.02119,-0.0212 v -0.0212 l 0.02119,-0.0636 h 0.02119 v -0.0212 h 0.02119 l 0.02119,-0.0424 0.02119,-0.0212 0.06356,-0.0424 0.105937,0.0848 h 0.02119 0.02066 0.02119 0.02119 l 0.02119,0.0212 v -0.0424 -0.0424 h 0.02119 0.02119 v 0.0424 l 0.02119,0.0212 0.02119,0.0212 0.02119,-0.0212 h 0.02119 v -0.0424 -0.0424 h 0.02119 l 0.02119,0.0848 h 0.02119 v 0.0212 0.0212 h 0.04238 l 0.02119,-0.0212 h 0.02119 0.02119 l 0.02119,-0.0424 h 0.02119 l 0.02119,0.0212 h 0.02119 0.02119 l 0.04237,0.0212 v 0.0212 h 0.06304 v -0.0212 -0.0212 l -0.02119,-0.0212 v -0.0212 l 0.02119,-0.0212 0.02119,-0.063 h 0.04238 0.02119 l 0.02119,-0.0424 0.02119,-0.0636 0.02119,-0.0212 h 0.08475 l 0.02119,0.0424 h 0.02119 v 0.0636 0.0212 h 0.06356 0.02119 l 0.04238,-0.0212 v -0.0212 h 0.02119 0.02119 l 0.06304,-0.0212 h 0.06356 0.04237 l 0.02119,0.0212 v 0.0212 l 0.06356,0.0212 h 0.02119 v -0.0212 -0.0212 -0.0424 l 0.02119,-0.0212 h 0.105939 l 0.232543,-0.0212 0.105936,-0.0212 0.04238,0.0212 h 0.02119 0.02119 0.02119 v 0.0424 l 0.02119,0.0212 0.02119,0.0212 h 0.02119 v 0.0212 h 0.02119 l 0.06356,0.0212 h 0.02119 l 0.02119,0.0207 h 0.04237 l 0.04186,-0.0207 h 0.02119 0.02119 l 0.06356,0.0207 0.04237,0.0212 v -0.0212 h 0.04237 l 0.02119,-0.0419 0.02119,0.0419 0.02119,0.0212 0.02119,-0.0419 -0.02119,-0.0212 v -0.0212 -0.0212 -0.0212 h 0.02119 l 0.465606,0.0847 h 0.380854 l 0.04238,0.14779 0.02119,-0.0424 v -0.0212 -0.0424 l 0.02119,-0.0212 0.02119,-0.0419 0.02119,-0.0212 v -0.0212 l 0.02119,-0.0636 0.02119,-0.0424 0.04238,-0.0424 v -0.0212 l 0.06356,0.0212 h 0.02119 v 0.0424 0.0212 0.0212 0.0212 l -0.02119,0.0212 0.02119,0.0212 h 0.02119 v 0.0636 l 0.02119,0.0419 v 0.0212 0.0212 0.0212 l 0.08475,0.12712 0.02066,0.0212 h 0.02119 v -0.0847 l 0.02119,-0.0212 0.04238,0.0636 h 0.04237 0.04237 0.02119 v -0.0212 -0.0212 -0.0212 l 0.02119,-0.0212 0.02119,-0.0212 v -0.0212 h 0.02119 0.02119 0.02119 0.02119 l 0.04238,0.0212 v 0.0212 l 0.02119,-0.0212 0.02119,0.0212 v -0.0212 h 0.16898 0.0847 l 0.12712,0.19069 0.0847,-0.0424 v 0.0212 l 0.0212,0.0212 0.0424,-0.0424 -0.0212,-0.0212 h 0.0212 l 0.59273,0.0424 h 0.063 l 0.27543,0.0212 0.29611,-0.10593 0.25425,-0.12713 0.6351,0.12713 -0.0424,-0.33848 -0.12712,-0.1695 0.0636,-0.19069 0.0212,-0.0419 0.0424,0.0212 h 0.0212 l 0.0212,-0.0212 h 0.0212 l 0.0424,-0.0212 0.0424,-0.0424 h 0.0207 l 0.0424,-0.0212 0.0636,-0.0424 v -0.0212 l -0.0212,-0.0212 v -0.0212 l 0.0212,-0.0847 0.0424,-0.0636 v -0.0212 -0.0424 l -0.0212,-0.0212 0.0847,-0.19017 v -0.0424 l -0.0636,-0.0424 -0.0212,-0.0212 v -0.0212 h 0.0212 l 0.0212,-0.0212 h 0.0424 l 0.0212,-0.0212 v -0.0212 l -0.0212,-0.0424 -0.0212,-0.0212 -0.0212,-0.0212 -0.0212,-0.0636 -0.0212,-0.0424 h -0.0212 l -0.0212,-0.0212 -0.0212,-0.063 -0.0212,-0.0212 -0.0212,-0.0212 -0.0212,-0.0212 -0.063,-0.0636 -0.0424,-0.0424 -0.0212,-0.0212 h -0.0212 l -0.0212,-0.0212 h -0.0424 -0.0212 -0.0212 l -0.0212,-0.0424 h 0.0636 l 0.16949,-0.0847 0.10542,0.0212 0.12713,0.16951 0.10593,0.12712 0.19069,0.16898 0.063,0.19069 0.0212,0.12712 0.0847,0.0847 0.0424,0.0419 0.0212,0.0212 h 0.0212 v 0.0424 0.0212 h 0.0212 v 0.0212 0.0212 0.0212 0.0212 l 0.0212,0.0212 v 0.0212 0.0212 l 0.0212,-0.0212 0.23306,-0.21188 0.21136,0.0424 h 0.0636 0.0424 v -0.0212 h 0.0212 0.0212 0.0424 v 0.0424 l 0.0212,0.0424 v 0.0424 l 0.0212,0.0212 v 0.0212 0.0424 0.0212 l 0.0212,0.10594 v 0.0212 0.0212 0.0212 0.0212 0.0212 h 0.0212 v 0.0212 l -0.0636,0.0212 -0.0212,0.0207 -0.0212,-0.0207 v -0.0212 l -0.0212,0.0418 h -0.0212 l -0.0212,0.0212 v 0.0212 l -0.0212,0.0212 -0.0212,0.0212 v 0.0636 l 0.0212,0.0424 v 0.0848 l 0.0847,0.0636 0.0636,0.0212 v 0.0212 0.0212 l -0.0212,0.14779 -0.0212,0.0212 v 0.0424 l -0.0424,0.0212 v 0.0212 h -0.0212 l -0.0212,0.0636 0.0212,0.0212 0.0424,0.0212 h 0.0212 l 0.0212,0.0212 0.0424,0.0212 h 0.0212 v 0.0212 h 0.0212 v 0.0424 h -0.0212 v 0.0212 h 0.0212 v 0.0212 0.0212 0.0212 h 0.0419 l -0.0207,0.0212 h -0.0212 v 0.0212 0.0424 l 0.063,0.0207 h 0.0212 v 0.0424 h -0.0424 -0.0207 l 0.0207,0.12712 -0.0419,0.0212 v 0.0212 0.0847 l 0.0212,0.0212 v 0.0212 0.0212 h 0.0207 l 0.0636,-0.0212 0.0212,-0.0212 h 0.0212 l 0.0212,0.0212 0.0212,0.0212 0.0212,-0.0212 0.0424,-0.0212 h 0.0212 0.0212 l 0.0212,-0.0212 v -0.0212 h 0.0212 l 0.0212,0.0424 v 0.0212 h 0.0212 0.0212 v -0.0212 h 0.0212 v -0.0424 -0.0212 -0.0212 -0.0212 l 0.0424,-0.0212 -0.0212,-0.0212 v -0.0212 -0.0212 -0.0212 l 0.0212,-0.0212 0.0212,-0.0212 h 0.0212 0.0212 l 0.0419,0.0212 h 0.0212 v -0.0212 -0.0424 l 0.0212,-0.0212 0.0212,-0.0207 v -0.0212 -0.0212 l 0.0212,-0.0212 v -0.0212 -0.0212 -0.0847 l -0.0212,-0.0212 v -0.0212 h 0.0212 l 0.0212,-0.0212 0.0212,-0.0424 0.0212,-0.0424 0.0212,-0.0636 0.0212,-0.0636 0.0424,-0.063 0.0212,-0.0212 0.0212,-0.0636 v -0.0424 l 0.0212,-0.0212 0.0636,0.0212 h 0.0424 l 0.0424,0.0212 h 0.0212 v 0.0212 0.0212 0.0212 l -0.0424,0.0424 -0.0424,0.0207 -0.0212,0.0212 -0.0212,0.0424 v 0.0212 0.0212 0.0212 0.0212 0.0212 l -0.0424,0.0636 h 0.0424 0.0212 l 0.0212,-0.0424 0.12712,0.0212 0.0207,0.0212 v 0.0212 h 0.0212 l 0.0212,-0.0212 0.0212,0.0212 h 0.0212 0.0212 0.0424 l 0.0212,-0.0212 h 0.0212 v 0.0212 0.0212 h 0.0212 v -0.0212 l 0.0212,-0.0212 h 0.0424 v 0.0424 l 0.0424,-0.0212 h 0.0424 l 0.0424,0.0212 h 0.0424 0.0212 l 0.0424,-0.0424 0.0207,-0.0636 0.0636,-0.0212 h 0.0212 l 0.0424,-0.0212 0.0636,-0.0212 h -0.0212 l 0.0424,-0.0212 h 0.0212 l 0.0847,-0.0424 h 0.0212 l 0.0212,0.0212 h 0.0212 l -0.0212,0.0212 h -0.0212 -0.0212 v 0.1695 0.0212 l -0.0847,0.0636 -0.0636,0.0424 -0.0424,0.0424 -0.10594,0.0636 -0.0419,0.0212 -0.0212,0.0207 h -0.0847 v 0.0212 h -0.0212 -0.0212 v 0.0212 0.0212 0.0212 0.0212 0.0212 l 0.0212,0.0212 h 0.0212 0.0212 v 0.0212 0.0212 l 0.0212,0.0212 v 0.0212 l 0.0424,0.12712 v 0.0212 0.0212 0.0636 l 0.0212,0.0424 v 0.0207 h 0.0207 l 0.0636,0.0636 0.0212,0.0212 h 0.0424 l 0.0212,0.0212 0.0424,-0.0212 h 0.10594 l 0.0212,-0.0212 0.0636,-0.0636 0.0424,-0.0207 0.0212,-0.0212 0.0212,-0.0212 0.0631,0.0424 0.0424,0.0419 h 0.0212 l 0.0212,0.0212 0.14831,-0.0424 0.10594,0.0636 0.0212,0.0424 0.0212,0.0636 0.0424,0.0636 v 0.0212 l -0.0212,0.0212 0.0212,0.0212 -0.0212,0.0424 h 0.0212 0.0212 v 0.0212 h 0.0424 0.0419 0.0212 l 0.10594,0.0212 0.0847,0.0424 v 0.0212 0.0636 0.0419 h 0.0212 0.0212 l 0.0212,0.0212 0.0847,0.0636 0.14831,0.10594 h 0.0419 0.0424 l 0.0424,-0.0636 0.0212,-0.0424 0.0212,-0.0636 0.0212,-0.0212 0.0424,-0.0631 h 0.0212 l -0.0424,-0.0424 h -0.0212 -0.0212 v -0.0212 l -0.0212,-0.0212 -0.0212,0.0212 v -0.0212 l 0.0212,-0.0424 v -0.0212 l -0.0212,-0.0424 0.0212,-0.0424 0.0424,-0.0212 0.0424,-0.0636 0.0212,-0.0212 -0.0424,-0.0636 0.0424,-0.1478 0.10593,0.0631 v 0.0424 l 0.0212,0.0636 -0.0212,0.0424 0.0636,0.0636 0.0424,0.0212 h 0.0636 l 0.0419,0.0212 0.14832,0.0424 h 0.0636 l 0.0424,0.0212 0.0212,-0.0636 0.0212,-0.0424 -0.0212,-0.0212 -0.0212,-0.0424 0.0212,-0.0424 0.0424,-0.0212 h 0.0636 0.0212 l -0.0212,-0.0636 v -0.0212 l -0.0212,-0.0631 v -0.0212 -0.0424 l 0.0212,-0.0424 0.0212,-0.0636 0.0636,-0.0424 0.0212,-0.0212 0.0419,-0.0424 0.0212,-0.0212 0.0424,-0.0212 h 0.0424 l 0.23306,0.0212 h 0.0424 l 0.0424,0.0212 0.1266,0.0212 0.10594,0.14831 v 0.0212 l 0.0212,0.0212 0.0636,0.0848 h 0.0424 l 0.0212,0.0631 v 0.0212 h 0.0212 0.0212 0.0424 0.1478 0.0424 0.0212 0.0424 l 0.0424,-0.0212 h 0.0212 l 0.0636,-0.0631 0.0636,0.0212 h 0.0424 l 0.0636,0.0419 0.0212,0.0212 v 0.0212 h 0.0212 l 0.0212,0.0424 h 0.0212 l 0.12661,0.10594 v 0.0212 l 0.0212,0.0212 v 0.0212 l -0.0212,0.0212 v 0.0212 l -0.0424,0.0212 v 0.0212 h 0.0212 v 0.0212 l 0.0212,0.0847 0.0212,0.0212 0.0212,0.0212 0.0212,0.0207 v 0.0212 0.0212 0.0424 h 0.0212 l 0.0212,0.0212 0.0212,0.0212 0.0636,0.0424 0.0212,-0.0212 0.0212,-0.0212 0.0212,0.0212 v 0.0212 h 0.0212 0.0212 0.0636 0.0424 l -0.0212,-0.0212 0.0424,-0.0424 0.0207,0.0212 v 0.0212 h 0.0636 0.0212 0.0212 l -0.0212,0.0212 v 0.0212 l 0.0212,0.0212 v 0.0212 l 0.0212,0.0424 0.0212,0.0212 v 0.0212 0.0212 0.0212 0.0212 h 0.0212 0.0212 l 0.0847,0.0212 0.0424,-0.0847 0.0424,-0.10593 0.0212,-0.0212 v -0.0424 l 0.21135,0.21187 0.21188,0.0848 h 0.0847 l 0.27491,-0.23306 0.31781,0.0212 0.10542,-0.21187 -0.0631,-0.14779 -0.29662,-0.14831 -0.25373,-0.0424 -0.0212,-0.0212 v -0.0212 h -0.0212 l -0.0212,-0.0424 -0.0212,-0.0212 -0.0212,-0.0212 -0.0212,-0.0212 h -0.0212 l -0.0212,-0.0212 -0.0212,-0.0424 h -0.0424 -0.0212 -0.0212 -0.0636 -0.0212 v 0.0212 h -0.0199 l -0.0212,0.0212 v 0.0212 l -0.0631,0.0424 -0.0847,0.0212 v 0.0636 h -0.0212 v 0.0424 l -0.0424,-0.0212 v 0.0212 h -0.0424 -0.0212 l -0.0212,-0.0212 v -0.0212 l 0.0212,-0.0212 0.0212,-0.0212 v -0.0212 -0.0424 -0.0212 -0.0424 -0.0212 l 0.0212,0.0212 v -0.0419 l -0.0636,-0.0212 0.0212,-0.0212 h -0.0212 v -0.0212 l 0.0212,-0.0212 0.0212,0.0212 v -0.0212 h 0.0424 0.0212 0.0212 v -0.0212 l 0.0212,-0.0212 h -0.0212 v -0.0212 h -0.0212 v -0.0848 h 0.0847 0.0212 0.0419 0.0636 l 0.19068,0.0212 h 0.0847 0.0212 0.0212 l 0.0212,-0.0212 v -0.0212 h -0.0212 -0.0212 v -0.0212 l 0.0212,-0.0636 v -0.0212 -0.0212 l 0.0212,-0.0424 v -0.0636 l 0.0847,0.0212 v -0.0212 l 0.0631,-0.0631 h 0.0212 l -0.0212,-0.0212 h 0.0424 0.0212 v 0.0212 h 0.0424 v 0.0212 l -0.0212,0.0207 -0.0212,0.0636 v 0.0424 0.0212 h -0.0212 l -0.0212,0.0636 v 0.0424 l 0.0212,0.0212 v 0.0212 l 0.0212,0.0848 h 0.0212 l 0.0847,0.0212 0.1695,0.0212 0.0212,0.0212 h 0.0212 l 0.0212,0.0212 0.16898,0.0842 0.0212,0.0212 h 0.0212 l 0.0424,-0.0842 0.0424,-0.0424 0.0424,-0.0636 0.14831,0.12712 0.0636,0.0631 0.33848,-0.0419 0.0424,-0.0212 0.31729,-0.23306 0.0847,0.0212 0.40205,0.0424 0.14831,0.0212 0.14831,-0.14831 -0.0636,-0.0636 -0.12712,-0.1478 0.12712,-0.19068 0.19069,-0.21188 0.25373,-0.27492 0.21187,-0.10593 0.25374,-0.10594 0.40204,-0.0847 0.25424,-0.14779 0.0424,-0.0212 v 0.0212 l -0.0212,0.0212 0.0212,0.0212 0.0212,0.0212 h 0.0212 0.0212 v 0.0207 h 0.0212 0.0212 l 0.0424,-0.0419 v -0.0212 l 0.0424,-0.0212 h 0.0212 l 0.0419,-0.0212 -0.0212,0.0636 0.0212,0.0212 v 0.0207 0.0212 l -0.0212,0.0212 v 0.0424 h 0.0212 l 0.0212,-0.0212 v 0.0212 l 0.0424,0.0212 0.0212,0.0212 0.0212,0.0212 h 0.0212 v -0.0212 l 0.10594,-0.0212 0.0212,0.0212 0.0212,0.0212 h 0.0212 l 0.0847,-0.0424 h 0.0212 l 0.0847,-0.0424 h 0.0842 l 0.14831,-0.0636 0.0424,-0.0207 h 0.0424 v 0.0207 h 0.0424 l 0.10594,-0.0418 v -0.0424 l 0.0842,-0.0212 0.0212,0.0212 0.0212,0.10542 0.0212,0.10594 v 0.0636 l 0.0212,0.0212 v 0.0212 l 0.0212,0.0212 v 0.0212 l 0.0212,0.0212 v 0.0212 l 0.0212,0.0212 h 0.0212 l 0.0212,0.0424 0.0424,0.0636 0.0424,0.0212 0.0212,0.0212 0.0847,0.0842 0.0212,0.0212 h 0.0212 l 0.0636,0.0212 0.0419,0.0212 0.0212,0.0212 0.0212,0.0212 0.0636,0.0212 h 0.0424 l 0.0212,0.0212 h 0.0424 l 0.0424,0.0212 h 0.0212 l 0.0212,-0.0212 0.0212,-0.0212 0.10594,0.12712 h 0.0212 v 0.0212 l 0.0212,0.0424 -0.0212,0.0212 v 0.0212 l -0.0424,0.1266 -0.0212,0.14831 0.0424,0.0636 0.0212,0.0212 0.0212,0.0212 v 0.0212 0.0212 l 0.0212,0.0212 h 0.0419 l 0.0424,0.0424 h 0.0424 l 0.0424,0.0212 h 0.0212 0.0212 l 0.0424,0.0212 h 0.0212 v 0.0212 h 0.0636 l 0.0212,0.0212 h 0.0212 l 0.0212,0.0212 0.52916,0.25373 0.27492,-0.1695 0.1695,-0.10541 0.0424,0.0842 v 0.0424 l -0.0212,0.0424 v 0.0212 0.0212 l 0.0424,0.0212 h 0.0212 0.0212 l 0.0212,-0.0212 h 0.0212 l 0.10542,-0.0212 h 0.0636 l 0.10593,0.0212 h 0.0212 l 0.0212,0.0212 0.0847,0.1695 0.27492,0.0212 0.931729,0.12712 0.35967,0.0631 0.31729,-0.0207 0.0636,0.0207 0.0212,0.0424 0.0847,0.0212 0.0847,0.0212 h 0.0212 l 0.35967,0.14831 0.35967,0.0848 h 0.46612 l 0.52916,-0.21187 0.33848,0.1695 0.38086,-0.25425 0.48679,0.0424 0.0212,-0.0212 0.31781,-0.25373 0.63459,-0.31781 0.91054,0.14831 0.40204,-0.14831 0.0636,-0.0207 0.0636,0.0207 -0.0424,0.0212 h 0.0847 l -0.0424,0.0212 v 0.0212 l 0.0424,0.0212 h 0.0212 v 0.0212 l 0.0212,0.0212 0.0212,0.0212 h 0.0212 v 0.0212 h 0.0207 l 0.0424,-0.0212 h 0.0424 0.0212 l 0.0212,-0.0212 0.0212,0.0212 h 0.0212 v 0.0212 h 0.0212 l 0.0424,0.0424 0.0424,0.0212 0.10593,-0.0212 h 0.12713 v -0.0212 h 0.0207 l 0.0212,-0.0212 h 0.0212 0.0212 l 0.0212,0.0212 h 0.0848 l 0.0636,-0.0212 h 0.0636 0.0848 0.10593 l 0.0212,-0.0212 -0.0212,-0.0212 0.0419,-0.0212 0.0212,0.0212 0.0212,-0.0212 0.0212,0.0424 h 0.0636 0.0848 0.10594 0.1695 0.0631 v -0.0212 l 0.0212,-0.0212 0.0212,-0.0212 h 0.0212 0.0212 0.0212 l 0.0212,0.0212 h 0.0212 0.0424 0.0636 0.0636 0.0636 0.0212 l 0.44442,0.0636 0.12712,0.0212 0.0212,-0.0424 v -0.0212 h 0.0212 0.0207 v -0.0212 -0.0212 h 0.0212 l 0.1695,-0.0424 0.14831,-0.0424 0.12713,-0.0419 h 0.0424 l 0.12661,-0.0212 h 0.10593 0.0847 l 0.0848,-0.0424 0.0424,-0.0212 0.10542,-0.0424 0.12713,-0.0424 h 0.10593 l 0.0848,-0.0636 0.0636,-0.0424 h 0.19017 l 0.14832,-0.0212 0.10593,-0.0636 0.0212,-0.0424 0.0212,-0.0636 0.0212,-0.0631 0.0636,-0.0847 0.10542,0.0212 h 0.0212 0.0424 l 0.0424,0.0212 h 0.0636 v 0.0212 l 0.0212,0.0212 0.0424,-0.0212 0.0424,-0.0212 0.0847,-0.0212 h 0.0424 l 0.0847,-0.0212 h 0.0631 l 0.0848,0.0212 h 0.0636 l 0.0424,0.0212 h 0.0847 0.0424 v 0.0212 h 0.10594 0.0424 0.0212 0.0207 0.0212 l 0.0212,-0.0212 v -0.0212 l 0.0212,-0.0212 h 0.0212 0.0424 l 0.10593,-0.0424 h 0.0212 0.0847 l 0.0212,-0.0636 0.0636,0.0212 h 0.0212 v 0.0848 h 0.0212 l 0.063,-0.0424 0.12713,-0.0636 0.0636,-0.0212 0.0636,-0.0212 0.0636,-0.0636 0.10594,-0.0636 0.0636,-0.0636 0.0419,-0.0212 0.10593,-0.0212 v 0.0212 l 0.0636,-0.0631 0.0212,0.0207 h 0.0212 0.0212 l 0.14831,0.0636 0.0636,0.0212 h 0.12661 0.0212 0.0212 l 0.1695,-0.0424 0.0212,-0.0212 0.0424,-0.0212 h 0.0212 l 0.0212,-0.0207 0.16898,0.0207 h 0.0847 0.0212 0.0212 0.10593 0.0212 l 0.0212,-0.0207 h 0.0424 l 0.0212,-0.0212 0.1695,-0.0847 0.0631,0.0212 0.12713,-0.0424 0.0424,-0.0212 0.16949,-0.0848 0.0636,-0.0424 0.0424,-0.0212 0.0419,0.0212 0.0848,-0.0212 0.0847,-0.0212 h 0.10594 v -0.0212 h 0.0424 l 0.12712,-0.0212 v -0.0424 l 0.0424,-0.0212 0.0212,0.0212 v 0.0212 l 0.063,-0.0212 h 0.0424 0.0212 l 0.14831,-0.0848 0.0424,-0.0419 0.0636,0.0207 h 0.0212 v -0.0207 -0.0424 -0.0424 h 0.12713 l 0.0419,0.0848 v 0.0207 h 0.0847 l 0.0848,0.0212 0.10593,-0.0419 h 0.0424 l 0.0424,-0.0212 0.0848,-0.0636 v -0.12713 l 0.12661,-0.0636 0.0212,0.0212 0.0424,0.0424 0.0424,0.0212 h 0.0424 l 0.0424,-0.0212 0.0424,-0.0212 h 0.0424 l 0.0636,-0.0212 h 0.2961 l 0.0212,-0.0636 h 0.12713 0.12712 l 0.0212,-0.0848 0.0212,-0.1266 v -0.0424 -0.0424 -0.0212 h 0.0631 0.0424 l 0.0424,0.0212 0.0424,-0.0212 0.0424,0.0212 0.0424,0.0212 h 0.0424 l 0.0424,0.0424 0.0424,0.0419 h 0.0424 0.0848 0.0212 0.0842 0.0424 l 0.0636,0.0212 0.0424,-0.0419 h 0.0636 l 0.19069,0.063 h 0.0631 l 0.0424,-0.0424 h 0.12713 l 0.0212,-0.063 h 0.12712 0.0424 0.0212 0.0212 0.0424 l 0.0424,-0.0424 h 0.0212 0.0842 0.0424 0.0212 l 0.0847,0.0424 h 0.0212 0.0212 0.0212 l 0.0636,-0.0424 0.0212,-0.0424 0.0212,-0.0847 v -0.0424 l 0.0636,-0.0212 v 0.0424 l 0.0212,0.0212 v 0.0424 h 0.0424 0.0419 0.0424 l 0.0636,-0.0424 0.0424,-0.0212 h 0.0636 l 0.1695,-0.0636 h 0.0212 l 0.14779,-0.0424 0.0424,-0.0212 0.0424,-0.0212 0.0424,-0.0424 0.0424,-0.0212 0.0424,0.0424 h 0.0212 l 0.0636,0.0212 h 0.0212 l 0.0212,-0.0212 h 0.0212 l 0.0212,-0.0212 h 0.0212 l 0.0212,-0.0424 0.0212,-0.0212 h 0.0212 0.0207 l 0.0212,-0.0212 0.0424,-0.0207 0.0212,-0.0212 0.0424,-0.0424 0.0212,-0.0212 h 0.0212 l 0.0848,-0.0212 0.0847,-0.0212 0.0636,0.0212 0.12661,0.0212 0.0636,0.0212 0.31781,0.0212 0.10594,0.0212 0.0842,0.0212 h 0.10593 0.0636 l 0.0848,-0.0212 h 0.0424 0.12713 l 0.0424,-0.0212 0.0207,0.0212 0.0424,-0.0424 h 0.0212 l 0.0636,-0.0212 0.0424,-0.0212 h 0.0636 l 0.1695,-0.10594 -0.0212,-0.0212 v -0.0636 l 0.0212,-0.0636 -0.0424,-0.0424 -0.0212,-0.0212 h -0.0212 l -0.0848,-0.0424 -0.0212,-0.0212 -0.0212,-0.0212 v -0.0419 l -0.0212,-0.0636 v -0.0424 l 0.0212,-0.0636 0.0212,0.0212 h 0.12712 0.0424 l 0.0848,-0.0212 0.10542,-0.0212 h 0.0424 0.0212 l 0.0212,0.0212 0.0636,0.0212 h 0.0424 l 0.14831,0.0636 h 0.0424 l 0.1266,0.0424 0.10594,0.0212 0.0424,0.0212 h 0.0424 0.0636 0.1695 v 0.0212 l 0.19017,0.0207 h 0.0424 0.14832 0.0424 l 0.12712,-0.0207 h 0.0631 l 0.1695,-0.0212 h 0.0424 0.19068 0.0636 l 0.33848,0.0418 h 0.0848 0.0847 0.0212 0.12661 l 0.14831,0.0212 0.10594,0.0212 h 0.0848 l 0.0424,0.0212 0.0636,0.0212 0.0631,0.0212 h 0.0424 l 0.12712,0.0212 0.0424,0.0212 h 0.0424 0.0212 0.0424 l 0.40204,0.0212 h 0.21188 l 0.16898,0.0212 h 0.0636 l 0.38085,0.0636 0.61392,0.0636 h 0.44491 l 0.61391,-0.0212 0.59273,-0.12712 0.14831,-0.0212 0.67748,-0.0636 0.35967,-0.0424 0.42323,0.1695 h 0.4656 0.69867 l 0.50798,-0.0424 0.61391,-0.10593 0.63511,-0.12661 0.40204,-0.12713 v -0.0424 l -0.0212,-0.0212 v -0.0212 -0.0212 -0.0212 l -0.0212,-0.0212 -0.0636,-0.14831 V 90.647 l 0.0636,-0.0212 h 0.0848 0.0636 0.10542 0.0847 0.0636 l 0.0847,0.0424 0.10594,0.0212 h 0.0847 0.19017 l 0.21187,0.0212 h 0.10593 0.0636 0.063 l 0.0847,0.0212 h 0.0636 l 0.14831,0.0212 h 0.0847 l 0.0212,0.0212 h 0.0636 0.14779 0.0424 0.0212 0.0212 0.0424 0.0212 0.0636 0.0424 0.0847 0.0424 0.0212 0.0842 l 0.10594,0.0212 h 0.0636 l 0.10594,0.0212 h 0.0212 l 0.0847,0.0424 0.12661,0.0424 v -0.0212 l 0.12712,-0.10594 0.0424,0.0212 0.0212,0.0212 0.14831,0.10594 0.0847,0.0424 v -0.0212 h 0.0212 l 0.0212,0.0212 v 0.0212 l 0.063,0.0424 0.0424,0.0212 0.0212,0.0212 0.0636,0.0212 0.0424,0.0212 h 0.0212 l 0.0424,-0.0212 h 0.0424 l 0.21187,0.14779 0.19017,0.0212 0.25425,-0.0424 0.19017,-0.10542 h 0.0636 0.0212 0.0424 l 0.14831,-0.0212 h 0.0424 0.0847 l 0.0842,-0.0212 0.10594,-0.0212 0.0212,-0.0212 0.0212,-0.0212 0.0212,0.0212 0.0636,-0.0212 0.0424,0.0212 0.0424,0.0424 0.0636,0.0212 0.0636,0.0424 0.0842,0.063 0.0636,0.0212 -0.0212,0.0424 v 0.0212 0.0212 0.0424 h 0.0847 l 0.42323,-0.0636 0.21187,-0.10593 0.0847,-0.25373 0.23254,-0.0636 0.25425,-0.10593 0.21136,-0.19017 0.38137,-0.12713 0.12712,-0.0212 0.0631,0.0636 0.0847,0.0847 0.10594,0.10542 0.12712,0.10594 0.0424,0.0212 0.0847,0.0848 0.27492,0.12712 0.27544,0.10594 0.0842,0.0212 0.21187,0.0207 0.0424,0.0212 0.10593,0.0212 0.16899,0.0636 0.12712,0.0424 0.0636,0.0424 0.0636,0.0212 0.0847,0.0636 0.0847,0.0212 -0.0212,0.10594 -0.0636,0.0636 -0.0212,0.0212 -0.10593,0.0419 -0.0636,0.0424 -0.0847,0.0424 v 0.0424 0.0212 l -0.0424,0.14831 v 0.0636 l -0.10542,0.0847 -0.0636,0.10542 h 0.0212 l 0.10542,-0.0631 0.0636,-0.0424 0.12713,0.0636 0.0636,0.063 0.12712,0.0848 0.0424,0.0424 0.0424,0.0212 0.1478,-0.0212 h 0.27543 l 0.21136,-0.0212 h 0.0847 0.0424 0.0424 l 0.21187,0.0848 0.16898,0.0636 h 0.0212 0.12712 l 0.0636,-0.0212 0.0212,-0.0212 0.0847,-0.0424 0.0212,-0.0212 0.10541,-0.0212 h 0.14832 l 0.23306,-0.0212 0.10593,0.0212 0.19017,0.0212 h 0.0636 0.0424 0.0847 l 0.12712,0.0424 v 0.0212 l 0.0419,0.0636 h 0.0212 l 0.0636,0.0212 v -0.0212 h 0.0636 l 0.0424,0.0212 0.10593,0.0212 0.0212,0.0212 0.12712,0.0636 0.0424,0.0424 0.0419,0.0419 0.0424,0.0636 0.0212,0.0212 0.0424,0.12712 v 0.0424 l 0.0212,0.0636 0.0424,0.0636 0.0212,0.0212 h 0.0212 0.0212 0.0212 0.0212 l 0.0847,-0.0212 0.0636,-0.0212 0.0636,-0.0212 0.0419,-0.0212 0.0847,-0.0424 h 0.0424 l 0.0847,0.0212 0.0847,0.0212 h 0.0212 l 0.10594,0.0424 0.0212,0.0636 0.0424,0.1266 0.0212,0.0212 0.0419,0.0424 0.0636,0.0212 0.0424,0.0212 0.0424,0.0212 0.19069,-0.0212 0.10593,0.0212 0.0424,-0.0212 h 0.1266 l 0.10594,-0.0212 h 0.0212 l 0.0636,-0.0212 h 0.14831 0.0424 0.1478 l 0.0424,-0.0212 h 0.0424 l 0.0424,-0.0212 0.0847,-0.0631 0.0212,-0.0212 0.0847,-0.0424 h 0.0212 0.0424 0.0419 l 0.0212,0.0212 0.0212,0.0424 v 0.0207 l 0.0212,0.0636 v 0.0424 l 0.0212,0.0212 v 0.0212 l 0.0636,0.10594 0.0212,0.0424 0.0212,0.0424 h 0.0212 v 0.0212 l 0.0636,-0.0424 0.0212,-0.0212 0.0212,-0.0212 0.0636,-0.0636 0.0424,-0.0212 0.0636,-0.0636 0.0631,-0.0848 0.0212,-0.0212 0.0847,-0.0419 h 0.0212 l 0.0424,-0.0212 h 0.0212 l 0.0212,-0.0424 0.0212,-0.0212 0.0212,-0.0636 v -0.0212 l 0.10593,-0.0636 0.0424,-0.0424 0.10542,-0.0212 h 0.0847 0.0636 l 0.0424,0.0212 h 0.0212 l 0.0212,0.0424 0.0212,0.0424 v 0.0212 l 0.0212,0.12713 v 0.0424 0.0419 l 0.0212,0.0212 0.0424,0.0424 0.0636,0.0847 0.0212,0.0212 0.0424,0.0636 0.0842,0.12713 0.0424,0.0212 0.0212,0.0212 h 0.0212 0.0847 l 0.1695,0.0636 0.0636,0.0419 h 0.0212 l 0.0636,0.0424 0.063,0.0212 0.0424,0.0212 h 0.0212 l 0.0212,0.0212 h 0.0424 l 0.0847,0.0424 h 0.0424 l 0.0212,0.0212 0.12712,-0.0212 h 0.0424 0.16899 l 0.14831,-0.0212 h 0.0424 l 0.0424,-0.0424 0.0636,-0.0424 0.0636,-0.0424 0.0419,-0.0207 h 0.0636 0.0212 l 0.1695,0.0842 0.14831,0.0848 0.0847,0.0424 v 0.0212 0.0424 l 0.0212,0.0636 0.0207,-0.10594 0.0847,0.0212 0.0636,0.0212 0.0636,0.0212 h 0.0212 l 0.12712,0.0212 0.12712,0.0424 0.0631,0.0212 0.14831,0.0424 h 0.0424 l 0.0212,0.0212 0.0847,0.0212 0.0847,0.0636 h 0.0212 l 0.0212,-0.0212 0.0212,-0.0212 h 0.0212 l 0.0419,-0.0212 0.10593,-0.0212 0.10594,-0.0212 0.0636,-0.0212 0.0212,0.0212 h 0.0847 0.0212 0.0212 l 0.0424,-0.0212 h 0.0212 l 0.0842,-0.0212 h 0.0212 l 0.10594,-0.0212 0.0424,0.0636 0.0424,0.0424 0.0424,0.0424 0.0424,0.0419 0.0212,0.0212 h 0.0212 l 0.0212,0.0212 h 0.0424 0.0424 l 0.0842,0.0212 0.0212,-0.0424 0.0424,-0.0842 0.0424,-0.10594 0.0636,-0.0848 0.0212,-0.0424 v -0.0212 l -0.0424,-0.0636 -0.0424,-0.0424 h -0.0212 l 0.0212,-0.0212 v -0.0424 l 0.0212,-0.0212 0.0212,-0.0212 0.0847,-0.0207 0.0424,-0.0212 0.0212,-0.0212 0.0424,-0.0424 0.0212,-0.0424 0.0847,0.0848 0.063,0.0842 0.19069,0.23306 0.0212,0.0424 0.0636,0.0636 0.10594,0.12712 0.0636,0.0842 0.063,0.0848 h 0.0212 0.0212 l 0.0424,0.0212 v 0.0212 l 0.0424,0.0212 0.0212,0.0212 v 0.0212 0.0212 l -0.0212,0.0212 0.0424,0.0424 0.0212,0.0212 v 0.0212 l 0.0212,0.10594 h 0.0212 v 0.0842 0.0212 l 0.0212,0.0212 v 0.0212 h 0.0212 l 0.0212,-0.0212 h 0.0212 l 0.0212,0.0848 0.0212,0.0212 h 0.0212 l 0.0212,0.0212 h 0.0212 l 0.0636,-0.0212 h 0.0212 0.10542 l 0.10594,-0.0212 h 0.0636 l 0.0424,0.0212 h 0.0212 0.0212 l 0.0212,-0.0212 0.0424,0.0212 h 0.0847 l 0.0419,0.0212 0.0636,0.0212 h 0.0212 0.0212 l 0.0424,0.0424 0.0212,0.0212 0.0424,0.0424 h 0.0212 0.0424 l 0.0212,0.0212 0.0636,0.0424 v 0.0212 l 0.0847,0.0636 h 0.0212 0.063 v 0.0424 l 0.0212,0.0631 0.10594,0.10593 0.0424,0.0424 0.0212,0.0212 0.0212,0.0212 0.0424,0.0212 h 0.0212 v 0.0424 l 0.0424,0.0636 v 0.0212 h 0.0424 0.0212 l 0.10593,-0.0424 0.0212,-0.0212 0.0418,-0.0212 h 0.0212 l 0.29662,0.14831 0.4656,0.0842 0.57155,0.0212 0.57154,-0.0419 0.55035,-0.12713 0.0847,-0.0212 -0.0212,0.0212 v 0.0212 l -0.0212,0.0212 v 0.0212 l 0.0212,0.0636 h 0.0212 v 0.0419 l -0.0212,0.0212 -0.0636,0.0424 v 0.0212 l 0.0212,0.0424 v 0.0212 0.0212 l -0.0424,0.0212 v 0.0424 l -0.0212,0.0424 v 0.0424 l -0.0212,0.0424 -0.0212,0.0424 0.0424,0.0424 0.0212,0.0631 0.0212,0.0636 v 0.0212 l 0.0212,0.0424 0.0636,0.0636 h 0.0424 l 0.063,-0.0212 h 0.0212 l 0.0212,0.0636 0.0212,0.0212 v 0.0424 l -0.0636,0.0212 h -0.0424 l -0.0631,0.0847 -0.0212,0.0212 -0.0424,0.0636 -0.0424,0.0419 -0.0847,0.0212 h -0.0636 -0.0424 -0.0212 l -0.0424,0.0212 -0.0212,0.0212 -0.0212,0.0212 -0.0424,0.0848 v 0.0847 h 0.0424 l 0.19068,0.0636 h 0.10594 0.14831 l 0.0419,-0.0212 0.0424,0.0424 0.0424,0.0212 0.0212,0.0212 h 0.12713 l 0.23306,0.0212 h 0.10542 l 0.10593,-0.0212 0.0424,-0.0212 h 0.0424 0.0847 0.0424 0.2961 l 0.10594,-0.0212 -0.0212,-0.10593 v -0.0424 l 0.27543,-0.0636 h 0.0207 l 0.10594,0.0424 h 0.0212 l 0.0212,0.0212 0.0636,-0.0212 0.0636,0.0212 h 0.0212 l 0.0424,0.0212 0.0424,0.0212 0.0424,-0.0424 0.0212,-0.0212 0.0424,-0.0424 0.23255,-0.0424 0.1695,0.0424 0.0424,0.0212 0.0424,0.0212 h 0.0212 0.0212 0.0419 0.0847 l 0.12713,0.0212 0.0636,0.0212 h 0.0424 0.0212 0.31729 l 0.14831,-0.12712 0.0424,-0.0636 0.12712,-0.21136 0.0842,-0.12712 0.14831,-0.25373 0.19069,-0.12713 0.23254,-0.0424 0.10594,-0.0212 0.44442,0.0424 0.36018,0.0212 0.76171,0.0636 0.40205,-0.0212 0.42374,-0.0212 0.82527,-0.21187 1.05834,-0.23255 0.19068,-0.0424 0.23255,-0.19069 0.57154,-0.74104 0.21187,-0.0631 0.40205,-0.0636 0.0212,-0.0212 0.0424,0.0424 h 0.0212 0.0847 0.0212 0.0424 l 0.0212,0.0212 h 0.0212 v -0.0212 l 0.0212,-0.0212 -0.0212,-0.0424 -0.0212,-0.0212 h 0.33847 l -0.27543,-0.36018 0.1695,-0.38086 0.21187,-0.42323 0.0636,-0.0212 0.0212,0.0636 0.19017,0.0212 h 0.14831 l 0.14831,0.0212 0.0212,-0.0212 0.0424,-0.0424 h 0.0212 l 0.12661,0.0424 0.0212,0.0212 0.0636,-0.0212 0.0636,-0.0212 0.0212,-0.0424 0.0212,-0.0212 0.0212,-0.0212 v -0.0212 l 0.0424,-0.0636 h 0.0424 v -0.0424 l 0.0424,-0.0212 h 0.0424 0.0419 l 0.0847,0.0212 0.0212,0.0212 0.0847,0.0212 h 0.0212 l 0.10594,-0.0636 h 0.0636 0.0848 l 0.0842,0.0212 h 0.0424 0.44493 v 0.0212 h 0.1478 0.0636 l 0.0212,0.0212 0.0847,-0.0424 0.21187,-0.0212 0.57102,-0.0842 0.0636,0.0207 0.0212,0.0212 h 0.0212 v 0.0424 0.0636 0.19069 0.0847 l 0.0212,0.0636 v 0.0631 h -0.0636 -0.0424 -0.0212 l -0.0842,-0.0419 -0.0848,-0.0212 h -0.0212 l -0.0636,0.0212 h -0.0212 l -0.10594,0.0212 -0.0636,-0.0212 -0.1478,0.0212 -0.0848,0.0419 -0.0212,0.0212 -0.0212,0.0212 -0.0424,0.0212 -0.10593,0.0636 -0.10594,0.0424 v 0.0212 h -0.0212 l -0.0424,0.0636 -0.0424,0.12712 0.0212,0.0424 -0.0419,0.1266 -0.0636,0.14832 -0.0212,0.0212 -0.0636,0.0847 -0.0212,0.0212 -0.0212,0.0212 -0.0424,0.0424 -0.0212,0.0212 -0.0424,0.0636 h -0.0212 l 0.0212,0.0424 h 0.0424 0.10594 0.19017 0.0212 l -0.0212,0.0419 v 0.0424 l -0.0212,0.0848 -0.0419,0.1695 -0.0212,0.0636 v 0.0212 l -0.0212,0.0424 -0.0424,0.0424 -0.0212,0.0419 -0.0636,0.0636 -0.1695,0.1695 0.0212,0.0636 0.0212,0.14831 0.0212,0.0842 0.0424,0.10593 v 0.0212 0.0847 l 0.0212,0.0212 0.0848,0.1695 0.0212,0.0424 0.0636,0.1266 v 0.0212 l 0.0424,0.0847 0.0419,0.0636 0.0424,0.0424 h 0.0212 l 0.0424,-0.0847 0.0212,-0.0424 0.0212,-0.0636 0.12712,-0.0424 v -0.063 l 0.0212,-0.0212 0.0212,-0.0636 0.0424,0.0636 0.0424,0.0424 0.27492,-0.0848 0.14831,-0.10594 0.0424,-0.0212 0.0212,0.0212 v 0.0212 l 0.0212,0.0636 v 0.0847 0.0212 0.0207 l -0.0424,0.0424 -0.0212,0.0212 -0.0212,0.0212 v 0.0424 l 0.0424,0.0424 0.0212,0.0212 h 0.0212 l 0.0212,-0.0424 0.0424,0.0212 h 0.0212 l 0.0424,-0.0636 0.0207,-0.0212 0.0212,-0.0424 0.0212,-0.0424 0.0212,-0.0419 0.0212,-0.0424 0.0424,-0.0847 0.0212,-0.0636 0.0424,0.0212 h 0.0424 l 0.0848,0.0212 0.1695,0.0636 0.12661,0.0212 0.0212,0.0212 h 0.0424 l 0.0636,0.0212 v 0.0212 0.0212 l -0.0212,0.0631 0.0212,0.0424 0.0212,0.0636 -0.0212,0.0636 v 0.0212 l 0.0212,0.0424 v 0.0636 l 0.0212,0.0424 0.0212,0.0212 0.0424,0.0212 0.0212,0.0212 v 0.0212 l 0.0424,0.1478 v 0.0212 0.0424 l -0.0212,0.0212 v 0.0212 l 0.0212,0.14831 -0.0424,0.12712 v 0.0424 l -0.0212,0.0207 -0.0212,0.0636 v 0.0424 l 0.0212,0.0212 v 0.0212 l 0.0212,0.12713 v 0.0212 0.0212 0.0424 l 0.0212,0.0212 0.0212,0.0424 h 0.0212 l 0.0848,0.0424 0.0419,0.0212 0.0636,0.0419 0.0848,0.0848 0.0636,0.0424 h 0.0212 l 0.21187,0.0636 h 0.0424 l 0.0212,0.0212 h 0.10542 0.0212 l 0.10594,0.0212 h 0.0424 0.0212 l 0.0212,0.0212 0.0636,-0.0212 0.0212,0.0212 v 0.0212 l 0.0212,0.0212 h 0.0424 0.0424 0.0212 l 0.0207,-0.0212 0.0212,-0.0212 0.0212,0.0212 v 0.0424 0.0424 l 0.0424,0.0212 0.0424,0.0212 0.12712,0.0212 0.0424,-0.0424 h 0.0212 l 0.0424,-0.0212 0.0636,-0.0424 0.0636,0.0636 h 0.0419 0.10593 l 0.0212,-0.0212 0.0212,-0.0212 0.0212,-0.0636 0.0636,-0.0848 0.0636,-0.0636 0.0636,-0.0848 0.0212,-0.0212 h 0.0212 l 0.0636,-0.063 0.14779,0.0212 0.14832,-0.0848 h 0.0212 l 0.0847,0.0212 h 0.0212 l 0.0636,0.0424 h 0.0847 l 0.0631,-0.0212 0.31781,-0.19069 0.40204,-0.1695 0.0212,-0.0212 v 0.0212 l -0.0424,0.0424 -0.0424,0.0424 v 0.0636 l 0.0212,0.0636 v 0.0212 l 0.0424,0.0424 0.0424,0.0847 0.0212,0.0212 0.0424,0.0212 h 0.0424 l 0.0424,-0.0212 0.0847,-0.0636 0.12661,-0.0424 h 0.0424 0.0424 l 0.0848,-0.0212 v -0.0424 -0.0848 -0.0212 l -0.0212,-0.0847 0.0636,0.0424 0.31729,0.0212 0.14831,-0.12713 0.0848,-0.19017 0.16898,-0.1695 0.25425,-0.16949 0.1483,-0.0424 0.0848,0.0212 0.0419,0.0424 0.0848,0.0424 0.0424,0.0424 0.14831,0.0848 0.0424,-0.0424 0.0636,-0.0424 0.0636,-0.0212 0.10542,-0.0212 0.12712,-0.0424 0.0424,-0.0212 0.0636,-0.0424 0.0424,-0.0212 v -0.0207 h 0.10594 l 0.0212,0.0207 0.0212,0.0212 h 0.0212 0.0212 0.0212 l 0.0842,0.0424 0.0424,-0.0212 0.0636,-0.0212 0.0424,0.0212 h 0.0848 l 0.0212,-0.0212 0.0424,-0.0212 v -0.0207 l 0.0424,-0.0636 0.31729,-0.0636 0.29663,-0.23306 0.0212,-0.29611 0.0207,-0.0636 0.0847,-0.1695 0.10594,-0.0212 0.12712,-0.0212 0.1695,-0.23254 0.0419,-0.0212 0.0212,-0.0212 v -0.0212 l -0.0212,-0.0424 -0.0207,-0.0212 h -0.0212 -0.0212 l -0.0212,-0.0212 -0.0212,-0.0212 v -0.0212 l -0.0212,-0.0424 v -0.0847 -0.0212 l -0.0212,-0.0636 -0.0212,-0.0207 -0.0212,-0.0212 -0.10593,-0.0636 h -0.0212 l -0.0212,-0.0212 -0.0212,-0.0212 -0.0424,-0.0212 v -0.0212 l -0.0212,-0.0424 v -0.0424 l 0.0212,-0.0212 0.0847,-0.0212 0.0212,-0.0212 h 0.0212 l 0.0212,-0.0424 0.0212,-0.0212 v -0.0212 l 0.0636,-0.12661 v -0.0212 l 0.0636,-0.0636 h 0.0424 l 0.0212,0.0424 v 0.063 l 0.0212,0.10594 v 0.0424 h 0.0207 l 0.0212,0.0212 0.0424,0.0212 h 0.0424 0.0424 v -0.0212 l 0.0424,-0.0636 0.0636,-0.0636 0.0212,-0.0212 0.0212,-0.0212 0.0424,-0.0207 h 0.0212 0.0212 l 0.0212,0.0207 0.0424,0.0212 0.0842,0.0424 0.0424,0.0212 h 0.0847 l 0.0848,0.0212 0.0636,-0.0212 0.14831,0.0424 0.0424,0.0424 0.0212,0.0636 0.0212,0.0636 0.0207,0.0636 v 0.0424 l 0.0212,0.0636 0.0212,0.0631 0.0212,0.0212 0.0212,0.0424 0.0212,0.0212 v 0.0424 h 0.16949 l 0.14832,0.0212 0.2961,0.0424 h 0.19069 l 0.16898,0.0212 h 0.0424 l 0.1695,0.0212 0.1695,0.0424 0.1478,0.0212 0.10593,0.0212 h 0.0212 l -0.0424,0.0636 -0.0212,0.0424 -0.0212,0.0212 -0.0424,0.0636 v 0.0207 l 0.0212,0.0212 0.0636,0.0212 h 0.0212 v -0.0212 l 0.0848,-0.10542 0.0212,-0.0424 0.0424,-0.0212 h 0.0424 0.0636 l 0.0212,0.0636 0.0212,0.0842 v 0.0424 0.0424 l 0.0212,0.14831 v 0.0212 0.0212 l 0.0424,0.14831 -0.0212,0.0424 0.0212,-0.0212 0.10542,0.0636 h 0.0212 v 0.0207 l -0.0212,0.0212 0.0212,0.0212 0.0424,-0.0212 0.0424,0.0212 h 0.0212 l 0.0212,0.0212 h 0.0212 0.0212 0.0424 v 0.0212 l 0.0636,-0.0424 0.0424,0.0212 0.0424,0.0636 h 0.0424 l 0.0419,-0.0212 h 0.0424 l 0.0212,0.0212 0.0212,0.0424 0.12712,0.0212 0.14832,0.0424 0.0848,0.0212 h 0.0424 0.0419 0.0212 v -0.0212 l -0.063,-0.0848 -0.0212,-0.0212 -0.10593,-0.0636 -0.10594,-0.0636 -0.0212,-0.0207 -0.0636,-0.0424 -0.14831,-0.0847 v -0.0636 l 0.0212,-0.0212 0.0424,-0.0636 0.0424,-0.0212 0.0424,-0.0424 0.0212,-0.0424 -0.0212,-0.0424 v -0.0212 l 0.0212,-0.0212 -0.0424,-0.1266 v -0.0424 -0.0636 -0.0424 l -0.0212,-0.0424 0.0636,-0.0212 0.12712,-0.1695 v -0.12661 -0.0212 l 0.0212,-0.0212 0.0424,-0.0212 0.0636,-0.0212 0.12661,-0.0847 0.0636,-0.0212 0.0212,-0.0424 0.0212,-0.0212 v -0.0212 l 0.0212,-0.0212 v -0.0212 l 0.0212,-0.0424 v -0.0212 l 0.0212,-0.0424 v -0.0842 l -0.0212,-0.0636 -0.0212,-0.0636 -0.0212,-0.0424 -0.0212,-0.0212 -0.0636,-0.12712 -0.0424,-0.0424 -0.0419,-0.0424 -0.0212,-0.0636 -0.0424,-0.0419 -0.0212,-0.0636 -0.0212,-0.0424 v -0.0424 l 0.0636,-0.0636 0.23254,-0.38085 0.10594,-0.12712 0.0636,-0.10594 0.0848,-0.21188 -0.0212,-0.10541 0.10593,-0.0424 0.0842,-0.0424 0.1695,-0.0424 0.0636,-0.0212 0.0212,0.0212 0.0212,0.0636 v 0.0212 l -0.0424,0.0636 -0.0212,0.0636 -0.0636,0.0842 v 0.0212 l -0.0212,0.0636 v 0.0212 0.0424 h -0.0212 l -0.0847,0.0212 0.12712,0.10593 0.0636,0.0212 h 0.0636 l 0.0212,0.0212 0.0424,0.0636 0.0212,0.0212 0.0212,0.0212 0.0212,0.0212 v 0.0207 l 0.0212,0.0424 0.0212,0.0212 0.0207,0.0424 0.0212,0.0212 h 0.0212 0.0212 0.0636 l 0.0212,0.0212 v 0.0212 l 0.0424,0.0212 h 0.0424 l 0.0424,0.0212 h 0.0212 l 0.0848,0.0212 0.12713,0.0848 0.063,-0.0848 0.10594,-0.0212 h 0.10594 v 0.0212 h 0.0212 l 0.0212,0.0424 0.0636,0.0424 h 0.0212 0.0424 v 0.0212 h 0.0424 0.0424 l 0.0207,0.0212 0.0424,-0.0212 0.0424,0.0424 0.0424,0.0212 0.0424,0.0212 h 0.0212 l 0.0212,0.0212 0.0212,-0.0212 v 0.0212 h 0.0212 0.0212 v -0.0212 l 0.0212,-0.0212 v 0.0212 l 0.0212,0.0212 0.0847,0.0842 0.0212,0.0424 0.0636,0.0424 h 0.0212 v 0.0212 h 0.0419 0.12713 l 0.0847,-0.0636 0.0847,-0.0424 0.12713,-0.0631 0.0636,-0.0424 0.0842,-0.0636 0.0636,-0.0212 h 0.10593 l 0.0847,-0.0212 0.0636,-0.0212 0.0636,-0.0212 h 0.0842 0.10593 l 0.10594,-0.0212 0.0212,-0.0212 0.0424,-0.0212 h 0.0424 0.0212 0.0636 0.0424 0.0212 0.0212 0.0212 l 0.0207,-0.0212 0.0212,0.0212 0.0212,-0.0212 h 0.0212 0.0424 0.0424 0.0212 0.0212 l 0.0212,0.0212 v -0.0212 h 0.0212 v -0.0212 h 0.0212 0.0424 0.0212 0.0636 0.0636 l 0.0424,-0.0212 0.0419,-0.0212 h 0.0212 0.0212 l 0.0212,-0.0212 h 0.0212 0.0212 l 0.0212,-0.0212 h 0.0212 l 0.0636,0.0212 0.0847,0.0212 0.0212,-0.0212 h 0.0636 l 0.0424,0.0212 0.0424,0.0212 h 0.12661 l 0.0848,-0.0212 0.14831,0.0212 h 0.10594 v 0.0212 l 0.10593,-0.0424 h 0.0207 l 0.0212,-0.0212 v -0.0212 l 0.0212,-0.0212 v -0.0424 l 0.0212,-0.0419 -0.0842,-0.0424 h -0.0212 -0.0424 v 0.0212 h -0.0212 v 0.0212 0.0419 l -0.0636,-0.0419 -0.0212,-0.0212 h -0.0212 -0.0212 l -0.0212,-0.0212 -0.0212,-0.0212 -0.0212,-0.0212 0.0212,-0.0212 0.0212,-0.0424 v -0.0424 h 0.0212 0.0424 0.0212 v 0.0212 h 0.0636 0.0636 0.0631 0.0424 0.0212 0.0636 0.0212 0.0424 0.0636 0.0424 0.0636 0.0424 0.0424 0.063 l 0.0636,0.0212 h 0.0424 0.0636 0.0424 0.0424 0.0636 0.0636 0.0424 0.0424 l 0.0424,0.0212 0.0631,-0.0212 0.0424,-0.0848 0.0212,-0.0212 0.0212,-0.0212 0.0212,-0.0212 0.0424,-0.0212 0.0636,-0.0636 h 0.0212 l 0.0636,-0.0847 0.0847,-0.0631 0.0424,-0.0424 0.0212,-0.0212 v -0.0212 h 0.0212 l 0.0842,-0.0212 0.0636,-0.0424 0.0848,0.0424 0.0424,0.0212 0.0424,-0.0212 h 0.0424 0.0636 v -0.0212 -0.0424 -0.0636 -0.0212 h 0.0424 l 0.0212,-0.0212 v 0.0212 h 0.0212 0.0212 0.0207 v 0.0212 h 0.0212 l 0.0212,-0.0212 h 0.0212 v 0.0212 h 0.0212 v -0.0212 h 0.0212 v 0.0212 l 0.0212,0.0212 h 0.0212 0.0212 v -0.0212 h 0.0212 l 0.0212,0.0212 0.0212,0.0212 0.0212,0.0212 v -0.0212 l 0.0212,-0.0212 v -0.0212 h 0.0424 l 0.0212,0.0212 v 0.0212 h 0.0212 v -0.0212 -0.0212 -0.0212 h 0.0212 v 0.0212 l 0.0212,0.0212 h 0.0212 v -0.0424 h 0.0212 v -0.0212 h 0.0212 l 0.0842,0.0212 h 0.0848 l 0.0424,0.0212 0.0636,0.0212 h 0.0636 0.0848 0.10593 l 0.0842,0.0212 0.0847,0.0212 h 0.10594 l 0.0424,0.0212 h 0.0424 l 0.0424,0.0212 0.10594,0.0212 0.0636,0.0424 0.0419,0.0424 0.0424,0.0419 0.0212,0.0212 0.1695,0.0424 0.14831,0.0424 0.0847,0.0424 0.0842,0.0212 h 0.0848 l 0.0847,-0.0212 0.12712,0.0424 0.1695,0.0424 h 0.0631 0.0424 l 0.0848,-0.0212 h 0.0424 0.0424 l 0.0636,-0.0212 h 0.0424 0.0212 l 0.10594,0.0212 0.0842,0.0212 h 0.0636 0.0424 l 0.0424,-0.0424 0.0424,-0.0212 0.0847,-0.0848 0.10594,-0.1266 h 0.0212 l 0.0636,0.0212 0.12661,0.0207 h 0.0636 l 0.10594,0.0212 h 0.0424 l 0.14831,0.0212 0.0424,0.0212 h 0.0419 l 0.0636,-0.0424 0.12713,-0.0842 0.0848,-0.0424 0.0424,-0.0212 0.12713,-0.0847 0.0424,-0.0424 0.0207,0.10594 v 0.0848 l 0.10594,0.0842 0.0636,0.0424 0.0424,0.0424 0.12712,0.0424 0.10594,0.0424 0.0212,-0.0212 0.0424,-0.0636 0.0419,-0.0636 0.0212,-0.0424 0.0636,-0.063 0.0636,-0.0424 0.12712,-0.10594 h 0.0212 l 0.27491,0.0636 0.0848,0.0212 h 0.12712 l 0.14831,0.0212 h 0.12661 0.0424 0.0847 l 0.10594,-0.0212 -0.0212,-0.0424 -0.0212,-0.0636 -0.0424,-0.10594 h 0.0424 0.0424 l 0.0848,0.0212 h 0.16949 l 0.0207,-0.0424 v -0.0636 l 0.0212,-0.0212 0.0848,-0.0636 h 0.0636 0.0847 l 0.0848,0.0212 h 0.10594 0.10542 0.10594 l 0.0424,0.0212 h 0.0424 0.0848 l 0.10594,0.0212 0.0424,0.0212 0.0842,-0.0424 0.10593,-0.0212 0.0636,-0.0212 0.0636,-0.0212 h 0.0212 l 0.0424,-0.0207 0.0636,-0.0212 0.12712,-0.0424 0.1478,-0.0212 0.0847,0.0212 0.0636,-0.0212 0.12712,0.0424 0.0848,-0.0212 h 0.10542 0.14831 0.0848 l 0.0636,0.0636 h 0.10594 l 0.10542,0.0207 0.0847,0.0212 0.0636,0.0212 0.0636,-0.0212 h 0.0636 0.0636 0.14831 0.12661 l 0.0212,-0.10542 0.0636,0.0424 0.10594,0.0419 0.0212,-0.0207 0.0636,0.1266 0.0424,0.0848 0.0424,0.0212 h 0.0212 0.0212 l 0.063,-0.0212 h 0.0212 l 0.0848,-0.0212 h 0.10593 0.0212 l 0.27492,0.0424 h 0.10593 l 0.0424,0.0212 h 0.0636 0.0847 0.0424 0.0636 l 0.0636,0.0212 h 0.0212 l 0.0207,0.0212 0.0424,-0.0212 0.10594,0.0636 0.14831,-0.0212 h 0.12712 l 0.21136,-0.0212 0.10594,-0.0212 0.23306,0.0212 h 0.16898 l 0.0847,0.0212 h 0.0424 l 0.14831,0.0424 0.21136,0.0424 h 0.0424 l 0.0424,0.0212 h 0.12712 l 0.1695,-0.0212 h 0.0424 0.0212 l 0.0419,0.0212 h 0.0212 l 0.14831,0.0212 0.0424,0.0212 h 0.0424 0.0424 l 0.0848,0.0212 0.0424,0.0212 0.0424,0.0212 h 0.0212 l 0.0419,0.0207 0.10593,0.0424 0.10594,0.0424 0.0847,0.0212 0.0636,0.0212 0.0424,0.0212 0.0424,0.0212 0.10542,0.0636 0.0212,0.0424 0.0424,0.0212 h 0.0212 l 0.0636,0.0212 h 0.10594 0.0636 l 0.10594,-0.0212 h 0.0636 0.0419 0.0212 l 0.0212,-0.0212 0.0636,-0.0212 0.0636,-0.0212 0.0212,-0.0212 0.1695,-0.10594 0.10594,-0.0636 0.12661,-0.10542 0.27543,-0.12712 0.35967,-0.25425 0.38085,-0.40204 0.27544,-0.23254 0.0424,-0.0212 h 0.0636 l 0.10542,-0.0212 h 0.0212 0.1695 0.0636 0.10594 0.0847 l 0.0212,0.0212 0.19017,-0.0424 h 0.0636 0.0212 l 0.48679,0.0424 0.0424,0.0631 0.0424,0.10593 0.0212,0.12713 0.0212,0.0424 0.14831,0.0636 0.0636,0.0212 0.0419,0.0212 0.12713,0.0636 0.12712,0.0631 0.10594,0.0424 0.0847,0.0424 0.063,0.0212 h 0.0212 v -0.0212 -0.0424 -0.0424 l 0.0424,-0.0207 0.0212,-0.0212 0.0424,-0.0212 0.0212,-0.0424 0.0212,-0.0212 v -0.0212 -0.0847 -0.0212 -0.0212 l 0.0212,-0.0424 h 0.0212 0.0424 l 0.12712,0.0424 0.16898,-0.0424 h 0.0636 0.0424 0.0424 l 0.0212,0.0212 0.0212,-0.0212 -0.0212,-0.0212 h 0.0212 v -0.0212 l 0.0212,-0.0212 0.0212,-0.0212 0.0212,0.0212 v 0.0847 l 0.0848,0.0212 0.0424,0.0212 0.0424,0.0212 0.0636,0.0424 0.0419,0.0212 h 0.0212 0.0212 l 0.0424,-0.0212 h 0.0424 0.0212 0.0212 0.0212 l 0.0212,-0.0212 v -0.0212 -0.0212 -0.0212 -0.0212 -0.0212 l -0.0212,-0.0212 v -0.0212 l 0.0212,-0.0424 0.0212,-0.0212 h 0.0212 l 0.0424,-0.0212 0.0212,-0.0212 v -0.0212 -0.0424 h 0.0424 l 0.25373,-0.063 0.0424,0.0212 0.0848,-0.0212 h 0.0212 v 0.0212 h 0.0212 0.0212 l 0.0212,-0.0212 h 0.0212 0.0212 l 0.0212,-0.0212 v 0.0212 h 0.0212 0.0424 l 0.0424,-0.0212 0.0419,0.0212 h 0.0424 0.0424 l 0.0212,-0.0212 h 0.0212 l 0.0212,-0.0212 0.0424,-0.0212 h 0.0212 v 0.0212 h 0.0212 l 0.0424,0.0212 0.0212,0.0212 0.0212,-0.0424 h 0.0212 0.0424 0.0212 0.0212 0.0212 0.0212 l 0.0424,0.0212 0.0419,0.0212 h 0.0424 0.0212 0.0212 0.0212 v -0.0212 l 0.0212,0.0212 v 0.0424 l -0.0212,0.0207 v 0.0212 l -0.0212,0.0212 v 0.0212 l 0.0424,0.0212 0.0636,0.0424 h 0.0212 0.0212 0.0212 l 0.0212,-0.0847 h 0.0212 v -0.0212 l 0.0212,-0.0212 0.0212,-0.0207 0.0424,-0.0424 0.0212,-0.0212 h 0.0212 l 0.0212,-0.0212 0.0212,0.0212 0.0212,0.0212 0.0419,0.0424 v 0.0207 l 0.0212,0.0212 0.0424,-0.0212 0.0424,-0.0207 0.0424,-0.0212 0.0636,-0.0424 0.12713,-0.0424 h 0.0424 l 0.0636,0.0212 0.1478,0.0636 0.0636,0.0212 0.14831,0.0419 0.0636,0.0212 h 0.0636 0.0424 l 0.27492,0.0212 h 0.0424 0.23306 l 0.063,0.0424 0.0424,0.0424 0.19069,0.1695 0.19069,0.14831 0.0212,-0.0212 0.063,-0.0424 0.10594,-0.0636 0.0424,-0.0424 h 0.0212 l 0.0847,0.0212 0.10594,0.0212 0.0636,0.0424 0.0424,0.0212 0.0842,0.0424 0.12712,0.0636 0.0424,0.0419 0.0847,0.0424 0.0424,0.0212 0.0847,0.0424 0.0636,0.0212 0.0842,0.0424 0.1695,0.0847 0.21187,-0.0424 0.0848,0.0424 0.23254,0.10593 0.12712,0.0636 0.0636,0.0212 h 0.0636 l 0.0842,0.0212 0.0847,0.0212 0.0848,0.0207 0.10593,0.0212 h 0.0636 l 0.0424,0.10594 0.0424,0.10594 h 0.0212 0.0212 0.12661 0.0636 l 0.0212,0.0212 0.0636,0.10594 0.0424,0.0847 0.0636,0.0212 0.23255,0.0842 0.10593,0.0424 0.0424,0.0212 0.0424,0.0212 0.3173,0.14832 0.0424,0.0212 h 0.0212 v 0.0212 l 0.0424,0.0212 0.0636,0.0847 0.10593,0.10594 0.12713,0.0842 h 0.0212 l 0.10542,0.0424 0.10594,0.0424 0.12712,0.0424 0.10594,0.0212 0.14831,0.0424 0.12661,-0.0212 0.0424,0.0212 0.0636,0.0212 0.0636,0.0424 0.0424,0.10594 h 0.0212 0.0847 l 0.10594,-0.0212 v 0.0212 l -0.0212,0.0424 -0.0212,0.0842 -0.0424,0.12712 0.0636,0.0848 v 0.0212 h 0.0842 0.0212 l 0.0212,0.0212 0.1695,0.0848 h 0.0424 0.0212 0.0424 0.0424 l 0.0848,0.0212 h 0.0419 l 0.0212,0.0212 0.0424,-0.0424 0.0636,0.0636 -0.0636,0.0636 v 0.0419 l -0.0636,0.12712 -0.0207,0.0212 -0.0212,0.0212 -0.12713,-0.0424 -0.0636,-0.0212 -0.0212,-0.0212 -0.0847,-0.0424 h -0.0848 v 0.0636 l 0.10594,0.0212 0.0636,0.0424 v 0.0424 l -0.10594,0.1695 -0.0636,0.0212 v 0.0424 l -0.0212,0.0636 0.0212,0.0419 0.0424,0.0636 0.0212,0.0212 0.0424,0.14832 -0.0424,0.10593 h -0.0424 l -0.0212,0.0848 0.0212,0.0842 0.0212,0.0212 0.0424,0.0636 0.12713,0.0212 0.0424,0.0212 0.0212,0.0212 h 0.0636 0.0424 l 0.0212,-0.0212 0.1266,0.0212 h 0.0424 l 0.0212,-0.0212 h 0.0212 v 0.0212 l 0.0424,0.0212 v 0.0212 l 0.0424,0.0212 0.0212,-0.0424 h 0.0212 l 0.0212,0.0212 0.0212,0.0212 0.0636,0.0424 0.0636,0.0212 0.0419,0.0212 h 0.0424 0.0212 v 0.0212 l -0.0212,0.0212 h -0.0212 -0.0212 l -0.0842,-0.0424 -0.0212,0.0212 -0.0212,-0.0212 -0.0212,-0.0212 h -0.0212 l -0.0212,-0.0212 v -0.0212 l -0.0636,0.0212 0.0212,0.0212 v 0.0212 l -0.0212,0.0212 v -0.0212 h -0.0212 v -0.0424 l -0.0424,0.0212 h -0.0212 l -0.0848,0.0212 v -0.0212 h 0.0212 l 0.0424,-0.0424 -0.0212,-0.0212 -0.0424,-0.0212 v 0.0212 l -0.0212,0.0212 h -0.0212 -0.0636 v 0.0424 h -0.0419 -0.0636 l -0.0848,0.0212 h -0.0424 l -0.0212,0.0212 v 0.0636 0.0212 l 0.0636,0.0424 V 96.875 h 0.0212 l 0.0636,0.0212 0.0424,0.0212 h 0.0212 0.0212 0.0207 0.0424 0.10594 l 0.0212,0.0212 0.0424,0.0212 h 0.0212 l 0.0212,0.0207 0.0212,0.0212 0.0212,-0.0212 0.0212,-0.0207 h 0.0212 l 0.0212,0.0207 v 0.0212 l -0.0212,0.0424 h -0.0212 v 0.0212 0.0212 l 0.0212,0.0212 0.0212,0.0212 h 0.0424 l 0.0636,0.0212 h 0.14779 l 0.10594,0.0212 h 0.0424 0.0636 l 0.0424,0.0212 h 0.0212 v -0.0212 -0.0212 h 0.0424 l 0.0424,-0.0636 0.0636,-0.0847 0.0842,-0.0419 0.10593,-0.0636 0.0212,0.0212 0.10594,0.0424 0.0424,0.0419 0.0636,0.10594 -0.0212,0.0847 -0.0212,0.0848 -0.0212,0.0847 h 0.0424 0.0636 l 0.0212,-0.0212 h 0.0212 0.0212 v 0.0212 0.0212 h 0.063 l 0.0636,0.0212 h 0.0212 0.10593 0.0424 0.0212 l 0.0212,-0.0212 0.0212,-0.0212 0.0212,-0.0212 h 0.0636 l 0.0212,-0.0212 h 0.0424 0.0212 l 0.0207,-0.0212 0.0212,-0.0424 v -0.0212 l 0.0424,-0.0212 h 0.0424 0.0212 l 0.0424,0.0212 0.0212,-0.0212 v -0.0847 h 0.0424 l 0.0212,-0.0212 h 0.0212 0.0212 l 0.0212,0.0212 0.0212,-0.0212 h 0.0212 l 0.0212,0.0212 h 0.0212 0.0212 0.0212 0.0636 0.0419 0.0212 v 0.0212 0.0636 l -0.0424,0.0212 -0.0419,0.0212 h -0.0424 l -0.0848,0.0212 h -0.0212 v 0.0212 0.0212 l -0.0424,0.0636 h -0.0212 -0.0424 -0.0212 l -0.0847,-0.0212 h -0.0636 v 0.0212 l -0.14779,0.0424 h -0.0212 v 0.0212 0.0424 0.0207 h 0.0212 v 0.0212 l 0.0212,0.0212 v 0.0636 0.0212 0.0212 0.0212 l 0.0212,0.0424 h 0.0419 0.0212 0.0424 0.0424 v 0.0212 l 0.0424,0.0212 0.0848,-0.0424 h 0.0424 l 0.0847,-0.0424 h 0.0636 l 0.0212,-0.0212 h 0.0424 v 0.0212 l -0.0212,0.0424 -0.0424,0.0636 -0.0212,0.0212 -0.0424,0.0212 -0.0424,0.0424 h -0.0212 -0.0212 l -0.0212,0.0212 -0.0636,0.0212 h -0.0424 l -0.0424,0.0212 -0.0212,-0.0212 -0.0847,0.0212 h -0.0419 l -0.0212,0.0212 v 0.0424 l 0.0212,0.063 h 0.0631 0.0212 0.0424 l 0.0212,0.0212 0.0424,0.0212 0.10594,-0.0424 0.0212,0.0212 0.0636,0.0424 0.0636,0.0212 0.0212,0.0212 0.12661,-0.0848 0.10593,-0.0424 h 0.0848 0.14832 l 0.0636,-0.063 v -0.0212 -0.0212 l 0.0212,-0.0212 v 0.0212 l 0.0212,0.0212 h 0.0212 v -0.0212 l 0.0212,-0.0212 v -0.0212 h 0.0207 v -0.0212 l 0.0212,-0.0212 h 0.0212 l 0.0212,0.0212 h 0.0212 0.0212 0.0212 l 0.0212,0.0212 h -0.0212 l -0.0424,0.0212 v 0.0212 0.0212 h 0.0212 v 0.0212 l 0.0212,0.0212 h 0.0212 0.0212 0.0212 v 0.0212 0.0207 h 0.0212 l 0.0636,0.0212 0.0212,0.0212 h 0.0212 l 0.0212,-0.0212 h 0.0636 l 0.0848,0.0212 h 0.063 v 0.0424 0.0212 0.0212 0.0212 0.0212 l 0.0212,0.0212 v 0.0212 0.0212 0.0212 h 0.0212 v 0.0212 h 0.0212 l 0.0212,-0.0424 0.0212,-0.0636 h 0.0212 v 0.0424 0.0212 h 0.0212 v -0.0212 -0.0424 l 0.0212,-0.0424 v -0.0212 -0.0212 l 0.0212,-0.0212 h 0.0212 0.0212 0.0212 l 0.0212,-0.0212 v 0.0424 0.0212 l 0.0212,0.0212 v 0.0424 l 0.0212,0.0212 -0.0212,0.0212 v 0.0212 h 0.0212 v 0.0212 0.0212 h -0.0212 l -0.0212,0.0212 -0.0424,0.0424 -0.0424,0.0212 -0.12712,0.0212 0.0212,0.0212 0.0424,0.0424 0.0848,0.0212 0.0212,0.0212 h 0.0212 0.0424 l 0.0636,0.0419 h 0.0212 0.0212 l -0.0212,0.0212 0.0212,0.0212 h 0.0212 v 0.0212 l 0.0212,0.0212 0.0212,0.0424 h 0.0212 v 0.0212 h 0.0207 l 0.0212,0.0848 0.0424,0.0212 0.0424,0.0424 h 0.0212 l 0.0848,0.0212 h 0.0424 l 0.1695,-0.4656 0.0212,-0.0424 0.0842,0.0636 0.0848,0.0848 0.44441,0.10542 0.10594,-0.19017 0.21187,-0.19068 0.38085,-0.10594 0.0212,0.0212 0.12711,0.0424 h 0.0212 l 0.10594,0.0424 h 0.0424 l 0.063,0.0212 0.14833,0.0636 0.10594,0.0212 h 0.0424 l 0.0212,0.0212 0.0636,0.0424 h 0.0636 l -0.0212,0.0212 0.0424,0.0212 0.0419,-0.0212 0.10594,0.0212 0.0212,0.0424 h 0.0212 0.0212 l 0.12713,0.0424 0.19069,0.063 0.063,0.0424 0.0636,0.0212 0.0636,0.0424 0.0212,0.0212 0.10594,0.0636 0.0635,0.0424 0.0848,0.0847 h 0.0424 0.0212 l 0.0419,0.0424 0.0635,0.0212 0.0212,0.10542 v 0.0847 h -0.0212 l -0.0424,-0.0212 -0.14777,-0.0424 -0.12714,-0.0418 -0.0847,-0.0212 -0.14833,-0.0636 -0.0631,-0.0212 h -0.0635 l -0.0847,-0.0424 -0.0636,-0.0212 -0.0636,-0.0212 h -0.0212 l -0.0848,-0.0212 -0.0636,-0.0212 -0.1478,-0.0424 -0.0847,-0.0424 -0.10594,-0.0212 -0.12713,-0.0212 -0.10594,-0.0212 h -0.10541 -0.0848 -0.0635 l -0.0424,0.10594 v 0.0424 h 0.0212 0.0424 v 0.0424 0.0424 0.0424 h -0.0636 l -0.0212,0.0212 -0.0424,0.0212 -0.0212,0.0842 -0.0424,0.0636 -0.0212,0.0848 -0.0424,0.0848 0.0212,0.0424 0.0424,0.0424 -0.0424,-0.0212 -0.0212,-0.0212 -0.0212,0.0636 -0.063,0.14832 v 0.0419 l -0.0424,0.12713 -0.0212,0.0636 -0.0424,0.0636 0.0424,0.0212 h 0.0424 0.0419 l 0.0212,0.0212 h 0.0212 0.0212 l 0.0212,0.0212 h 0.0424 l 0.0212,-0.0212 0.0212,-0.0212 0.0424,0.0212 h 0.0212 0.0212 0.0635 l 0.0424,0.0212 h 0.0424 l 0.0635,0.0424 0.0212,0.0212 0.0419,0.0212 v 0.0212 h 0.0635 0.0212 v -0.0212 h 0.0212 l 0.0212,-0.0212 0.0848,-0.0847 h 0.0212 l 0.0636,-0.0212 0.0424,-0.0212 h 0.0212 v -0.0212 l 0.0424,-0.0212 0.0212,-0.0212 0.0424,0.0212 h 0.0423 l 0.0419,0.0212 h 0.0424 0.0212 l 0.0424,0.0212 h 0.0636 l 0.0424,0.0212 h 0.0212 l 0.0424,0.0212 h 0.0424 l 0.0212,0.0212 h 0.0636 0.0212 l 0.0212,0.0212 0.10541,0.0212 0.0212,0.0212 h 0.0212 l 0.0848,0.0424 0.0424,0.0212 0.0212,0.0212 0.0636,0.0212 0.0212,0.0212 0.0636,0.0207 0.0212,0.0212 0.0424,0.0212 h 0.0212 0.0212 l 0.0212,0.0212 h 0.0206 0.0212 l 0.0212,0.0212 h 0.0424 0.0424 l 0.0212,0.0212 0.10594,0.0212 h 0.0424 l 0.0212,0.0212 h 0.0212 l 0.0212,0.0212 0.0636,0.0424 0.0212,0.0212 v 0.0212 l 0.0212,0.0424 v 0.0424 0.0212 l -0.0212,0.0212 -0.0212,0.0424 v 0.0212 l -0.0212,0.0842 v 0.0424 0.0212 0.0212 l 0.0212,0.0636 v 0.0212 l 0.0212,0.0212 0.0424,0.0424 0.0419,0.0212 v 0.0424 l 0.0424,0.0212 0.0424,0.0212 0.0212,0.0212 0.0424,0.0212 0.0847,0.0424 v 0.0212 0.0424 l 0.0424,0.063 v 0.0212 l 0.0212,0.0212 0.0212,0.0212 0.0424,0.0212 0.0424,-0.0424 v -0.0212 -0.063 l 0.0212,-0.0636 0.0848,-0.0424 h 0.0419 l 0.0848,-0.0847 0.0635,-0.0212 0.0424,0.0212 v 0.0636 l 0.0847,0.0636 0.0212,0.0212 0.0636,0.0424 0.0847,0.0207 h 0.0842 l 0.0848,0.0424 0.0423,0.0212 h 0.0212 0.0424 l 0.0424,0.0212 0.0635,0.0424 h 0.0212 l 0.0424,0.0212 0.0636,0.0424 0.0635,0.0424 h 0.0419 l 0.0212,0.0212 0.0212,0.0212 h 0.0424 l 0.0424,0.0212 h 0.0212 0.0212 0.0212 l 0.0212,0.0212 h 0.0212 v 0.0212 l 0.0848,0.0212 0.0212,0.0424 0.0847,0.0212 0.0424,0.0212 h 0.0212 0.0206 v 0.0212 h 0.0212 l 0.0212,0.0212 h 0.0212 l 0.0212,0.0212 v -0.0212 l 0.0212,0.0212 0.0212,0.0207 h 0.0212 v 0.0212 h 0.0212 l 0.0212,-0.0212 0.0424,0.0212 h 0.0212 v 0.0212 h 0.0212 l 0.0212,0.0212 h 0.0212 l 0.0212,0.0212 h 0.0212 l 0.0635,0.0212 0.0424,0.0424 0.0842,0.0212 0.0424,0.0212 h 0.0635 0.0212 l 0.0212,0.0212 0.0212,0.0212 0.0636,0.0212 h 0.0212 0.0424 0.0212 l 0.0424,0.12713 h 0.0212 l 0.0212,0.0212 h 0.0424 0.0423 l 0.0419,0.0212 h 0.0212 0.0424 0.0424 l 0.0848,0.0424 h 0.0212 0.0636 0.0212 l 0.0212,0.0212 h 0.0212 l 0.0212,0.0212 0.0424,-0.0212 0.0424,0.0212 v 0.0207 0.0212 h 0.0212 l 0.0212,-0.0212 0.0206,0.0212 0.10594,0.0212 h 0.0635 l 0.0847,0.0212 0.0636,-0.0212 0.0212,0.0212 h 0.0212 0.0424 0.0635 0.0424 l 0.0206,0.0212 0.0635,0.0212 h 0.0424 l 0.0424,0.0212 0.0636,0.0212 v 0.0424 l 0.0636,0.0212 v 0.0212 l 0.0424,0.0212 0.0212,0.0212 v 0.0212 l 0.0636,0.0212 h 0.0424 v -0.0212 l 0.0424,-0.0212 0.0212,0.0212 h 0.0419 v 0.0212 h 0.0424 l 0.0212,0.0212 h 0.0212 v -0.0212 l 0.10594,0.0424 0.0212,0.0212 0.0424,0.0212 h 0.0212 v 0.0212 0.0212 l 0.0212,0.0212 0.0212,-0.0212 0.0212,0.0212 0.0424,0.0424 h 0.0212 0.0212 l 0.0212,-0.0424 v -0.0212 l 0.0631,0.0636 v 0.0207 0.0212 l 0.0424,0.0424 0.0212,0.0424 h 0.0212 v -0.0424 l 0.0212,0.0212 h 0.0212 0.0212 v -0.0212 h 0.0424 l 0.0424,-0.0212 0.0212,0.0212 0.12713,0.0212 0.0212,0.0212 0.0847,0.0212 0.0842,0.0424 0.0424,0.0424 0.0424,-0.0212 h 0.0212 l 0.0212,-0.0212 0.0636,-0.0424 0.0636,0.0212 0.10594,0.0212 0.0424,0.0212 h 0.0212 v 0.0636 0.0212 l 0.0212,0.0212 h 0.0419 v -0.0212 h 0.0212 l 0.0212,0.0212 h 0.0212 l -0.0212,-0.0212 v -0.0212 h 0.0212 l 0.0424,0.0212 h 0.0212 0.0212 l 0.0424,0.0212 h 0.0212 l 0.0424,0.0424 v 0.0212 h 0.0212 l 0.0424,0.0212 h 0.0424 v 0.0212 h 0.0212 l 0.16896,0.0636 0.12713,0.0424 0.0424,0.0207 h 0.0424 l 0.12713,0.0636 0.0847,0.0424 h 0.0212 l 0.0424,0.0212 0.0418,0.0212 h 0.0212 0.0212 l 0.0212,-0.0212 h 0.0212 0.0424 v 0.0212 l 0.12713,0.0424 h 0.0424 l 0.0424,0.0212 h 0.0424 0.0424 l 0.0842,0.0424 h 0.0424 l 0.0212,0.0212 v -0.0424 h 0.0212 0.0212 l 0.0424,-0.0212 0.0212,-0.0212 0.0212,-0.0212 v -0.0212 l -0.0212,-0.0212 h 0.0212 l 0.0424,0.0212 v 0.0212 h -0.0212 v 0.0212 h -0.0212 l -0.0424,0.0424 v 0.0212 0.0212 h 0.0212 l 0.0424,0.0212 v -0.0212 h 0.0212 v -0.0212 l 0.0212,0.0212 v 0.0212 l 0.0424,0.0212 h 0.0212 0.0212 0.0424 l 0.0212,0.0212 0.0212,0.0212 0.0212,-0.0212 h 0.0212 l 0.0212,0.0212 h 0.0212 0.0206 l 0.0212,0.0212 v -0.0212 h 0.0212 l 0.0212,0.0212 v 0.0212 h 0.0212 v -0.0212 h 0.0212 l 0.0424,0.0212 0.0212,-0.0212 0.0212,0.0212 0.0212,-0.0212 v -0.0636 l 0.0212,-0.0424 0.0636,-0.0424 0.0424,-0.0424 0.0424,-0.0636 h 0.0424 0.0212 l 0.0424,0.0424 h 0.0212 v 0.0212 l 0.0631,-0.0212 0.0212,0.0212 h 0.0212 v -0.0212 h 0.0212 v 0.0212 l 0.0424,0.0212 v 0.0212 l 0.0212,0.0212 0.0635,-0.0212 v 0.0212 l 0.0212,0.0212 v 0.0212 l 0.0212,0.0212 0.0212,0.0212 0.0212,-0.0212 h 0.0424 0.0212 l 0.0212,-0.0212 v -0.0212 l -0.0212,-0.0424 0.0424,-0.0424 -0.0424,-0.0424 0.0424,-0.0636 -0.0212,-0.0212 h -0.0212 -0.0212 v -0.0212 h -0.0212 v -0.0212 h 0.0212 l 0.0212,-0.0212 -0.0212,-0.0419 0.0212,-0.0424 v -0.0212 h 0.0212 0.0424 v -0.0212 l 0.29612,0.0212 0.19068,-0.27543 0.0847,-0.12713 0.0212,0.0212 0.12663,0.0424 0.0212,-0.0212 0.0424,0.0212 0.0424,0.0212 h 0.0848 l 0.0424,-0.0212 0.0424,-0.0212 0.0635,-0.0842 v -0.0212 h 0.0842 0.0212 0.0212 0.0212 0.10594 l 0.0424,0.0842 v 0.0212 h 0.0424 0.0212 l 0.0212,-0.0212 0.0212,-0.0212 v -0.0212 l 0.0848,0.12712 0.0424,0.0212 h 0.0424 0.0418 l 0.10594,0.0424 0.0424,0.0847 h 0.0212 l 0.0635,-0.0212 0.12713,0.0424 h 0.0424 0.0212 0.10543 0.0212 l 0.14833,0.0424 0.16949,0.12712 h 0.0212 l 0.0636,0.0212 0.0424,-0.0212 h 0.0631 l 0.0636,-0.0212 0.0635,0.0636 v 0.0419 0.0424 l -0.0212,0.0212 -0.0212,0.0424 -0.0424,0.0636 v 0.0636 0.0636 l 0.0424,0.0636 0.0424,0.0636 -0.0424,0.0212 -0.0424,0.0424 0.0212,0.0842 0.0212,0.0212 h 0.0212 l 0.0212,0.0424 v 0.0212 l 0.0212,0.0424 0.0212,0.0424 0.0212,0.0424 0.0212,0.0424 v 0.0212 l -0.0212,0.0636 -0.0212,0.0424 v 0.10542 0.0212 0.0636 0.0212 0.0424 l -0.0635,0.10594 -0.0424,0.0636 -0.0212,0.0212 -0.0212,0.0424 -0.0419,0.0424 h -0.0212 -0.0212 l -0.0636,-0.0212 h -0.0424 v 0.0212 l -0.0847,0.0424 -0.0212,0.12661 v 0.0636 l -0.0212,0.0212 h -0.0424 l -0.0424,0.0212 -0.0847,0.0424 -0.0424,0.0212 -0.063,0.0424 -0.0424,0.0212 -0.0424,0.0212 h -0.0212 l -0.0212,0.0212 -0.10594,0.10593 -0.0424,0.0424 -0.0212,0.0207 -0.0212,0.0212 h -0.0212 l 0.0847,0.0847 0.0212,0.0212 0.0848,-0.0636 0.0212,-0.0424 0.0424,-0.0419 0.0212,-0.0212 0.0212,-0.0212 v -0.0212 l 0.0212,-0.0424 0.0424,-0.0636 0.0206,-0.0424 h 0.0424 l -0.0424,0.0424 -0.0419,0.0424 -0.0212,0.0636 v 0.0212 l -0.0424,0.0212 -0.0212,0.0419 -0.0424,0.0424 -0.0212,0.0212 -0.0212,0.0212 -0.0424,0.0424 v 0.0212 l 0.0212,0.0212 0.0847,0.0424 0.0848,0.0424 v 0.0212 l 0.0212,0.0212 v 0.0212 h 0.0212 0.0206 v -0.0212 h 0.0212 l 0.0636,-0.0424 0.0212,0.0212 0.0424,0.0424 h 0.0212 0.0212 0.0212 0.0424 0.0212 l 0.0212,-0.0212 0.0212,0.0212 v -0.0212 l 0.0212,0.0212 v -0.0212 l 0.0212,-0.0212 h 0.0424 v 0.0424 h 0.0212 l 0.0212,0.0424 0.0842,0.0424 h 0.0424 l 0.0424,-0.0424 0.0212,-0.0212 h 0.0212 0.0212 l 0.0424,-0.0212 v -0.0212 l 0.0212,-0.0424 0.0212,-0.0212 h 0.0212 l 0.0424,-0.0212 0.0212,0.0212 v 0.0212 l -0.0212,0.0636 h 0.0212 0.0212 l 0.0212,0.0212 0.0212,-0.0212 v 0.0212 l 0.0636,-0.0212 0.0212,-0.0212 0.0631,-0.0424 h 0.0424 0.0212 l 0.0424,0.0212 0.0212,-0.0212 0.0212,-0.0212 0.0424,0.0424 -0.0424,0.0424 0.0212,0.0636 0.0212,0.0212 0.0636,-0.0212 v 0.0212 l 0.0424,0.0212 h 0.0636 0.0424 v -0.0212 h -0.0212 v -0.0212 l -0.0212,-0.0424 v -0.0424 l 0.0212,-0.0424 v -0.0212 -0.0212 -0.0424 h 0.0424 0.0212 0.0843 0.0212 l 0.0424,0.0212 0.0212,0.0636 h -0.0212 -0.0212 -0.0212 -0.0212 -0.0206 v 0.0212 0.0212 h 0.0206 l 0.0212,0.0212 v 0.0212 0.0212 l 0.0212,0.0424 v 0.0212 0.0212 l 0.0424,0.0212 h 0.0212 0.0636 l 0.0424,0.0212 h 0.0212 0.0424 0.0424 l 0.0424,-0.0636 v -0.0212 -0.0212 -0.0424 -0.0212 l 0.0424,-0.10593 0.0212,-0.0212 h 0.0424 0.0212 0.0212 v 0.0212 h 0.0206 v 0.0212 h 0.0212 0.0212 l 0.0212,0.0212 0.0424,0.0212 h 0.0212 0.0212 v 0.0212 l 0.0212,0.0212 0.0635,0.0212 0.0424,0.0212 0.0212,0.0212 0.0212,0.0212 h 0.0212 l 0.0212,0.0424 0.10594,0.10542 h 0.0212 v 0.0212 l 0.0212,0.0424 h 0.0206 l -0.0206,0.0424 0.0206,0.0424 0.0212,0.0424 0.0212,0.0212 h -0.0212 v 0.0212 0.0212 l -0.0212,0.0212 -0.0206,0.0424 h -0.0212 l -0.0424,0.0636 0.0424,0.0424 0.0842,0.0636 0.0212,0.0207 0.0424,0.0212 0.0212,-0.0212 -0.0212,-0.0207 h -0.0212 v -0.0212 h 0.0212 v -0.0212 h 0.0424 l 0.0212,0.0212 0.0212,0.0212 0.0212,-0.0212 v -0.0212 l -0.0212,-0.0212 v -0.0636 l 0.0212,-0.0212 v 0.0424 l 0.0212,-0.0212 0.0212,0.0212 h -0.0212 v 0.0212 h 0.0212 0.0212 l 0.0212,-0.0212 0.0212,-0.0212 0.0212,0.0212 0.0424,0.0212 0.0212,-0.0212 0.0212,-0.0212 -0.0424,-0.0212 v -0.0212 -0.0424 h 0.0212 v 0.0212 l 0.0212,0.0212 0.0212,-0.0212 0.0424,-0.0212 v -0.0212 l 0.0419,0.0212 h 0.0212 l 0.0212,-0.0212 0.0212,0.0212 v -0.0212 l 0.0424,0.0212 v 0.0212 l -0.0424,0.0212 -0.0424,-0.0212 h -0.0212 l -0.0206,0.0212 v 0.0212 l 0.0206,0.0212 0.0212,0.0212 h 0.0212 0.0212 l 0.0424,-0.0212 h 0.0212 0.0212 0.0424 0.0212 l 0.0636,-0.0212 h 0.0212 l -0.0212,0.0212 v 0.0212 l 0.0212,0.0212 0.0212,0.0212 0.0212,0.0424 v 0.0419 0.0212 l 0.0636,0.0212 0.0212,0.0424 h 0.0212 l 0.0424,0.0212 0.0419,0.0424 h 0.0635 0.0212 0.0424 0.0212 v -0.0212 l 0.0212,-0.0212 h -0.0212 l -0.0636,-0.0636 -0.0212,-0.0212 h 0.0212 v -0.0212 l 0.0424,-0.0418 v 0.0212 0.0419 0.0212 0.0212 h 0.0424 v 0.0212 0.0212 h 0.0212 v 0.0212 l -0.0212,0.0212 v 0.0212 l 0.0212,0.0212 h 0.0212 0.0212 l 0.0212,-0.0212 v -0.0212 h 0.0212 l -0.0212,-0.0212 h 0.0424 v -0.0636 h 0.0212 l 0.0212,0.0212 v 0.0212 l -0.0424,0.0847 h 0.0212 l 0.0212,0.0212 0.0212,0.0212 v 0.0212 h 0.0212 v -0.0212 h 0.0212 v -0.0212 l 0.0212,-0.0636 v -0.0424 h 0.0212 l 0.0212,-0.0212 0.0212,-0.0212 v -0.0424 l 0.0212,-0.0212 v -0.0207 h -0.0212 l -0.0212,-0.0212 -0.0212,-0.0212 h -0.0212 v -0.0212 -0.0212 -0.0212 h 0.0212 l 0.0212,0.0212 0.0424,0.0212 0.0206,0.0212 h 0.0212 v 0.0212 0.0419 h -0.0212 v 0.0212 h 0.0212 l 0.0212,0.0212 h 0.0212 l 0.0212,0.0212 0.0212,-0.0212 0.0424,0.0212 h 0.0212 l 0.12713,0.0424 h 0.0212 l 0.0212,0.0212 h 0.0212 0.0847 0.19018 0.1483 l 0.0424,0.0848 0.0212,0.10593 0.0848,0.0636 0.0424,0.0636 0.12661,0.10541 0.0424,0.0424 0.0848,0.0636 0.0847,0.0636 0.0636,0.0848 0.0424,0.0212 v -0.0636 l 0.0212,-0.0212 v -0.0424 h 0.0424 0.0636 0.0212 v 0.0212 0.0848 l 0.0631,0.0636 h 0.0424 v 0.0212 h 0.0212 l 0.0212,0.0212 h 0.0212 v -0.0212 h 0.0212 l 0.0424,0.0212 0.10591,-0.0424 h 0.0212 l 0.0847,-0.0424 0.0424,0.0424 0.0631,0.0424 h 0.0424 l 0.0636,0.0424 0.0424,0.0212 0.0212,0.0212 h 0.0212 l 0.0424,0.0424 h 0.0636 0.0424 0.0424 l 0.0212,0.0419 0.0424,0.0424 0.0424,0.0212 h 0.0212 l 0.0842,0.0424 0.0212,0.0212 0.0212,0.0212 h 0.0212 l 0.0212,-0.0212 0.0636,-0.0212 0.12711,-0.0636 0.0636,-0.0212 h 0.0212 l 0.0212,-0.0212 h 0.0212 l 0.0631,-0.0212 0.0635,0.0424 h 0.0635 l 0.0848,0.0424 0.0212,0.0636 0.10594,0.0636 0.0636,0.0212 h 0.0212 l 0.0212,0.0212 0.0635,-0.0424 0.0206,-0.0424 h 0.0635 l 0.0212,-0.0636 0.0212,-0.0212 v -0.0212 l 0.0424,-0.0212 h 0.0212 l 0.0212,0.0212 0.10593,0.0212 0.0424,0.0636 0.0212,0.0212 v 0.10594 0.10593 0.12713 0.0842 0.10594 0.0636 0.0848 0.0636 0.0636 0.0424 0.0212 h 0.0212 v -0.0212 h 0.0212 0.0212 v -0.0424 -0.0424 -0.0636 -0.0636 -0.0847 -0.0636 -0.10594 -0.0842 -0.12712 -0.10594 -0.10594 l -0.0212,-0.0212 -0.061,-0.0796 0.0579,-0.13332 -0.0393,-0.0196 0.0517,-0.009 0.0156,-0.0357 0.0388,0.0238 h 0.0124 l 0.47437,-0.0847 0.59275,-0.0847 0.38084,-0.61392 0.4868,-0.21136 0.44442,0.10542 0.2966,0.42375 0.27493,0.16898 0.27493,-0.0212 0.36018,-0.19017 0.12713,-0.99477 -0.16952,-0.29662 -0.27543,0.0636 -0.0212,-0.50798 0.21188,-0.10594 0.16952,0.0212 0.21135,-0.1695 0.16949,-0.40204 0.31729,-0.55035 0.38137,-0.38086 0.19018,-0.74104 0.36018,-0.74052 -0.0424,-0.99477 0.0424,-0.44442 0.40203,-0.76223 1.4604,-0.0212 1.05833,0.27492 1.65105,-0.0419 0.55036,0.19017 0.59272,0.46561 0.48681,-0.0424 -0.21188,-0.44442 -0.76171,-0.78289 -0.16949,-0.76223 -0.12713,-0.21136 -0.48681,-0.36018 -0.0636,-1.418 h 0.29662 l 0.25374,0.31729 0.55036,0.23306 0.42323,-0.29662 0.31779,0.23306 0.99478,0.42323 0.44442,0.0636 0.76224,-0.12712 0.25371,0.12712 1.07952,-0.19069 0.27543,0.0212 1.24852,0.33899 0.40256,0.35967 0.46559,-0.0212 0.67696,0.0847 1.14308,0.6351 0.31782,-0.10593 0.50797,-0.61392 0.0848,-0.67748 0.16899,-0.57154 0.55036,-0.76171 0.59272,-0.57154 0.42323,-0.14831 0.27545,0.0212 0.4444,-0.16898 0.38086,-0.50798 0.12714,-0.29662 0.21185,-1.05834 0.1478,-0.23254 0.25426,-0.1695 0.50797,-0.10594 0.48678,-0.40204 0.23255,-0.10594 0.33901,0.10594 0.46561,-0.0212 0.63511,0.10594 1.05833,-0.91054 1.14308,-0.35967 0.7829,-0.50798 0.91001,-0.40204 0.84698,0.0212 0.50798,-0.46561 0.44442,0.0424 0.29609,0.19017 0.42376,0.14831 0.44442,0.0212 0.42323,-0.10593 1.18546,0.1695 0.80407,-0.63511 0.50798,-0.27543 0.55035,-0.10542 0.50798,-0.38137 0.0848,-0.21136 -0.14832,-0.21187 -0.84646,-0.44442 -0.8046,-0.52917 -1.39681,-0.19068 -0.19069,-0.67696 -0.54985,-0.91054 1.18496,-1.10071 -0.0424,-0.23254 -0.63457,-0.59274 0.95239,-0.48679 0.25374,-0.21187 0.69865,-0.25373 0.31729,-0.65629 v -0.1695 l -0.33848,-0.46561 -0.19068,-0.88883 -0.2961,-0.74104 0.0847,-0.33848 0.31728,-0.61392 -0.35967,-1.46037 -0.19069,-0.1695 -0.99475,-0.52917 h -0.29612 l -0.61391,0.38086 -0.25424,0.0424 -0.19018,-0.44442 -0.74105,-0.86764 -0.10594,-0.57154 -0.19015,-0.38086 -0.25424,-0.29662 -0.48681,-0.25373 -0.0636,-0.0847 0.0636,-0.21188 -0.44442,-0.69815 0.0847,-0.74103 -0.21186,-0.12713 -0.93122,0.21187 -0.40204,0.4868 -0.0847,0.0636 h -0.23308 l -0.19015,-0.44442 -0.33901,-0.50798 -0.2961,-0.14831 -0.67749,-0.0636 -0.25373,-0.10594 -0.67747,-1.20664 -0.52917,-0.44442 -0.80459,-0.40204 -0.61392,-0.84646 -0.29612,0.0424 -0.38084,0.25373 -0.31782,0.46561 -0.35967,-0.10594 -0.31729,-0.52917 -0.31782,-0.80408 0.0636,-1.12189 -0.38087,0.35966 -0.86815,1.20665 -0.21137,-0.0212 -0.0424,-0.0636 -0.12713,-0.23254 v -0.61392 l -0.50798,-0.42323 -0.33848,-0.14831 -0.0848,0.40204 0.0848,0.36019 -0.0635,0.19017 -0.78343,0.12712 -0.27491,0.1695 -0.31731,0.44442 -0.2966,0.12712 -0.25373,-0.0424 -0.21188,-0.19069 v -0.84646 l 0.0635,-0.31781 -0.23304,-1.14308 0.0212,-0.63459 -0.10594,-0.19068 -0.31729,-0.21188 -0.10593,-0.14779 -0.0424,-0.31781 0.16949,-0.69867 -0.31729,-0.74052 -0.44495,0.0636 -0.82526,0.33848 -0.31729,-0.52916 -1.05833,0.88883 -0.23308,-0.0842 -0.16949,-0.25425 -0.0842,-0.76171 0.12663,-0.55036 0.76221,-0.95291 0.55036,-0.48679 0.82526,-0.42323 0.40206,-0.35967 1.18544,-0.48679 0.40206,-0.44442 1.18544,-0.31781 0.59275,-0.6351 0.99475,-0.61392 0.69869,-0.88883 0.0212,-0.91002 0.48681,-1.31259 0.74105,-0.33848 0.31728,-0.67748 0.0212,-1.14308 -0.0212,-0.31729 -0.29612,-0.40204 -0.40253,-0.31781 -0.23255,-0.0424 -0.27545,0.0424 -0.76171,0.48679 -0.63511,0.84698 -0.10591,0.40204 -0.25374,0.40204 -0.16952,0.10594 -0.27543,0.14831 -0.48678,-0.0212 -0.86765,0.27491 -0.35967,-0.0212 -0.52917,0.46612 -0.0847,0.35967 -0.88935,0.33848 -0.59221,0.0848 -0.61392,-0.65629 h -0.50797 l -0.3602,-0.0636 -0.2961,-0.40204 -0.48681,-0.38086 -0.35964,-0.59273 v -0.82527 l -0.46615,-0.99529 0.10594,-0.33848 -0.10594,-0.95239 0.23307,-0.3173 -0.10593,-0.29662 -0.42323,-0.19069 -0.86765,-0.0419 -0.40256,-0.33899 -0.69813,0.16949 -1.5875,-0.40204 -0.6563,0.29611 -0.88884,-0.57154 -0.38137,-0.40204 -0.44442,-0.91003 -0.48679,-1.35495 -0.69868,-1.37563 -0.65577,-0.93121 -0.31779,-0.1695 -0.59275,-0.74104 -0.55036,-0.0424 -0.46558,-0.12661 -0.38087,-0.23306 -0.82526,-0.10594 -0.29663,-0.16898 0.0424,0.10542 -0.59275,0.0636 -0.23254,-0.33848 0.1266,-0.42323 -0.16896,-0.88935 -0.44442,-0.61392 0.25373,-0.27491 0.67747,-0.23306 0.55036,-0.50798 -0.88937,-1.05834 -0.10541,-0.0424 -1.05833,0.25425 -0.42376,-0.0424 -0.42323,-0.31729 0.0424,-0.10594 -0.0636,-0.33848 0.38137,-0.29662 -0.55036,-0.25373 -0.59272,-0.0636 -0.99478,0.21135 -0.25424,-0.10594 -0.508,-0.0419 -0.21188,-0.1695 -0.1266,-0.25425 0.0636,-0.2961 0.25373,-0.21188 -0.16952,-0.10542 -1.35443,0.69815 -0.38086,0.40204 0.0636,0.19069 -0.508,0.40204 -1.12189,0.14831 -0.36018,0.29611 -0.88884,0.50849 -0.55036,0.1478 -1.56631,0.14831 -0.35967,-0.0847 -0.25424,-0.14831 h -0.31729 l -0.21187,0.29662 -1.22783,0.57154 -0.57102,0.1478 h -0.31782 l -1.39682,0.48731 -0.95239,0.063 -0.50797,-0.0419 -0.21188,0.0631 -0.55036,-0.0842 -1.1007,0.25373 -0.21187,-0.0424 -0.0842,-0.12712 -0.12713,-0.50798 -0.35965,-0.10542 -0.40256,0.23255 -1.41801,1.77818 -0.88884,0.61392 -0.1483,0.23254 -0.16949,0.10594 -0.14784,-0.0636 -0.27544,0.0848 -0.21187,-0.0212 -0.40204,0.27492 -0.29611,0.23306 -0.97358,1.07952 -0.40257,0.33848 -0.1266,0.0424 -0.50798,-0.29611 -0.38137,-0.25425 -0.0212,-0.1266 0.4868,-0.5085 -0.10542,-0.63459 -0.38138,-0.59273 0.10594,-0.50797 -0.0424,-0.12713 -0.33848,-0.38085 -0.19069,-0.80461 -0.46561,-0.25373 -0.14831,-0.27543 0.14831,-0.46561 0.25425,-0.33848 0.27492,-0.21187 0.44442,-0.14831 0.339,-0.23255 0.1266,-0.57154 -0.0842,-1.01596 -0.6351,-1.22783 -0.0847,-0.4656 -0.14831,-0.25373 -0.19017,-0.82579 0.0212,-0.38086 0.0842,-0.19069 -0.0212,-0.10593 -0.38085,-0.40204 0.0212,-0.35967 0.23306,-0.8046 -0.0424,-1.69292 0.25373,-0.38138 0.71985,-0.52916 0.0212,-0.38086 0.23255,-0.71985 0.36018,-0.23255 0.21136,-0.23306 0.38137,-0.86764 0.29611,-0.14831 0.27543,-0.33849 -0.0212,-1.16427 -0.1695,-0.4656 0.0848,-0.21187 0.10593,-0.1478 0.59221,-0.31781 0.78342,-0.6351 0.82531,-0.86765 0.31782,-0.14831 0.6351,-0.0636 0.25374,-0.16898 0.27543,-0.63511 0.55033,-0.0424 0.10544,-0.0847 0.0635,-0.55036 -0.16899,-0.31729 -0.1271,-0.10594 -0.50798,0.14832 -0.97358,-0.0636 -0.23308,0.19017 -0.46561,0.0424 -0.27543,-0.29611 -0.0631,-0.25425 v -0.42323 l -0.50849,0.23306 -0.50798,-0.0212 -0.31729,0.29611 -0.0424,0.19068 -0.23254,0.23255 -0.63511,-0.0631 -1.05833,-0.25424 -0.38137,-0.33849 0.0424,-1.05833 0.10594,-0.65629 -0.38086,-0.65629 -0.12712,-0.38086 0.0212,-0.1695 0.42323,-0.65629 0.46561,-0.25373 0.19068,-0.4656 -0.1695,-0.57154 0.1695,-0.3173 0.57155,-0.44493 0.38085,-0.0842 0.40256,-0.21188 1.03715,-0.99477 0.93124,-0.0212 0.6351,-0.27543 0.16899,-0.12661 -0.12663,-0.21188 0.31732,-0.2961 0.42323,-0.14831 0.38084,-0.44442 0.25426,0.21136 -0.0212,-0.35967 3.38688,-2.64583 4.52943,-4.69894 -0.19068,-0.0212 -0.23255,-0.23306 -0.12713,0.0212 -0.21188,0.10593 -0.38084,0.40205 v 0.0847 l -0.19018,0.29662 -0.71985,0.063 -0.69866,0.42375 V 5.2508 l -0.1483,-0.0847 -0.35967,-0.12712 -0.2961,0.25425 -1.39734,0.10593 -1.01595,0.16898 -1.26971,-0.48679 -0.99475,-0.25373 -0.21188,0.0842 -0.25427,-0.0418 -0.14777,-0.12713 -0.16952,-0.0212 -0.14829,0.0424 0.0424,0.1478 -0.10594,0.0636 -0.63458,-0.14779 -1.22786,0.31729 -0.10594,-0.19069 -0.35967,-0.0424 -0.23306,-0.10542 -0.19017,0.19017 -0.14831,-0.0847 0.21187,-0.67696 -0.27543,-0.339 -0.91002,0.19068 -1.41852,0.9524 -0.40204,0.29663 -0.16899,0.33847 -0.27543,0.29611 -0.23306,0.0847 -0.54984,0.48679 -0.50849,0.67748 h -0.59221 l -0.36019,0.10594 -0.71934,-0.1695 -0.71985,-0.3173 -1.52394,0.12713 -1.20664,0.48679 -0.23254,0.16898 -0.50798,0.14832 -0.31782,0.25424 -0.71933,0.29611 -1.01648,0.19069 -0.27492,-0.0212 -1.03714,-0.31781 -0.35967,-0.31729 -0.12712,-0.0212 -0.67748,-0.0212 -0.40204,0.14832 -0.1695,-0.0847 -0.44442,-0.0424 -0.93121,0.0212 -0.4656,0.14832 -0.29663,-0.12713 -0.27491,0.0424 -0.65629,-0.21187 -0.35967,0.23306 -0.31781,0.80409 -0.59273,0.4656 -2.01073,0.67748 -0.52917,0.10594 -0.61392,0.33848 -0.48679,0.0424 -0.74052,-0.0636 -0.69866,1.29139 -0.10594,0.19017 -0.35967,0.0212 -0.25425,-0.0631 v -0.14831 l -0.0842,-0.55035 -0.29662,-0.31782 0.12712,-0.33847 V 9.63253 l -0.52917,-0.23306 -0.40204,-0.31729 -0.65629,0.0842 -0.88883,-0.33848 -0.84698,-0.0424 -1.29088,-2.18023 -0.0847,-0.46561 0.57154,-2.73058 0.0636,-1.31206 -1.10071,-0.25425 -1.07952,-0.44442 -2.68821,-1.31206 z"
     style="fill:#a30000;fill-opacity:1;fill-rule:evenodd;stroke:none;stroke-width:0.39687499;stroke-linecap:square;stroke-linejoin:bevel;stroke-miterlimit:10;stroke-dasharray:none;stroke-opacity:1" />
</svg>
