<?xml version="1.0" encoding="UTF-8" standalone="no"?>
<svg
   xmlns:dc="http://purl.org/dc/elements/1.1/"
   xmlns:cc="http://creativecommons.org/ns#"
   xmlns:rdf="http://www.w3.org/1999/02/22-rdf-syntax-ns#"
   xmlns:svg="http://www.w3.org/2000/svg"
   xmlns="http://www.w3.org/2000/svg"
   xml:space="preserve"
   enable-background="new 0 0 349.531 752.709"
   viewBox="0 0 349.531 752.709"
   height="752.709px"
   width="349.531px"
   y="0px"
   x="0px"
   id="Layer_1"
   version="1.1"><metadata
   id="metadata1829"><rdf:RDF><cc:Work
       rdf:about=""><dc:format>image/svg+xml</dc:format><dc:type
         rdf:resource="http://purl.org/dc/dcmitype/StillImage" /><dc:title></dc:title></cc:Work></rdf:RDF></metadata><defs
   id="defs1827">
	
	
	
	
	
	
	
	
	
	
	
	
	
	

	
	
	
	
	
	
	
	
	
	
	
	
	

	
	
	
	
	
	
	
	
</defs>




<g
   id="layer1"><path
     id="Lawngtlai"
     d="m 175.039,700.873 -0.795,-0.762 -2.525,-1.054 -2.237,-1.434 -1.894,-1.815 -1.539,-2.262 -1.604,-2.264 -1.54,-2.197 -1.894,-1.894 -2.104,-1.593 -2.171,-1.435 -2.447,-1.435 -2.525,-0.985 -2.381,-1.21 -2.314,-1.658 -2.026,-1.591 -1.895,-2.039 -1.961,-1.815 -2.867,-0.604 -1.604,0.38 -2.025,1.658 -0.211,3.249 0.211,1.814 v 1.736 l 0.21,1.814 0.21,1.895 0.211,1.816 0.21,1.814 -1.263,1.657 -2.236,-1.435 -2.237,-0.08 0.211,1.815 0.21,1.896 0.354,1.657 0.421,1.591 0.211,1.896 0.21,1.814 v 5.063 l -0.565,2.869 -1.606,2.038 -2.736,0.907 -3.078,-0.604 -2.446,1.436 -1.606,2.038 -1.474,2.263 -1.815,1.896 -2.026,1.735 -2.446,1.354 -0.304,0.686 -1.115,-0.291 -0.135,-0.775 v -1.657 l -0.421,-1.656 -0.354,-1.592 -0.421,-1.658 -0.908,-3.092 -0.354,-1.656 -0.421,-1.592 -0.211,-1.896 -0.209,-1.815 -0.21,-1.896 -0.211,-1.814 -0.21,-1.814 -0.354,-1.657 -0.421,-1.657 -0.211,-1.814 -0.354,-1.658 -0.276,-1.894 -0.355,-1.593 -0.907,-3.104 -1.395,-2.42 -1.474,-2.5 1.119,-2.196 1.815,-0.145 3.013,0.381 2.38,1.211 1.539,-1.515 0.776,-2.723 0.421,-3.025 -1.052,-2.867 -2.105,-1.671 -0.354,-1.593 -0.421,-1.67 -0.354,-1.672 -0.21,-1.813 v -1.737 l -0.276,-1.815 0.21,-3.183 v -1.736 l -0.21,-1.815 v -1.735 l -0.908,-3.025 -1.472,-2.5 -0.356,-1.592 0.21,-3.249 0.355,-3.025 v -5.077 l -0.066,-1.671 -0.21,-1.895 -0.211,-1.814 -0.354,-1.671 -0.908,-3.105 -1.263,-2.656 -1.118,-2.882 -1.052,-2.88 -0.421,-1.672 -0.354,-1.592 -0.421,-1.67 -0.356,-1.672 -0.209,-1.814 -0.066,-1.67 -0.209,-1.896 -0.211,-1.813 -0.21,-1.895 -0.211,-1.815 -0.21,-1.895 v -3.342 l -0.276,-1.895 v -1.67 l -0.209,-1.896 v -1.67 l -0.21,-1.895 v -1.67 l -0.211,-1.815 -0.276,-1.896 -1.263,-2.655 -1.685,-2.054 -1.263,-2.656 -0.276,-1.896 0.421,-3.038 1.052,-2.578 0.776,-2.735 v -3.342 l -0.21,-1.896 -0.276,-1.815 -0.354,-1.67 -0.211,-1.895 -0.21,-1.815 -0.21,-1.896 -0.211,-1.814 -0.42,-1.67 -0.211,-1.814 -0.421,-1.672 -0.21,-1.895 -0.211,-1.829 -0.209,-1.894 -0.421,-1.592 -0.21,-1.896 -0.21,-1.828 v -3.184 l -0.42,-2.054 -0.938,-1.688 0.306,-2.257 -0.447,-2.315 3.829,-4.63 5.736,1.092 5.959,6.945 2.591,-1.71 0.789,-3.289 4.617,7.801 0.119,6.946 2.368,4.263 2.026,-0.369 0.671,2.803 2.814,0.974 -0.342,2.802 3.263,2.92 0.565,7.92 6.972,-2.064 5.512,1.092 0.447,8.406 14.391,13.153 2.369,11.813 h 4.275 l -1.014,-7.918 6.63,-10.958 -1.907,-10.234 1.802,-0.737 1.118,-5.484 9.341,1.829 9.785,10.603 4.053,-0.604 3.368,10.59 5.394,-2.685 0.484,2.18 1.16,4.701 -1.236,13.143 2.473,4.012 -0.789,7.788 2.475,10.341 3.604,2.063 -1.032,4.13 -1.459,1.459 -3.485,-0.854 -1.119,-2.316 1.119,-1.341 -2.816,-1.579 -12.364,10.341 -4.381,9.115 -2.698,0.976 -2.249,-2.672 -4.156,-0.854 -1.237,2.063 1.355,6.814 2.592,3.644 -1.461,8.63 3.486,33.046 v 14.443 l 1.579,4.735 z"
     style="fill:#a30000;fill-opacity:1;stroke:#a30000;stroke-opacity:1" /><path
     id="Champhai"
     d="m 204.555,136.224 -1.938,7.126 6.975,-0.006 0.895,5.419 0.564,23.271 -3.262,8.129 3.262,5.789 -4.84,5.788 1.578,6.393 6.973,6.643 -2.026,6.275 2.921,4.67 -2.025,5.289 1.461,3.565 1.802,0.25 0.446,7.617 2.475,6.88 -2.368,2.091 0.447,5.039 1.685,1.354 -1.803,8.722 1.803,8.958 -0.67,15.957 1.682,3.065 -0.67,3.801 2.367,10.918 -5.854,4.17 -3.934,6.5 6.631,4.052 -0.447,4.42 2.131,2.446 -1.908,4.288 2.133,3.921 -0.447,5.762 3.934,5.631 -4.156,12.615 -6.631,6.117 0.225,6.734 1.802,2.447 3.935,1.224 0.564,3.184 17.102,2.564 7.092,8.813 9.115,4.407 7.09,18.72 -0.787,19.562 0.195,1.5 0.79,0.053 1.236,1.343 1.842,0.657 0.513,2.906 0.936,1.593 0.367,2.104 1.815,0.513 1.46,0.749 0.354,1.987 1.975,1.078 1.895,0.314 1.593,-0.275 2.788,-0.223 1.961,-0.396 1.302,1.474 1.354,-1.078 2.42,0.616 0.922,-1.472 1.303,-1.448 1.158,-1.196 1.947,0.015 0.064,-1.646 1.395,-1.265 1.014,-1.288 1.025,-1.499 0.211,-1.763 1.053,-1.514 0.749,-1.843 1.896,0.118 0.105,-2.446 1.012,-1.275 -2.078,-0.474 1.014,-1.578 0.593,-1.777 1.223,-1.155 0.896,-1.619 0.211,-1.685 0.881,-1.985 -0.5,-1.579 1.867,0.173 0.789,-1.618 1.539,-1.25 0.804,-1.555 1.896,-0.144 0.459,-1.592 -0.395,-1.604 -1.867,0.934 -1.632,-0.209 -0.235,-1.766 0.09,-2.13 0.698,-1.724 0.026,-2.289 -0.264,-1.696 1.645,-1.314 0.486,-1.685 -0.434,-1.776 0.553,-1.604 -1.264,-1.238 0.842,-1.814 0.814,-1.565 1.658,0.211 -0.83,-1.446 -1.131,-1.908 -0.553,-1.748 -0.406,-2.092 -0.289,-1.736 -1.697,-0.369 0.158,-1.617 -0.172,-2.105 -0.985,-1.552 0.92,-1.672 -0.474,-1.617 0.671,-1.658 -0.882,-1.974 0.58,-1.539 -0.908,-1.617 1.445,-1.157 -1.539,-0.948 1.461,-1.104 -0.657,-1.539 1.211,-1.578 -1.158,-1.276 -1.485,-0.947 -0.908,-2.302 -0.617,-1.697 1.092,-1.197 1.657,-0.211 1.973,-0.578 1.829,0.093 1.525,-0.566 0.211,-1.723 -0.594,-1.526 1.58,-0.697 0.803,-1.723 1.406,-0.789 0.027,-1.658 -1.066,-1.946 -1.092,-1.237 -0.42,-1.554 -0.25,-1.932 -0.568,-1.648 0.553,-1.764 -0.33,-1.685 0.105,-1.854 -0.434,-1.696 1.289,-1.342 -0.158,-1.671 0.436,-1.658 0.867,-1.459 0.197,-1.83 -1.436,-0.801 0.777,-1.645 -0.396,-1.564 0.186,-1.699 0.092,-1.906 0.395,-1.684 1.592,-0.593 0.291,-1.815 1.17,-1.394 0.908,-1.513 0.658,-1.618 0.854,-1.697 -0.84,-1.435 -0.447,-1.973 -0.238,-1.881 0.355,-1.671 0.5,-1.526 1.631,-0.157 0.08,-1.658 0.078,-1.671 1.447,-1.355 -0.289,-1.657 -0.75,-1.46 -0.094,-1.605 -0.801,-1.486 0.354,-1.632 -0.514,-1.539 0.686,-1.5 0.184,-1.67 -1.564,-0.631 -0.039,-1.671 -0.172,-1.631 0.814,-1.513 0.738,-1.565 0.734,-1.513 1.039,-1.395 0.869,-1.487 0.514,-1.552 0.234,-1.618 -2.313,-0.513 -1.014,-1.539 -2.158,-2.408 -1.406,-1.157 0.262,-2.645 0.041,-3.223 -1.314,-1.973 -1.275,-3.315 -1.369,-1.736 0.039,-2.697 0.172,-2.986 v -3.262 l 1.447,-1.684 0.789,-1.881 -0.527,-2.263 -1.273,-1.631 -1.238,-2.263 -0.656,-1.631 -0.172,-3.026 -0.617,-2.302 0.131,-3.419 0.395,-1.737 -0.564,-1.973 0.092,-1.631 0.303,-2.17 0.619,-2.315 0.395,-2.5 0.225,-2.354 0.303,-2.697 -0.566,-2 -2.156,-0.934 -2.053,-0.092 -2.396,0.092 -1.235,-1.157 -1.498,-1.736 -0.265,-1.92 -0.618,-1.632 -0.843,-1.395 -0.841,-2.315 -1.448,-2.17 -1.841,-1.921 1.104,-2.354 0.065,-1.684 -0.21,-4.104 -0.407,-1.737 1.841,-0.42 -0.895,-1.474 -1.514,-0.96 0.83,-1.394 0.209,-1.618 -2.234,-0.197 -0.402,-0.73 -0.139,-0.94 -9.194,-0.737 -3.604,4.802 -4.723,2.828 -0.67,-2.828 3.604,-7.262 -0.788,-3.447 -3.935,-3.446 -2.92,0.368 -2.474,-0.736 -2.474,10.103 -11.813,-1.355 v -5.538 l -5.617,-3.578 -3.145,2.459 -1.459,4.184 -7.197,5.17 0.344,-8.012 -5.736,-8.011 -6.524,3.447 -14.392,-7.144 -2.991,0.288 z"
     style="fill:#a30000;fill-opacity:1;stroke:#a30000;stroke-opacity:1" /><path
     id="Kolasib"
     d="m 92.619,120.517 -0.397,2.622 3.934,5.669 -1.802,4.315 1.579,0.868 -1.46,3.447 0.223,21.192 2.816,-1.973 0.894,-5.67 2.591,2.341 -1.118,3.329 2.026,0.486 1.684,-9.853 h 2.368 l 0.789,3.197 3.71,3.446 3.262,0.25 2.026,4.802 1.237,-1.973 2.814,1.723 -3.934,6.775 2.473,3.078 -3.144,9.854 1.036,1.029 0.792,1.063 3.486,-2.579 4.499,1.724 2.473,-3.565 3.828,0.737 2.131,-3.934 7.867,1.723 5.394,-2.092 0.118,-2.96 3.039,0.986 0.447,-2.959 6.524,-4.92 8.208,-1.354 3.71,2.828 1.014,-2.592 1.118,2.21 2.367,-6.157 -0.447,-7.262 2.92,-6.893 -0.895,-1.842 5.617,-9.616 -1.014,-2.829 2.814,-3.815 -0.117,-4.196 2.248,-0.869 0.118,-7.642 1.462,-1.605 0.223,-7.274 -2.131,-3.079 -2.367,2.71 -2.131,-2.341 -3.039,-0.119 0.224,-7.774 3.144,-1.974 -0.224,-2.592 -2.813,-6.051 h -1.802 l 2.919,-2.473 -1.236,-2.96 2.474,-0.737 4.946,-7.038 -1.686,-2.105 1.686,-1.723 0.342,-2.224 -2.025,-0.868 1.028,-1.749 1.103,-1.343 -1.354,-2.223 -7.09,0.869 -4.617,5.433 -2.92,0.868 -1.908,-3.827 1.579,-2.842 -5.513,-5.183 -2.249,0.118 0.565,-2.341 -9.563,-25.955 -2.921,3.829 -12.483,36.32 -1.802,0.619 -1.579,5.314 -1.684,1.973 -6.63,1.105 -2.131,4.078 h -2.024 l -0.79,-1.854 -3.485,0.737 -3.145,21.968 -5.959,2.342 -5.958,-1.355 -3.487,1.105 -4.499,18.009 -1.162,1.433"
     style="fill:#a30000;fill-opacity:1;stroke:#a30000;stroke-opacity:1" /><path
     id="Mamit"
     d="m 91.13,120.678 -2.591,-0.737 -1.684,1.724 1.118,1.855 -2.025,-1.355 -1.237,1.855 -3.604,-0.369 -1.236,5.67 -3.828,1.855 -5.513,-5.052 -1.683,0.487 -0.79,-8.261 -3.829,-3.697 0.896,-16.154 -29.636,-0.178 -2.081,0.506 0.224,6.788 4.052,1.104 -1.014,2.342 3.71,2.46 1.237,4.065 -0.224,6.906 2.13,5.302 -2.13,2.223 0.789,11.089 -0.565,4.565 -1.684,1.354 -1.461,2.96 1.237,2.223 -1.908,6.524 3.71,12.432 -4.381,8.13 0.447,7.143 4.157,3.197 0.342,3.078 -3.71,7.866 1.014,4.802 -6.406,0.119 -0.789,-1.723 -4.275,6.275 3.039,8.853 -6.972,0.487 2.631,26.546 1.828,1.632 1.815,2.065 1.407,2.525 0.277,1.842 -0.21,1.605 -0.843,2.749 -1.197,2.447 -1.052,2.604 -0.632,2.91 -0.356,3.052 1.75,2.065 -0.211,2.908 -0.209,2.907 1.604,2.289 1.75,2.065 1.474,2.447 1.118,2.907 0.565,1.526 0.908,3.052 0.211,1.907 0.631,3.513 0.21,1.907 0.421,1.685 0.354,1.604 0.421,1.684 0.421,1.685 0.209,1.906 0.21,1.829 0.211,1.907 0.21,1.829 0.276,1.907 0.21,1.828 0.211,1.908 v 1.684 l 0.065,3.433 1.75,2.066 1.959,1.829 1.605,2.288 0.355,1.684 0.421,1.684 1.118,2.896 0.355,1.683 1.474,2.446 1.539,2.289 0.987,3.132 0.21,1.828 v 1.75 l -0.356,3.051 0.356,1.685 1.118,2.894 1.118,2.895 0.21,1.908 0.211,1.828 0.421,1.684 0.209,1.906 -1.474,2.211 2.609,-0.648 2.733,1.306 4.723,1.104 5.736,-4.156 -1.119,-2.078 4.381,-0.618 3.04,-8.695 2.026,-0.118 -0.896,-6.368 -2.026,-1.959 1.355,-2.815 -2.026,-1.593 1.802,-6.497 2.816,-0.369 3.262,2.329 1.579,-2.329 3.604,3.065 8.103,-0.118 5.065,2.696 1.236,-2.328 4.618,-0.986 1.354,-6.367 5.513,2.815 1.237,2.447 4.617,-1.594 2.591,2.58 3.19,0.722 3.216,-1.077 -3.71,-13.352 -0.565,-14.708 1.354,-3.435 -1.012,-5.274 -2.473,-0.737 -1.803,-0.617 -1.355,-3.315 6.078,-7.235 -1.802,-8.222 5.065,-2.828 0.894,-5.275 -0.447,-1.723 -5.394,-1.355 -3.827,-4.789 -0.12,-2.946 2.473,-1.96 5.289,-11.549 -4.499,-2.829 -3.038,-10.327 -2.026,-1.96 2.696,-2.71 0.565,-5.156 -4.381,-1.592 2.473,-5.039 3.263,1.224 1.685,-1.105 -2.131,-1.473 v -2.092 l 4.499,-1.604 -4.947,-9.708 -0.895,-6.525 5.513,-4.551 -4.618,-5.789 -5.511,-1.605 1.802,-2.21 -0.672,-2.828 -0.792,-1.063 -1.036,-1.029 3.144,-9.854 -2.473,-3.078 3.934,-6.775 -2.814,-1.723 -1.237,1.973 -2.026,-4.802 -3.262,-0.25 -3.71,-3.446 -0.789,-3.197 h -2.368 l -1.684,9.853 -2.026,-0.486 1.118,-3.329 -2.591,-2.341 -0.894,5.67 -2.816,1.973 -0.223,-21.192 1.46,-3.447 -1.579,-0.868 1.802,-4.315 -3.934,-5.669 0.397,-2.622 z"
     style="fill:#a30000;fill-opacity:1;stroke:#a30000;stroke-opacity:1" /><path
     id="Aizawl"
     d="m 184.583,59.35 -2.133,3.092 2.026,0.868 -0.343,2.224 -1.684,1.723 1.684,2.105 -4.945,7.038 -2.473,0.737 1.236,2.96 -2.92,2.473 h 1.801 l 2.814,6.051 0.225,2.592 -3.145,1.974 -0.225,7.774 3.039,0.119 2.131,2.341 2.367,-2.71 2.133,3.079 -0.225,7.274 -1.461,1.605 -0.117,7.642 -2.25,0.869 0.118,4.196 -2.813,3.815 1.013,2.829 -5.617,9.616 0.894,1.842 -2.919,6.893 0.447,7.262 -2.367,6.157 -1.118,-2.21 -1.014,2.592 -3.71,-2.828 -8.208,1.354 -6.524,4.92 -0.447,2.959 -3.039,-0.986 -0.118,2.96 -5.394,2.092 -7.867,-1.723 -2.131,3.934 -3.828,-0.737 -2.473,3.565 -4.499,-1.724 -3.486,2.579 0.672,2.828 -1.802,2.21 5.511,1.605 4.618,5.789 -5.513,4.551 0.895,6.525 4.947,9.708 -4.499,1.604 v 2.092 l 2.131,1.473 -1.685,1.105 -3.263,-1.224 -2.473,5.039 4.381,1.592 -0.565,5.156 -2.696,2.71 2.026,1.96 3.038,10.327 4.499,2.829 -5.289,11.549 -2.473,1.96 0.12,2.946 3.827,4.789 5.394,1.355 0.447,1.723 -0.894,5.275 -5.065,2.828 1.802,8.222 -6.078,7.235 1.355,3.315 1.803,0.617 2.473,0.737 1.012,5.274 -1.354,3.435 0.565,14.708 3.07,11.229 0.64,2.109 1.579,2.815 -1.237,1.591 2.697,-0.118 1.46,3.435 -1.578,7.839 1.907,5.144 0.672,0.335 6.076,3.35 3.039,-12.13 v -6.616 l 8.104,5.512 18.22,4.406 -3.039,-29.769 -9.116,-6.617 -2.025,-15.457 v -22.087 l 3.038,-8.84 7.091,1.105 -1.014,11.05 2.026,13.247 12.143,2.21 6.077,8.828 11.129,-8.828 10.115,-3.314 10.459,8.589 1.484,-0.766 4.383,-3.404 -2.369,-10.918 0.672,-3.801 -1.684,-3.065 0.67,-15.957 -1.802,-8.958 1.802,-8.722 -1.684,-1.354 -0.447,-5.039 2.368,-2.091 -2.474,-6.88 -0.447,-7.617 -1.803,-0.25 -1.461,-3.565 2.026,-5.289 -2.921,-4.67 2.025,-6.275 -6.971,-6.643 -1.58,-6.393 4.842,-5.788 -3.262,-5.789 3.262,-8.129 -0.565,-23.271 -0.894,-5.419 -6.975,0.006 1.539,-9.241 3.934,-2.091 0.896,-5.92 3.146,-2.092 -0.566,-3.697 1.907,-2.223 -1.907,-4.314 3.368,-0.619 1.459,-2.841 -0.788,-5.184 1.802,-0.987 -4.944,-5.919 1.802,-4.933 -1.46,-2.473 6.865,-10.484 2.025,-6.906 -5.511,-0.869 0.118,-7.656 -1.237,-1.605 1.804,-2.842 -5.486,-3.407 -0.475,-0.171 -2.131,-0.619 -4.156,-0.618 -3.828,3.328 -2.367,-2.473 -3.828,2.473 -6.184,-4.815 -1.354,4.947 -2.473,0.246"
     style="fill:#a30000;fill-opacity:1;stroke:#a30000;stroke-opacity:1" /><path
     id="Sercchip"
     d="m 132.917,357.062 0.506,1.364 -1.355,7.473 2.697,17.509 2.697,2.446 0.447,4.156 3.709,-0.734 0.225,-12.604 3.933,2.328 3.263,-0.249 1.236,1.708 3.71,-1.708 2.473,1.708 8.88,0.118 1.907,-4.406 2.473,-0.855 3.369,2.448 0.564,3.551 2.368,2.328 -0.447,5.263 2.368,6.366 4.841,0.975 2.592,-2.446 5.064,-1.104 1.117,-2.197 4.156,0.976 -0.224,4.154 4.382,1.343 1.354,2.446 v 11.379 l 15.522,10.144 4.498,-0.605 1.236,1.828 -0.672,6.841 9.788,3.671 0.788,2.078 9.314,5.446 0.25,1.118 0.422,-2.514 0.104,-2.262 0.407,-2.421 -0.198,-1.895 1.054,-1.368 1.303,-1.172 -0.514,-2.303 1.775,-0.183 0.5,1.709 1.748,-0.447 0.908,1.5 0.987,1.354 1.263,-1.131 2.156,-0.054 2.487,-2.498 1.763,-0.041 0.725,1.447 1.223,-0.736 -0.195,-1.5 0.787,-19.562 -7.09,-18.72 -9.115,-4.407 -7.092,-8.813 -17.102,-2.564 -0.565,-3.184 -3.935,-1.224 -1.801,-2.447 -0.225,-6.734 6.63,-6.117 4.157,-12.615 -3.934,-5.631 0.446,-5.762 -2.132,-3.921 1.908,-4.288 -2.131,-2.446 0.447,-4.42 -6.631,-4.052 3.934,-6.5 -2.256,-1.642 -8.215,-6.947 -10.117,3.314 -11.129,8.828 -6.076,-8.828 -12.144,-2.21 -2.026,-13.247 1.014,-11.05 -7.091,-1.105 -3.038,8.84 v 22.087 l 2.025,15.457 9.116,6.617 3.039,29.769 -18.22,-4.406 -8.104,-5.512 v 6.616 l -3.039,12.13 -5.364,-3.075 -0.99,-0.438"
     style="fill:#a30000;fill-opacity:1;stroke:#a30000;stroke-opacity:1" /><path
     id="Lunglei"
     d="m 54.876,368.319 4.722,1.723 4.723,1.104 5.736,-4.156 -1.119,-2.078 4.381,-0.618 3.04,-8.695 2.026,-0.118 -0.896,-6.368 -2.026,-1.959 1.355,-2.815 -2.026,-1.593 1.802,-6.497 2.816,-0.369 3.262,2.329 1.579,-2.329 3.604,3.065 8.103,-0.118 5.065,2.696 1.236,-2.328 4.618,-0.986 1.354,-6.367 5.513,2.815 1.237,2.447 4.617,-1.594 2.591,2.58 6.406,-0.369 1.579,2.815 -1.237,1.591 2.697,-0.118 1.46,3.435 -1.578,7.839 1.907,5.144 -1.355,7.473 2.697,17.509 2.697,2.447 0.447,4.155 3.709,-0.735 0.225,-12.603 3.933,2.328 3.263,-0.249 1.236,1.708 3.71,-1.708 2.473,1.708 8.88,0.118 1.907,-4.406 2.473,-0.855 3.369,2.447 0.564,3.553 2.368,2.328 -0.447,5.262 2.368,6.367 4.841,0.974 2.592,-2.446 5.064,-1.104 1.117,-2.197 4.156,0.975 -0.224,4.155 4.382,1.343 1.354,2.446 v 11.379 l 15.522,10.144 4.498,-0.605 1.236,1.828 -0.672,6.841 9.788,3.671 0.788,2.078 9.314,5.446 0.131,0.579 -0.25,1.628 1.344,1.911 1.025,1.434 1.617,-0.078 0.369,2.616 1.341,1.592 -1.196,1.277 -0.314,2.893 0.814,1.526 -0.25,1.803 1.5,1.63 -0.304,2.594 1.265,2.655 0.854,1.646 2.04,0.342 0.802,2 -1.656,0.171 -2.065,0.093 -2.774,-1.381 -2.408,2.749 1.303,3.078 -1.209,2.46 -0.961,1.921 -0.289,2.145 -1.303,2.735 -0.828,3.475 -0.436,1.854 -1.17,1.619 0.525,1.657 -1.946,0.264 1.552,1.552 -1.855,2.342 -2.037,1.264 0.512,1.657 0.094,2.329 -0.486,1.881 -1.146,-2.105 -2.552,-2.288 1.854,-2.631 -5.906,2.209 v 1.71 l -1.907,0.605 -6.183,-1.093 -0.672,3.288 -2.367,-0.117 -2.369,2.935 -1.012,5.485 -6.524,-1.093 -4.947,-6.223 -4.724,-2.565 -4.379,0.368 1.684,3.421 -2.814,3.17 v 9.881 l 4.275,5.853 -0.672,11.827 5.289,9.866 -1.461,14.26 -2.864,4.726 -1.646,1.315 -4.555,2.181 -3.367,-10.59 -4.053,0.605 -9.786,-10.604 -9.341,-1.829 -1.118,5.485 -1.802,0.737 1.907,10.234 -6.63,10.958 1.014,7.918 h -4.275 l -2.369,-11.813 -14.391,-13.154 -0.447,-8.406 -5.512,-1.092 -6.972,2.065 -0.565,-7.92 -3.263,-2.92 0.342,-2.803 -2.814,-0.974 -0.671,-2.802 -2.026,0.369 -2.368,-4.264 -0.119,-6.945 -4.617,-7.802 -0.789,3.289 -2.591,1.71 -5.959,-6.944 -5.736,-1.093 -3.829,4.631 0.447,2.314 -0.957,0.013 -1.044,0.5 -0.407,-0.303 -3.051,-1.434 -2.527,-0.986 -1.749,-2.053 -1.263,-2.656 -0.421,-1.671 -0.356,-1.671 -0.42,-1.67 -0.356,-1.592 -0.421,-1.673 -1.052,-2.88 -1.118,-2.895 -0.21,-1.896 -0.421,-1.592 0.632,-2.893 1.815,-1.975 0.065,-2.657 -1.604,-2.212 -1.394,-2.513 -0.21,-1.826 -0.211,-1.896 -1.604,-2.276 -2.947,-0.604 -2.026,-1.592 -1.75,-2.053 -2.591,-1.065 -2.106,-1.592 -0.209,-1.907 -2.236,-1.447 -2.105,-1.592 -0.42,-1.671 0.42,-3.038 v -3.421 l -0.065,-1.67 0.21,-3.276 v -1.67 l 0.354,-3.118 0.211,-3.196 0.356,-3.039 0.21,-1.591 0.631,-2.896 v -1.67 l -0.065,-1.75 -0.211,-1.828 -0.21,-1.907 -0.987,-3.053 -1.263,-2.736 -1.75,-2.051 -1.263,-2.671 -0.21,-1.828 -0.209,-1.908 v -1.749 l -0.276,-1.828 v -1.672 l -0.21,-1.906 -0.211,-1.829 -0.421,-1.67 -0.21,-1.908 -0.209,-1.827 -0.21,-1.909 -0.066,-1.671 v -3.432 l -0.21,-1.83 -0.028,-1.918 -0.276,-1.83 -0.209,-1.906 0.631,-2.896 1.815,-1.906 2.525,-3.196 0.987,-2.513 1.604,-2.132 0.616,-1.066 4.722,1.723 4.723,1.104 5.736,-4.156 -1.119,-2.078 4.381,-0.618 3.04,-8.695 2.026,-0.118 -0.896,-6.368 -2.026,-1.959 1.355,-2.815 -2.026,-1.593 1.802,-6.497 2.816,-0.369 3.262,2.329 1.579,-2.329 3.604,3.065 8.103,-0.118 5.065,2.696 1.236,-2.328 4.618,-0.986 1.354,-6.367 5.513,2.815 1.237,2.447 4.617,-1.594 2.591,2.58 6.406,-0.369 1.579,2.815 -1.237,1.591 2.697,-0.118 1.46,3.435 -1.578,7.839 1.907,5.144 -1.355,7.473 2.697,17.509 2.697,2.447 0.447,4.155 3.709,-0.735 0.225,-12.603 3.933,2.328 3.263,-0.249 1.236,1.708 3.71,-1.708 2.473,1.708 8.88,0.118 1.907,-4.406 2.473,-0.855 3.369,2.447 0.564,3.553 2.368,2.328 -0.447,5.262 2.368,6.367 4.841,0.974 2.592,-2.446 5.064,-1.104 1.117,-2.197 4.156,0.975 -0.224,4.155 4.382,1.343 1.354,2.446 v 11.379 l 15.522,10.144 4.498,-0.605 1.236,1.828 -0.672,6.841 9.788,3.671 0.788,2.078 9.314,5.446"
     style="fill:#a30000;fill-opacity:1;stroke:#a30000;stroke-opacity:1" /><path
     id="Saiha"
     d="m 235.533,500.224 -0.343,1.895 0.974,2.395 0.645,2.42 -0.262,1.764 1.209,1.514 0.264,2.709 -0.829,1.486 -0.868,2.422 -0.564,1.946 -0.131,1.645 -1.475,2.46 0.303,1.632 1.514,2.287 -0.565,1.937 1.341,1.539 -1.813,0.381 0.171,2.499 0.986,1.343 1.763,2.498 0.672,1.725 0.263,1.92 -0.777,1.46 1.146,1.265 1.749,1.921 1.619,0.289 1.024,1.604 1.25,1.828 0.738,2.475 0.959,3.077 -0.225,1.828 -1.053,1.672 -1.762,0.564 -0.726,2.185 -0.999,1.315 -1.645,0.749 -0.815,1.802 -0.474,2.119 0.039,2.591 0.697,1.592 -1.475,1.329 2.079,0.896 2.396,-0.133 0.553,1.816 -0.698,1.92 0.093,1.921 1.288,2.367 1.354,1.724 -0.092,2.157 -0.513,1.525 -0.302,2.5 1.552,2.276 0.71,1.445 3.078,0.04 1.947,0.685 1.974,2.313 1.841,0.646 0.461,2.053 2.026,1.17 -0.487,1.775 0.053,3.421 0.961,1.894 -1.039,1.606 0.525,1.617 1.17,2.024 -1.644,2.237 0.985,2.223 -0.248,2.014 0.262,3.274 -0.303,1.697 1.5,1.697 1.236,2.118 -1.328,0.934 0.764,2.013 -0.711,1.749 0.895,1.855 -1.592,0.618 2.186,1.354 -0.936,1.775 0.564,1.843 0.264,2.999 1.078,1.946 -0.604,2.172 -1.578,0.563 -1.435,1.04 -1.75,0.593 -2.538,0.486 -1.657,-0.908 -1.961,0.855 -1.591,-0.605 -1.948,0.936 0.173,1.895 0.683,2.303 1.225,2.434 0.434,1.631 0.252,1.763 0.774,1.604 1.265,2.014 -0.869,1.617 -2.563,1.355 -1.817,0.224 -3.076,-0.382 -2.026,-1.67 -1.539,-2.276 -2.104,-1.592 -3.012,-0.447 -2.867,-0.604 -2.869,-0.604 h -1.683 l -1.685,0.382 -2.658,1.21 -0.486,2.723 0.777,3.25 v 1.671 l -1.396,2.276 -0.631,2.866 0.211,1.815 0.209,1.895 1.264,2.645 1.054,2.867 0.354,1.658 -3.078,0.906 -3.014,-0.445 h -1.684 l -2.237,1.592 -1.052,2.563 -0.631,2.868 -1.197,2.42 -1.264,2.342 -1.407,2.264 -0.421,3.024 0.355,1.593 1.262,2.723 1.054,2.869 0.907,3.024 0.421,1.657 0.211,1.896 -1.474,2.196 -2.446,1.354 -2.525,-0.986 -1.75,-2.039 -1.396,-2.498 -1.406,-2.422 -1.75,-2.039 -3.157,-0.224 -2.446,1.434 -1.474,2.197 -0.776,2.724 -0.631,2.867 -0.633,2.868 -0.986,2.566 -1.052,2.484 -1.815,2.118 -1.961,0.749 -1.405,-2.42 -0.211,-1.896 -0.21,-1.813 v -1.657 l -0.211,-1.896 -0.211,-1.814 -0.209,-1.895 -0.211,-1.814 -0.356,-1.659 -1.117,-2.867 -1.407,-2.42 -1.539,-2.263 -1.604,-2.264 -1.895,-1.814 0.46,-1.697 -1.579,-4.734 v -14.444 l -3.486,-33.046 1.461,-8.629 -2.592,-3.645 -1.355,-6.813 1.237,-2.064 4.156,0.854 2.249,2.671 2.699,-0.975 4.381,-9.115 12.363,-10.341 2.816,1.579 -1.119,1.341 1.119,2.315 3.484,0.854 1.461,-1.459 1.013,-4.132 -3.604,-2.064 -2.475,-10.34 0.79,-7.788 -2.474,-4.012 1.236,-13.144 -1.684,-6.813 3.709,-5.604 1.461,-14.26 -5.289,-9.866 0.672,-11.827 -4.275,-5.853 v -9.88 l 2.814,-3.171 -1.684,-3.421 4.379,-0.367 4.724,2.564 4.947,6.223 6.524,1.093 1.012,-5.485 2.369,-2.935 2.367,0.117 0.672,-3.287 6.183,1.092 1.907,-0.605 v -1.71 l 5.906,-2.209 2.041,1.837 0.25,3 -0.449,2.188"
     style="fill:#a30000;fill-opacity:1;stroke:#a30000;stroke-opacity:1" /></g><g
   id="layer2"><path
     d="m 111.31,721.502 0.304,-0.685 2.446,-1.355 2.026,-1.735 1.815,-1.896 1.474,-2.262 1.606,-2.039 2.446,-1.436 3.078,0.604 2.736,-0.907 1.606,-2.038 0.565,-2.869 v -5.063 l -0.21,-1.815 -0.211,-1.896 -0.421,-1.592 -0.354,-1.656 -0.21,-1.896 -0.211,-1.814 2.237,0.08 2.236,1.434 1.263,-1.657 -0.21,-1.814 -0.211,-1.816 -0.21,-1.894 -0.21,-1.815 v -1.735 l -0.211,-1.815 0.211,-3.249 2.025,-1.658 1.604,-0.38 2.867,0.604 1.961,1.814 1.895,2.039 2.026,1.591 2.314,1.658 2.381,1.21 2.525,0.986 2.447,1.434 2.171,1.436 2.104,1.592 1.894,1.894 1.54,2.197 1.604,2.264 1.539,2.263 1.894,1.814 2.237,1.435 2.525,1.053 1.895,1.813 1.604,2.265 1.539,2.263 1.408,2.42 1.117,2.867 0.355,1.659 0.211,1.813 0.209,1.896 0.211,1.813 0.211,1.896 v 1.657 l 0.211,1.813 0.211,1.896 1.406,2.42 1.961,-0.749 1.814,-2.118 1.053,-2.485 0.985,-2.565 0.633,-2.868 0.63,-2.867 0.777,-2.724 1.473,-2.197 2.447,-1.434 3.157,0.224 1.75,2.039 1.407,2.422 1.395,2.498 1.75,2.039 2.525,0.986 2.445,-1.354 1.475,-2.197 -0.211,-1.895 -0.42,-1.657 -0.908,-3.025 -1.053,-2.868 -1.264,-2.723 -0.355,-1.593 0.422,-3.025 1.408,-2.263 1.263,-2.342 1.196,-2.42 0.631,-2.868 1.053,-2.564 2.236,-1.592 h 1.685 l 3.013,0.446 3.078,-0.906 -0.354,-1.659 -1.055,-2.866 -1.263,-2.645 -0.209,-1.895 -0.211,-1.815 0.632,-2.867 1.395,-2.275 v -1.671 l -0.776,-3.25 0.486,-2.723 2.657,-1.21 1.686,-0.382 h 1.684 l 2.867,0.604 2.868,0.605 3.013,0.447 2.104,1.592 1.539,2.275 2.025,1.671 3.077,0.382 1.817,-0.225 2.563,-1.354 0.869,-1.617 -1.264,-2.014 -0.775,-1.604 -0.25,-1.763 -0.435,-1.631 -1.224,-2.435 -0.684,-2.302 -0.173,-1.895 1.948,-0.936 1.591,0.605 1.961,-0.855 1.657,0.908 2.537,-0.487 1.75,-0.592 1.436,-1.04 1.578,-0.563 0.604,-2.172 -1.076,-1.946 -0.265,-2.999 -0.565,-1.843 0.936,-1.775 -2.186,-1.354 1.593,-0.617 -0.894,-1.855 0.709,-1.749 -0.763,-2.013 1.328,-0.935 -1.237,-2.117 -1.498,-1.697 0.301,-1.697 -0.262,-3.275 0.25,-2.013 -0.986,-2.223 1.644,-2.237 -1.17,-2.025 -0.526,-1.616 1.039,-1.606 -0.959,-1.894 -0.054,-3.422 0.487,-1.774 -2.026,-1.17 -0.461,-2.053 -1.841,-0.646 -1.975,-2.313 -1.947,-0.685 -3.077,-0.04 -0.71,-1.446 -1.553,-2.275 0.303,-2.5 0.513,-1.525 0.093,-2.158 -1.355,-1.723 -1.288,-2.367 -0.093,-1.921 0.697,-1.92 -0.553,-1.817 -2.395,0.134 -2.08,-0.896 1.475,-1.329 -0.697,-1.592 -0.039,-2.591 0.475,-2.119 0.814,-1.802 1.646,-0.749 0.999,-1.315 0.725,-2.185 1.764,-0.564 1.052,-1.672 0.224,-1.828 -0.959,-3.078 -0.738,-2.474 -1.248,-1.828 -1.025,-1.604 -1.619,-0.289 -1.749,-1.922 -1.146,-1.264 0.775,-1.46 -0.262,-1.92 -0.672,-1.725 -1.764,-2.498 -0.985,-1.344 -0.171,-2.499 1.813,-0.381 -1.341,-1.539 0.564,-1.936 -1.514,-2.287 -0.302,-1.632 1.474,-2.46 0.131,-1.646 0.565,-1.945 0.868,-2.423 0.829,-1.485 -0.263,-2.709 -1.211,-1.515 0.262,-1.763 -0.643,-2.42 -0.975,-2.395 0.342,-1.895 -0.093,-2.329 -0.513,-1.657 2.039,-1.263 1.854,-2.342 -1.552,-1.552 1.945,-0.265 -0.524,-1.656 1.17,-1.619 0.435,-1.854 0.828,-3.474 1.303,-2.736 0.289,-2.144 0.961,-1.921 1.211,-2.46 -1.303,-3.078 2.407,-2.749 2.774,1.381 2.064,-0.093 1.657,-0.171 -0.802,-2 -2.04,-0.343 -0.854,-1.645 -1.264,-2.656 0.303,-2.593 -1.5,-1.63 0.25,-1.804 -0.814,-1.525 0.314,-2.894 1.197,-1.276 -1.341,-1.592 -0.369,-2.616 -1.618,0.078 -1.025,-1.435 -1.554,-1.354 0.58,-1.646 0.421,-2.513 0.105,-2.262 0.406,-2.421 -0.197,-1.896 1.054,-1.368 1.302,-1.172 -0.513,-2.302 1.774,-0.184 0.5,1.709 1.75,-0.446 0.908,1.5 0.986,1.354 1.264,-1.131 2.155,-0.053 2.487,-2.498 1.763,-0.041 0.724,1.447 2.014,-0.686 1.236,1.343 1.842,0.657 0.513,2.907 0.935,1.592 0.369,2.105 1.814,0.513 1.46,0.749 0.354,1.987 1.973,1.078 1.896,0.314 1.593,-0.275 2.789,-0.224 1.959,-0.395 1.303,1.474 1.354,-1.079 2.421,0.617 0.92,-1.472 1.303,-1.448 1.158,-1.197 1.947,0.016 0.064,-1.646 1.395,-1.265 1.014,-1.288 1.025,-1.499 0.211,-1.763 1.053,-1.515 0.75,-1.842 1.896,0.118 0.104,-2.446 1.012,-1.276 -2.077,-0.473 1.014,-1.579 0.593,-1.776 1.223,-1.155 0.895,-1.619 0.211,-1.685 0.881,-1.985 -0.5,-1.579 1.869,0.172 0.789,-1.618 1.538,-1.25 0.804,-1.554 1.895,-0.144 0.459,-1.593 -0.395,-1.604 -1.867,0.933 -1.631,-0.209 -0.236,-1.765 0.091,-2.13 0.698,-1.725 0.025,-2.289 -0.263,-1.695 1.644,-1.315 0.488,-1.685 -0.436,-1.776 0.553,-1.603 -1.263,-1.238 0.843,-1.814 0.814,-1.565 1.656,0.211 -0.828,-1.447 -1.131,-1.907 -0.553,-1.748 -0.408,-2.093 -0.289,-1.736 -1.697,-0.369 0.158,-1.617 -0.17,-2.105 -0.986,-1.552 0.92,-1.672 -0.475,-1.617 0.672,-1.658 -0.881,-1.974 0.578,-1.539 -0.908,-1.617 1.446,-1.157 -1.539,-0.948 1.462,-1.104 -0.658,-1.539 1.211,-1.578 -1.158,-1.276 -1.486,-0.947 -0.908,-2.302 -0.617,-1.697 1.092,-1.197 1.658,-0.211 1.973,-0.578 1.828,0.093 1.525,-0.566 0.211,-1.723 -0.592,-1.526 1.578,-0.697 0.803,-1.723 1.408,-0.789 0.025,-1.658 -1.066,-1.946 -1.092,-1.237 -0.42,-1.554 -0.25,-1.932 -0.545,-1.638 0.553,-1.764 -0.33,-1.685 0.105,-1.854 -0.434,-1.696 1.289,-1.342 -0.158,-1.671 0.436,-1.658 0.867,-1.459 0.197,-1.83 -1.436,-0.801 0.777,-1.645 -0.396,-1.564 0.186,-1.699 0.092,-1.906 0.395,-1.684 1.592,-0.593 0.291,-1.815 1.17,-1.394 0.908,-1.513 0.658,-1.618 0.854,-1.697 -0.84,-1.435 -0.447,-1.973 -0.238,-1.881 0.355,-1.671 0.5,-1.526 1.631,-0.157 0.08,-1.658 0.078,-1.671 1.447,-1.355 -0.289,-1.657 -0.75,-1.46 -0.094,-1.605 -0.801,-1.486 0.354,-1.632 -0.514,-1.539 0.686,-1.5 0.184,-1.67 -1.564,-0.631 -0.039,-1.671 -0.172,-1.631 0.814,-1.513 0.738,-1.565 0.734,-1.513 1.039,-1.395 0.869,-1.487 0.514,-1.552 0.234,-1.618 -2.313,-0.513 -1.014,-1.539 -2.158,-2.408 -1.406,-1.157 0.262,-2.645 0.041,-3.223 -1.314,-1.973 -1.275,-3.315 -1.369,-1.736 0.039,-2.697 0.172,-2.986 v -3.262 l 1.447,-1.684 0.789,-1.881 -0.527,-2.263 -1.273,-1.631 -1.238,-2.263 -0.656,-1.631 -0.172,-3.026 -0.617,-2.302 0.131,-3.419 0.395,-1.737 -0.564,-1.973 0.092,-1.631 0.303,-2.17 0.619,-2.315 0.395,-2.5 0.225,-2.354 0.303,-2.697 -0.566,-2 -2.156,-0.934 -2.053,-0.092 -2.396,0.092 -1.235,-1.157 -1.498,-1.736 -0.265,-1.92 -0.618,-1.632 -0.843,-1.395 -0.841,-2.315 -1.448,-2.17 -1.841,-1.921 1.104,-2.354 0.065,-1.684 -0.21,-4.104 -0.407,-1.737 1.841,-0.42 -0.895,-1.474 -1.514,-0.96 0.83,-1.394 0.209,-1.618 -2.234,-0.197 -0.402,-0.73 -0.139,-0.94 -9.194,-0.737 -3.604,4.802 -4.723,2.828 -0.67,-2.828 3.604,-7.262 -0.788,-3.447 -3.935,-3.446 -2.92,0.368 -2.474,-0.736 -2.474,10.103 -11.813,-1.355 v -5.538 l -5.617,-3.578 -3.145,2.459 -1.459,4.184 -7.197,5.17 0.344,-8.012 -5.736,-8.011 -6.524,3.447 -14.392,-7.144 -5.064,0.487 -0.628,-0.628 -0.069,-1.95 3.935,-2.091 0.896,-5.92 3.145,-2.092 -0.566,-3.697 1.907,-2.223 -1.907,-4.314 3.368,-0.619 1.459,-2.841 -0.788,-5.184 1.803,-0.987 -4.945,-5.919 1.802,-4.933 -1.46,-2.473 6.865,-10.484 2.025,-6.906 -5.511,-0.869 0.118,-7.656 -1.237,-1.605 1.804,-2.842 -5.485,-3.407 -0.476,-0.171 -2.131,-0.619 -4.156,-0.618 -3.828,3.328 -2.366,-2.473 -3.829,2.473 -6.184,-4.815 -1.354,4.947 -2.474,0.25 -1.354,-2.223 -7.09,0.869 -4.617,5.433 -2.92,0.868 -1.908,-3.827 1.579,-2.842 -5.513,-5.183 -2.249,0.118 0.565,-2.341 -9.563,-25.955 -2.921,3.829 -12.483,36.32 -1.802,0.619 -1.579,5.314 -1.684,1.973 -6.63,1.104 -2.131,4.078 h -2.024 l -0.79,-1.854 -3.485,0.737 -3.145,21.968 -5.959,2.342 -5.958,-1.355 -3.487,1.105 -4.506,18.01 -1.802,2.223 -2.591,-0.737 -1.684,1.724 1.118,1.855 -2.025,-1.355 -1.237,1.855 -3.604,-0.369 -1.236,5.67 -3.828,1.855 -5.513,-5.052 -1.683,0.487 -0.79,-8.261 -3.829,-3.697 0.896,-16.154 -29.636,-0.178 -2.081,0.506 0.224,6.788 4.052,1.105 -1.014,2.342 3.71,2.46 1.237,4.065 -0.224,6.906 2.13,5.302 -2.13,2.223 0.789,11.089 -0.565,4.565 -1.684,1.354 -1.461,2.96 1.237,2.223 -1.908,6.524 3.71,12.432 -4.381,8.13 0.447,7.143 4.157,3.197 0.342,3.078 -3.71,7.866 1.014,4.802 -6.406,0.119 -0.789,-1.723 -4.275,6.275 3.039,8.853 -6.972,0.487 2.631,26.546 1.828,1.632 1.815,2.065 1.407,2.525 0.277,1.842 -0.21,1.605 -0.843,2.749 -1.197,2.447 -1.052,2.604 -0.64,2.904 -0.356,3.052 1.75,2.065 -0.211,2.908 -0.209,2.907 1.604,2.289 1.75,2.065 1.474,2.447 1.118,2.907 0.565,1.526 0.908,3.052 0.211,1.907 0.631,3.513 0.21,1.907 0.421,1.685 0.354,1.604 0.421,1.684 0.421,1.685 0.209,1.906 0.21,1.829 0.211,1.907 0.21,1.829 0.276,1.907 0.21,1.828 0.211,1.908 v 1.684 l 0.065,3.433 1.75,2.066 1.959,1.829 1.605,2.288 0.355,1.684 0.421,1.684 1.118,2.896 0.355,1.683 1.474,2.446 1.539,2.289 0.987,3.132 0.21,1.828 v 1.75 l -0.356,3.051 0.356,1.685 1.118,2.894 1.118,2.895 0.21,1.908 0.211,1.828 0.421,1.684 0.209,1.906 -1.474,2.211 -1.604,2.132 -0.987,2.513 -2.525,3.195 -1.815,1.906 -0.631,2.896 0.209,1.906 0.276,1.83 0.028,1.918 0.21,1.83 v 3.433 l 0.066,1.67 0.21,1.909 0.209,1.828 0.21,1.907 0.421,1.67 0.211,1.829 0.21,1.906 v 1.672 l 0.276,1.828 v 1.749 l 0.209,1.908 0.21,1.828 1.263,2.671 1.75,2.051 1.263,2.736 0.987,3.053 0.21,1.907 0.211,1.828 0.065,1.75 v 1.67 l -0.631,2.896 -0.21,1.591 -0.356,3.039 -0.211,3.196 -0.354,3.118 v 1.67 l -0.21,3.276 0.065,1.67 v 3.421 l -0.42,3.038 0.42,1.671 2.105,1.592 2.236,1.447 0.209,1.908 2.106,1.591 2.591,1.065 1.75,2.053 2.026,1.592 2.947,0.604 1.604,2.276 0.211,1.896 0.21,1.826 1.394,2.514 1.604,2.211 -0.065,2.657 -1.815,1.975 -0.632,2.893 0.421,1.592 0.21,1.896 1.118,2.895 1.052,2.881 0.421,1.672 0.356,1.592 0.42,1.67 0.356,1.671 0.421,1.671 1.263,2.656 1.749,2.053 2.527,0.986 3.051,1.434 1.645,1.225 1.395,2.513 0.42,2.053 v 3.185 l 0.21,1.828 0.21,1.895 0.421,1.592 0.209,1.895 0.211,1.829 0.21,1.894 0.421,1.672 0.211,1.815 0.42,1.67 0.211,1.813 0.21,1.896 0.21,1.814 0.211,1.896 0.354,1.67 0.276,1.815 0.21,1.895 v 3.342 l -0.776,2.736 -1.052,2.578 -0.421,3.038 0.276,1.895 1.263,2.657 1.685,2.053 1.263,2.656 0.276,1.896 0.211,1.815 v 1.67 l 0.21,1.896 v 1.67 l 0.209,1.896 V 587 l 0.276,1.896 v 3.342 l 0.21,1.894 0.211,1.816 0.21,1.894 0.211,1.814 0.209,1.896 0.066,1.67 0.209,1.815 0.356,1.671 0.421,1.67 0.354,1.592 0.421,1.672 1.052,2.881 1.118,2.882 1.263,2.656 0.908,3.104 0.354,1.671 0.211,1.815 0.21,1.894 0.066,1.671 v 5.077 l -0.355,3.026 -0.21,3.249 0.356,1.592 1.472,2.5 0.908,3.025 v 1.734 l 0.21,1.816 v 1.735 l -0.21,3.184 0.276,1.814 v 1.737 l 0.21,1.814 0.354,1.672 0.421,1.67 0.354,1.592 2.105,1.671 1.052,2.868 -0.421,3.025 -0.776,2.723 -1.539,1.514 -2.38,-1.211 -3.013,-0.381 -1.815,0.146 -1.119,2.195 1.474,2.5 1.395,2.42 0.907,3.105 0.355,1.592 0.276,1.895 0.354,1.657 0.211,1.815 0.421,1.657 0.354,1.656 0.21,1.815 0.211,1.814 0.21,1.896 0.209,1.815 0.211,1.895 0.421,1.592 0.354,1.657 0.908,3.091 0.421,1.658 0.354,1.592 0.421,1.657 v 1.657 l 0.135,0.774"
     id="path1355"
     style="fill:none;stroke:none;stroke-width:1;stroke-miterlimit:4;stroke-dasharray:none;stroke-opacity:1" /></g></svg>