<?xml version="1.0" encoding="UTF-8" standalone="no"?>
<svg
   xmlns:dc="http://purl.org/dc/elements/1.1/"
   xmlns:cc="http://creativecommons.org/ns#"
   xmlns:rdf="http://www.w3.org/1999/02/22-rdf-syntax-ns#"
   xmlns:svg="http://www.w3.org/2000/svg"
   xmlns="http://www.w3.org/2000/svg"
   id="svg944"
   version="1.1"
   viewBox="0 0 228.64665 220.22435"
   height="220.22435mm"
   width="228.64665mm">
  <defs
     id="defs938" />
  <metadata
     id="metadata941">
    <rdf:RDF>
      <cc:Work
         rdf:about="">
        <dc:format>image/svg+xml</dc:format>
        <dc:type
           rdf:resource="http://purl.org/dc/dcmitype/StillImage" />
        <dc:title></dc:title>
      </cc:Work>
    </rdf:RDF>
  </metadata>
  <path
     d="m 222.87739,3.6e-4 c -1.43393,1.29036 -2.8676,2.58073 -4.30154,3.87109 -0.68773,0.38537 -0.90798,1.40238 -1.77819,1.41335 -0.80331,0.38737 -1.47615,1.11151 -2.32854,1.46244 -0.68247,0.12933 -1.33388,0.47521 -1.40198,1.23352 0.075,1.21682 -1.2914,1.55545 -2.09289,2.13888 -0.85249,0.70587 -1.92592,0.85573 -2.97708,1.06195 -1.08069,0.0362 -1.67423,1.24761 -2.79725,1.13844 -1.02614,0.006 -1.94001,0.52221 -2.64428,1.2423 -0.62042,0.97529 -1.83227,0.43089 -2.76262,0.58652 -0.67976,-0.0895 -1.64262,-0.33856 -1.23041,0.73691 -0.76371,0.3575 -1.10475,-0.47237 -1.62162,-0.82269 -0.53807,-0.32844 -1.3739,-0.37099 -1.37201,-1.19166 -0.18072,-0.77733 -1.14484,-1.20694 -1.83193,-0.77204 -0.59464,0.18434 -1.22652,0.34988 -1.8159,0.41806 -0.71865,-0.0456 -0.62203,-1.16013 -0.99374,-1.66036 -0.79514,0.13863 -1.14816,1.11695 -1.96577,1.15445 -1.2429,0.13604 -2.56047,0.65803 -3.38636,1.61179 -0.52039,0.81571 -1.69709,1.23413 -1.76268,2.27789 -0.84339,0.70635 -0.90528,1.96419 -1.69137,2.74661 -0.31127,0.81073 -1.05415,1.30947 -1.87482,1.54254 -0.25613,0.75358 -0.71798,1.46809 -1.49294,1.75544 -0.77725,0.36463 -0.51678,1.04334 -0.62115,1.726 -0.89419,0.35126 -0.56169,1.37804 -0.83664,2.07997 -0.25406,0.58123 -0.578,0.46364 -1.17305,0.64286 0.11352,0.24332 0.19067,0.44816 0.20722,0.55294 0.0455,0.28816 -0.99291,-0.37555 -1.11828,-0.12713 -0.12536,0.24842 -0.17132,0.76435 0.32918,0.97669 0.5005,0.21233 0.80405,0.59134 0.54622,0.925 -0.25783,0.33367 -1.75938,0.12104 -1.82004,0.24237 -0.032,0.064 -0.0344,0.20828 -5.3e-4,0.33693 -0.96521,0.0793 -1.60792,0.10089 -2.35128,0.79582 -0.074,0.76966 -0.0408,1.01268 -0.8015,1.3348 -0.27328,0.38774 -0.30731,0.65919 -0.71572,0.9157 -0.46907,-0.42145 -0.59033,-0.89924 -1.26349,-1.17977 -0.33483,0.34134 -0.49692,0.51583 -0.49248,1.02423 l -0.47128,0.56379 c -0.82826,0.87443 -2.09942,1.10313 -3.03858,1.84795 -1.35271,1.08254 -2.52746,2.66533 -4.39611,2.78329 -1.09608,0.0471 -2.02085,0.90863 -3.12281,0.71417 -1.17619,-0.39781 -2.05355,1.02472 -3.20239,0.53278 -0.33668,-0.57186 -0.35323,-1.49977 -1.27176,-1.55236 -0.11356,-0.84817 -0.50732,-1.07498 -1.31568,-0.64957 -0.32019,0.38277 -1.45656,1.65563 -0.30592,1.50223 0.82693,-0.23854 1.05139,1.72959 0.20102,0.81184 -0.8037,-0.33779 -0.46057,1.15731 -0.70383,1.59319 -0.38007,0.98077 -1.33287,-0.40108 -1.73013,0.28421 -1.06989,0.35577 -0.61188,1.23622 -0.93069,1.51722 -0.76474,0.28606 -1.46551,-0.17225 -1.0294,-1.00097 0.47292,-0.86342 -0.18199,-1.33664 -1.02991,-1.16479 -0.72979,-0.42778 -1.6263,-0.32988 -2.25051,0.24082 -0.61508,0.91143 -1.38783,0.0597 -1.88154,0.59479 0.0784,0.96402 -0.54111,2.06038 -1.54771,2.2071 -0.50506,0.8223 -1.42619,1.57791 -2.43241,1.1343 -0.8422,0.129 -1.80159,0.21951 -2.55539,0.64286 -0.40706,0.54327 -1.04383,1.3508 -0.61547,2.03708 -0.0389,0.70035 0.84797,1.29184 0.26872,1.86449 -0.79147,-0.24016 -1.21214,-0.52869 -1.87689,0.20308 -1.13944,0.96762 -2.54448,1.41614 -3.93361,1.89601 -0.87254,0.37261 -1.00638,0.98176 -1.78025,1.12138 0.4134,0.21498 0.77721,0.89297 0.67799,1.05834 -0.0992,0.16536 -0.38034,0.1819 -0.42995,0.66145 -0.0496,0.47956 0.0661,0.79375 0.42995,0.76068 0.3638,-0.0331 1.27331,0.8599 1.14102,1.05833 -0.1323,0.19844 -0.0827,1.05834 -0.57878,0.79375 -0.11177,0.0428 -0.54408,0.87304 -0.60255,1.20045 -0.0585,0.3274 -0.17574,1.19242 -0.39791,1.33273 -0.22217,0.14032 -0.7834,0.33941 -0.87695,0.77205 -0.0935,0.43264 0.0238,1.18092 -0.35036,1.25108 -0.37418,0.0702 -0.90051,-0.0234 -1.0759,0.40928 -0.1754,0.43264 -0.012,0.83016 -0.36277,1.06402 -0.35079,0.23386 -0.68962,0.59606 -0.73639,0.82992 -0.0468,0.23387 -0.68991,0.98229 -1.00563,1.1343 -0.31571,0.15201 -0.97039,0.17547 -1.21594,0.53795 -0.24556,0.36249 -0.23382,0.84198 -0.37414,1.1343 -0.14031,0.29232 0.10512,0.58475 -0.0703,0.94723 -0.1754,0.36248 -1.15798,0.0816 -1.40353,0.36225 -0.24556,0.28063 -0.40905,0.7717 -0.77153,1.06402 -0.36248,0.29233 -1.49673,0.93537 -1.60197,1.25109 -0.12096,-0.0824 -0.49193,-0.39092 -0.61288,-0.47336 -1.13525,-0.036 -1.71219,-0.78789 -2.23501,-1.7353 -0.26798,-1.39256 -0.93665,-2.77319 -0.92036,-4.23488 0.69158,-0.99404 -0.29587,-1.98928 -0.25424,-3.0272 0.0716,-1.10436 -0.1259,-2.08195 0.57877,-2.84634 -1.46153,-0.12782 -2.14124,1.46556 -3.12952,2.28048 -1.19179,1.05645 -1.48883,2.63008 -2.59571,3.75067 -1.27978,1.36781 -3.50439,1.89819 -4.05246,3.85558 -0.46391,1.20734 -1.47589,1.88481 -2.55954,2.49339 -0.39578,1.35737 -1.2708,2.67361 -1.26401,4.06487 -0.47209,0.97767 0.42029,1.96644 0.11473,3.04167 0.34894,1.01728 0.16393,1.9564 -0.31161,2.85151 0.84853,1.13386 -1.398926,1.52546 -1.021636,2.37143 -0.008,1.02837 2.238596,-0.42715 1.514626,0.95136 -0.46148,0.75181 -1.540036,1.25216 -2.503716,1.14567 -0.77109,-0.36477 -2.02473,1.33189 -1.68155,-0.12868 -0.70359,-0.16791 -1.61491,0.69006 -2.55488,0.7028 -1.14765,0.6583 2.06328,1.70825 -0.25735,1.45676 -0.84934,-0.52725 -2.07821,-0.54622 -1.9389,0.80616 0.19461,1.36167 -1.371581,1.72509 -1.81746,2.73988 -0.612542,0.69149 -1.90223,0.69667 -1.271238,2.1239 -0.253045,0.86626 -0.653333,2.20398 -1.717209,1.69499 -1.479542,0.37295 -2.018311,1.81295 -2.522842,3.0949 -0.606182,0.84824 -0.336137,1.69829 -0.671277,2.69855 0.335632,1.22904 -0.898171,1.56636 -1.539441,2.26239 -0.824267,0.66959 -1.832332,1.1755 -2.18953,2.29237 0.124841,1.01954 -0.972685,1.73823 -0.387575,2.61586 0.885544,0.53247 0.281249,2.20022 -0.729155,1.82521 -1.448599,0.42115 1.006824,0.66159 0.03669,1.79731 -1.793063,0.91708 1.511551,0.45811 0.487825,1.52859 -1.211257,0.26023 -0.784759,1.59058 -1.174088,2.4076 -1.472973,0.18954 0.443931,1.85685 -0.239779,2.39417 -0.489225,1.0242 -1.693188,1.60652 -1.878957,2.74815 -0.986504,0.33092 -1.302533,1.46955 -1.221629,2.54248 0.243104,0.97406 -1.44436,1.89578 -0.599964,2.60656 0.683345,0.93422 0.0072,2.2516 -0.162782,3.30936 0.217747,0.92286 1.741773,1.34724 1.688788,2.49856 -0.163164,1.34015 0.840536,2.30269 1.451588,3.39927 l -0.393255,0.78755 -0.886251,0.25528 -0.335381,0.73123 -1.005623,0.66507 c -0.46247,0.24572 -0.994465,0.35952 -1.481563,0.55655 -0.860589,-0.20779 -1.274659,0.33525 -1.579232,1.06351 -0.617175,0.31529 -1.494448,0.22639 -2.182812,0.52296 -0.297403,0.57562 -0.733719,1.20141 -1.348756,1.61747 -0.711758,0.27469 -0.513541,1.67568 -1.455208,1.14464 -0.178692,0.82671 -0.572995,1.59068 -1.195793,2.16886 -0.566084,0.007 -1.289216,-0.60031 -1.753899,-1.04542 -0.96194,-0.33753 -1.842164,-1.09907 -2.912999,-0.86971 -0.993677,0.23929 -1.723215,1.12118 -2.396236,1.86397 -0.274275,1.08415 -0.199003,2.529 -1.421103,3.0179 -0.404419,0.69774 -1.381268,1.46227 -2.13527,1.53634 -0.329377,-0.22985 -0.842327,-0.56069 -0.891934,-0.70952 -0.04961,-0.14883 0.377235,-0.74104 0.06304,-0.88986 -0.314195,-0.14883 -0.608748,-0.36691 -0.608748,-0.36691 0,0 0.181901,-0.64492 -0.148828,-1.00872 -0.330729,-0.3638 -0.727604,-0.84336 -0.760677,-1.07487 -0.03307,-0.23151 0.03307,-0.59531 0.115755,-0.87643 0.08268,-0.28112 0.330729,-0.44649 0.628385,-0.71107 0.297657,-0.26458 0.03307,-0.74414 0.115756,-1.09141 0.08268,-0.34726 0.611846,-0.82682 0.562239,-1.28984 -0.04961,-0.46302 -0.711068,-0.69453 -0.51263,-1.14102 0.198437,-0.44648 0.28112,-0.57877 0.777213,-0.49609 0.496094,0.0827 0.529167,-1.25677 0.595313,-1.45521 0.06615,-0.19844 -0.380341,-0.39688 -0.429948,-0.71107 -0.04961,-0.31419 0.198437,-0.79375 0.115755,-1.33945 -0.08268,-0.5457 -0.347265,-0.77721 -0.314193,-0.99219 0.03307,-0.21497 0.03307,-0.87643 -0.148828,-1.30638 -0.181901,-0.42994 -0.132294,-1.10794 -0.256315,-1.25677 -0.124023,-0.14883 -0.388606,-0.30592 -0.537435,-0.67799 -0.148828,-0.37207 -0.256315,-0.61185 -0.438216,-0.63666 -0.294063,-0.24501 -0.407506,-0.72444 -0.56534,-1.08468 -0.278837,-0.20377 -0.299932,-0.70789 -0.621668,-0.39688 -0.321728,0.31101 -0.450527,0.67577 -0.182417,0.87953 0.268108,0.20377 0.632807,0.48275 0.439767,0.70797 -0.19304,0.22521 -0.482867,0.65395 -0.804603,0.80409 -0.321731,0.15014 -0.343109,0.60044 -0.514697,0.85782 -0.171593,0.25739 -0.737309,0.26764 -0.758095,0.65371 -0.461486,0.15628 -1.513192,0.51364 -1.96732,0.51367 -0.990613,0.28046 -0.154437,1.10131 -1.416452,1.09915 -0.955437,0.24295 -1.004956,1.10599 -1.514636,1.55908 -0.830363,0.53772 -1.889691,-0.11757 -2.239656,0.86558 0.59032,2.10147 0.807307,4.15746 1.642793,6.16655 -0.0673,1.11898 -0.264816,1.11875 -0.286803,0.5395 -0.150546,0.32401 -0.961586,0.18697 -1.17874,0.29352 -0.21716,0.10656 -0.77488,-0.0869 -0.839227,0.38499 -0.06435,0.47188 -0.900956,0.6436 -1.051097,0.87954 -0.15014,0.23593 0.01281,0.93099 0.01291,0.9312 7.9e-5,2.2e-4 -0.530193,-0.59459 -1.022162,0.009 -0.491966,0.6039 -1.273326,0.0876 -1.526003,0.29197 -0.252688,0.20441 -1.346949,-0.0742 -1.325502,0.50488 0.02143,0.57911 -0.13988,1.06868 -0.639236,1.03921 -0.499356,-0.0295 -0.863295,0.55063 -0.830442,0.97824 0.03284,0.4276 -0.610769,0.27774 -0.911056,0.38499 -0.300281,0.10724 -0.275203,0.16985 -0.06408,0.70745 0.211124,0.53759 0.02148,1.11571 -0.300242,1.02991 -0.32173,-0.0858 -0.879792,-0.36465 -0.858345,0.12867 0.02143,0.49333 0.182494,1.25473 -0.487826,1.18494 -0.670319,-0.0698 -1.292428,-0.0913 -1.292428,0.27337 0,0.36463 -0.316495,1.06046 -0.823204,1.18442 -0.506722,0.12399 -1.45003,-0.17624 -1.535824,0.0382 -0.0858,0.2145 0.246369,0.52214 0.3483,0.74363 0.101928,0.22149 -0.774705,-0.0177 -1.206645,0.35036 -0.431938,0.36804 -1.179505,0.72906 -1.243851,1.37253 -0.06435,0.64346 -0.600684,0.66507 -1.008209,0.75086 -0.407529,0.0858 -0.235876,0.38597 -0.428913,0.72915 -0.193043,0.34318 -0.815176,0.68649 -0.965316,0.92243 -0.150143,0.23594 -0.128458,0.68622 0.150378,0.9865 0.278834,0.30029 0.04015,0.78081 -0.364836,1.09399 -0.404987,0.31319 -0.811292,0.40538 -1.050581,0.9865 -0.23929,0.58113 -0.16092,0.74001 -0.52555,0.7829 -0.36463,0.0429 -1.008219,-0.0966 -0.922425,0.21446 0.0858,0.31101 -0.02125,0.79399 -0.375171,0.94413 -0.353904,0.15014 -1.029658,0.40742 -1.008206,0.77204 0.02143,0.36464 -0.06443,0.86853 -0.353983,1.0294 -0.28956,0.16087 -0.664779,0.60055 -0.943613,0.99735 -0.278833,0.39681 -0.375758,0.41806 -0.772562,0.46096 -0.396801,0.0429 -0.743918,1.06281 -1.153418,1.07797 -0.409499,0.0152 -0.606536,-0.37925 -0.879533,-0.16692 -0.272999,0.21233 -0.491003,-0.0496 -1.072803,0.26614 -0.581799,0.31569 -0.661621,0.48151 -0.701766,0.90175 -0.04014,0.42024 -0.04547,0.65189 -0.697632,0.19689 -0.652162,-0.455 -1.680382,-0.60202 -1.577681,-0.28784 0.102701,0.31418 0.257774,0.81891 -0.21239,1.1374 -0.470164,0.3185 -1.031061,-2.5e-4 -1.455725,0.45475 -0.424665,0.45499 -0.500737,0.63709 -1.152901,0.47026 -0.652164,-0.16684 -1.971612,0.15185 -2.001945,0.28835 -0.03034,0.1365 0.197305,0.27299 0.379305,0.34882 0.181998,0.0758 -1.280871,0.23502 -0.787549,0.92139 0.493323,0.68636 0.899906,1.23557 0.396358,1.29346 -0.503548,0.0579 -1.410955,-0.0177 -1.768884,0.68006 -0.35793,0.69776 -0.614996,1.46705 -1.023193,2.01331 -0.408198,0.54628 -1.089621,0.005 -1.395264,0.47594 -0.305644,0.47054 -0.284439,1.07094 -0.563274,1.47847 -0.278834,0.40753 -0.772233,0.64342 -1.265556,0.25734 C 1.822815,177.39998 1.008238,177.20697 0.79375,177.6145 0.579262,178.02203 0.343181,178.98727 0,179.09451 c 0,0 0.740085,-0.37534 1.09399,-0.0429 0.353905,0.33246 0.826309,0.44683 0.986503,0.601 0.160193,0.15417 0.139483,0.4825 0.439766,0.64337 0.300284,0.16087 0.493389,0.58971 0.439767,0.90072 -0.05362,0.31101 -0.139805,0.8902 0.01033,1.26556 0.150141,0.37535 0.732721,0.81026 0.945162,0.7617 0.212441,-0.0486 0.925427,-0.18186 1.107426,0.076 0.181999,0.25783 -0.758397,0.90967 -0.515731,1.24333 0.242666,0.33367 1.061721,-0.30316 1.167888,-0.015 0.106165,0.28816 0.855767,0.57215 0.81287,0.79737 -0.0429,0.22521 -0.407497,0.27899 -0.214458,0.66507 0.19304,0.38608 0.579269,0.47155 0.750859,0.493 0.171591,0.0214 0.386303,0.98687 0.236161,1.10484 -0.150141,0.11797 -0.869088,0.0537 -0.729671,0.39687 0.139417,0.34318 0.536651,0.35394 0.600997,0.69712 0.06435,0.34318 -0.04332,0.71855 0.224792,0.74 0.268111,0.0214 0.718776,0.0536 1.01906,0.30024 0.300283,0.24666 0.782587,0.82551 1.147216,1.01855 0.36463,0.19304 0.72936,0.43955 1.093991,0.11782 0.364629,-0.32173 0.664892,-0.54666 1.040246,-0.23565 0.375355,0.31101 0.750694,0.47194 0.997355,0.43977 0.246662,-0.0322 0.697049,0.17163 1.168921,0.65423 0.117149,0.0833 0.412902,0.52313 0.716236,0.53071 0.303331,0.008 0.531159,0.39433 0.667659,0.65216 0.1365,0.25783 0.613936,0.2728 0.894519,0.0377 l 0.240812,1.42524 c 0,0 1.052246,2.05799 1.215947,2.29185 0.163703,0.23386 0.280622,0.88869 0.09353,1.00562 -0.18709,0.11693 -0.748275,-1.4e-4 -0.748275,0.11679 0,0.11693 0.09343,1.23942 -0.163814,1.56683 -0.257247,0.3274 -0.865063,1.8712 -0.865063,1.8712 -0.07901,0.38843 -0.244923,1.12411 -0.409278,1.90583 0,0 0.303715,0.63125 0.420646,0.99374 0.116921,0.36248 -0.12843,1.75399 0.01189,2.10478 0.140315,0.35079 1.30793,2.96933 1.30793,2.96933 0,0 -0.09162,1.35747 0.118856,1.82521 0.210475,0.46772 0.186825,1.30943 0.04651,1.59008 -0.140316,0.28063 -0.210323,1.54358 -0.210323,1.54358 l 0.116788,0.70125 c 0,0 1.052611,0.18745 1.426787,0.21084 0.374179,0.0234 1.706946,0.0932 2.244826,0.16329 0.537879,0.0702 1.122359,-0.77155 1.590082,-0.67799 0.467722,0.0935 0.86542,0.79535 1.169437,0.5147 0.30402,-0.28063 1.099495,-1.07591 1.590601,-0.98237 0.491109,0.0935 2.057747,0.58484 2.15129,0.60823 0.09355,0.0234 1.07564,1.02896 1.122413,1.37976 0.04677,0.35079 -0.350539,0.79501 0.04702,1.02888 0.397563,0.23385 1.192419,0.51416 1.332735,0.60771 0.140317,0.0935 0.07011,0.56143 0.467673,0.88884 0.397565,0.3274 1.076065,0.51453 0.772046,0.72502 -0.30402,0.21048 -0.584742,0.74814 -0.350883,0.86506 0.233863,0.11695 1.829345,-0.0419 1.829345,-0.0419 0.01516,-0.3944 0.273222,-0.31864 0.546219,-0.3793 0.273006,-0.0607 -0.04545,-0.77331 -0.09095,-1.01596 -0.0455,-0.24268 0.379254,-0.12143 0.470257,-0.47026 0.091,-0.34882 0.211976,-0.516 0.333312,-0.66766 0.12133,-0.15168 0.515765,-0.89471 0.773596,-1.18287 0.257834,-0.28816 -0.121539,-0.45502 0.06046,-0.60668 0.181996,-0.15168 0.591905,-0.66748 0.576707,-1.03146 -0.01519,-0.36401 0.197207,-0.62187 0.561208,-0.86455 0.363995,-0.24265 0.454723,-0.71278 0.500226,-1.04645 0.0455,-0.33365 0.485511,-0.48524 1.010275,-0.51004 0.524764,-0.0248 0.0058,-0.18738 -0.130742,-0.59687 -0.136498,-0.40951 0.06843,-0.72782 0.288356,-0.97048 0.219912,-0.24267 0.652032,-0.74333 0.879531,-0.98599 0.227499,-0.24267 0.128982,-0.61432 0.144179,-0.81907 0.01519,-0.20474 0.401934,-0.31102 0.606682,-0.47025 0.204748,-0.15925 -0.07602,-0.27311 -0.288356,-0.44752 -0.212331,-0.17442 0.09195,-0.44195 0.349332,-0.53847 0.257387,-0.0965 0.794107,-0.35396 0.997873,-0.52555 0.203764,-0.17159 0.160745,-0.26819 -0.05374,-0.35398 -0.214488,-0.0858 -0.107233,-0.5038 -0.128673,-0.80409 -0.02146,-0.30028 -0.375525,-0.43973 -0.364836,-0.69711 0.01074,-0.25739 0.525634,0.13966 0.79375,0.0646 0.268107,-0.0751 0.3156,-0.36298 0.514696,-0.24701 0.199097,0.11598 0.739741,0.0217 0.804085,-0.23564 0.06435,-0.25739 -0.342773,-0.59025 -0.139009,-0.77257 0.203766,-0.18232 0.192915,-0.40705 0.203604,-0.61081 0.01074,-0.20376 0.407448,-0.24686 0.557591,-0.45062 0.150141,-0.20376 -0.321781,-0.53623 -0.311094,-0.86868 0.01074,-0.33248 0.407728,-0.1289 0.407728,-0.36484 0,-0.23593 -0.236043,-0.54672 -0.139525,-0.67541 0.09652,-0.12869 0.461166,0.15023 0.782896,0.31109 0.321731,0.16087 0.697185,0.0213 0.969968,-0.11885 0.272775,-0.14011 0.692433,0.27983 0.90692,0.21549 0.21449,-0.0643 0.321408,-0.66529 0.450102,-0.98702 0.128693,-0.32173 0.429273,-0.9006 0.633036,-0.93276 0.203764,-0.0322 0.418296,-0.0644 0.611333,-0.39688 0.193043,-0.33245 0.600694,-0.17167 0.879534,-0.31109 0.278833,-0.13942 0.66472,-0.60029 0.675409,-1.01854 0.01074,-0.41825 -0.107092,-0.45085 -0.160713,-0.68678 -0.05362,-0.23594 0.654219,-0.57916 0.697114,-0.65422 0.0429,-0.0751 0.04287,-0.28962 0.171566,-0.48266 0.128693,-0.19304 1.136708,-0.43962 1.469163,-0.60048 0.332456,-0.16087 0.675521,-0.80394 0.814937,-0.92191 0.13942,-0.11797 0.311053,0.26796 0.568439,0.11782 0.257376,-0.15014 0.246851,-0.32179 0.236162,-0.48266 -0.01074,-0.16084 0.664654,-0.0643 0.889868,-0.12867 0.22521,-0.0643 -0.171535,-0.39697 -0.386022,-0.62218 -0.21449,-0.22521 0.214529,-0.3647 0.61133,-0.43977 0.396804,-0.0751 0.407295,-0.26779 0.718304,-0.4501 0.311005,-0.18232 0.02172,-0.36467 -0.192754,-0.65423 -0.21449,-0.28955 0.05346,-0.24686 0.246497,-0.36483 0.193032,-0.11797 0.225186,-0.30009 0.171566,-0.46095 -0.05362,-0.16087 0.407702,-0.36453 0.579292,-0.72916 0.17159,-0.36463 1.136459,-1.07277 1.404567,-1.33015 0.268113,-0.25739 0.396991,-0.1393 0.493509,0.0537 -0.03272,-0.30778 0.809019,-1.96792 0.575159,-2.41225 -0.233863,-0.44434 -0.935424,-1.63735 -1.37976,-1.87121 -0.444336,-0.23386 -1.239385,-0.79507 -1.940967,-0.46767 -0.701583,0.32741 -2.011246,0.91209 -2.011246,0.91209 0,0 -0.818415,-0.42073 -0.935345,-0.86506 -0.11693,-0.44434 0.117145,-1.09937 0.421164,-1.52032 0.304017,-0.42095 0.304091,-1.75375 0.537951,-1.96423 0.233862,-0.21047 1.613167,-0.25732 2.01073,-0.53795 0.397563,-0.28063 1.894298,-0.65512 2.198314,-0.67851 0.30402,-0.0234 1.590601,-0.0935 1.590601,-0.0935 0,0 0.724739,-1.07563 0.958599,-1.21595 0.233863,-0.14031 0.327721,0.37433 0.678511,-0.21032 0.350792,-0.58465 0.186642,-0.86546 0.537435,-0.7953 0.350792,0.0702 0.982429,0.44415 1.613855,0.49092 0.631425,0.0468 1.309693,0.39804 1.730645,0.37466 0.420949,-0.0234 1.122624,-0.46819 1.543573,-0.46819 0.42095,0 1.637099,-0.95885 1.730645,-1.00562 0.09355,-0.0468 1.566537,0.23409 1.893941,0.23409 0.327406,0 0.608314,-0.35066 1.05265,-0.0233 0.444333,0.32741 1.122471,0.51458 1.753896,0.44442 0.631423,-0.0702 1.777114,0.14028 2.15129,0.37414 0.374177,0.23386 0.889037,0.77153 1.403533,0.77153 0.514493,0 1.067636,-0.42427 1.067636,-0.42427 0.101613,0.008 0.812353,-0.25683 0.911571,-0.57102 0.09922,-0.3142 0.06615,-0.62839 0.198438,-0.678 0.132292,-0.0496 1.438669,-0.76067 1.719792,-0.76067 0.281117,0 1.372526,0.52916 1.736328,0.57877 0.214974,-0.0992 1.455208,-1.22369 1.322916,-1.50481 -0.132291,-0.28112 -1.355992,-1.00873 -1.30638,-1.09141 0.04961,-0.0827 1.322917,-0.76068 1.322917,-0.76068 0,0 0.595312,0.24805 0.79375,0.44649 0.198437,0.19843 0.281117,0.89297 0.496093,1.04179 0.214972,0.14883 0.926042,0.14883 1.157553,0.29766 0.23151,0.14883 -0.248047,1.24023 0.181901,1.00872 0.429948,-0.23151 0.628385,-0.9095 1.124479,-0.61184 0.496099,0.29765 0.363799,0.57877 0.51263,0.62838 0.148825,0.0496 0.413411,0.0331 0.711068,0.3638 0.297656,0.33073 0.595312,0.69453 0.595312,0.90951 0,0.21497 0.04961,0.39687 0.04961,0.39687 l 0.843359,0.41341 c 0,0 0.28112,-0.39687 0.545703,-0.49609 0.264583,-0.0992 0.463021,-0.39688 0.876432,-0.0165 0.413412,0.38034 0.496091,0.66146 0.644922,0.90951 0.148826,0.24805 0.711063,0.5457 0.694531,0.81029 -0.01654,0.26458 -0.578776,1.4552 -0.578776,1.4552 0,0 1.025261,-0.0827 1.620573,0.36381 0.59531,0.44648 1.10794,0.44648 1.10794,0.44648 0,0 1.00872,0.14882 1.42213,0.13229 0.41341,-0.0165 1.14101,0.41341 1.47174,0.51263 0.33073,0.0992 0.87644,-0.26458 1.07487,-0.57877 0.19844,-0.3142 0.47956,-1.70326 0.81029,-2.16628 0.33073,-0.46302 1.43867,-1.80247 1.43867,-1.80247 0,0 0.826831,-0.16537 1.273311,0.0496 0.44648,0.21497 0.99218,0.46302 1.4056,0.64492 0.41341,0.1819 1.28778,-0.21653 1.28778,-0.21653 0,0 -0.39482,1.22525 -0.41135,1.50637 -0.0165,0.28112 -0.5457,0.77721 -0.5457,0.87643 0,0.0992 0.0661,0.39688 0.16536,0.47956 0.0992,0.0827 0.82683,0.42995 1.20716,0.46302 0.38034,0.0331 0.90951,1.30638 1.09141,1.48828 0.1819,0.1819 0.66146,0.74414 0.66146,0.74414 0,0 0.67799,0.42995 0.77721,0.59532 0.0992,0.16536 1.20716,0.44648 1.43867,0.49609 0.23151,0.0496 0.81029,-0.62839 1.14102,-0.66146 0.33073,-0.0331 2.87166,0.38499 2.87166,0.38499 1.16944,0.25705 1.83083,-0.53344 2.58227,-1.50533 0.82955,0.43845 1.52338,0.98431 1.98282,1.7911 1.04308,0.33712 1.78414,-0.0278 2.66599,-0.87333 0.47017,-0.0758 0.77345,-0.30365 1.04645,-0.31885 0.273,-0.0152 0.95535,-0.30326 1.22835,-0.43976 0.273,-0.1365 0.78874,-0.091 1.12241,-0.25786 0.33366,-0.16684 1.51668,-0.65224 1.56218,-0.81908 0.0455,-0.16683 1.37997,-0.97067 1.62264,-1.25884 0.24267,-0.28816 1.18319,-0.4093 1.54719,-0.3638 0.364,0.0455 0.72829,-0.16697 1.06195,-0.3793 0.33367,-0.21233 1.53182,0.0458 1.60765,0.0155 0.0758,-0.0303 0.77335,-1.74464 0.92501,-2.3058 0.15167,-0.56116 -0.37909,-1.42555 -0.39429,-1.78955 -0.0152,-0.364 0.1972,-1.16747 0.25787,-1.63763 0.0607,-0.47017 0.90987,-0.59196 1.18287,-0.74362 0.273,-0.15167 0.84941,-0.34882 1.12241,-0.34882 0.273,0 0.59895,-0.47779 0.87953,-0.56121 0.28059,-0.0834 0.97055,-0.58346 1.18288,-0.84129 0.21233,-0.25783 0.84189,-0.91011 1.00872,-1.0542 0.16683,-0.14408 1.03898,-0.0682 1.47123,-0.11369 0.43225,-0.0455 0.94767,0.58355 1.08417,0.68213 0.1365,0.0986 0.25785,-0.0375 0.60668,-0.0982 0.34883,-0.0607 0.0454,-0.39445 0.18191,-0.42478 0.1365,-0.0303 1.01635,0.12117 1.24385,-0.0305 0.2275,-0.15167 -0.0912,-0.94013 0.0605,-1.3193 0.15166,-0.37916 0.44034,-0.0757 0.65267,-0.1819 0.21233,-0.10617 0.6823,-0.57635 1.01596,-0.60668 0.33365,-0.0303 -0.0912,-0.50044 0.015,-0.74311 0.10616,-0.24267 0.57666,0.12095 0.971,0.0754 0.39433,-0.0455 0.23453,-0.69506 0.50022,-0.80357 0.2657,-0.10851 0.94026,-0.37936 1.09193,-0.5917 0.15166,-0.21233 -0.13616,-0.43966 0.31884,-0.62166 0.455,-0.182 0.5457,-0.83406 0.5457,-0.83406 0,0 0.54584,-1.16815 0.62167,-1.31982 0.0758,-0.15167 0.97111,-0.34843 1.09244,-0.42426 0.12133,-0.0758 -0.3945,-0.77366 -0.33383,-0.98599 0.0607,-0.21233 1.1377,-1.04661 1.54719,-1.03146 0.4095,0.0152 1.33429,0.86455 1.33429,0.86455 0.0607,0 1.1222,-0.0758 1.18287,-0.091 0.0607,-0.0152 0.45542,0.42478 0.18242,0.42478 -0.273,0 -0.72036,-0.0896 -0.76223,0.0992 -0.0419,0.1888 0.0793,0.85626 -0.0723,0.90175 -0.15167,0.0455 -0.9248,0.56075 -0.98547,0.77308 -0.0607,0.21233 0.53067,-0.0302 0.62166,0.0305 0.091,0.0607 0.37898,0.50058 0.015,0.51573 -0.364,0.0152 -0.83406,-0.12154 -0.83406,0.0605 0,0.182 0.63717,0.45499 0.63717,0.65216 0,0.19716 -0.71309,-0.0757 -0.80408,0.076 -0.091,0.15167 0.36416,0.36402 0.33383,0.60668 -0.0303,0.24267 -1.18909,0.24994 -0.87954,0.50075 0.30955,0.25082 0.81884,0.3184 0.62167,0.48524 -0.19716,0.16683 -0.87976,0.0457 -0.7736,0.28835 0.10617,0.24267 0.19736,0.59139 0.28836,0.53072 0.091,-0.0607 0.71285,-0.60668 0.91002,-0.60668 0.19717,0 0.77324,-0.28836 0.80357,0.015 -0.0531,0.10617 0.0761,0.65232 -0.0832,0.68265 -0.15925,0.0303 -0.65968,0.13647 -0.76584,0.37156 -0.10616,0.23508 -0.0987,0.81146 -0.35657,0.86454 -0.25783,0.0531 -0.44736,0.21997 -0.41703,0.53847 0.0303,0.3185 -0.42102,1.34821 -0.53898,1.5198 -0.11797,0.1716 -0.69725,0.18238 -0.66508,0.43977 0.0322,0.25738 0.51499,0.66506 0.27905,0.79375 -0.23594,0.12869 -0.8365,-0.18217 -0.91157,-0.11782 -0.0751,0.0643 0.16075,0.41828 0.032,0.65422 -0.12869,0.23593 -0.55761,0.2679 -0.38602,0.54674 0.17158,0.27883 0.18205,0.69697 -0.0217,0.77204 -0.20377,0.0751 -0.65436,-0.0537 -0.62218,0.25735 0.0322,0.31101 0.93312,0.46157 1.05109,0.68678 0.11797,0.22522 0.086,0.39666 -0.005,0.53072 -0.0912,0.13405 -0.26273,0.42871 -0.0858,0.51986 0.17695,0.0912 0.61128,0.0591 0.54157,0.22531 -0.0697,0.16623 -0.40228,0.51482 -0.55242,0.56844 -0.15014,0.0536 -0.58451,0.41829 -0.19844,0.65423 0.38608,0.23594 1.2015,0.27901 1.07281,0.5364 -0.12869,0.25739 -1.33006,1.05068 -1.14774,1.233 0.18232,0.18231 0.6757,0.32179 0.43977,0.52555 -0.23594,0.20376 -0.79376,0.26815 -0.70797,0.61133 0.0858,0.34319 -0.0321,0.50406 0.31109,0.7829 0.34318,0.27883 0.1606,0.38626 -0.0217,0.5364 -0.18232,0.15014 -0.0103,0.58972 -0.18191,0.85783 -0.17159,0.26811 -0.74027,0.51465 -0.63303,0.81494 0,0 0.77928,-0.061 1.11828,0.21187 0.339,0.27285 0.85163,-0.0827 1.20716,0.1571 0.35553,0.23977 1.06661,1.16169 1.10794,1.19889 0.59531,0.64492 0.94258,0.56224 1.33946,0.64492 0.39687,0.0827 0.33072,0.38034 0.49609,0.49609 0.16536,0.11576 0.77721,0.29766 1.20716,0.57878 0.42995,0.28112 0.95911,0.90951 1.05833,1.30638 0.0992,0.39688 0.92605,0.44649 1.27331,0.57878 0.34727,0.13229 1.35599,0.47955 1.75287,0.33073 0.39687,-0.14883 0.97565,0.11575 1.19062,0.34726 0.21497,0.23151 0.92604,0.678 1.42214,0.76068 0.49609,0.0827 1.00717,-0.38706 1.23868,-0.53589 0.23151,-0.14876 1.11156,-0.32298 1.11156,-0.32298 l 0.42581,-1.31619 c 0,0 0.95909,0.1755 1.23972,0.16381 0.28063,-0.0117 1.0054,-0.67811 1.27434,-0.84181 0.26894,-0.1637 1.01711,0.16376 1.18081,0.12868 0.1637,-0.0351 0.97058,-0.31575 1.22783,-0.31575 0.25725,0 0.24556,-0.30417 0.50281,-0.38602 0.25725,-0.0819 1.61386,-0.40928 1.61386,-0.40928 0,0 0.33892,-0.26901 0.39739,-0.53795 0.0585,-0.26894 0.2922,-0.74818 0.52606,-0.99374 0.23387,-0.24555 0.81855,-0.0351 0.91209,0.0584 0.0935,0.0935 0.32763,1.25108 0.32763,1.25108 0,0 0.0115,0.0819 0.30386,0.22221 0.29233,0.14032 0.80701,-0.15192 1.20458,-0.24546 0.39756,-0.0935 1.064,0.10503 1.25108,0.0817 0.18709,-0.0234 0.4679,-1.05239 0.7953,-1.09916 0.32741,-0.0468 1.90583,-0.17518 1.90583,-0.17518 0,0 0.10496,-0.65496 0.14004,-1.07591 0.0351,-0.42094 0.79528,-1.67221 0.98237,-1.95285 0.18709,-0.28063 0.70163,-1.15751 0.81856,-1.53169 0.11693,-0.37418 0.0233,-1.19252 0.24546,-1.59008 0.22217,-0.39756 0.573,-0.11683 0.81856,-0.339 0.24555,-0.22216 0.33894,-0.85358 0.80666,-1.28622 0.46772,-0.43265 1.29836,-0.74853 1.43868,-0.7953 0.14031,-0.0468 2.19822,-0.0703 2.94658,0.11678 0.74835,0.18709 1.40311,-0.32722 1.66036,-0.49092 0.25725,-0.16371 1.41542,0.61908 1.41542,0.61908 -0.21234,-0.15166 -0.37926,-0.66728 -0.47026,-1.04645 -0.091,-0.37916 -0.92554,-1.13756 -1.22886,-1.47122 -0.30334,-0.33368 -0.42459,-0.106 -0.78859,-0.31833 0.18259,-0.59946 1.57274,-1.57189 2.00195,-1.53066 0.61382,-0.3422 1.37596,-0.34593 1.94613,-0.74362 0.78716,-0.40356 0.96476,-1.3082 1.02423,-2.1115 0.14103,-0.67782 0.55065,-1.28253 0.53175,-2.00298 0.19279,-0.6001 0.56815,-1.14813 0.74001,-1.7694 0.13161,-0.87093 0.39378,-1.74261 1.06557,-2.35489 1.42963,-1.01607 3.48467,-1.35419 4.15271,-3.08044 0.97665,-0.54119 1.7766,-1.32849 2.38952,-2.25826 0.45439,-0.39179 0.18981,-0.64242 0.56896,-1.08727 0.24372,-0.38939 1.3088,-1.02513 1.73374,-1.1498 0.75082,0.0947 0.87861,-0.29248 1.60146,-0.44493 0.55858,0.0617 0.89737,-0.36565 1.27847,-0.69815 0.4362,-0.55113 0.81948,-1.15759 1.32395,-1.66347 0.45599,-0.3603 -0.18403,-0.89108 -0.25528,-1.33325 -0.29892,-0.56763 -0.56336,-1.24378 -0.15296,-1.83141 0.23719,-0.827 0.85466,-1.77627 0.31677,-2.60088 -0.26704,-0.39004 -0.87361,-0.44095 -1.09967,-0.91725 -0.88892,-0.77982 -0.74748,-2.03457 -0.86351,-3.09955 0.12217,-0.55071 -0.41574,-0.76367 -0.72709,-1.09916 -0.22386,-0.73443 -0.80578,-1.23563 -1.10226,-1.93218 -0.44918,-0.40476 -0.32605,-0.97917 -0.31936,-1.51877 0.12358,-0.18302 0.29082,-0.35839 0.4377,-0.52969 0.70626,-0.37932 -0.0564,-1.18248 0.0289,-1.80247 0.0371,-1.15167 0.80573,-2.204 1.65726,-2.92954 0.70229,-0.27087 -0.0987,-1.6296 1.03146,-1.23351 0.80647,0.11694 0.99885,-0.92586 1.541,-1.27125 0.88508,-0.4043 1.9732,-0.18687 2.87734,-0.63458 1.05757,-0.76112 2.07567,-1.56377 3.28869,-2.06913 0.49303,-0.91003 0.87544,-1.99771 1.72031,-2.62826 0.91704,-0.45934 1.31342,-1.48392 2.26497,-1.89342 0.54847,-1.02392 1.41932,-1.9024 2.32286,-2.66754 0.78795,-0.46299 0.70461,-1.39241 0.71985,-2.18023 -0.13115,-0.79425 0.31634,-1.45718 0.96377,-1.86552 0.47273,-0.831 1.53128,-1.41179 1.45417,-2.45825 -0.22862,-0.76524 -1.15363,-1.15522 -1.73529,-1.67845 -0.739,-0.57772 -1.51349,0.20873 -2.31407,0.22634 -0.51433,-0.4317 -1.12773,-1.06937 -1.85364,-0.83715 -0.92208,0.60366 -1.98829,-0.38416 -1.84691,-1.35393 -0.16512,-1.0183 0.39958,-1.85916 0.81493,-2.73109 -0.0826,-1.05341 -0.74223,-2.03341 -1.17357,-3.00706 -0.32929,-1.00188 0.83315,-1.69868 0.98857,-2.64583 0.32381,-0.72038 0.0146,-1.36359 0,-1.8526 0.31752,-0.97238 1.50689,-1.00956 1.98489,-1.83503 -0.34669,-0.76661 -1.05641,-1.29759 -1.69292,-1.82263 -0.67697,-0.23764 -1.13517,-1.12963 -0.54053,-1.69034 0.36675,-0.51303 0.76644,-1.22961 0.6103,-1.86965 -0.49721,-0.62117 -1.09586,-1.4192 -0.93328,-2.28513 0.35232,-0.61747 1.29823,-1.07722 1.17512,-1.93632 0.16292,-1.38573 -0.15542,-2.76587 -0.32918,-4.14135 -0.23954,-0.75466 0.12814,-0.78496 0.62736,-1.5937 -0.21351,-0.63269 -0.78082,-1.25153 -0.52142,-1.94252 0.28054,-0.98182 0.74927,-1.93556 0.81339,-2.97914 0.16516,-0.71011 -0.74477,-0.73353 -1.07694,-1.21027 -0.66711,-0.7583 -1.74835,-0.62235 -2.64583,-0.87746 0.0304,-0.58204 0.0309,-1.19017 0.17725,-1.74976 0.44907,-0.63805 0.30797,-1.68395 -0.48163,-1.95648 -0.47781,-0.76085 -1.17435,-1.43669 -1.70015,-2.20141 -0.51723,-0.47977 -1.43601,-0.30653 -1.99781,0.0346 -0.85183,0.27659 -0.58989,-0.71438 -0.50385,-1.23765 0.0186,-0.6937 0.61253,-1.01641 1.00149,-1.50379 -0.0673,-0.70833 0.71458,-0.96266 1.02681,-1.50636 0.58359,-0.84096 1.34338,-1.50185 2.19728,-2.05982 0.46046,-0.5015 -0.15643,-1.20355 0.52969,-1.46968 0.59163,-0.19601 0.99023,-0.61178 1.28002,-1.15135 0.635,-0.56937 0.37218,-1.45135 -0.003,-2.09342 -0.55734,-0.57313 -0.0877,-0.91166 0.45268,-1.23351 0.55615,-0.23026 0.3601,-1.24601 1.01183,-1.12293 0.57037,-0.12547 1.0584,0.45425 1.57044,-0.002 0.30381,-0.33784 0.2174,-1.06543 0.69453,-1.45831 0.42073,-0.43954 1.04729,-1.01032 0.79996,-1.66191 -0.67831,-0.94904 -0.20778,-2.08226 -0.1447,-3.12746 -0.11563,-0.83522 0.75321,-1.1765 1.36632,-1.48363 0.6342,-0.17952 0.93802,-0.72039 1.32757,-1.19683 0.38841,-0.61716 0.97886,-0.97203 1.64538,-1.22938 0.54748,-0.0294 1.12807,-7.9e-4 1.6769,-0.17415 1.21672,-0.50303 2.05028,-1.68034 2.73162,-2.77244 0.48543,-0.51908 0.68655,-1.23158 1.21853,-1.70532 -0.22299,-0.16393 -0.21676,-0.37272 -0.19792,-0.62477 -0.43775,-0.63054 -0.13543,-1.34624 -0.0527,-2.03657 0.3589,-0.66609 -0.71077,-0.66715 -0.74931,-1.22163 0.024,-0.64124 -0.52376,-0.96423 -0.92759,-1.36736 -0.46493,-0.34015 -0.80056,-0.72697 -0.55501,-1.32343 0.31871,-0.43727 0.79091,-1.01962 0.37001,-1.54616 -0.34434,-0.65766 0.47978,-0.75821 0.73277,-1.20819 0.15879,-0.4834 0.92437,-0.66849 0.83509,-1.18753 -0.45039,-0.5364 0.36324,-0.79635 0.74155,-1.01544 0.72003,-0.39166 0.682,-0.4415 0.11783,-0.76326 -0.52049,0.0709 -0.98266,-0.14183 -1.44643,-0.34572 -0.5705,-0.0781 -1.0666,-0.29846 -1.48724,-0.70176 -0.59549,-0.82472 -1.17105,-1.7061 -1.42421,-2.71095 -0.0769,-0.56061 -0.15981,-1.11032 -0.41858,-1.61695 -0.2066,-0.48979 -0.17921,-1.11218 0.42582,-1.27331 0.52578,-0.23976 0.76567,-0.98803 0.004,-0.51056 -0.61194,-0.4975 -0.71681,0.13434 -1.21956,-0.20413 -0.45174,-0.49024 -1.05105,-0.9588 -1.09709,-1.67793 0.46863,-0.27871 0.93748,-0.55741 1.40611,-0.83612 0.66068,-0.48547 1.6622,-0.73357 1.95028,-1.56425 0.42314,-0.36803 1.09889,-0.16545 1.63297,-0.13384 0.51699,0.22022 1.08434,-0.51686 0.77566,-0.96945 -0.35865,-0.52985 0.10241,-1.04211 0.13901,-1.58853 0.16394,-0.44696 -0.61396,-1.12686 0.007,-1.35186 -0.008,-0.52006 -0.31931,-0.99248 -0.56999,-1.4335 -0.30692,-0.57648 -0.90554,-0.42749 -1.45056,-0.41238 -0.60412,-0.53985 -0.61029,-1.43322 -0.81959,-2.16835 -0.55526,-0.62503 0.91166,-0.74456 -0.0372,-0.93741 -0.75561,-0.23529 0.0552,-0.80099 0.45165,-0.94774 0.43286,-0.50866 -0.69454,-0.60597 -0.75965,-1.12706 -0.78731,-0.72317 0.70536,-0.42528 0.0532,-0.85473 -0.55636,-0.0104 -1.07101,-0.11605 -1.43299,-0.57465 -0.085,-0.4046 -0.0597,-1.12638 0.48576,-1.20354 0.18635,-0.7772 -0.28152,-1.48509 -0.24598,-2.24431 C 223.06392,1.96151 222.81928,0.9926 222.87669,0 Z"
     style="fill:#a30000;fill-opacity:1;fill-rule:nonzero;stroke:none;stroke-width:0.27454501"
     id="path1250" />
</svg>
