<?xml version="1.0" encoding="UTF-8" standalone="no"?>
<svg
   xmlns:ns="&amp;#38;#38;ns_sfw;"
   xmlns:dc="http://purl.org/dc/elements/1.1/"
   xmlns:cc="http://creativecommons.org/ns#"
   xmlns:rdf="http://www.w3.org/1999/02/22-rdf-syntax-ns#"
   xmlns:svg="http://www.w3.org/2000/svg"
   xmlns="http://www.w3.org/2000/svg"
   xml:space="preserve"
   enable-background="new 0 0 1048.802 1160.768"
   viewBox="0 0 873.05603 985.63207"
   height="985.63202"
   width="873.05603"
   y="0px"
   x="0px"
   id="Punjab"
   version="1.1"><defs
   id="defs117" />
<metadata
   id="metadata2">
	<ns:sfw>
		<ns:slices />
		<ns:sliceSourceBounds
   bottomLeftOrigin="true"
   y="236.772"
   x="324.124"
   width="1048.991"
   height="1160.768" />
	</ns:sfw>
<rdf:RDF><cc:Work
     rdf:about=""><dc:format>image/svg+xml</dc:format><dc:type
       rdf:resource="http://purl.org/dc/dcmitype/StillImage" /><dc:title></dc:title></cc:Work></rdf:RDF></metadata>


<path
   style="clip-rule:evenodd;fill:#a30000;fill-rule:evenodd;fill-opacity:1"
   id="path8"
   d="m 28.973,779.39 -5.599,23.793 -5.694,10.202 -11.41,12.473 -6.27,8.504 0.009,3.21 0.015,6.417 6.873,2.826 16.025,2.815 18.309,-0.016 31.465,1.101 15.446,-0.017 18.884,2.249 18.885,1.678 19.458,1.681 18.871,-1.15 25.374,-3.433 5.106,1.158 8.508,5.13 7.944,4 4.539,0.587 8.512,0.606 4.54,-0.54 5.681,-5.062 3.978,-4.504 5.677,-5.061 7.379,-1.095 10.785,-3.903 8.515,-3.917 5.675,-0.538 3.402,5.107 4.535,4.543 7.376,1.171 2.835,1.708 3.404,2.279 4.542,-1.108 3.399,2.846 1.7,6.228 3.968,3.977 5.67,3.99 3.402,3.973 5.673,4.553 1.879,1.259 1.522,1.02 5.11,-1.672 3.971,-1.678 5.108,0.59 3.982,-5.068 1.706,-5.645 2.271,-4.513 4.535,4.547 3.402,5.671 -0.571,3.957 -3.977,4.503 -0.573,3.953 2.271,3.407 1.131,3.399 -2.273,3.946 -1.137,4.517 2.835,1.144 3.971,-1.111 3.409,0.017 1.128,5.662 1.7,2.835 3.404,1.147 0.009,-7.917 2.842,-5.642 4.543,-3.933 5.108,-1.671 1.129,4.531 2.833,7.929 3.398,5.672 3.402,7.369 -1.708,6.212 -4.544,2.803 -6.246,3.363 1.129,7.923 -1.707,5.081 -3.975,2.806 -2.271,2.252 1.7,4.53 1.698,2.839 -0.004,2.826 6.806,3.993 5.105,5.114 -0.573,6.219 -0.002,3.39 2.831,4.54 2.269,5.665 2.269,-0.554 5.106,-1.104 3.975,-1.111 7.379,-1.094 2.844,-5.641 -1.131,-3.4 -3.406,-3.41 -1.131,-3.963 2.275,-5.641 4.546,-6.766 1.706,-3.383 1.14,-3.953 3.971,1.715 3.404,1.15 1.138,-4.521 0.006,-3.957 3.404,-3.376 3.411,-1.678 2.271,-3.383 1.708,-7.342 2.273,-4.514 2.839,-3.944 4.544,-5.067 3.41,-2.245 2.273,-3.947 1.135,-2.819 3.406,-0.55 11.341,8.54 5.108,2.289 5.675,-0.541 3.968,1.154 4.537,6.242 3.971,2.282 7.379,-1.094 5.11,-2.802 5.11,-5.628 5.108,0.022 6.242,2.295 3.402,1.711 3.408,-3.373 1.71,-7.91 5.113,-5.064 7.375,1.167 3.971,-1.675 5.682,-2.799 4.539,1.718 4.535,2.286 5.677,-0.538 2.269,4.537 4.531,5.111 1.131,5.094 2.833,5.668 5.104,1.724 7.946,1.171 3.406,1.711 4.537,2.853 3.975,-0.547 3.971,-0.544 5.108,-1.107 2.84,-3.379 2.842,-1.682 4.535,2.286 3.973,0.02 4.544,-6.762 7.388,-10.709 8.519,-5.045 7.943,-0.527 5.677,-0.538 4.544,-5.064 1.707,-3.386 5.108,-1.672 4.542,-1.675 2.837,-1.682 2.842,-5.074 -2.833,-4.538 -7.943,-0.607 -2.837,-0.58 -0.562,-7.917 -2.264,-4.537 -1.126,-6.793 0.566,-2.258 0.571,-3.39 2.271,-3.382 1.137,-1.125 4.546,-5.631 0.158,-1.87 0.415,-4.912 2.277,-6.775 2.837,-3.379 0.002,-2.826 -1.129,-5.662 0.566,-2.822 3.977,-1.679 4.542,-2.238 -0.564,-2.83 -6.241,-1.164 -5.104,-2.288 -2.269,-5.665 1.704,-1.125 1.14,-1.688 v -2.829 l 0.569,-2.259 2.837,0.581 7.371,7.386 13.614,6.855 3.406,1.714 3.4,0.58 2.275,-2.249 -0.564,-4.527 -1.698,-3.966 3.406,-3.376 2.837,0.58 1.702,3.399 2.264,5.101 3.971,0.583 2.84,-5.074 2.277,-6.208 -2.265,-5.101 0.004,-5.088 6.244,-2.796 5.106,0.023 3.406,4.541 -2.277,6.208 1.696,6.232 3.968,6.238 3.966,6.242 5.108,1.721 5.102,4.547 6.808,0.601 5.11,-3.367 4.546,-3.937 3.975,-3.937 6.246,-5.625 6.248,-4.494 1.706,-4.513 2.844,-5.641 2.839,-5.075 -1.131,-4.531 -6.808,-2.861 -1.7,-6.229 -2.831,-4.538 -6.241,0.534 -2.273,1.686 -3.406,3.376 -3.406,1.682 -3.409,-0.584 3.415,-7.9 5.11,-3.933 5.677,-2.232 8.517,-2.222 9.652,-7.867 8.517,-5.612 9.085,-5.044 5.11,-3.934 5.675,-2.799 -0.56,-4.526 -7.381,1.661 -3.404,1.678 0.571,-5.651 -1.131,-7.356 2.846,-6.772 10.783,-4.471 2.841,-1.118 2.267,2.839 6.239,3.426 4.543,-2.805 4.542,-1.675 4.537,2.285 2.833,5.104 0.56,6.222 -0.571,7.349 1.131,4.531 5.108,1.721 5.106,-3.934 2.846,-9.034 -2.829,-7.366 -2.831,-9.625 1.713,-9.604 0.002,-5.091 4.546,-5.632 0.571,-5.087 -3.402,-2.842 -5.673,-2.856 -1.133,-2.835 3.406,-1.111 3.975,-2.809 1.142,-7.346 2.273,-4.511 -1.7,-3.969 -1.698,-5.098 -10.779,-6.274 0.004,-3.389 0.004,-4.524 -2.267,-3.406 -3.971,0.547 -4.539,-2.285 -2.269,-5.101 -2.84,3.38 -2.271,2.816 -5.675,0.537 -5.673,-2.856 -5.106,-3.419 -5.104,-2.289 -4.542,-2.849 -2.829,-5.104 -4.537,-5.111 -1.131,-3.963 2.844,-3.946 3.973,-3.937 3.404,-2.246 5.112,-2.802 2.84,-2.249 3.975,-1.674 5.67,3.419 6.243,2.295 4.538,0.587 5.677,-2.799 1.138,-3.386 -1.129,-6.792 -3.971,-3.413 -7.377,-1.734 -1.693,-8.487 -2.266,-5.668 -3.969,-6.805 2.844,-2.812 2.271,-2.819 -5.655,-5.306 -5.539,-5.373 -8.006,-8.357 -9.191,-4.142 -8.575,-2.941 -8.607,-7.154 -3.737,-10.195 0.556,-7.22 2.989,-9.044 2.385,-7.834 -4.319,-5.383 -2.511,-9.601 0.566,-6.017 7.295,-4.865 4.829,-7.856 -3.681,-2.378 -6.116,-0.554 -7.332,0.053 3.614,-7.244 -1.895,-8.404 -6.137,-3.562 -1.797,4.822 -4.877,1.24 1.189,-4.219 -0.646,-4.806 -3.026,3.632 -2.439,0.617 -3.696,-4.182 -2.418,3.628 -4.9,-1.768 -0.664,-7.213 -6.7,2.458 -6.709,1.854 0.593,-2.412 1.804,-4.222 -3.711,-5.986 -3.713,-6.587 -2.504,-8.4 -0.66,-6.61 -0.636,-3.605 -4.301,-2.975 -4.309,-4.179 -4.883,0.037 -4.246,4.842 -4.873,1.84 -1.172,6.627 2.478,4.792 -5.458,5.453 -3.629,4.835 1.254,4.202 -4.239,5.442 -11.596,1.291 -5.504,-0.561 -7.316,1.857 -6.125,-1.758 -3.153,-13.81 -6.17,-7.771 2.403,-6.032 -0.054,-7.214 -0.043,-6.013 -3.082,-3.585 -4.972,-11.389 -4.953,-8.984 -3.737,-9.595 -6.812,-12.579 -5.562,-8.378 -3.116,-8.998 -4.328,-6.58 -4.333,-7.788 -5.559,-8.377 -3.724,-7.791 -3.125,-9.598 -3.109,-7.194 -3.729,-8.991 -1.877,-6 3.023,-4.235 5.501,0.561 4.276,-0.03 -0.035,-4.812 -8.028,-11.366 -2.504,-8.401 -6.189,-10.779 -7.386,-7.761 -6.765,-5.966 -9.812,-5.336 -9.191,-3.542 -4.309,-4.175 -5.556,-7.778 -4.284,-1.17 -6.105,0.646 -1.847,-2.391 -7.998,-7.157 -6.131,-2.962 -7.946,-0.544 -7.937,0.66 -6.123,-1.757 c 0,0 7.538,-7.116 10.038,-8.366 2.5,-1.25 4.25,-12.5 9,-21.75 4.75,-9.25 -1.75,-5.5 -4.75,-5.25 -3,0.25 -6.5,2.75 -6.5,2.75 0,0 3.5,-13.75 3.5,-15 0,-1.25 1.5,-8.25 2.25,-9.25 0.75,-1 5,-5.25 12,-4.75 7,0.5 14.5,-1 17.25,-2.25 2.75,-1.25 14.75,-24 16.25,-25.25 1.5,-1.25 11.25,-11.5 13.5,-14 2.25,-2.5 19,-4.5 19,-4.5 l -9.75,-20 L 569.789,0 l -5.82,9.051 -14.715,8.4 -13.329,6.564 -1.611,8.444 -7.872,8.404 -19.159,3.234 -13.689,5.817 -7.187,5.813 -7.852,5.817 0.363,1.45 c 0,0 0.25,7.75 1,10.5 0.75,2.75 1,9.5 -4.25,9.75 -5.25,0.25 -4.75,-1.25 -5,-5 -0.25,-3.75 -3.75,-6.75 -6,-8.5 -2.25,-1.75 -2,-3.5 -1,-6.5 1,-3 -1.75,-3.25 -3.25,-1.75 -1.5,1.5 -4,3 -8.25,6.25 -4.25,3.25 -5.75,2 -8.5,0.75 -2.75,-1.25 -5.5,-2.75 -11.25,-6 -5.75,-3.25 -10.995,1.377 -10.995,1.377 0.988,0.801 1.639,2.374 2.244,3.407 -0.177,1.647 -0.709,4.537 -0.662,6.044 0.05,1.61 0.759,3.852 1.583,5.241 l 2.684,1.53 1.858,3.243 c 1.674,0.074 5.135,-0.292 6.04,1.289 0.533,0.931 1.249,1.926 1.306,3.04 l -1.834,2.838 -0.181,9.359 c -3.332,2.937 -4.229,3.641 -8.675,5.332 l -6.042,2.297 -1.598,2.828 c 0.056,2.356 0.321,4.958 0.173,7.296 -0.057,0.896 -0.598,2.256 -0.834,3.151 -0.019,0.072 -0.16,0.672 -0.18,0.699 -1.502,2.152 -5.077,3.58 -7.426,4.892 -0.131,0.073 -1.3,0.71 -1.345,0.755 -0.062,0.061 -1.703,2.279 -1.708,2.294 -0.452,1.229 -0.307,4.001 -0.694,5.445 l -0.535,1.345 -0.267,0.672 -7.645,6.983 c -1.015,0.927 -1.988,1.896 -3.285,2.432 l -1.605,-0.065 -1.181,-2.137 c 0.175,-2.357 0.846,-4.931 -0.244,-7.139 l -3.023,-2.194 -2,1.17 -0.344,1.136 c -0.75,2.479 -0.692,2.636 -0.725,5.264 -0.007,0.583 0.12,0.929 -0.019,1.496 -0.005,0.02 -1.838,3.471 -1.929,3.611 -0.03,0.046 -0.724,0.559 -0.811,0.626 l -5.551,4.284 c -1.38,-0.054 -4.432,0.04 -5.66,-0.22 -1.62,-0.343 -5.423,-1.892 -7.159,-2.498 -1.24,1.292 -3.464,3.291 -4.464,4.662 -0.369,0.021 -4.145,0.208 -4.26,0.239 -0.04,0.011 -2.241,1.466 -2.424,1.585 l -1.622,-0.369 -2.269,-2.303 -6.458,7.13 c -0.02,0.022 -1.295,0.636 -1.408,0.691 -1.349,-0.144 -2.875,-0.443 -4.222,-0.451 -0.084,0 -1.663,0.373 -1.849,0.415 -0.044,0.01 -0.394,0.078 -0.411,0.092 -3.261,2.664 -3.065,3.351 -6.977,3.445 -1.055,-0.676 -2.335,-1.296 -3.259,-2.109 l -5.892,-5.187 c -0.641,-0.564 -0.927,-0.981 -1.643,-1.447 -0.007,-0.004 -3.884,-1.425 -3.977,-1.446 -1.158,-0.257 -2.712,-0.211 -3.913,-0.305 -0.038,-0.003 -0.238,0.094 -0.283,0.111 -1.053,0.4 -2.204,0.755 -3.222,1.225 -2.175,1.004 -8.728,7.583 -10.874,9.609 -1.331,1.256 -2.949,2.357 -4.386,3.501 -1.554,1.237 -4.721,3.32 -5.4,5.058 l -4.418,0.497 c -0.66,1.454 -1.433,2.937 -2.007,4.422 -0.284,0.734 -0.331,1.602 -0.608,2.34 -1.011,2.694 -2.192,5.359 -3.283,8.024 -0.984,2.405 -1.328,2.558 -3.536,3.768 -0.132,0.072 -0.299,0.113 -0.439,0.166 l -3.481,1.318 c -1.053,0.398 -5.079,0.866 -6.425,1.096 -0.387,0.066 -5.718,-0.223 -6.826,-0.268 l -0.394,-0.018 -2.764,-1.668 -2.52,-5.168 -2.433,-0.064 c -0.32,2.472 -0.799,8.872 -1.687,10.963 l -5.66,4.256 c -1.681,1.264 -3.161,2.686 -4.71,4.109 -1.781,1.635 -3.648,3.234 -5.37,4.928 -0.899,0.885 -1.578,2.143 -2.52,2.967 -0.972,0.85 -4.506,4.255 -5.378,4.708 l -5.631,2.92 c -0.8,0.415 -2.159,0.905 -2.855,1.474 -0.111,0.091 -2.388,2.323 -2.418,2.368 -0.569,0.838 -1.025,2.361 -1.44,3.316 -0.253,0.583 0.223,1.238 -0.93,2.736 l -1.631,0.719 c -2.188,-0.308 -4.44,-0.416 -6.646,-0.479 -0.722,0.846 -0.592,2.128 -0.614,3.151 -0.047,2.111 -0.315,4.037 -0.637,6.12 -0.124,0.802 -0.459,1.923 -0.425,2.706 0.038,0.877 0.401,2.025 0.575,2.902 0.578,2.916 0.263,2.371 1.715,4.763 l -0.149,1.815 -1.086,0.516 c -1.302,-0.17 -1.823,-0.206 -2.29,-0.383 -0.51,-0.193 -0.957,-0.553 -2.286,-1.441 -0.019,-0.012 -1.306,-0.131 -1.384,-0.139 l -0.986,0.516 c 0.371,2.956 0.301,6.012 0.182,8.979 -0.001,0.028 -0.154,3.376 -0.141,3.458 0.039,0.24 0.144,0.352 0.236,0.577 0.463,1.133 0.943,2.19 1.458,3.323 l 1.974,4.336 c 1.375,2.827 3.125,5.631 4.672,8.365 3.057,5.4 6.232,10.85 9.014,16.398 0.878,1.752 1.504,3.801 2.229,5.628 0.604,1.521 1.318,3.138 1.771,4.699 0.764,2.632 1.8,5.434 2.353,8.107 0.655,3.166 0.913,6.608 1.356,9.821 l 0.03,0.249 c 0.103,1.467 0.117,3.069 0.246,4.593 0,0 4.181,2.489 -1.569,2.989 -5.75,0.5 -5,7.25 -2,7.75 3,0.5 5,2.75 5,2.75 l 8.181,8.25 c 0,0 2.569,11.25 2.069,13 -0.5,1.75 -1.75,0.75 -3.5,0.5 -1.75,-0.25 -4.25,0.5 -5.75,1.25 -1.5,0.75 -6.207,3.492 -5.978,4.246 0.228,0.754 -2.522,7.254 -4.272,8.254 -1.75,1 -9.683,9.062 -9.683,9.062 0,0 0.433,8.688 -1.567,10.688 -2,2 -1.25,3.5 -0.25,5 1,1.5 1.75,2 -0.5,4.75 -2.25,2.75 -3,6.25 -3,8.75 0,2.5 1.165,23.692 1.165,23.692 0,0 -8.665,2.058 -6.665,5.808 2,3.75 2.75,5.75 2,7.25 -0.75,1.5 -1.5,6.5 2.75,8.5 4.25,2 8,3.5 8,3.5 0,0 0.5,3.75 0,5.25 -0.5,1.5 2.75,7 5,5.25 2.25,-1.75 5.5,-2 8,-2.75 2.5,-0.75 2.75,-2.75 2.75,-5 0,-2.25 -0.25,-6.75 3.75,-5.5 4,1.25 5.5,4.25 7,2.5 1.5,-1.75 1.75,-2.5 4.25,-1.75 2.5,0.75 4.5,1.25 6.5,2.5 2,1.25 4.75,6.25 4.75,8.25 0,2 -1.5,6.25 -1.5,6.25 0,0 -1.5,5 -2.25,6 -0.75,1 -5,3.5 -8.5,3.5 -3.5,0 -8.25,0 -12.25,0.75 -4,0.75 -5.75,1.25 -8.789,-1.713 -3.039,-2.963 -6.461,0.713 -6.961,3.713 -0.5,3 -3.772,7.457 -3.772,7.457 l 1.094,5.343 -0.802,0.774 c -1.212,1.178 -2.558,1.939 -3.867,2.976 -1.345,1.064 -2.688,2.245 -4.085,3.233 -1.262,0.892 -2.984,1.583 -4.362,2.312 -2.139,-1.067 -2.624,-1.436 -4.851,-1.879 l -4.111,1.483 -0.779,1.124 c -0.768,0.121 -1.303,0.605 -1.875,1.078 -3.673,3.035 -8.877,7.168 -11.488,11.102 0.023,1.516 -0.276,5.312 -1.297,6.587 -0.77,-0.33 -4.993,0.648 -5.978,0.829 l -1.163,1.311 -2.326,2.623 c -0.219,0.192 -4.249,1.779 -4.875,2.073 -0.093,0.182 -1.014,1.955 -1.03,2.026 -0.009,0.041 0.089,2.274 0.093,2.284 0.578,1.39 1.933,2.63 2.528,4.017 l 0.163,1.627 0.082,0.813 -2.552,2.368 -1.204,-0.037 c -1.184,-0.888 -2.731,-1.736 -4.157,-2.156 l -2.15,1.695 -3.166,-0.009 -1.614,1.253 c -0.143,1.744 -0.265,3.491 -0.435,5.233 l -4.991,6.937 c -0.54,0.75 -1.298,3.146 -1.676,4.063 l 1.425,3.16 c -0.083,0.188 -0.92,2.124 -0.962,2.174 -0.054,0.064 -2.247,1.752 -2.457,1.916 l -6.393,-0.009 c -0.266,0.525 -0.521,1.055 -0.796,1.575 0.333,0.528 0.965,1.265 1.159,1.853 0.174,0.526 1.949,6.122 2.102,6.366 0.604,0.957 1.734,2.003 2.487,2.874 l -0.188,1.446 -0.603,0.291 -3.22,-0.691 -4.055,2.783 c -1.895,-0.054 -4.472,0.251 -6.187,1.142 -3.708,4.308 -7.045,10.808 -10.018,15.864 -0.816,1.388 -2.066,2.801 -3.03,4.109 l -0.828,-0.019 -9.148,8.9 -1.985,1.161 c -0.98,0.229 -2.571,0.105 -3.605,0.147 -0.984,0.946 -3.234,3.386 -4.237,4.072 -0.05,0.034 -3.152,1.071 -3.417,1.161 l -1.094,1.704 c 0.746,2.896 -0.99,6.56 -1.246,9.415 -0.12,1.338 0.235,3.753 0.324,5.168 l -4.764,1.244 -1.315,1.796 0.039,1.29 2.433,1.879 0.119,1.456 c -0.615,1.13 -1.272,2.746 -2.039,3.75 -0.792,1.036 -2.196,2.119 -3.151,3.04 l -3.062,-0.598 c -1.695,-1.311 -3.325,-3.354 -4.377,-5.206 l -2.346,0.636 c -0.231,0.433 -1.782,3.44 -1.804,3.455 l -10.513,6.9 c -1.305,0.856 -5.383,6.3 -5.591,8.08 l -0.614,5.26 c -0.07,0.6 -0.805,1.658 -1.125,2.229 l -0.698,-0.04 c -2.632,-0.15 -1.782,-0.7 -3.767,-1.508 -0.038,-0.016 -3.067,-0.213 -3.298,-0.23 -0.283,0.5 -0.58,0.994 -0.85,1.501 l 1.235,5.132 c -0.445,1.01 -1.112,2.188 -1.425,3.234 -0.247,0.823 -0.186,1.872 -0.361,2.727 -0.015,0.074 -0.621,1.202 -0.701,1.354 -2.375,0.283 -4.597,0.814 -6.929,1.364 -0.461,1.053 -2.204,4.237 -2.805,4.809 -1.959,1.863 -4.46,3.822 -5.755,6.255 -0.499,0.938 -0.783,3.961 -0.56,4.929 0.166,0.72 0.809,1.678 1.15,2.386 0.377,0.148 0.951,0.272 1.261,0.488 3.975,2.764 7.879,5.616 11.732,8.549 0.236,1.084 5.539,7.808 6.384,9.351 0.478,0.871 0.84,2.059 1.205,2.994 0.816,2.091 1.834,4.309 2.48,6.449 l 0.741,3.636 1.298,6.341 c 0.062,0.299 0.164,0.647 0.19,0.949 l 0.874,9.913 c 0.112,1.274 0.484,3.095 0.376,4.339 -0.008,0.095 -0.958,3.109 -1.047,3.399 -1.956,1.746 -3.884,3.654 -5.949,5.265 z" />




















































</svg>