<?xml version="1.0" encoding="UTF-8" standalone="no"?>
<svg
   xmlns:dc="http://purl.org/dc/elements/1.1/"
   xmlns:cc="http://creativecommons.org/ns#"
   xmlns:rdf="http://www.w3.org/1999/02/22-rdf-syntax-ns#"
   xmlns:svg="http://www.w3.org/2000/svg"
   xmlns="http://www.w3.org/2000/svg"
   xmlns:xlink="http://www.w3.org/1999/xlink"
   id="svg2"
   xml:space="preserve"
   enable-background="new 536.61 2.613 527.973 760.462"
   viewBox="536.61 2.613 450.24314 582.07216"
   height="582.07214"
   width="450.24316"
   y="0px"
   x="0px"
   version="1.1"><metadata
   id="metadata4923"><rdf:RDF><cc:Work
       rdf:about=""><dc:format>image/svg+xml</dc:format><dc:type
         rdf:resource="http://purl.org/dc/dcmitype/StillImage" /><dc:title></dc:title></cc:Work></rdf:RDF></metadata><defs
   id="defs4921"><defs
     id="defs7">
			<path
   d="m 535.771,1.93 0.01,760.35 528.689,0.01 L 1064.45,1.9 535.76,1.89"
   id="SVGID_1_" />
		</defs><clipPath
     id="SVGID_2_">
			<use
   height="760.46198"
   width="527.97302"
   y="0"
   x="0"
   style="overflow:visible"
   id="use11"
   overflow="visible"
   xlink:href="#SVGID_1_" />
		</clipPath></defs>
<path
   transform="translate(-32.88,-8.457609)"
   id="path19"
   d="m 569.49,519.801 c 0.91217,-6.59027 3.40675,-12.60004 6.29,-18.371 4.20677,-5.92505 1.35869,-13.95592 2.76756,-20.91633 6.51468,-4.3079 3.30358,-8.97209 7.17962,-15.3299 0.92483,-6.46368 7.20039,-9.63831 9.41132,-15.32536 -1.39472,-6.72409 -5.8093,-10.56145 -9.91711,-15.22422 -3.53295,-4.99371 0.92218,-10.98312 0.15061,-16.78319 0.86116,-7.78382 5.47317,-16.7979 14.68,-17.272 2.59412,-2.78262 -4.52121,-8.43372 -4.128,-13.28 0.25771,-6.29892 -6.77767,-9.8015 -10.73,-14.691 -0.92852,-5.78263 -2.47939,-14.9631 5.319,-16.96 0.19988,-4.22219 5.42695,-11.4703 2.34,-13.38 -1.74355,-5.48686 4.58411,-10.87189 6.57,-15.01 5.78059,-4.84181 -1.66246,-11.16938 4.989,-17.362 3.78333,-7.52301 15.96398,-7.28275 15.478,-17.53 3.33849,-6.20777 -0.17719,-15.14154 7.412,-19.058 6.77508,-2.74319 7.86116,-10.03904 9.24,-16.459 6.49833,-4.83977 -4.09987,-11.21442 1.98,-16.36283 2.78038,-5.40113 -2.00696,-17.34115 7.431,-16.13817 7.62674,-2.68609 4.96099,-11.73173 7.19,-17.859 -0.10362,-4.22775 13.14103,-9.69157 3.81,-14.098 1.54,-6.17603 -13.0013,-12.02945 -4.5,-13.811 4.02733,-3.6568 13.19282,-8.3935 8.37,-13.56 -0.57305,-7.1539 -10.43008,-3.62722 -13.989,-9.859 -5.40558,-3.20284 -9.77447,-6.58255 -15.595,-8.542 1.64891,-5.84032 -3.62238,-10.90023 -7.7922,-15.72174 -5.02204,-6.70132 2.62484,-9.25074 4.39125,-13.65124 6.10412,-5.01193 -3.14018,-9.91006 3.57195,-14.65402 2.52383,-7.764719 10.08644,1.62658 15.13202,2.4143 4.50259,4.90745 11.18549,6.13259 18.13264,7.38989 -0.0206,-4.62985 -0.76152,-16.919405 9.48434,-11.98119 5.27943,-7.994985 8.55727,-0.575779 10.239,5.211 2.28278,10.54039 8.14502,1.912 11.23288,-2.2923 6.84181,5.51474 6.82967,-6.420954 12.53612,-5.6977 7.79807,4.39514 10.01795,-7.07031 15.511,-6.5 5.15228,1.487086 8.1464,-5.728191 15.019,-5.801671 7.14089,-0.832548 13.17817,-0.407014 16.69938,5.976855 4.94212,0.911577 13.66892,-0.08435 12.89339,-8.119227 1.5973,-6.685776 9.57281,-7.639887 15.20252,-9.998939 5.31423,-3.824847 13.6907,-1.960449 14.47771,-10.343018 -0.21899,-7.358015 9.70161,-10.100899 11.579,-14.29 3.59961,6.52436 11.04302,4.439731 13.52727,10.63786 3.46175,-1.385294 12.49091,4.064368 13.95173,-3.35886 -2.80902,-5.391534 2.13213,-11.184042 1.771,-17.031 -2.85257,-5.208884 5.48388,-14.605214 9.519,-8.021 4.74146,0.98228 12.37622,-1.026027 13.89798,-4.978702 0.78413,-7.330559 6.74226,-10.313732 12.45607,-12.837714 5.34041,-6.942961 6.38015,7.153861 9.50228,10.142333 6.28226,3.223209 8.8255,8.579381 11.40267,14.294083 5.30809,1.745721 8.6678,-5.052015 15.25788,-1.874318 7.51178,-2.515175 14.70505,6.183703 21.31312,0.285318 6.65685,-4.856774 9.38122,4.74317 13.5,8.67 3.15114,6.265492 11.40145,5.311224 13.453,12.609 2.87862,5.82916 7.62178,9.966632 13.899,11.123 8.15094,1.898274 3.78079,12.598946 7.82,18.481 -1.44103,6.579048 -0.55173,13.008349 0.28,19.751 -4.12286,5.25739 -6.73361,14.50877 3.16847,13.61453 9.26893,-2.73406 9.81379,8.93003 11.24253,14.87547 8.7194,4.52182 -0.84274,14.50866 5.551,20.79 3.1647,5.06107 -2.92605,12.29257 -1.78289,18.57356 -5.11756,3.10597 -12.77912,6.6287 -10.50911,13.28844 2.95828,6.39854 -2.64153,13.13123 -1.648,19.819 -2.38372,7.43819 4.01273,9.72308 5.789,15.869 -8.42133,2.34259 -0.67319,14.74681 -9.291,16.171 -12.19807,2.62685 5.42012,9.37739 -2.369,15.28 0.3232,5.44674 5.63115,11.30345 -1.58,16.127 -2.22625,9.9725 -12.32431,3.096 -13.511,9.64 -7.4079,6.94586 0.60679,11.69554 -2.942,19.201 4.39261,8.58483 -12.74442,7.94131 -7.858,15.27 0.0257,7.02287 -10.01309,2.53525 -13.811,7.169 7.02123,4.81163 3.65616,12.88488 7.1,19.242 9.95198,-0.68212 6.19623,4.70348 5.239,11.317 -2.80256,6.6212 -2.27509,13.76026 -2.7,20.24 -5.91828,4.40588 0.96896,11.53517 3.499,15.829 1.77385,4.3672 3.40516,13.95511 8.63932,14.86888 -4.54886,8.86296 4.85118,7.38602 6.46455,11.76261 1.60455,4.3702 6.93919,10.57012 11.16613,9.22851 7.08745,-4.15706 12.05815,1.66252 11.06,8.371 6.00772,3.10962 10.3177,6.53157 9.199,13.301 5.3337,3.3286 7.7839,9.57157 15.111,7.95 9.3151,1.17968 -3.6761,12.73162 -1.4117,16.87526 3.3804,6.22636 -1.5439,14.65393 -6.6183,16.47574 -7.6318,3.91006 -15.28784,3.24925 -23.86881,3.19232 -10.02648,-2.43932 -12.64199,7.64804 -22.40338,8.69438 -1.13946,4.9372 -0.33067,12.85648 -1.57681,18.7853 -4.05505,5.24925 -3.87257,17.71211 -9.61,17.269 -6.96363,0.52292 -12.4539,7.45167 -12.389,14.58 1.85878,4.98046 -7.64226,10.78296 -13.9544,10.55997 -6.87079,-2.61888 -5.99869,-16.99017 -15.52306,-19.74391 -7.85287,-7.23451 -15.89722,4.03155 -21.84008,6.43541 -11.48578,-0.35003 -13.27878,-16.95091 -25.3227,-14.84646 -6.4451,0.32714 -8.79856,0.076 -16.02976,1.64799 -5.50115,2.46149 -12.45974,-0.15317 -16.2085,4.45314 -5.03012,3.65225 -7.88607,3.23672 -4.01985,10.01237 6.7063,7.1917 -4.23121,5.66381 -7.43565,11.16549 -6.37002,3.93678 -7.49546,10.72021 -14.29886,10.28216 -6.71033,-1.83823 -9.09755,7.64997 -11.57053,12.96003 -1.65368,9.60639 -15.49743,12.96991 -22.72135,7.40703 -8.43105,-1.56895 -15.35011,-7.00899 -24.18325,-5.40556 -7.10966,2.18545 -8.05837,-6.24406 -14.59701,-7.54566 -9.07217,6.63477 -6.1869,-2.5246 -11.318,-6.84 -2.81898,-5.13463 -10.92414,-1.81917 -16.48619,-3.41433 -4.84863,-2.95082 -12.59971,2.07108 -18.30805,4.15453 -8.57579,5.08505 -11.88287,-7.10707 -18.66861,-6.69086 -5.94292,0.51296 -13.72599,-2.35494 -17.57475,3.70736 -5.19965,9.26244 -14.52205,7.19092 -21.82392,1.65811 -6.63673,-5.33931 -20.50508,-5.68234 -21.53189,-14.89751 2.35572,-9.69674 -9.63717,-17.34495 -7.08054,-25.46913 4.32029,-8.61879 -11.96818,-11.43717 -18.21551,-14.42583 -3.29308,-0.13447 -9.34616,5.17909 -10.24654,4.51466 z"
   clip-path="url(#SVGID_2_)"
   style="fill:#a30000;fill-opacity:1;stroke:none;stroke-width:2;stroke-miterlimit:4;stroke-dasharray:none;stroke-opacity:1" />













</svg>