<?xml version="1.0" encoding="UTF-8" standalone="no"?>
<svg
   xmlns:dc="http://purl.org/dc/elements/1.1/"
   xmlns:cc="http://creativecommons.org/ns#"
   xmlns:rdf="http://www.w3.org/1999/02/22-rdf-syntax-ns#"
   xmlns:svg="http://www.w3.org/2000/svg"
   xmlns="http://www.w3.org/2000/svg"
   id="svg1099"
   version="1.1"
   viewBox="0 0 225.06798 227.93715"
   height="227.93715mm"
   width="225.06798mm">
  <defs
     id="defs1093" />
  <metadata
     id="metadata1096">
    <rdf:RDF>
      <cc:Work
         rdf:about="">
        <dc:format>image/svg+xml</dc:format>
        <dc:type
           rdf:resource="http://purl.org/dc/dcmitype/StillImage" />
        <dc:title></dc:title>
      </cc:Work>
    </rdf:RDF>
  </metadata>
  <path
     d="M 60.194292,3.9680407e-4 C 59.85468,-0.0076032 59.40001,0.1072668 59.12614,0.1729968 l -0.01705,0.27647 -0.548286,1.95698 -0.19172,0.98651 -0.0052,0.33279 0.499711,0.20723 1.975591,0.3669 0.131773,0.34726 -0.297657,0.79479 0.179319,0.28473 0.684713,0.1757 0.487825,0.25529 0.359151,0.62166 0.04082,0.74879 -0.161232,0.76327 -0.221175,0.74259 -0.418061,0.90175 -0.430982,0.1860302 -0.05994,0.56069 0.05374,0.5979 -0.70435,0.28164 -0.541568,0.27078 -0.143144,0.38602 -0.224275,0.34262 -0.611333,0.11782 -1.05575,-0.0677 -0.684713,1.0852 -0.203086,0.39067 0.162264,0.16434 0.823203,0.31625 0.266652,0.57258 0.170532,0.68523 0.192236,0.46767 0.546219,0.66714 0.115755,0.40101 -0.05219,0.96997 0.110588,0.4532 -0.04858,0.37776 -0.276469,0.24029 -0.34313,0.0377 -0.03617,0.30437 -0.150894,0.16226 -0.616501,-0.10903 -0.344683,0.11989 0.303858,0.43356 0.377238,0.40463 0.196887,0.32298 0.02429,0.35811 0.179316,0.96067 0.04031,0.524 0.230992,0.57567 0.352951,0.40721 0.112139,0.39791 -0.0047,0.74259 -0.167431,0.52762 -0.639238,0.42219 -0.341583,0.002 -0.505909,-0.23202 -0.481108,-0.047 -0.3483,0.32815 -0.28112,0.43615 -0.541568,0.55862 -0.343133,0.0599 -0.671793,-0.21704 -0.515731,-0.0625 -0.507463,0.38861 -0.530201,0.7059 -0.404625,0.38396 -0.880049,-0.23875 0.297657,0.89711 -0.03101,0.61495 -0.120407,0.4594 -0.01912,0.44855 -0.171048,0.41496 -0.09767,0.43047 0.146762,0.42013 0.26975,0.37982 0.552937,0.38137 -0.115239,0.3762 0.02429,0.5886 -0.128675,0.63562 -0.552937,1.33325 0.0067,0.98857 0.173633,0.65629 -0.170532,0.4346 -0.731739,0.2899 -1.12086,0.35037 -0.577226,-0.52193 -0.692983,-0.38551 -1.508951,0.0527 -0.234095,-0.24236 -0.711068,-0.27337 -0.391705,0.45734 -0.969452,0.37879 -0.354499,-0.11059 -0.170532,-0.31988 -0.02481,-0.45165 0.101285,-0.39481 -0.203605,-0.45113 -0.711067,-0.17984 -0.30851,-0.25425 -0.49816,-0.97978 -0.365869,-0.26562 -0.868164,-0.25528 -0.573092,-0.18138 -0.474906,-0.66921 -0.565857,-0.3483 -0.216524,-0.24701 -0.761712,-0.52762 -0.457335,-0.0677 -0.187068,0.37569 -0.601514,0.21394 -0.236162,0.3328 -0.54002,0.44338 -0.3576,0.12092 -0.345715,-0.11162 -0.345715,-0.18655 -0.287838,0.48679 -0.706932,0.19534 -0.226343,0.17621 -0.566375,0.20051 0.09922,0.37569 -0.09973,0.42995 0.05891,0.19688 0.743625,0.23927 0.975135,0.076 0.420129,0.0698 0.278019,0.55087 -0.293006,0.61702 -0.469737,-0.0543 -0.399977,-0.17363 -0.951363,0.27698 0.03721,0.5085 -0.146762,0.45527 -0.171047,0.22066 -0.04341,0.42633 -0.168981,0.43459 -0.33745,0.4868 0.01912,0.28473 -0.337962,0.42323 -0.112139,0.48835 0.766361,0.41186 -0.298173,0.22014 0.06718,0.25115 -0.01912,0.15916 -0.192754,0.0987 -0.01137,0.29714 -0.07907,0.1602 0.02791,0.23048 -0.637173,0.94412 -0.364833,0.1478 0.157096,0.16123 0.260448,0.77256 0.362251,0.25735 -0.05736,1.00821 0.221692,0.19223 -0.0021,0.14056 -0.08578,0.0863 -0.242877,0.0977 -0.463021,0.0134 -0.285255,0.0894 -0.172598,-0.37569 -0.172601,-0.26148 -0.397391,-0.40308 -0.519348,0.0181 -0.172083,0.077 -0.132291,0.17156 -0.02584,0.23926 0.08527,0.56431 -0.222727,0.5457 -0.155545,0.0687 -0.05116,0.11989 0.199988,0.3514 -0.08113,0.21446 0.08217,0.54002 -0.144695,0.0625 -0.188619,-0.0258 -0.442867,-0.23151 -0.283703,0.0258 -0.38499,-0.0992 -0.513146,-0.3266 -0.11834,0.15296 0.07648,0.44959 -0.195853,1.25935 0.157612,0.32815 0.105421,0.11834 0.117822,0.0491 0.05788,0.23513 0.02325,0.44493 0.148313,0.44442 -0.05839,0.99839 0.78083,0.28267 0.310058,-0.44287 1.655715,0.1049 -0.23513,1.23972 0.129193,0.0455 -0.139012,0.54415 0.810805,0.20722 0.172598,-0.25011 1.281576,-0.11679 -0.277503,1.1622 -0.242361,0.0594 -0.175183,0.49248 -0.03514,0.56431 0.891935,0.2899 0.695565,-0.23668 0.679546,0.0987 0.05736,0.67541 0.279053,0.62477 0.607198,0.0765 0.02997,0.8785 0.379306,0.0336 1.062467,0.44959 -0.04031,0.28112 0.427881,0.1788 -0.149862,0.24701 0.799951,0.23255 0.560171,0.60306 c -0.02191,0.16067 -0.109593,0.28481 -0.37982,0.38706 -0.270227,0.10225 -0.803264,0.10229 -1.000455,0.0512 -0.197192,-0.0511 -0.474465,-0.24863 -0.686264,-0.24133 -0.211801,0.007 -0.737973,0.27036 -0.898654,0.31419 -0.160674,0.0438 -1.007489,0.30706 -1.248503,0.24133 0,0 -0.406119,0.50724 -0.57464,0.6196 -0.168516,0.11234 -0.966153,0.43813 -1.078487,0.51676 -0.112345,0.0786 -0.483195,0.74129 -0.528135,1.02216 -0.04494,0.28086 -0.31424,1.1014 -0.404109,1.28106 -0.08988,0.17976 -0.662953,1.38195 -0.831474,1.65158 -0.168516,0.26963 -0.775518,1.57247 -1.022675,1.65106 -0.247161,0.0786 -0.842315,-0.25837 -1.100709,-0.30334 -0.25839,-0.0449 -0.561782,0.14616 -0.696598,0.30334 -0.134816,0.15728 -0.370464,0.80884 -0.538985,1.03353 -0.168519,0.22469 -0.652108,0.40487 -0.64079,0.68575 0.01124,0.28085 -0.134874,1.04482 -0.134874,1.42678 0,0.38199 0.561891,0.89863 0.618051,1.11208 0.05617,0.21345 0.460732,1.17966 0.57309,1.5167 l -1.501716,1.65003 0.06253,0.46509 -0.473356,0.18139 -0.85938,-0.1602 -1.633492,0.75913 -0.378273,-0.0284 -0.762743,0.4501 -0.249081,0.33642 -0.676961,-0.5054 0.22996,-0.27957 0.150895,-0.46095 -0.146759,-0.002 -0.04031,-0.16381 -0.460435,-0.0729 -0.334865,0.4868 -0.294555,-0.30335 -0.703316,0.11059 -0.02842,0.31833 -0.137462,0.03 -0.13539,-0.29817 -0.750342,0.0134 0.05116,0.69453 -0.270785,0.39067 5.16e-4,0.27079 0.392742,-0.10129 0.05736,0.16743 -0.273886,0.38706 -0.519864,0.28628 -0.04393,0.38499 0.421164,0.5023 0.494024,0.13798 0.05064,0.34003 -0.148828,0.61443 -0.4377,0.0393 -0.130741,-0.42219 -0.786514,-0.1478 -0.32453,0.94051 -0.564306,-0.0341 -0.12764,0.12299 -0.638204,-0.0243 -0.01809,0.13022 0.147793,0.14263 0.05064,0.15761 0.51263,-0.002 1.355474,0.24701 -0.01964,0.35347 0.106452,0.0961 -0.141592,0.1323 -0.469738,0.20774 -0.397394,0.0413 -0.373102,0.19792 -0.758095,-0.30541 -0.658357,-0.1018 -0.333312,0.10748 -0.139528,0.72916 0.554488,0.21652 -0.04444,0.12661 0.494543,0.0413 0.610299,0.14159 -0.323495,1.67536 -0.427882,0.13901 -0.611849,0.52554 -0.501261,0.61909 -0.104386,0.85524 0.432533,0.54777 0.820621,0.30438 0.617016,0.14831 0.747758,0.73639 0.182935,0.54312 -0.838192,0.54983 -0.280085,0.38654 0.608748,0.45734 0.533818,-0.40979 0.219623,0.0651 -0.01757,0.13642 0.524,0.20929 0.774112,0.10232 0.286287,0.17829 -0.220141,0.2837 -0.391707,0.61908 -0.576194,0.30334 -0.494025,0.87695 0.234093,0.41393 0.238228,0.57568 0.213424,0.33331 -0.582393,0.93534 -0.557073,-0.0346 0.0016,0.58704 0.314711,0.046 0.134874,0.56637 0.28112,0.59324 0.100769,0.3421 0.54002,0.48111 0.475422,0.0889 -0.235127,1.33325 0.172082,0.3793 0.218591,1.201483 -0.170532,0.83974 -0.42323,0.22324 -0.681096,0.19069 -0.558623,0.0331 -0.378788,0.28732 -0.207737,0.49816 -0.511599,-0.0827 -0.09302,0.55087 0.128159,0.3204 -0.360185,0.39946 c 0.305448,0.10069 0.612799,0.20162 0.736388,0.22479 0.233709,0.0438 1.373429,0.0872 1.607138,0.16019 0.233709,0.073 0.39412,0.16094 0.467153,0.40928 0.07304,0.24832 0.175266,0.97857 0.496613,0.83251 0.321349,-0.14604 0.628012,-0.70128 0.832506,-0.42375 0.204496,0.27752 -0.01466,0.62828 0.335896,0.80357 0.350565,0.17525 0.920301,0.43808 1.256255,0.45269 0.33596,0.0154 0.862068,-0.0873 0.905889,-0.0289 0.04381,0.0584 -0.32125,0.83259 -0.175184,1.15393 0.146058,0.32137 0.525373,0.32125 0.379304,0.6718 -0.146076,0.35057 -0.496271,0.80312 -0.642337,1.12447 l -0.729154,-0.31987 -0.275953,-0.0491 -0.209288,-0.16794 -0.115755,-0.524 -0.330729,0.29094 0.289904,0.21704 -0.0067,0.29559 -0.253214,0.26768 -0.23513,-0.0424 -0.17725,0.3545 0.151413,0.44545 -0.04754,0.45837 0.01499,0.46353 -0.128674,0.59015 -0.670759,-0.14469 -0.256315,0.1018 -0.807704,-0.25322 -0.116787,0.54726 0.118853,0.32556 0.402561,0.72295 0.291971,0.13488 -0.05891,0.36793 -0.218075,0.0377 -0.633553,-0.33022 -0.195855,0.25167 -0.274918,-0.0889 -0.293005,0.37103 -0.077,0.92191 -0.214455,0.0233 0.07286,0.3979 -0.236162,0.18552 -0.269235,0.4532 -0.251148,0.6935 -0.273367,0.0558 -0.06046,-0.51418 -0.977199,-0.0294 0.0046,0.84129 -0.443383,0.22169 -0.395841,0.3483 -0.213423,0.47181 -0.139528,0.5767 0.268718,0.13953 0.756026,0.0248 0.252182,0.16433 0.380339,0.10852 0.137459,0.23512 0.964282,0.50902 0.635619,-0.15762 -0.21549,0.94465 -0.409279,0.33228 -0.151929,0.3762 -0.428397,0.0543 -0.262514,0.44339 -0.296625,0.0134 -0.354499,-0.10645 -0.274918,0.1726 -0.723471,0.22634 -0.221692,0.30283 -0.617017,-0.0842 -0.140043,0.17777 -0.132291,0.33641 -0.268718,0.17415 -0.186552,-0.1757 -0.132808,0.21188 -0.250114,0.0904 -0.143144,-0.14469 -0.755509,0.28112 -0.178801,0.2713 -0.236161,0.15554 0.05839,0.19741 -0.02222,0.38292 -0.104903,0.81856 -0.190169,0.4811 -0.03462,0.50282 0.139009,0.0723 0.181901,0.82011 0.133326,0.0889 -0.243396,0.44338 -0.165882,0.58343 0.03876,0.28112 -0.286804,0.0341 -0.04444,0.14004 0.08682,0.45992 -0.118339,0.79685 1.175639,0.2465 0.218591,0.13177 0.217558,0.35967 0.163814,-0.0527 0.110588,0.22221 0.879533,-0.0661 0.311092,0.90227 -0.0052,0.19586 0.07131,0.1757 0.264066,0.13797 0.444418,-0.46199 0.232545,-0.44855 0.747239,-0.88883 0.256834,0.006 0.254246,0.0972 0.400494,0.93017 0.245978,0.28577 0.243914,-0.031 0.183452,-0.11989 0.259416,-0.0754 1.355471,-0.26924 0.001,-0.20567 0.243912,-0.0413 0.111622,0.42891 0.03307,0.33228 -0.03927,0.91209 0.414962,-0.0744 0.22221,0.18242 0.259414,-0.0196 0.47594,0.0935 0.256315,0.3948 0.658876,-0.046 0.670243,0.23668 0.252698,-0.12661 0.372071,-0.0155 0.253214,0.36122 0.269234,0.26975 0.710034,0.26923 0.170016,-0.0868 0.06718,0.14624 0.131257,-0.0904 0.131257,0.39635 -0.05633,0.38603 -0.125574,0.35347 -0.03721,0.68678 -1.055232,-0.18914 -0.927592,-0.27078 0.04806,-0.57516 0.208772,-0.65113 -0.264583,0.21549 -0.205672,0.24805 -0.09043,0.63769 -0.118856,0.41237 -0.353984,0.21033 -0.410826,0.0589 -0.603065,-0.0114 -0.2589,0.0822 -0.04703,0.29404 0.07442,0.65267 -0.04548,0.48317 -0.338479,0.062 -0.473874,0.0233 -0.302308,-0.30076 -0.951362,-0.33693 -0.0677,0.86972 0.03359,0.50281 -0.81597,-0.3204 -0.493509,0.0212 -0.848529,-0.33538 -0.558104,0.23823 -0.729155,0.524 0.02997,0.81855 0.885217,0.36329 0.37879,-0.006 0.105937,0.11007 -0.105937,0.29249 -0.675412,0.69711 0.289904,0.41548 0.198437,0.0527 -0.118856,0.3204 -0.396875,0.56017 -0.610814,0.15606 -0.586529,0.28939 -0.372586,-0.0791 -0.539502,0.0574 -0.449068,-0.26148 -0.114205,-0.22169 0.162264,-0.27595 0.219625,-0.0822 -1.530656,-0.0475 -0.09508,0.41393 -0.0062,0.72295 0.178284,0.0677 0.186035,0.21342 -0.06873,0.39274 -0.143144,0.55552 -0.06201,0.0393 -0.0956,0.68368 -0.09198,0.0822 -0.415996,0.8692 -0.147278,0.0625 -0.206189,0.46819 0.716236,-0.031 0.320394,0.11989 0.09457,0.59841 -0.266651,0.33487 -0.397391,0.0708 -0.282671,0.40101 -0.81442,0.45372 -0.116789,0.21653 -0.02532,0.42891 -0.124024,0.49144 -0.156063,0.16123 -0.522965,-0.41754 -0.365869,0.30747 -0.164848,-0.0527 -0.198438,0.23823 -0.453719,0.29249 -0.202571,0.19534 0.05168,0.19223 0.181901,0.18759 0.474907,0.0806 0.321944,-0.001 -0.01189,0.15245 -0.295072,0.1018 -0.107487,0.81029 -0.540019,-0.0754 -0.275435,0.0408 -0.330213,0.16278 -0.17725,0.38293 0.04651,0.3731 -0.266134,0.38964 0.07493,0.25115 -0.270784,0.18551 0.379821,0.57206 0.471289,0.1447 0.05168,0.60151 1.245402,0.33021 0.267684,0.48318 0.444934,0.14934 0.647506,0.35812 0.566373,0.16123 0.267684,-0.19069 0.541052,0.17105 0.218075,0.21498 0.567407,0.19585 -0.129191,0.62425 0.196887,0.34003 0.252698,0.31213 0.468705,0.26975 0.05168,0.22014 -0.133842,0.13333 0.145727,0.49454 0.275953,0.4191 0.205155,0.48627 0.282153,0.3235 0.07493,0.32556 -0.06615,0.63097 0.341065,0.35811 0.06666,0.43719 -0.321943,0.0822 -0.570508,0.39946 -0.0677,0.0822 -0.200504,0.38602 0.09043,0.83819 -0.04393,0.39584 -0.300239,0.47646 -0.251665,0.31419 -0.281636,0.0636 0.03256,0.35191 -0.01912,0.36484 0.09198,0.29094 -0.134876,0.30695 0.05943,0.22996 0.180351,0.0382 -0.0072,0.39429 -0.131258,0.16899 -0.289388,0.0641 -0.371554,0.21704 0.02997,0.15296 0.104903,0.0904 -0.08578,1.02991 -0.110588,0.25167 0.01292,0.006 0.282671,0.12196 0.150378,1.37511 0.0057,0.57877 -0.207739,1.13224 0.153996,0.33331 0.183968,0.73484 0.167432,0.20515 0.330729,0.25167 -0.0067,0.61753 -0.02636,0.33538 -0.210323,0.14108 -1.257805,-0.18862 -0.387573,-0.1757 -0.125057,0.31057 0.108004,0.80512 -0.102319,0.75396 -0.223759,0.72967 -0.190687,0.38603 -0.117822,0.13487 0.03566,0.23978 0.06563,0.0904 -0.04289,0.15297 -0.144178,0.0326 -0.03979,0.18087 0.111621,0.15451 0.252698,0.003 0.18035,0.14315 0.22686,0.0868 0.443384,-0.3483 0.167948,0.0134 0.432532,0.15968 0.263033,-0.13797 0.318327,0.0672 0.108003,0.17932 -0.07235,0.3514 0.0031,0.31058 -0.135392,1.02887 -0.183968,0.33022 -0.84336,-0.0987 -0.51263,0.42065 -1.135331,0.21239 0.01602,0.447 0.239779,0.154 0.380339,0.10542 0.120922,0.29714 0.12144,0.0925 0.206706,0.0294 -0.180868,0.27131 0.299207,0.0801 0.314709,0.0233 0.246497,-0.17105 0.344682,-0.33487 0.367419,-0.22014 0.439767,0.10491 0.108003,0.18913 -0.30179,0.4222 -0.187585,0.3731 -0.06253,0.2465 -0.318843,0.26613 -0.09508,0.34468 0.0031,0.35502 0.537951,0.14314 0.05891,0.41083 -0.02636,0.12661 -0.213423,-0.0212 -0.08527,0.19379 0.141077,0.077 0.157097,0.19223 -5.17e-4,0.16589 -0.20929,0.0413 -0.220141,0.13797 -0.725021,-0.0574 -0.360701,0.0475 -0.870232,0.89246 -0.203088,0.0708 -0.836125,-0.13125 -0.252697,0.16226 -0.337964,-0.10129 -0.06201,0.30386 0.127124,0.0171 0.12144,0.0661 0.0956,0.15089 0.02946,0.14625 0.186552,0.14831 0.06253,0.19224 0.777214,0.15244 -0.01705,1.45418 -0.183969,0.22376 -0.628902,-0.11679 -0.390674,0.061 -0.265617,0.15245 -0.416511,0.0331 -0.114722,0.0444 -0.341065,0.26252 -0.209806,0.21704 -0.0987,0.46354 -0.0067,0.37931 -0.04909,0.15813 -0.449068,0.0542 -0.360701,-0.009 -0.206706,-0.12144 -0.236161,0.0362 0.0031,0.15606 -0.756543,0.077 -0.305407,-0.0134 -0.596863,-0.36638 -0.249081,-0.0987 -0.68833,-0.11834 0.01292,0.31058 -0.05839,0.25115 -0.209806,0.42891 -0.36742,0.11834 -1.868103,0.20412 -0.387573,-0.23978 -0.311092,-0.0382 L 0,191.71269 l 0.953947,0.81959 0.318327,0.33228 0.341581,0.95963 0.268718,0.38603 0.304891,0.29765 0.190169,0.38913 0.357084,0.42891 0.547254,0.18759 0.685229,0.30902 1.422136,0.31678 0.563789,0.4749 0.530718,0.1726 1.139982,-0.18551 0.825272,0.4501 0.717269,0.32039 0.587045,0.18552 0.576708,-0.009 0.307992,-0.12505 0.409277,-0.4222 0.160714,-0.0987 0.599963,-0.077 0.681612,0.0196 1.107426,-0.13178 0.723987,0.11007 0.864548,0.31058 0.481623,0.003 0.54002,0.65267 0.359667,0.30076 0.507463,0.1757 0.285253,0.28112 0.278021,0.17208 0.956014,0.31058 0.805635,-0.11007 0.285771,0.0233 -0.39791,0.52555 0.124024,0.42271 0.232545,0.46974 0.0088,0.41083 -0.144695,0.49816 0.215492,0.30696 -0.108521,0.18087 -0.530199,0.0444 -0.350366,-0.15968 -0.28112,-0.32349 -0.235646,-0.16279 -0.855244,0.39274 -0.347266,0.20051 -0.190169,0.2465 -0.328663,1.11259 -0.439248,-0.2434 -0.07803,-0.15296 -0.281636,-0.0605 -0.343648,0.008 -0.655257,0.16278 -0.05633,0.39791 -0.06821,0.15606 -0.62942,0.447 0.07493,0.44545 -0.0072,0.97101 0.268201,0.0739 0.474905,-0.10025 0.471289,0.0806 0.02274,0.34159 -0.131258,0.12505 -0.356568,-0.0413 -0.387056,0.14986 -0.08837,0.37931 0.06821,0.60151 -5.17e-4,0.45682 -0.360701,0.46974 -0.261999,1.11931 0.176216,0.30386 0.07183,0.31574 0.02791,1.16479 -0.104903,0.59324 0.19637,-0.0212 0.287838,0.0837 0.402041,0.28733 0.369488,0.32866 -0.327628,0.11162 -0.307475,0.2403 -0.275436,0.74723 0.0067,0.23048 0.548287,0.3545 -0.187068,1.05523 -0.182935,-0.0294 -0.09509,0.27905 0.06511,0.11317 -0.272334,0.94982 0.07493,0.28267 0.372588,0.46663 -0.01344,0.18087 0.09457,0.1416 0.07855,0.32194 0.463537,0.18242 -0.09302,0.35657 -0.159166,0.94981 0.001,0.33848 0.19327,0.29094 0.324012,0.23823 0.05684,0.31522 -0.07235,0.77928 -0.12609,0.7922 c 0.217371,0.0921 0.455382,0.19088 0.586529,0.22066 0.227226,0.0517 0.774768,-0.0313 0.991671,0.12351 0.216898,0.15488 0.794951,0.25838 1.053164,0.23771 0.258214,-0.0206 0.54747,-0.0308 0.877982,-0.009 0.330515,0.0206 0.692055,-0.0625 0.857314,0.22686 0.165253,0.2892 0.423876,0.44436 0.620117,0.37207 0.196244,-0.0723 0.392441,-0.49608 0.722953,-0.46509 0.330515,0.031 0.763878,0.0725 0.918808,0.33073 0.154935,0.25823 0.377933,0.67491 0.743106,0.89401 0.36517,0.21909 1.081114,0.35058 1.460892,0.43821 0.37978,0.0876 1.022172,0.24844 1.460378,0.26304 0.438203,0.0153 0.934871,-0.58457 1.314646,-0.62839 0.37978,-0.0438 0.817904,-0.20403 1.051615,0.11731 0.233709,0.32137 0.525873,0.43792 0.876433,0.46715 0.350565,0.0292 0.774295,-0.21899 1.139467,0.0439 0.36517,0.26292 0.686581,0.39429 1.037146,0.39429 0.350562,0 1.080979,-0.0439 1.475362,-0.10232 0.394382,-0.0584 0.9491,-0.23358 1.299662,-0.23358 0.350562,0 0.482291,0.23346 0.905888,-0.0879 0.423596,-0.32134 0.949373,-1.05132 1.270723,-1.13895 0.321347,-0.0876 0.788969,-0.11728 1.022678,0.1018 0.233706,0.2191 1.066234,0.78906 1.489829,0.90589 0.4236,0.11683 1.416669,0.13116 1.723411,0.0873 0.306744,-0.0438 0.59894,-0.27732 1.037145,0.0155 0.438203,0.29216 0.364985,0.75976 0.788583,0.80357 0.423595,0.0438 1.139542,0.3212 1.460892,0.73018 0.321352,0.40899 0.642792,0.62787 0.978752,0.62787 0.335954,0 0.920226,0.19028 1.153935,0.39481 0.233706,0.20446 0.262937,0.67178 0.657323,0.9493 0.394382,0.27756 2.074053,0.2189 2.263944,0.18965 0.189889,-0.0293 0.847397,-0.45287 1.022678,-0.59893 0.175284,-0.14604 0.321323,-0.42355 0.277503,-0.77411 -0.04383,-0.35057 -0.408932,-0.78853 -0.335896,-1.12448 0.07304,-0.33595 0.657127,-0.96392 1.007689,-1.16841 0.350565,-0.20452 0.657339,-0.33609 1.095539,-0.42374 0.438208,-0.0876 1.089536,-0.69819 1.389063,-0.7705 0.299527,-0.0723 0.506436,-0.23783 0.516765,-0.42375 0.01041,-0.18601 0.154631,-0.5266 0.319876,-0.55758 0.165254,-0.031 0.692161,-0.0723 1.012344,-0.0414 0.320188,0.031 0.991759,-0.35103 1.126027,-0.56792 0.134281,-0.21692 0.330255,-0.29939 0.392226,-0.6196 0.06197,-0.32017 -0.237712,-1.00201 -0.237712,-1.00201 -0.05166,-0.11379 0.48577,-1.29152 0.496094,-1.51876 0.01041,-0.22721 0.02059,-0.85701 -0.03101,-1.15653 -0.05166,-0.29952 0.07246,-0.7437 0.268718,-0.86764 0.196242,-0.12394 0.929177,0.031 0.980819,0.0723 0.05166,0.0413 0.712843,0.61969 1.053682,0.77464 0.340847,0.15486 1.218597,0.0412 1.321882,-0.24805 0.10328,-0.2892 -0.268467,-0.75414 -0.01034,-1.01234 0.258218,-0.25824 0.847239,-0.66095 1.250053,-0.67128 0.40281,-0.009 0.960335,0.12432 1.249538,-0.11317 0.289197,-0.23756 0.588698,-0.77468 0.743622,-0.87798 0.154937,-0.10339 0.723188,-0.40313 1.084688,-0.48576 0.361498,-0.0826 0.888003,0.15509 1.197862,-0.009 0.309856,-0.16526 1.094697,-0.0827 1.394229,-0.031 0.299525,0.0517 1.42553,0.17581 1.879989,0.29972 0.454459,0.12394 2.024582,0.76396 2.664953,1.05317 0.640368,0.28919 1.136118,0.51666 1.549259,0.3514 0.413142,-0.16526 0.671396,-0.58867 0.857314,-0.73329 0.185909,-0.14469 0.795353,-0.53707 0.87798,-0.74363 0.08262,-0.20659 0.402812,-0.85736 0.784966,-0.90899 0.382161,-0.0517 1.28075,-0.0827 1.600935,0.0413 0.320186,0.12395 0.640337,0.19602 0.743625,0.43357 0.103291,0.23756 0.402704,0.48537 0.629936,0.64027 0.22723,0.15488 0.40273,0.53719 0.671277,0.971 0.268539,0.43379 0.526807,0.8264 0.867646,0.98134 0.340844,0.15487 1.394372,0.32042 1.611272,0.3514 0.216898,0.031 0.506109,0.53701 0.805636,0.71262 0.299532,0.17563 0.588645,0.0929 0.660942,-0.0414 0.07231,-0.13432 0.909159,-0.28943 1.167371,-0.34106 0.258212,-0.0517 1.104961,-0.031 1.290875,-0.13436 0.185913,-0.10316 0.392367,-0.7024 0.609267,-0.88832 0.216898,-0.18601 0.785127,-0.48536 1.043347,-0.67127 0.258221,-0.18601 0.319966,-0.44406 0.454234,-0.69195 0.134282,-0.24787 0.496184,-0.44411 0.630455,-0.7643 0.134289,-0.32017 0.247486,-1.13605 0.164846,-1.43557 -0.0826,-0.29953 -0.526545,-1.69416 -0.474906,-2.03501 0.0516,-0.34086 0.444124,-0.59891 0.784966,-0.56793 0.340839,0.031 1.239295,-0.009 1.383895,0.23771 0.1446,0.2479 0.22747,1.18773 0.39274,1.49759 0.165261,0.30986 0.340569,0.95049 0.361219,1.18804 0.0206,0.23756 0.01056,0.66093 0.248047,0.62993 0.237549,-0.031 0.774753,-0.49612 0.960665,-0.54777 0.18591,-0.0517 0.836634,-0.25806 0.805635,-0.54725 -0.031,-0.28922 -0.123952,-0.85742 -0.06201,-1.00201 0.062,-0.1445 0.288798,-0.67093 0.185518,-0.94981 -0.103288,-0.27888 -0.505962,-0.32056 -0.588594,-0.60978 -0.0826,-0.28919 -0.03065,-0.71226 -0.247529,-0.93948 -0.2169,-0.22724 -0.413292,-0.58876 -0.237712,-0.87798 0.175591,-0.28919 0.578369,-0.23782 0.753959,-0.41341 0.175591,-0.17563 0.382051,-0.35093 0.640271,-0.4439 0.258209,-0.093 0.506111,-2.3e-4 0.815972,-0.18604 0.309849,-0.186 0.878184,-0.42323 1.177706,-0.43356 0.299529,-0.009 0.918958,0.0825 1.156517,-0.15503 0.237562,-0.23753 0.392743,-0.62994 0.392743,-0.62994 0.14456,-0.0311 0.59859,-0.63005 0.867129,-0.81597 0.268539,-0.18601 1.136153,-0.12406 1.61127,0.0207 0.475108,0.14451 1.115808,0.0209 1.301728,0.24805 0.18591,0.22722 0.45435,0.61952 0.64027,0.49557 0.18591,-0.12394 0.4337,-0.45456 0.64027,-0.2067 0.20657,0.2479 0.61972,0.51665 0.80564,0.3514 0.1859,-0.16526 0.7851,-0.55808 1.01234,-0.51677 0.22722,0.0413 0.6611,0.43419 0.90899,0.62012 0.24788,0.18581 0.64048,0.59894 0.971,0.6196 0.33051,0.0207 1.63154,-0.31012 1.81746,-0.41341 0.18591,-0.10315 0.86782,-0.26827 1.15704,-0.37155 0.28919,-0.10338 0.72296,-0.33047 0.74362,-0.74363 0.0207,-0.41315 0.0208,-1.52878 0.20671,-1.83865 0.18591,-0.30985 0.33017,-0.84671 0.2682,-1.21853 l -0.0331,-0.74259 -0.11059,-2.03295 -0.25373,-0.7524 -0.65061,-0.6904 0.10077,-0.64389 -0.0408,-1.07642 0.13333,-1.22266 0.22117,-1.24386 0.40204,-0.80047 0.54157,-0.33331 -0.0589,-0.67541 -0.23409,-0.60978 -0.37414,-0.58136 0.062,-0.89245 0.28474,-0.61599 1.67173,-1.5105 0.29301,-0.83612 0.89916,-0.22221 0.70074,-0.10646 1.00097,-0.17208 c 0.14849,-0.11625 1.01024,-0.23311 1.50689,-0.33538 0.49662,-0.10224 1.70894,-0.0877 2.14715,-0.10232 0.4382,-0.0153 1.69417,0.30648 2.22002,0.0873 0.52585,-0.21909 1.06624,-0.62821 0.99322,-1.13947 -0.0731,-0.51125 -0.0149,-0.96379 0.5116,-1.12448 0.52584,-0.16064 1.08067,0.0877 1.56269,0.0155 0.48203,-0.0731 0.58428,-0.6135 1.09554,-0.65732 0.51122,-0.0438 1.10994,-2.7e-4 1.44591,0.0873 0.33597,0.0876 0.67213,0.0734 1.02268,-0.0873 0.35057,-0.16065 1.16865,-0.73054 1.41697,-0.80357 0.24831,-0.0731 0.55493,0.14609 0.67179,-0.11679 0.11683,-0.26292 0.45285,-0.6865 0.59893,-0.93482 0.14604,-0.2483 0.17502,-0.33613 0.62787,-0.36536 0.4528,-0.0292 0.97875,0.48207 1.19786,0.59893 0.21909,0.11683 0.81783,0.13183 1.00769,-0.0434 0.18985,-0.17524 0.94955,-1.31499 1.19786,-1.38803 0.11024,-0.0325 0.31592,-0.0966 0.52555,-0.15658 0.26228,-0.0751 0.53096,-0.14367 0.62838,-0.1354 0.17525,0.0153 1.40227,0.3508 1.81126,0.30696 0.40898,-0.0438 0.94925,-0.80372 1.00769,-1.0082 0.0584,-0.2045 0.13175,-0.72989 0.40928,-0.81752 0.27755,-0.0876 0.6863,-0.0442 1.06608,-0.2341 0.37978,-0.18985 0.77448,-0.46708 1.06661,-0.36484 0.29215,0.10224 0.90573,1.24162 1.19785,1.59215 0.29214,0.35057 0.43816,0.56948 0.77412,0.56948 0.33595,0 0.64234,-0.17518 0.64234,-0.17518 l 0.93741,-0.31678 0.95343,-0.0987 0.63252,0.52761 0.40669,0.69505 0.56586,1.47743 0.6165,0.65061 0.64699,0.25941 0.54311,0.13178 1.04284,-0.10542 0.85835,-0.524 0.8201,-0.97255 1.01803,-1.8371 0.11678,-0.10542 0.48163,-0.47335 0.78703,-0.49455 0.36587,-0.36948 0.51883,-0.73949 0.58395,-0.44236 0.25063,-0.3023 0.20308,-1.45263 0.33332,-0.58807 0.39997,-1.14722 0.26045,-0.61598 -1.53531,-0.68988 -0.28473,-0.35192 -0.12661,-0.3731 -0.001,-0.47956 -0.0682,-0.25994 -1.06196,-0.0263 -1.0883,-0.51108 -0.13488,-0.0589 0.18397,-0.78238 0.42427,-0.78703 0.37413,-0.87747 0.49765,-0.64234 0.54622,-0.47852 0.4718,-0.50436 0.48473,-1.60197 0.99218,0.0532 1.12345,0.06 -0.017,-0.80512 0.20618,-0.54209 0.64906,0.25787 0.3483,0.0806 0.38706,-0.0558 0.10387,-0.1974 0.30127,-0.0527 0.37207,0.0806 0.38396,-10e-4 0.36897,-0.44028 0.10438,-0.45527 0.36587,-0.36639 0.99529,-0.86609 0.18552,-0.37776 0.63769,-0.80873 0.66972,0.13487 0.10284,0.93328 -0.031,0.42581 0.31523,0.27079 0.65887,-0.33642 0.25373,-0.0248 0.79531,0.81648 0.19327,0.14315 0.29765,-0.0279 0.50281,-0.25321 0.65681,-0.18242 0.77256,0.9648 0.7059,0.91209 0.68472,1.16169 0.14314,0.91002 0.21446,0.86971 0.41651,0.63407 -0.11524,0.0212 0.15761,0.96325 -0.008,0.59324 0.13694,0.36484 0.0424,0.35967 0.447,-0.006 0.54984,0.21859 -0.12867,0.62942 0.88004,0.13487 0.42582,-0.0904 0.14159,0.25166 0.19327,0.63717 0.13333,0.67386 0.32246,0.8692 0.16071,0.0263 0.10904,-0.10335 0.0863,-0.39119 0.81649,-0.31367 0.26975,-0.35864 0.0568,-0.30386 -0.0258,-0.70486 1.04594,0.41083 0.15089,0.28938 0.0796,0.43357 0.51108,0.11679 -0.0155,0.18552 0.7121,0.24649 0.43305,0.22686 0.13643,0.48938 0.0734,0.91364 0.80666,0.094 0.44235,0.18552 0.30851,0.20205 0.27027,0.30231 1.18236,0.32711 0.39015,0.0641 0.66043,-0.0723 0.90744,0.13178 0.89762,0.26768 0.35967,-0.44028 1.55287,-0.80047 0.36277,-0.14779 -0.34933,-0.23668 -0.2279,-0.32711 -0.42943,-0.48473 -0.77566,-0.30076 -0.26355,-0.2775 -0.31729,-0.001 -0.28939,-0.0708 -0.078,-0.35346 0.43098,-0.64079 0.0863,-0.3483 0.0455,-0.40773 0.006,-1.06298 0.63717,-0.22686 0.5643,-0.0476 -0.0532,-0.73277 -0.13332,-0.19223 -0.1173,-0.3421 0.047,-0.3514 0.20826,-0.0693 0.19223,-0.15606 0.0501,-0.2496 -0.0636,-0.27905 -0.27441,-0.54725 -0.80873,-0.0202 -2.08153,-1.28829 -0.60823,0.76584 -0.60358,-0.33538 -1.01803,-0.31677 -0.23874,0.62942 -0.0749,0.54518 0.1235,0.53279 -0.60358,-0.20568 -0.38705,-0.29559 -0.36432,-0.20567 -0.56069,-0.4501 -0.58084,-0.36639 -1.66554,-0.51108 -0.81131,-0.15451 -0.92708,-0.30541 -1.12396,-0.44234 -0.11989,-0.006 0.15399,-0.21394 0.47698,-0.47129 0.10387,-0.23203 -0.0212,-0.33486 -10e-4,-0.14986 0.59376,-0.23306 0.25063,-0.16278 0.0765,-0.24185 0.0439,-0.3762 -0.27181,-0.31523 -0.32505,-0.19895 -0.0357,-0.25167 0.063,-0.34675 -0.37362,-0.74414 -0.21342,-0.28732 -0.0424,-0.21394 0.39533,-0.36483 0.27027,-0.16899 0.60822,-0.55862 0.17054,-0.0904 0.10439,0.0134 0.12505,0.20361 0.13333,0.48007 -0.0486,0.30386 0.11059,0.31057 0.74001,0.68678 0.19171,0.73278 0.15142,0.20722 0.66817,0.17053 0.74983,0.26303 0.36587,-1.11259 0.62477,-0.008 0.41444,-0.0527 0.18242,-0.26097 0.39326,-0.41599 0.13487,-0.33538 -0.003,-0.6258 0.11989,-0.85112 0.10593,-0.24649 0.20154,-0.28422 0.22944,-0.49144 -0.0243,-0.36484 0.85989,0.0904 0.42478,-0.10852 0.53641,-0.30747 0.34313,-0.34003 0.34519,-0.0362 0.40825,-0.1788 0.61133,-0.80046 0.73329,0.15141 0.37259,0.23978 0.81959,0.63097 0.48317,0.22531 0.49919,-0.0641 0.19999,0.0527 0.4067,0.21032 0.32194,0.10335 -0.25063,0.46044 0.61805,0.26252 0.54312,0.13797 0.57257,0.37311 -0.0682,0.21032 -0.60823,0.38292 -0.36277,0.28784 -0.001,0.3514 -0.20981,0.3731 0.31213,0.20878 0.52865,0.0294 0.62941,-0.11989 0.39378,-0.17932 0.43408,-0.0754 0.31729,-0.16899 0.14315,-0.24494 0.6165,0.0196 0.96118,0.15968 0.72347,0.046 1.1498,0.53537 1.07487,0.25631 0.77773,0.0822 0.28112,0.0646 0.41496,0.2527 0.57258,0.0279 1.1038,0.26304 0.33383,0.30075 0.17519,0.36794 0.68316,-0.39584 0.31264,-0.40773 0.2403,-0.21652 0.21652,-0.37827 -0.13332,-0.98082 0.33641,-0.72295 -0.009,-0.22841 0.0992,-0.56534 -0.50591,-0.8661 0.46509,-0.36639 0.1819,-0.36793 0.19379,-1.20458 0.3545,0.0605 0.66662,0.22841 0.40205,0.0155 0.43098,-0.0217 0.29766,-0.0718 0.21755,-0.19431 -0.063,-0.42064 0.0992,-0.40256 0.0486,-0.50436 -0.10077,-0.2186 -0.25218,-0.23667 -0.0811,-0.32195 0.0341,-0.50126 -0.12558,-0.46664 0.46716,-0.22169 0.37568,-0.0331 0.55088,0.0444 0.46198,0.25631 0.48008,0.3912 0.45527,0.28422 0.56896,0.20205 1.03766,0.28422 0.33693,-0.017 0.35605,-0.12971 0.42271,-0.13643 1.1436,-0.12505 0.29249,-0.31574 0.18552,-0.27286 0.28163,-0.14934 0.21601,-0.25632 0.14625,-0.51573 0.40359,0.20361 0.46044,0.33538 1.22783,-0.53072 1.8557,-0.61133 1.5074,-0.39481 0.94981,-0.0537 0.64803,0.68729 0.51108,-0.50126 0.21342,-0.40979 0.41703,-0.63666 -0.55139,-0.86764 -0.0605,-0.63614 -0.062,-0.73226 0.31884,-0.42684 1.2485,0.21291 1.1157,-0.008 0.13694,-1.69861 0.42427,1.87172 0.17001,0.49454 0.49868,-0.48472 1.07332,0.18604 0.76688,-0.70694 0.93689,-0.72089 0.42323,-0.92087 -0.0341,-2.61224 0.27027,-0.36019 -0.0992,-0.15089 -0.18707,-0.62787 -0.83664,0.57206 -1.12396,-0.21911 -0.94878,0.24701 -0.99736,-1.45055 -1.00304,-1.0325 -1.0573,-0.31574 -0.49764,0.25166 -1.05523,-0.12506 -0.49765,-0.68988 v -0.817 l -1.1808,-0.0641 0.49609,-0.50126 c -0.43424,-0.50284 -0.93224,-0.81649 -0.93224,-0.81649 l -1.16479,-0.76223 -0.59479,0.61237 -0.74156,-0.13332 -1.00149,1.341 -3.43804,-1.68517 -1.06711,-1.44487 -0.59583,-1.08107 -0.54364,-0.69402 -0.30644,-0.62322 -1.14205,-0.92914 -0.86196,-0.28215 -1.34617,0.1819 -1.18081,-0.34003 -0.38086,1.10226 -1.21801,-0.39895 -0.57567,-1.1436 -0.12506,-0.87953 0.49764,-0.43873 1.2423,0.0625 0.87024,-0.0625 1.11879,-0.37775 c 0.75191,0.83613 1.50375,0.60316 2.25568,0.44234 0.0783,-1.01519 -1.19101,-1.16357 -2.30632,-1.66191 l -0.17364,-0.89659 -1.0728,-0.63872 0.25115,-0.69039 0.19069,-0.59997 -0.0889,-0.84646 -0.42581,-1.08623 c 0.44138,-0.68462 1.11445,-0.82827 1.80558,-0.93018 l 1.36787,-0.18759 0.49609,-0.25114 0.31058,-0.37621 h 0.49764 l 0.68472,0.94155 0.55965,0.50281 0.68316,0.2496 0.93173,-0.0625 0.43563,0.1266 0.26717,0.4315 -0.30696,1.05782 1.3162,0.37879 0.98082,0.98185 0.37103,-1.20199 0.58188,-0.77257 -0.59273,-0.71313 0.11886,-1.08934 0.12299,-0.95033 -1.75545,-0.79272 -0.41806,-0.12505 -0.28629,-0.19224 -1.09606,-1.495 -0.45527,-1.20303 -0.13694,-1.46554 -0.41599,-2.74919 -0.13178,-0.28422 -0.40359,-0.19585 -0.0749,-0.67024 -0.14935,-0.27131 -0.0444,-0.32711 -0.0956,-0.21652 -0.23461,-1.50844 -0.0667,-0.91054 -0.0615,-0.23151 -0.0879,-0.31729 -0.0816,-0.48318 -0.12505,-0.37982 -0.12661,-0.32349 -0.0687,-0.37311 -0.0212,-0.0196 0.20361,-0.66404 -0.13488,-0.34985 -0.61185,-1.22732 -0.46664,-0.50643 0.11059,-0.1788 0.13177,-0.39119 0.0811,-0.39119 -0.003,-0.29921 -0.12506,-0.729673 0.0992,-0.35295 1.00356,-0.82372 0.27801,-0.30902 0.12041,-0.46509 -0.0537,-0.3545 -0.006,-0.49661 -0.001,-0.0501 -0.447,-0.0114 -0.62787,0.0775 -0.23719,0.15296 -0.3111,0.39739 -0.41289,0.12764 -0.0501,0.12558 -0.21135,0.17466 -1.09968,0.60617 -0.62115,0.21394 -0.42943,0.014 -0.65215,0.10645 -1.05214,-0.006 -0.0227,-0.21136 -0.17777,-0.14676 -0.1447,-0.21136 -0.0274,-0.21394 0.0289,-0.27233 -0.22738,-0.92553 0.0517,-0.56327 -0.0222,-0.27699 -0.18241,-0.53898 -0.0408,-0.24805 0.0538,-0.14262 0.40514,0.0987 0.26303,-0.015 0.23926,-0.12816 0.0894,-0.12144 0.0134,-0.22634 -0.31729,-0.80047 -0.14625,-0.23977 -1.07332,-0.11163 -0.29765,-0.29145 -0.25528,-0.0455 -0.29766,0.03 -0.28939,0.14469 -0.0961,0.32091 0.0636,0.34262 -0.0326,0.34829 0.0568,1.15239 -0.047,0.27285 -0.39843,0.21446 0.009,0.26561 -0.71055,0.678 -0.60824,0.11782 -1.34978,0.0693 -0.95653,-0.1018 -0.57878,-0.38189 -0.11214,-1.24851 -0.0155,-0.62528 0.0553,-0.74104 1.30121,-0.59686 0.68782,-0.38396 0.81958,-0.38292 0.16434,-0.18294 0.0568,-0.1788 -0.009,-0.23719 -0.17725,-0.22479 -0.18087,-0.0822 -0.231,-0.008 -0.22272,-0.28784 -0.38706,-0.73846 -0.17415,-0.19327 -0.20619,-0.0475 -0.13332,-0.11834 -0.2279,-0.3638 -0.0878,-0.34468 -0.37052,-0.26045 0.0357,-0.16226 -0.0455,-0.65371 -0.0832,-0.29404 -0.45062,-0.91726 -0.46354,-0.64182 -0.19999,-0.61443 0.0155,-0.36587 0.0651,-0.22686 -0.0832,-0.21187 -0.22583,-0.19121 -0.13177,-0.20515 -0.0279,-0.24133 0.45579,-0.44287 0.17208,-0.26355 0.0894,-0.21187 -0.12195,-0.28784 -0.22428,-0.0739 -0.23099,0.0289 -0.28939,0.22738 -1.21491,-0.75603 0.0889,-0.52761 0.14469,-0.31781 0.19999,-0.0801 -0.21601,-0.26458 -0.16898,0.0196 -0.48472,-0.23151 -0.0357,-0.2992 -0.10749,-0.19638 -0.3514,-0.15347 -0.0517,-0.11059 -0.18707,-0.16072 -0.20361,-0.0791 -0.20619,-0.17208 -0.63923,-0.36225 -0.14005,-0.37776 -0.63096,-0.82476 -0.12196,-0.25993 -0.0605,-0.25115 0.15968,-0.22685 -0.078,-0.44907 -0.12868,-0.19586 -0.31368,0.0382 -0.31109,-0.27543 -0.41289,-0.16123 -0.16588,-0.41548 -0.37569,-0.39894 -0.16743,-0.23926 -0.29921,-0.2248 -0.77773,-0.46353 -0.74466,-0.22169 -0.33021,-0.45011 -0.22944,-0.17725 -0.95601,-0.5643 -0.46665,-0.1726 -0.1483,-0.20826 -0.0424,-0.21601 -0.37207,-0.39119 -0.20826,-0.14934 -0.15296,-0.21394 -0.078,-0.32401 -0.17208,-0.14056 -0.69298,-0.10956 -0.53692,-0.50281 -0.2713,-0.077 -0.18914,0.0269 -0.43408,0.22014 -0.24391,0.0496 -0.262,0.006 -0.70384,-0.20205 -1.79885,0.87074 -0.0863,0.10749 -0.7674,0.0904 -0.48627,0.23461 -0.21291,0.20619 -0.25321,0.38241 c -0.0292,-0.18985 -0.80316,-0.81835 -1.06609,-0.73071 -0.26292,0.0876 -0.3943,0.62846 -0.6134,0.73071 -0.21912,0.10223 -0.8621,0.0584 -1.28571,-0.21911 -0.42357,-0.27753 -0.2483,-1.00814 -0.2775,-1.3441 -0.0292,-0.33595 -0.30664,-0.48178 -0.6134,-0.90537 -0.30675,-0.42361 -0.37983,-1.70937 -0.59893,-2.10375 -0.21912,-0.39438 -0.4233,-0.90521 -0.74466,-1.19734 -0.32134,-0.29214 -0.62063,-0.99374 -0.62063,-0.99374 l -0.51832,-0.30645 -0.52348,0.31833 c 0,0 -0.39523,0.52351 -0.77721,0.56844 -0.38196,0.045 -1.49401,-0.14625 -1.84227,-0.10128 -0.34827,0.045 -1.62875,0.0676 -1.96577,0.31471 -0.33704,0.24715 -0.96624,0.59565 -1.30328,0.49454 -0.33703,-0.10107 -1.96632,0.38165 -2.26963,0.40411 -0.30334,0.0225 -1.02236,-0.22451 -1.1684,-0.46044 -0.14603,-0.23592 -1.0109,-1.23603 -1.23558,-1.3596 -0.22468,-0.12356 -1.05585,-0.19104 -1.28055,-0.3483 -0.22467,-0.15738 -0.33703,-0.4042 -0.56172,-0.6289 -0.22469,-0.22469 -1.13491,-0.69676 -1.31465,-0.75293 -0.17987,-0.0561 -0.6179,-0.42659 -0.86506,-0.70745 -0.24716,-0.28088 -0.53946,-0.5507 -0.96635,-0.44958 -0.42693,0.10107 -1.26902,-0.18003 -1.34772,-0.35967 -0.0786,-0.17986 -0.41563,-0.5617 -0.73019,-0.77515 -0.31456,-0.21347 -0.71944,-0.56169 -0.89917,-0.77515 -0.17968,-0.21345 -0.94982,-1.04955 -0.94982,-1.04955 0,0 0.073,-0.21713 0.2279,-0.36173 0.15494,-0.1446 0.58827,-0.25843 0.86713,-0.28939 0.27888,-0.031 1.4155,-0.77472 1.53944,-0.92966 0.12393,-0.15493 0.21645,-0.67153 0.19585,-1.06402 -0.0207,-0.39249 -0.18571,-0.89834 -0.28887,-1.21852 -0.1033,-0.32019 0.20663,-1.08438 0.12403,-1.39424 -0.0824,-0.30985 -0.1537,-1.47717 -0.1447,-1.89032 0.0103,-0.41314 -0.12414,-0.79548 -0.3514,-1.07435 -0.22722,-0.27887 -0.58861,-0.82601 -0.68161,-1.15652 -0.093,-0.33051 0.15637,-0.84707 0.16537,-0.99167 0.0104,-0.1446 -2e-5,-1.27038 -0.093,-1.53893 -0.093,-0.26854 -0.33034,-0.47498 -0.52659,-0.56792 -0.19622,-0.093 -0.40274,-0.0309 -0.67127,0.1757 -0.26857,0.20657 -0.69212,0.19587 -0.92966,0.23719 -0.23757,0.0413 -0.83684,0.28941 -1.12603,0.33073 -0.2892,0.0413 -0.51623,-0.27866 -0.56793,-0.46457 -0.0517,-0.18591 -0.12407,-0.84705 -0.19637,-0.98133 -0.0723,-0.13427 -0.32939,-1.20842 -0.32039,-1.54926 0.0103,-0.34085 0.18606,-1.4047 0.37207,-1.60094 0.18591,-0.19624 0.88828,-0.87805 1.64227,-0.98134 0.754,-0.10328 1.49772,-0.59908 1.74564,-0.83663 0.24788,-0.23756 0.67142,-0.5784 0.86765,-0.78497 0.19625,-0.20657 -0.0621,-1.03307 -0.0827,-1.11569 -0.0207,-0.0826 -0.68176,-0.71231 -0.83664,-1.02216 -0.15486,-0.30986 -0.20669,-0.86784 -0.11369,-1.16738 0.0929,-0.29952 0.25812,-1.91067 0.60927,-2.21019 0.35119,-0.29953 0.51639,-1.10505 0.72295,-1.41491 0.20657,-0.30986 0.36192,-0.28941 0.60979,-0.31006 0.24789,-0.0207 0.33013,-0.71282 0.24753,-1.02267 -0.0826,-0.30986 -0.36114,-1.30134 -0.27854,-1.49759 0.0826,-0.19624 0.54721,-1.01209 0.50591,-1.42523 -0.0413,-0.41314 0.0931,-0.6818 0.26872,-0.971 0.17559,-0.2892 0.0101,-1.93136 -0.24805,-2.26188 -0.25821,-0.33051 -0.63016,-0.69216 -0.95033,-1.02268 -0.32032,-0.33051 -0.20663,-0.69171 -0.18603,-1.13584 0.0207,-0.44413 -0.3614,-0.48547 -0.64027,-0.83664 -0.27888,-0.35118 -0.85702,-0.85742 -1.19787,-0.99168 -0.34083,-0.13427 -1.42569,-0.22701 -2.10736,-0.46457 -0.68168,-0.23755 -2.04507,-1.48747 -2.3859,-1.83864 -0.34083,-0.35117 -1.12552,-2.01383 -1.12552,-2.01383 0,0 -0.82645,-0.53707 -0.98133,-0.7643 -0.15491,-0.22723 -1.0637,-0.65069 -1.39423,-0.77463 -0.33051,-0.12394 -1.00216,-0.38239 -1.22938,-0.33073 -0.22722,0.0516 -0.60944,0.19596 -0.88832,0.37156 -0.27888,0.17558 -0.87765,0.77475 -1.13585,0.96066 -0.25823,0.18592 -1.19849,0.0723 -1.40508,0.0413 -0.20654,-0.031 -2.23063,0.29978 -2.63343,0.39274 -0.40282,0.093 -0.84717,0.5061 -1.09503,0.7953 -0.24788,0.2892 -0.49555,1.14644 -0.51624,1.53893 -0.0207,0.39248 -0.29942,1.38382 -0.65061,1.39423 -0.35117,0.0103 -1.02287,-0.25798 -1.34307,-0.43357 -0.32017,-0.17558 -1.06348,-0.33092 -1.14618,-0.63045 -0.0827,-0.29953 -0.3114,-0.92938 -0.3204,-1.29088 -0.0103,-0.3615 -0.12369,-0.16534 -0.4439,-0.14469 -0.32017,0.0207 -0.77466,0.4544 -0.96066,0.71262 l -0.10232,0.95033 -0.13333,0.23874 -1.10742,0.71624 -0.73174,0.0775 -0.5302,0.3545 -0.29301,-0.64182 -0.38189,-0.55242 -0.93379,-0.8077 -0.60668,-0.0873 -0.39016,0.12558 -0.52865,-0.0346 -0.64905,-0.35191 -0.70901,-0.50437 -0.45681,-0.38498 -0.524,-0.31575 -0.11989,-0.53743 -1.55185,-0.13953 -0.61805,0.006 -0.4501,0.10748 -0.40049,0.34675 -0.25528,-0.91571 -0.26355,-0.45216 -0.64079,-0.36432 -1.39836,-0.55139 -0.69764,-0.25115 -0.62631,-0.0739 -0.37259,0.17002 0.0326,0.55294 0.33693,0.34468 0.2682,0.35915 0.0796,0.51005 -0.56896,1.01182 -0.0894,0.47491 0.0667,0.49403 -0.0553,0.51573 -0.0946,0.33176 -0.25683,0.33693 -0.4718,0.20774 -0.42427,0.35708 -0.42168,0.66353 -0.0667,0.3886 0.10594,0.38138 0.65681,0.51108 0.1235,0.43253 -0.23254,0.18345 -1.63608,0.32401 -0.62115,-0.10955 -0.47956,-0.39274 -0.66869,-0.98702 -0.92191,-0.86403 -0.76119,-0.29766 -0.75138,-0.18242 -0.44545,-0.16381 -0.13177,-0.36794 0.0274,-0.47697 -0.34469,-0.14005 -1.25573,0.10646 -0.57723,-0.14728 -0.18035,-0.41496 -0.47335,-0.36329 -0.700737,0.0155 -1.128615,0.28163 -0.340029,-0.21135 -0.668695,-0.8661 -0.247012,-0.092 -0.15141,-0.0563 -0.357603,0.27802 -0.434081,0.34106 -0.27337,0.0568 -0.478007,-0.0233 -0.567923,-0.0832 -0.276468,-0.31316 0.270266,-0.29145 0.564306,-0.42116 0.237197,-0.17622 0.487825,-0.3607 0.148312,-0.28629 -0.121957,-0.29611 -0.385506,-0.37982 -0.314192,-0.40256 -0.152445,-0.7121 0.09922,-0.67903 0.183449,-0.54622 0.05219,-0.54777 -0.402043,-0.52968 -0.411345,-0.25735 -0.585494,-0.0956 -0.474906,0.16536 -1.052131,-0.30747 -0.668176,0.17673 -0.705901,0.51728 -0.71882,-0.0842 -1.055748,0.0284 0.01809,-0.70073 0.224274,-0.58808 0.04393,-0.40049 -0.02946,-0.55914 -0.100769,-0.50798 -0.234096,-0.76843 -0.02791,-0.64285 -0.183449,-0.3720702 -0.358635,-1.45418 c -0.189902,0.0584 -0.408733,0.0731 -0.686263,0.32143 -0.277524,0.24832 -0.628499,-0.0145 -0.891418,-0.11679 -0.26293,-0.10225 -0.700789,0.33573 -1.080556,0.18965 -0.37978,-0.14607 -0.175638,-0.62801 -0.292489,-0.8325 -0.116848,-0.20449 -0.467034,-0.32103 -0.91984,-0.36484 -0.452808,-0.0438 -0.701394,0.30648 -0.905888,0.46716 -0.204512,0.16067 -0.598556,-0.39444 -0.80305,-0.59893 -0.204497,-0.20451 -0.584467,0.0733 -0.803569,0.13177 -0.21912,0.0584 -0.07332,0.43795 -0.190169,0.68626 -0.116856,0.24832 -0.905177,-0.17537 -1.03663,-0.32142 -0.131474,-0.14607 -0.35062,-0.70102 -0.598929,-0.8909 -0.248312,-0.18989 -0.891339,-0.27767 -1.285711,-0.42375 -0.394388,-0.14606 -0.510847,-0.18952 -0.91984,-0.20412 -0.408993,-0.0146 -0.321469,-0.21912 -0.701249,-0.43822 -0.37977,-0.21911 -0.963917,0.13129 -1.387512,-0.14624 -0.423598,-0.27753 -0.876742,-0.35069 -1.227315,-0.48214 -0.350557,-0.13147 -1.095282,0.1899 -1.343588,0.2191 -0.248312,0.0292 -0.569601,-0.4821 -1.051616,-0.54053 -0.482034,-0.0584 -0.408951,0.13167 -0.774113,0.30696 -0.36518,0.17528 -0.788836,0.0146 -1.037145,0 -0.248333,-0.0146 -0.394518,0.24833 -0.423746,0.65732 -0.02923,0.40899 -0.321369,0.58413 -0.438216,0.73019 -0.116854,0.14607 -0.817804,0.0876 -1.007693,-0.21911 -0.189891,-0.30674 -0.321505,-0.83265 -0.642855,-1.03715 -0.321347,-0.20449 -0.715756,0.14632 -1.095539,0.24857 -0.379765,0.10224 -0.949582,-0.0145 -1.358575,-0.17519 -0.408977,-0.16067 -1.416799,-0.97896 -1.708938,-1.28571 -0.292127,-0.30674 -0.744773,-0.52577 -0.788583,-1.05161 -0.04381,-0.52585 0.131564,-1.05176 0.04393,-1.25625 -0.08763,-0.2045 -0.511297,-0.11652 -0.818039,-0.14573 -0.306744,-0.0292 -1.533943,0.0292 -1.680001,0 -0.146076,-0.0292 -0.525851,-0.24868 -0.657325,-0.5116 -0.131453,-0.26292 0.233804,-0.61334 0.263035,-0.73019 0.02921,-0.11685 0.175485,-0.42339 -0.131259,-0.56947 -0.07668,-0.0365 -0.177218,-0.0531 -0.29042,-0.0558 z"
     style="display:inline;fill:#a30000;fill-opacity:1;stroke:none;stroke-width:2.90120935;stroke-linejoin:bevel;stroke-miterlimit:4;stroke-dasharray:none;stroke-dashoffset:0;stroke-opacity:1"
     id="path953" />
</svg>
